<svg xmlns="http://www.w3.org/2000/svg" xmlns:xlink="http://www.w3.org/1999/xlink" width="500" zoomAndPan="magnify" viewBox="0 0 375 374.999991" height="500" preserveAspectRatio="xMidYMid meet" version="1.0"><defs><g/><linearGradient x1="0" gradientTransform="matrix(0.75, 0, 0, 0.75, 0.0000045, 0)" y1="0" x2="0" gradientUnits="userSpaceOnUse" y2="499.999979" id="86ea65eef3"><stop stop-opacity="1" stop-color="rgb(0%, 0%, 0%)" offset="0"/><stop stop-opacity="1" stop-color="rgb(0.213623%, 0.125122%, 0.389099%)" offset="0.00390625"/><stop stop-opacity="1" stop-color="rgb(0.428772%, 0.250244%, 0.779724%)" offset="0.0078125"/><stop stop-opacity="1" stop-color="rgb(0.642395%, 0.375366%, 1.170349%)" offset="0.0117187"/><stop stop-opacity="1" stop-color="rgb(0.857544%, 0.502014%, 1.560974%)" offset="0.015625"/><stop stop-opacity="1" stop-color="rgb(1.071167%, 0.627136%, 1.951599%)" offset="0.0195312"/><stop stop-opacity="1" stop-color="rgb(1.286316%, 0.753784%, 2.342224%)" offset="0.0234375"/><stop stop-opacity="1" stop-color="rgb(1.499939%, 0.878906%, 2.732849%)" offset="0.0273438"/><stop stop-opacity="1" stop-color="rgb(1.715088%, 1.005554%, 3.123474%)" offset="0.03125"/><stop stop-opacity="1" stop-color="rgb(1.928711%, 1.130676%, 3.514099%)" offset="0.0351562"/><stop stop-opacity="1" stop-color="rgb(2.14386%, 1.257324%, 3.904724%)" offset="0.0390625"/><stop stop-opacity="1" stop-color="rgb(2.357483%, 1.382446%, 4.295349%)" offset="0.0429687"/><stop stop-opacity="1" stop-color="rgb(2.572632%, 1.509094%, 4.685974%)" offset="0.046875"/><stop stop-opacity="1" stop-color="rgb(2.786255%, 1.634216%, 5.076599%)" offset="0.0507812"/><stop stop-opacity="1" stop-color="rgb(3.001404%, 1.760864%, 5.467224%)" offset="0.0546875"/><stop stop-opacity="1" stop-color="rgb(3.215027%, 1.885986%, 5.857849%)" offset="0.0585938"/><stop stop-opacity="1" stop-color="rgb(3.430176%, 2.011108%, 6.248474%)" offset="0.0625"/><stop stop-opacity="1" stop-color="rgb(3.643799%, 2.13623%, 6.639099%)" offset="0.0664062"/><stop stop-opacity="1" stop-color="rgb(3.858948%, 2.262878%, 7.029724%)" offset="0.0703125"/><stop stop-opacity="1" stop-color="rgb(4.072571%, 2.388%, 7.420349%)" offset="0.0742187"/><stop stop-opacity="1" stop-color="rgb(4.28772%, 2.514648%, 7.810974%)" offset="0.078125"/><stop stop-opacity="1" stop-color="rgb(4.501343%, 2.639771%, 8.201599%)" offset="0.0820312"/><stop stop-opacity="1" stop-color="rgb(4.716492%, 2.766418%, 8.592224%)" offset="0.0859375"/><stop stop-opacity="1" stop-color="rgb(4.931641%, 2.891541%, 8.982849%)" offset="0.0898437"/><stop stop-opacity="1" stop-color="rgb(5.14679%, 3.018188%, 9.373474%)" offset="0.09375"/><stop stop-opacity="1" stop-color="rgb(5.360413%, 3.143311%, 9.764099%)" offset="0.0976562"/><stop stop-opacity="1" stop-color="rgb(5.575562%, 3.269958%, 10.154724%)" offset="0.101562"/><stop stop-opacity="1" stop-color="rgb(5.789185%, 3.395081%, 10.545349%)" offset="0.105469"/><stop stop-opacity="1" stop-color="rgb(6.004333%, 3.521729%, 10.935974%)" offset="0.109375"/><stop stop-opacity="1" stop-color="rgb(6.217957%, 3.646851%, 11.326599%)" offset="0.113281"/><stop stop-opacity="1" stop-color="rgb(6.433105%, 3.771973%, 11.717224%)" offset="0.117188"/><stop stop-opacity="1" stop-color="rgb(6.646729%, 3.897095%, 12.107849%)" offset="0.121094"/><stop stop-opacity="1" stop-color="rgb(6.861877%, 4.023743%, 12.498474%)" offset="0.125"/><stop stop-opacity="1" stop-color="rgb(7.0755%, 4.148865%, 12.889099%)" offset="0.128906"/><stop stop-opacity="1" stop-color="rgb(7.290649%, 4.275513%, 13.279724%)" offset="0.132812"/><stop stop-opacity="1" stop-color="rgb(7.504272%, 4.400635%, 13.670349%)" offset="0.136719"/><stop stop-opacity="1" stop-color="rgb(7.719421%, 4.527283%, 14.060974%)" offset="0.140625"/><stop stop-opacity="1" stop-color="rgb(7.933044%, 4.652405%, 14.451599%)" offset="0.144531"/><stop stop-opacity="1" stop-color="rgb(8.148193%, 4.779053%, 14.842224%)" offset="0.148437"/><stop stop-opacity="1" stop-color="rgb(8.361816%, 4.904175%, 15.232849%)" offset="0.152344"/><stop stop-opacity="1" stop-color="rgb(8.576965%, 5.030823%, 15.623474%)" offset="0.15625"/><stop stop-opacity="1" stop-color="rgb(8.790588%, 5.155945%, 16.014099%)" offset="0.160156"/><stop stop-opacity="1" stop-color="rgb(9.005737%, 5.282593%, 16.404724%)" offset="0.164062"/><stop stop-opacity="1" stop-color="rgb(9.21936%, 5.407715%, 16.795349%)" offset="0.167969"/><stop stop-opacity="1" stop-color="rgb(9.434509%, 5.534363%, 17.185974%)" offset="0.171875"/><stop stop-opacity="1" stop-color="rgb(9.649658%, 5.659485%, 17.576599%)" offset="0.175781"/><stop stop-opacity="1" stop-color="rgb(9.864807%, 5.784607%, 17.967224%)" offset="0.179687"/><stop stop-opacity="1" stop-color="rgb(10.07843%, 5.909729%, 18.357849%)" offset="0.183594"/><stop stop-opacity="1" stop-color="rgb(10.293579%, 6.036377%, 18.748474%)" offset="0.1875"/><stop stop-opacity="1" stop-color="rgb(10.507202%, 6.161499%, 19.139099%)" offset="0.191406"/><stop stop-opacity="1" stop-color="rgb(10.722351%, 6.288147%, 19.529724%)" offset="0.195312"/><stop stop-opacity="1" stop-color="rgb(10.935974%, 6.413269%, 19.920349%)" offset="0.199219"/><stop stop-opacity="1" stop-color="rgb(11.151123%, 6.539917%, 20.310974%)" offset="0.203125"/><stop stop-opacity="1" stop-color="rgb(11.364746%, 6.665039%, 20.701599%)" offset="0.207031"/><stop stop-opacity="1" stop-color="rgb(11.579895%, 6.791687%, 21.092224%)" offset="0.210938"/><stop stop-opacity="1" stop-color="rgb(11.793518%, 6.916809%, 21.482849%)" offset="0.214844"/><stop stop-opacity="1" stop-color="rgb(12.008667%, 7.043457%, 21.873474%)" offset="0.21875"/><stop stop-opacity="1" stop-color="rgb(12.22229%, 7.168579%, 22.264099%)" offset="0.222656"/><stop stop-opacity="1" stop-color="rgb(12.437439%, 7.295227%, 22.654724%)" offset="0.226562"/><stop stop-opacity="1" stop-color="rgb(12.651062%, 7.420349%, 23.045349%)" offset="0.230469"/><stop stop-opacity="1" stop-color="rgb(12.866211%, 7.545471%, 23.435974%)" offset="0.234375"/><stop stop-opacity="1" stop-color="rgb(13.079834%, 7.670593%, 23.826599%)" offset="0.238281"/><stop stop-opacity="1" stop-color="rgb(13.294983%, 7.797241%, 24.217224%)" offset="0.242188"/><stop stop-opacity="1" stop-color="rgb(13.508606%, 7.922363%, 24.607849%)" offset="0.246094"/><stop stop-opacity="1" stop-color="rgb(13.723755%, 8.049011%, 24.998474%)" offset="0.25"/><stop stop-opacity="1" stop-color="rgb(13.937378%, 8.174133%, 25.389099%)" offset="0.253906"/><stop stop-opacity="1" stop-color="rgb(14.152527%, 8.300781%, 25.779724%)" offset="0.257812"/><stop stop-opacity="1" stop-color="rgb(14.36615%, 8.425903%, 26.170349%)" offset="0.261719"/><stop stop-opacity="1" stop-color="rgb(14.581299%, 8.552551%, 26.560974%)" offset="0.265625"/><stop stop-opacity="1" stop-color="rgb(14.796448%, 8.677673%, 26.951599%)" offset="0.269531"/><stop stop-opacity="1" stop-color="rgb(15.011597%, 8.804321%, 27.342224%)" offset="0.273437"/><stop stop-opacity="1" stop-color="rgb(15.22522%, 8.929443%, 27.732849%)" offset="0.277344"/><stop stop-opacity="1" stop-color="rgb(15.440369%, 9.056091%, 28.123474%)" offset="0.28125"/><stop stop-opacity="1" stop-color="rgb(15.653992%, 9.181213%, 28.514099%)" offset="0.285156"/><stop stop-opacity="1" stop-color="rgb(15.869141%, 9.306335%, 28.904724%)" offset="0.289062"/><stop stop-opacity="1" stop-color="rgb(16.082764%, 9.431458%, 29.295349%)" offset="0.292969"/><stop stop-opacity="1" stop-color="rgb(16.297913%, 9.558105%, 29.685974%)" offset="0.296875"/><stop stop-opacity="1" stop-color="rgb(16.511536%, 9.683228%, 30.076599%)" offset="0.300781"/><stop stop-opacity="1" stop-color="rgb(16.726685%, 9.809875%, 30.467224%)" offset="0.304687"/><stop stop-opacity="1" stop-color="rgb(16.940308%, 9.934998%, 30.857849%)" offset="0.308594"/><stop stop-opacity="1" stop-color="rgb(17.155457%, 10.061646%, 31.248474%)" offset="0.3125"/><stop stop-opacity="1" stop-color="rgb(17.36908%, 10.186768%, 31.639099%)" offset="0.316406"/><stop stop-opacity="1" stop-color="rgb(17.584229%, 10.313416%, 32.029724%)" offset="0.320312"/><stop stop-opacity="1" stop-color="rgb(17.797852%, 10.438538%, 32.420349%)" offset="0.324219"/><stop stop-opacity="1" stop-color="rgb(18.013%, 10.565186%, 32.810974%)" offset="0.328125"/><stop stop-opacity="1" stop-color="rgb(18.226624%, 10.690308%, 33.201599%)" offset="0.332031"/><stop stop-opacity="1" stop-color="rgb(18.441772%, 10.816956%, 33.592224%)" offset="0.335937"/><stop stop-opacity="1" stop-color="rgb(18.655396%, 10.942078%, 33.982849%)" offset="0.339844"/><stop stop-opacity="1" stop-color="rgb(18.870544%, 11.068726%, 34.373474%)" offset="0.34375"/><stop stop-opacity="1" stop-color="rgb(19.084167%, 11.193848%, 34.764099%)" offset="0.347656"/><stop stop-opacity="1" stop-color="rgb(19.299316%, 11.31897%, 35.154724%)" offset="0.351562"/><stop stop-opacity="1" stop-color="rgb(19.514465%, 11.444092%, 35.545349%)" offset="0.355469"/><stop stop-opacity="1" stop-color="rgb(19.729614%, 11.57074%, 35.935974%)" offset="0.359375"/><stop stop-opacity="1" stop-color="rgb(19.943237%, 11.695862%, 36.326599%)" offset="0.363281"/><stop stop-opacity="1" stop-color="rgb(20.158386%, 11.82251%, 36.717224%)" offset="0.367187"/><stop stop-opacity="1" stop-color="rgb(20.372009%, 11.947632%, 37.107849%)" offset="0.371094"/><stop stop-opacity="1" stop-color="rgb(20.587158%, 12.07428%, 37.498474%)" offset="0.375"/><stop stop-opacity="1" stop-color="rgb(20.800781%, 12.199402%, 37.889099%)" offset="0.378906"/><stop stop-opacity="1" stop-color="rgb(21.01593%, 12.32605%, 38.279724%)" offset="0.382812"/><stop stop-opacity="1" stop-color="rgb(21.229553%, 12.451172%, 38.670349%)" offset="0.386719"/><stop stop-opacity="1" stop-color="rgb(21.444702%, 12.57782%, 39.060974%)" offset="0.390625"/><stop stop-opacity="1" stop-color="rgb(21.658325%, 12.702942%, 39.451599%)" offset="0.394531"/><stop stop-opacity="1" stop-color="rgb(21.873474%, 12.82959%, 39.842224%)" offset="0.398438"/><stop stop-opacity="1" stop-color="rgb(22.087097%, 12.954712%, 40.232849%)" offset="0.402344"/><stop stop-opacity="1" stop-color="rgb(22.302246%, 13.079834%, 40.623474%)" offset="0.40625"/><stop stop-opacity="1" stop-color="rgb(22.515869%, 13.204956%, 41.014099%)" offset="0.410156"/><stop stop-opacity="1" stop-color="rgb(22.731018%, 13.331604%, 41.404724%)" offset="0.414062"/><stop stop-opacity="1" stop-color="rgb(22.944641%, 13.456726%, 41.795349%)" offset="0.417969"/><stop stop-opacity="1" stop-color="rgb(23.15979%, 13.583374%, 42.185974%)" offset="0.421875"/><stop stop-opacity="1" stop-color="rgb(23.373413%, 13.708496%, 42.576599%)" offset="0.425781"/><stop stop-opacity="1" stop-color="rgb(23.588562%, 13.835144%, 42.967224%)" offset="0.429688"/><stop stop-opacity="1" stop-color="rgb(23.802185%, 13.960266%, 43.357849%)" offset="0.433594"/><stop stop-opacity="1" stop-color="rgb(24.017334%, 14.086914%, 43.748474%)" offset="0.4375"/><stop stop-opacity="1" stop-color="rgb(24.232483%, 14.212036%, 44.139099%)" offset="0.441406"/><stop stop-opacity="1" stop-color="rgb(24.447632%, 14.338684%, 44.529724%)" offset="0.445312"/><stop stop-opacity="1" stop-color="rgb(24.661255%, 14.463806%, 44.920349%)" offset="0.449219"/><stop stop-opacity="1" stop-color="rgb(24.876404%, 14.590454%, 45.310974%)" offset="0.453125"/><stop stop-opacity="1" stop-color="rgb(25.090027%, 14.715576%, 45.701599%)" offset="0.457031"/><stop stop-opacity="1" stop-color="rgb(25.305176%, 14.840698%, 46.092224%)" offset="0.460938"/><stop stop-opacity="1" stop-color="rgb(25.518799%, 14.96582%, 46.482849%)" offset="0.464844"/><stop stop-opacity="1" stop-color="rgb(25.733948%, 15.092468%, 46.873474%)" offset="0.46875"/><stop stop-opacity="1" stop-color="rgb(25.947571%, 15.21759%, 47.264099%)" offset="0.472656"/><stop stop-opacity="1" stop-color="rgb(26.16272%, 15.344238%, 47.654724%)" offset="0.476562"/><stop stop-opacity="1" stop-color="rgb(26.376343%, 15.46936%, 48.045349%)" offset="0.480469"/><stop stop-opacity="1" stop-color="rgb(26.591492%, 15.596008%, 48.435974%)" offset="0.484375"/><stop stop-opacity="1" stop-color="rgb(26.805115%, 15.72113%, 48.826599%)" offset="0.488281"/><stop stop-opacity="1" stop-color="rgb(27.020264%, 15.847778%, 49.217224%)" offset="0.492188"/><stop stop-opacity="1" stop-color="rgb(27.233887%, 15.9729%, 49.607849%)" offset="0.496094"/><stop stop-opacity="1" stop-color="rgb(27.449036%, 16.099548%, 49.998474%)" offset="0.5"/><stop stop-opacity="1" stop-color="rgb(27.662659%, 16.22467%, 50.389099%)" offset="0.503906"/><stop stop-opacity="1" stop-color="rgb(27.877808%, 16.351318%, 50.779724%)" offset="0.507812"/><stop stop-opacity="1" stop-color="rgb(28.091431%, 16.47644%, 51.170349%)" offset="0.511719"/><stop stop-opacity="1" stop-color="rgb(28.30658%, 16.603088%, 51.560974%)" offset="0.515625"/><stop stop-opacity="1" stop-color="rgb(28.520203%, 16.72821%, 51.951599%)" offset="0.519531"/><stop stop-opacity="1" stop-color="rgb(28.735352%, 16.853333%, 52.342224%)" offset="0.523437"/><stop stop-opacity="1" stop-color="rgb(28.948975%, 16.978455%, 52.732849%)" offset="0.527344"/><stop stop-opacity="1" stop-color="rgb(29.164124%, 17.105103%, 53.123474%)" offset="0.53125"/><stop stop-opacity="1" stop-color="rgb(29.379272%, 17.230225%, 53.514099%)" offset="0.535156"/><stop stop-opacity="1" stop-color="rgb(29.594421%, 17.356873%, 53.904724%)" offset="0.539062"/><stop stop-opacity="1" stop-color="rgb(29.808044%, 17.481995%, 54.295349%)" offset="0.542969"/><stop stop-opacity="1" stop-color="rgb(30.023193%, 17.608643%, 54.685974%)" offset="0.546875"/><stop stop-opacity="1" stop-color="rgb(30.236816%, 17.733765%, 55.076599%)" offset="0.550781"/><stop stop-opacity="1" stop-color="rgb(30.451965%, 17.860413%, 55.467224%)" offset="0.554687"/><stop stop-opacity="1" stop-color="rgb(30.665588%, 17.985535%, 55.857849%)" offset="0.558594"/><stop stop-opacity="1" stop-color="rgb(30.880737%, 18.112183%, 56.248474%)" offset="0.5625"/><stop stop-opacity="1" stop-color="rgb(31.09436%, 18.237305%, 56.639099%)" offset="0.566406"/><stop stop-opacity="1" stop-color="rgb(31.309509%, 18.363953%, 57.029724%)" offset="0.570312"/><stop stop-opacity="1" stop-color="rgb(31.523132%, 18.489075%, 57.420349%)" offset="0.574219"/><stop stop-opacity="1" stop-color="rgb(31.738281%, 18.614197%, 57.810974%)" offset="0.578125"/><stop stop-opacity="1" stop-color="rgb(31.951904%, 18.739319%, 58.201599%)" offset="0.582031"/><stop stop-opacity="1" stop-color="rgb(32.167053%, 18.865967%, 58.592224%)" offset="0.585937"/><stop stop-opacity="1" stop-color="rgb(32.380676%, 18.991089%, 58.982849%)" offset="0.589844"/><stop stop-opacity="1" stop-color="rgb(32.595825%, 19.117737%, 59.373474%)" offset="0.59375"/><stop stop-opacity="1" stop-color="rgb(32.809448%, 19.242859%, 59.764099%)" offset="0.597656"/><stop stop-opacity="1" stop-color="rgb(33.024597%, 19.369507%, 60.154724%)" offset="0.601562"/><stop stop-opacity="1" stop-color="rgb(33.23822%, 19.494629%, 60.545349%)" offset="0.605469"/><stop stop-opacity="1" stop-color="rgb(33.453369%, 19.621277%, 60.935974%)" offset="0.609375"/><stop stop-opacity="1" stop-color="rgb(33.666992%, 19.746399%, 61.326599%)" offset="0.613281"/><stop stop-opacity="1" stop-color="rgb(33.882141%, 19.873047%, 61.717224%)" offset="0.617187"/><stop stop-opacity="1" stop-color="rgb(34.09729%, 19.998169%, 62.107849%)" offset="0.621094"/><stop stop-opacity="1" stop-color="rgb(34.312439%, 20.124817%, 62.498474%)" offset="0.625"/><stop stop-opacity="1" stop-color="rgb(34.526062%, 20.249939%, 62.889099%)" offset="0.628906"/><stop stop-opacity="1" stop-color="rgb(34.741211%, 20.375061%, 63.279724%)" offset="0.632812"/><stop stop-opacity="1" stop-color="rgb(34.954834%, 20.500183%, 63.670349%)" offset="0.636719"/><stop stop-opacity="1" stop-color="rgb(35.169983%, 20.626831%, 64.060974%)" offset="0.640625"/><stop stop-opacity="1" stop-color="rgb(35.383606%, 20.751953%, 64.451599%)" offset="0.644531"/><stop stop-opacity="1" stop-color="rgb(35.598755%, 20.878601%, 64.842224%)" offset="0.648437"/><stop stop-opacity="1" stop-color="rgb(35.812378%, 21.003723%, 65.232849%)" offset="0.652344"/><stop stop-opacity="1" stop-color="rgb(36.027527%, 21.130371%, 65.623474%)" offset="0.65625"/><stop stop-opacity="1" stop-color="rgb(36.24115%, 21.255493%, 66.014099%)" offset="0.660156"/><stop stop-opacity="1" stop-color="rgb(36.456299%, 21.382141%, 66.404724%)" offset="0.664062"/><stop stop-opacity="1" stop-color="rgb(36.669922%, 21.507263%, 66.795349%)" offset="0.667969"/><stop stop-opacity="1" stop-color="rgb(36.885071%, 21.633911%, 67.185974%)" offset="0.671875"/><stop stop-opacity="1" stop-color="rgb(37.098694%, 21.759033%, 67.576599%)" offset="0.675781"/><stop stop-opacity="1" stop-color="rgb(37.313843%, 21.885681%, 67.967224%)" offset="0.679687"/><stop stop-opacity="1" stop-color="rgb(37.527466%, 22.010803%, 68.357849%)" offset="0.683594"/><stop stop-opacity="1" stop-color="rgb(37.742615%, 22.137451%, 68.748474%)" offset="0.6875"/><stop stop-opacity="1" stop-color="rgb(37.956238%, 22.262573%, 69.139099%)" offset="0.691406"/><stop stop-opacity="1" stop-color="rgb(38.171387%, 22.387695%, 69.529724%)" offset="0.695312"/><stop stop-opacity="1" stop-color="rgb(38.38501%, 22.512817%, 69.920349%)" offset="0.699219"/><stop stop-opacity="1" stop-color="rgb(38.600159%, 22.639465%, 70.310974%)" offset="0.703125"/><stop stop-opacity="1" stop-color="rgb(38.815308%, 22.764587%, 70.701599%)" offset="0.707031"/><stop stop-opacity="1" stop-color="rgb(39.030457%, 22.891235%, 71.092224%)" offset="0.710937"/><stop stop-opacity="1" stop-color="rgb(39.24408%, 23.016357%, 71.482849%)" offset="0.714844"/><stop stop-opacity="1" stop-color="rgb(39.459229%, 23.143005%, 71.873474%)" offset="0.71875"/><stop stop-opacity="1" stop-color="rgb(39.672852%, 23.268127%, 72.264099%)" offset="0.722656"/><stop stop-opacity="1" stop-color="rgb(39.888%, 23.394775%, 72.654724%)" offset="0.726562"/><stop stop-opacity="1" stop-color="rgb(40.101624%, 23.519897%, 73.045349%)" offset="0.730469"/><stop stop-opacity="1" stop-color="rgb(40.316772%, 23.646545%, 73.435974%)" offset="0.734375"/><stop stop-opacity="1" stop-color="rgb(40.530396%, 23.771667%, 73.826599%)" offset="0.738281"/><stop stop-opacity="1" stop-color="rgb(40.745544%, 23.898315%, 74.217224%)" offset="0.742187"/><stop stop-opacity="1" stop-color="rgb(40.959167%, 24.023438%, 74.607849%)" offset="0.746094"/><stop stop-opacity="1" stop-color="rgb(41.174316%, 24.14856%, 74.998474%)" offset="0.75"/><stop stop-opacity="1" stop-color="rgb(41.387939%, 24.273682%, 75.389099%)" offset="0.753906"/><stop stop-opacity="1" stop-color="rgb(41.603088%, 24.40033%, 75.779724%)" offset="0.757812"/><stop stop-opacity="1" stop-color="rgb(41.816711%, 24.525452%, 76.170349%)" offset="0.761719"/><stop stop-opacity="1" stop-color="rgb(42.03186%, 24.6521%, 76.560974%)" offset="0.765625"/><stop stop-opacity="1" stop-color="rgb(42.245483%, 24.777222%, 76.951599%)" offset="0.769531"/><stop stop-opacity="1" stop-color="rgb(42.460632%, 24.90387%, 77.342224%)" offset="0.773438"/><stop stop-opacity="1" stop-color="rgb(42.674255%, 25.028992%, 77.732849%)" offset="0.777344"/><stop stop-opacity="1" stop-color="rgb(42.889404%, 25.15564%, 78.123474%)" offset="0.78125"/><stop stop-opacity="1" stop-color="rgb(43.103027%, 25.280762%, 78.514099%)" offset="0.785156"/><stop stop-opacity="1" stop-color="rgb(43.318176%, 25.40741%, 78.904724%)" offset="0.789062"/><stop stop-opacity="1" stop-color="rgb(43.531799%, 25.532532%, 79.295349%)" offset="0.792969"/><stop stop-opacity="1" stop-color="rgb(43.746948%, 25.65918%, 79.685974%)" offset="0.796875"/><stop stop-opacity="1" stop-color="rgb(43.962097%, 25.784302%, 80.076599%)" offset="0.800781"/><stop stop-opacity="1" stop-color="rgb(44.177246%, 25.909424%, 80.467224%)" offset="0.804688"/><stop stop-opacity="1" stop-color="rgb(44.390869%, 26.034546%, 80.857849%)" offset="0.808594"/><stop stop-opacity="1" stop-color="rgb(44.606018%, 26.161194%, 81.248474%)" offset="0.8125"/><stop stop-opacity="1" stop-color="rgb(44.819641%, 26.286316%, 81.639099%)" offset="0.816406"/><stop stop-opacity="1" stop-color="rgb(45.03479%, 26.412964%, 82.029724%)" offset="0.820312"/><stop stop-opacity="1" stop-color="rgb(45.248413%, 26.538086%, 82.420349%)" offset="0.824219"/><stop stop-opacity="1" stop-color="rgb(45.463562%, 26.664734%, 82.810974%)" offset="0.828125"/><stop stop-opacity="1" stop-color="rgb(45.677185%, 26.789856%, 83.201599%)" offset="0.832031"/><stop stop-opacity="1" stop-color="rgb(45.892334%, 26.916504%, 83.592224%)" offset="0.835938"/><stop stop-opacity="1" stop-color="rgb(46.105957%, 27.041626%, 83.982849%)" offset="0.839844"/><stop stop-opacity="1" stop-color="rgb(46.321106%, 27.168274%, 84.373474%)" offset="0.84375"/><stop stop-opacity="1" stop-color="rgb(46.534729%, 27.293396%, 84.764099%)" offset="0.847656"/><stop stop-opacity="1" stop-color="rgb(46.749878%, 27.420044%, 85.154724%)" offset="0.851562"/><stop stop-opacity="1" stop-color="rgb(46.963501%, 27.545166%, 85.545349%)" offset="0.855469"/><stop stop-opacity="1" stop-color="rgb(47.17865%, 27.671814%, 85.935974%)" offset="0.859375"/><stop stop-opacity="1" stop-color="rgb(47.392273%, 27.796936%, 86.326599%)" offset="0.863281"/><stop stop-opacity="1" stop-color="rgb(47.607422%, 27.922058%, 86.717224%)" offset="0.867188"/><stop stop-opacity="1" stop-color="rgb(47.821045%, 28.04718%, 87.107849%)" offset="0.871094"/><stop stop-opacity="1" stop-color="rgb(48.036194%, 28.173828%, 87.498474%)" offset="0.875"/><stop stop-opacity="1" stop-color="rgb(48.249817%, 28.29895%, 87.889099%)" offset="0.878906"/><stop stop-opacity="1" stop-color="rgb(48.464966%, 28.425598%, 88.279724%)" offset="0.882812"/><stop stop-opacity="1" stop-color="rgb(48.680115%, 28.55072%, 88.670349%)" offset="0.886719"/><stop stop-opacity="1" stop-color="rgb(48.895264%, 28.677368%, 89.060974%)" offset="0.890625"/><stop stop-opacity="1" stop-color="rgb(49.108887%, 28.80249%, 89.451599%)" offset="0.894531"/><stop stop-opacity="1" stop-color="rgb(49.324036%, 28.929138%, 89.842224%)" offset="0.898438"/><stop stop-opacity="1" stop-color="rgb(49.537659%, 29.05426%, 90.232849%)" offset="0.902344"/><stop stop-opacity="1" stop-color="rgb(49.752808%, 29.180908%, 90.623474%)" offset="0.90625"/><stop stop-opacity="1" stop-color="rgb(49.966431%, 29.30603%, 91.014099%)" offset="0.910156"/><stop stop-opacity="1" stop-color="rgb(50.18158%, 29.432678%, 91.404724%)" offset="0.914062"/><stop stop-opacity="1" stop-color="rgb(50.395203%, 29.5578%, 91.795349%)" offset="0.917969"/><stop stop-opacity="1" stop-color="rgb(50.610352%, 29.682922%, 92.185974%)" offset="0.921875"/><stop stop-opacity="1" stop-color="rgb(50.823975%, 29.808044%, 92.576599%)" offset="0.925781"/><stop stop-opacity="1" stop-color="rgb(51.039124%, 29.934692%, 92.967224%)" offset="0.929688"/><stop stop-opacity="1" stop-color="rgb(51.252747%, 30.059814%, 93.357849%)" offset="0.933594"/><stop stop-opacity="1" stop-color="rgb(51.467896%, 30.186462%, 93.748474%)" offset="0.9375"/><stop stop-opacity="1" stop-color="rgb(51.681519%, 30.311584%, 94.139099%)" offset="0.941406"/><stop stop-opacity="1" stop-color="rgb(51.896667%, 30.438232%, 94.529724%)" offset="0.945312"/><stop stop-opacity="1" stop-color="rgb(52.110291%, 30.563354%, 94.920349%)" offset="0.949219"/><stop stop-opacity="1" stop-color="rgb(52.325439%, 30.690002%, 95.310974%)" offset="0.953125"/><stop stop-opacity="1" stop-color="rgb(52.539062%, 30.815125%, 95.701599%)" offset="0.957031"/><stop stop-opacity="1" stop-color="rgb(52.754211%, 30.941772%, 96.092224%)" offset="0.960938"/><stop stop-opacity="1" stop-color="rgb(52.967834%, 31.066895%, 96.482849%)" offset="0.964844"/><stop stop-opacity="1" stop-color="rgb(53.182983%, 31.193542%, 96.873474%)" offset="0.96875"/><stop stop-opacity="1" stop-color="rgb(53.396606%, 31.318665%, 97.264099%)" offset="0.972656"/><stop stop-opacity="1" stop-color="rgb(53.611755%, 31.443787%, 97.654724%)" offset="0.976562"/><stop stop-opacity="1" stop-color="rgb(53.826904%, 31.568909%, 98.045349%)" offset="0.980469"/><stop stop-opacity="1" stop-color="rgb(54.042053%, 31.695557%, 98.435974%)" offset="0.984375"/><stop stop-opacity="1" stop-color="rgb(54.255676%, 31.820679%, 98.826599%)" offset="0.988281"/><stop stop-opacity="1" stop-color="rgb(54.470825%, 31.947327%, 99.217224%)" offset="0.992188"/><stop stop-opacity="1" stop-color="rgb(54.684448%, 32.072449%, 99.607849%)" offset="0.996094"/><stop stop-opacity="1" stop-color="rgb(54.899597%, 32.199097%, 99.998474%)" offset="1"/></linearGradient><clipPath id="15359bc04f"><path d="M 129.140625 110.195312 L 246.140625 110.195312 L 246.140625 205.445312 L 129.140625 205.445312 Z M 129.140625 110.195312 " clip-rule="nonzero"/></clipPath><clipPath id="b6c5ce2ba1"><path d="M 168.144531 139.089844 L 237.894531 139.089844 L 237.894531 169.839844 L 168.144531 169.839844 Z M 168.144531 139.089844 " clip-rule="nonzero"/></clipPath></defs><rect x="-37.5" width="450" fill="#ffffff" y="-37.499999" height="449.999989" fill-opacity="1"/><rect x="-37.5" fill="url(#86ea65eef3)" width="450" y="-37.499999" height="449.999989"/><g clip-path="url(#15359bc04f)"><path fill="#000000" d="M 234.125 184.21875 L 234.078125 205.425781 L 216.726562 185.84375 L 180 185.84375 C 169.078125 185.84375 160.21875 177.007812 160.21875 166.109375 L 160.21875 143.148438 C 160.21875 132.25 169.074219 123.414062 180 123.414062 L 226.292969 123.414062 C 237.21875 123.414062 246.074219 132.25 246.074219 143.148438 L 246.074219 166.109375 C 246.074219 174.230469 241.148438 181.191406 234.125 184.21875 Z M 153.84375 143.089844 L 153.84375 159.53125 L 139.082031 175.984375 L 139.054688 158.15625 C 133.226562 155.621094 129.140625 149.835938 129.140625 143.089844 L 129.140625 126.660156 C 129.140625 117.578125 136.519531 110.21875 145.628906 110.21875 L 184.789062 110.21875 C 190.15625 110.21875 194.878906 112.816406 197.886719 116.777344 L 180.21875 116.777344 C 165.652344 116.777344 153.84375 128.554688 153.84375 143.089844 Z M 153.84375 143.089844 " fill-opacity="1" fill-rule="evenodd"/></g><g clip-path="url(#b6c5ce2ba1)"><path fill="#ffffff" d="M 237.859375 154.5625 C 237.859375 154.644531 237.796875 154.71875 237.738281 154.773438 C 237.566406 154.9375 236.417969 155.136719 235.945312 155.191406 C 235.90625 155.199219 235.867188 155.203125 235.828125 155.210938 C 235.824219 155.210938 235.824219 155.210938 235.824219 155.210938 C 234.820312 155.359375 234.160156 155.871094 233.4375 156.898438 C 232.828125 157.71875 232.375 158.636719 231.972656 159.574219 C 231.597656 160.433594 231.28125 161.34375 230.640625 162.050781 C 230.144531 162.574219 229.441406 162.957031 228.71875 163.035156 C 227.617188 163.125 226.492188 162.574219 225.808594 161.71875 C 224.871094 160.6875 224.269531 158.089844 223.964844 157.414062 C 223.757812 156.921875 223.535156 156.433594 223.21875 156 C 223.144531 155.917969 223.0625 155.84375 222.976562 155.769531 C 222.976562 155.769531 222.972656 155.765625 222.96875 155.765625 C 222.917969 155.726562 222.824219 155.675781 222.753906 155.640625 C 222.726562 155.632812 222.703125 155.628906 222.683594 155.621094 L 222.65625 155.621094 C 222.640625 155.628906 222.625 155.640625 222.609375 155.648438 C 222.570312 155.6875 222.535156 155.726562 222.5 155.769531 C 222.472656 155.8125 222.4375 155.871094 222.410156 155.921875 C 222.046875 156.621094 221.917969 157.082031 221.875 157.972656 C 221.792969 159.449219 221.84375 160.925781 221.789062 162.40625 C 221.691406 164.808594 221.617188 167.835938 219.320312 169.234375 C 218.660156 169.59375 217.878906 169.566406 217.222656 169.214844 C 215.804688 168.507812 215.089844 166.355469 214.667969 164.914062 C 214.257812 163.234375 213.90625 161.539062 213.4375 159.871094 C 212.984375 158.210938 212.511719 156.785156 211.695312 155.902344 C 211.390625 155.675781 211.277344 155.589844 210.632812 155.457031 C 210.539062 155.453125 210.414062 155.457031 210.347656 155.457031 C 209.996094 155.535156 210.1875 155.496094 209.742188 155.707031 C 209.375 155.941406 209.632812 155.738281 209.304688 156.054688 C 209.296875 156.0625 209.289062 156.070312 209.28125 156.074219 C 209.257812 156.113281 209.230469 156.148438 209.210938 156.191406 C 209.195312 156.222656 209.179688 156.246094 209.171875 156.265625 C 209.148438 156.328125 209.121094 156.390625 209.101562 156.453125 C 208.742188 157.757812 208.609375 159.113281 208.363281 160.441406 C 208.203125 161.179688 208.085938 161.984375 207.609375 162.597656 C 207.113281 163.226562 206.285156 163.617188 205.476562 163.554688 C 205.269531 163.539062 205.074219 163.480469 204.886719 163.398438 L 204.882812 163.394531 C 204.871094 163.390625 204.855469 163.382812 204.839844 163.378906 C 204.835938 163.375 204.835938 163.375 204.832031 163.375 C 204.832031 163.375 204.832031 163.371094 204.828125 163.371094 C 204.816406 163.367188 204.804688 163.363281 204.796875 163.359375 C 204.796875 163.355469 204.792969 163.355469 204.792969 163.355469 C 204.789062 163.355469 204.785156 163.351562 204.785156 163.351562 L 204.78125 163.351562 C 204.339844 163.15625 203.945312 162.855469 203.609375 162.511719 C 203.046875 161.886719 202.722656 161.097656 202.429688 160.316406 C 201.890625 158.949219 201.601562 157.234375 201.085938 156.300781 C 200.707031 155.652344 200.542969 155.476562 199.875 155.289062 C 199.851562 155.289062 199.828125 155.289062 199.800781 155.292969 C 199.773438 155.289062 199.746094 155.292969 199.722656 155.292969 C 199.65625 155.308594 199.59375 155.324219 199.53125 155.347656 C 199.472656 155.378906 199.402344 155.425781 199.367188 155.445312 C 199.332031 155.476562 199.296875 155.503906 199.261719 155.535156 C 198.890625 155.964844 198.992188 155.742188 198.796875 156.371094 C 198.578125 157.324219 198.578125 157.554688 198.472656 158.5 C 198.253906 160.488281 198.058594 162.484375 197.691406 164.453125 C 197.390625 165.859375 197.070312 167.332031 196.277344 168.554688 C 196.097656 168.816406 195.855469 169.023438 195.621094 169.234375 C 195.410156 169.414062 195.195312 169.605469 194.929688 169.703125 C 194.199219 170.046875 193.445312 169.703125 192.828125 169.28125 C 192.191406 168.824219 191.925781 168.03125 191.539062 167.378906 C 190.597656 165.457031 190.300781 163.300781 190.0625 161.195312 C 189.8125 159.28125 189.789062 157.589844 188.820312 156.148438 C 188.367188 155.476562 187.316406 155.113281 186.878906 155.316406 C 186.449219 155.582031 186.335938 155.839844 186.113281 156.738281 C 185.910156 157.734375 185.722656 158.734375 185.429688 159.710938 C 185.199219 160.425781 184.9375 161.152344 184.5 161.765625 C 184.121094 162.234375 183.578125 162.597656 182.988281 162.726562 C 182.539062 162.832031 182.117188 162.582031 181.746094 162.355469 C 180.582031 161.570312 180.410156 160.011719 180.132812 158.742188 C 179.875 157.269531 179.324219 155.851562 178.863281 155.5 C 178.539062 155.289062 178.703125 155.335938 178.378906 155.265625 C 178.363281 155.265625 178.335938 155.265625 178.308594 155.269531 C 178.296875 155.273438 178.265625 155.28125 178.230469 155.292969 C 178.21875 155.300781 178.195312 155.3125 178.164062 155.328125 C 177.769531 155.546875 177.707031 155.675781 177.488281 155.9375 C 177.128906 156.488281 176.867188 157.09375 176.441406 157.597656 C 176.101562 158.023438 175.628906 158.335938 175.125 158.53125 C 174.035156 159.070312 173.03125 158.113281 172.273438 157.425781 C 171.386719 156.523438 170.8125 155.90625 169.808594 155.398438 C 169.777344 155.386719 169.75 155.375 169.722656 155.363281 C 169.679688 155.347656 169.644531 155.332031 169.601562 155.316406 C 169.40625 155.246094 169.207031 155.1875 169.003906 155.132812 C 168.804688 155.0625 168.570312 155.070312 168.394531 154.9375 C 168.277344 154.859375 168.210938 154.707031 168.21875 154.566406 C 168.210938 154.421875 168.277344 154.269531 168.394531 154.191406 C 168.570312 154.0625 168.804688 154.066406 169.003906 153.996094 C 169.203125 153.941406 169.40625 153.882812 169.601562 153.8125 C 169.644531 153.796875 169.679688 153.78125 169.722656 153.765625 C 169.75 153.753906 169.777344 153.742188 169.808594 153.730469 C 170.8125 153.222656 171.386719 152.605469 172.273438 151.703125 C 173.03125 151.015625 174.035156 150.058594 175.125 150.597656 C 175.628906 150.796875 176.101562 151.105469 176.441406 151.53125 C 176.867188 152.035156 177.128906 152.640625 177.488281 153.191406 C 177.707031 153.453125 177.769531 153.582031 178.164062 153.800781 C 178.195312 153.816406 178.21875 153.828125 178.230469 153.835938 C 178.265625 153.847656 178.296875 153.855469 178.308594 153.859375 C 178.335938 153.863281 178.363281 153.863281 178.378906 153.863281 C 178.703125 153.792969 178.539062 153.839844 178.863281 153.628906 C 179.324219 153.277344 179.875 151.859375 180.132812 150.386719 C 180.410156 149.117188 180.582031 147.558594 181.746094 146.773438 C 182.117188 146.546875 182.539062 146.296875 182.988281 146.402344 C 183.578125 146.53125 184.121094 146.894531 184.5 147.363281 C 184.9375 147.976562 185.199219 148.703125 185.429688 149.417969 C 185.722656 150.394531 185.910156 151.394531 186.113281 152.390625 C 186.335938 153.289062 186.449219 153.546875 186.878906 153.8125 C 187.316406 154.015625 188.367188 153.652344 188.820312 152.980469 C 189.789062 151.542969 189.8125 149.847656 190.0625 147.933594 C 190.300781 145.828125 190.597656 143.671875 191.539062 141.75 C 191.925781 141.097656 192.191406 140.304688 192.828125 139.847656 C 193.445312 139.425781 194.199219 139.085938 194.929688 139.425781 C 195.195312 139.523438 195.410156 139.714844 195.621094 139.894531 C 195.855469 140.105469 196.097656 140.3125 196.277344 140.574219 C 197.066406 141.796875 197.390625 143.269531 197.691406 144.675781 C 198.058594 146.644531 198.253906 148.640625 198.472656 150.628906 C 198.578125 151.574219 198.578125 151.804688 198.796875 152.757812 C 198.992188 153.386719 198.890625 153.164062 199.261719 153.59375 C 199.296875 153.625 199.332031 153.652344 199.367188 153.683594 C 199.402344 153.703125 199.472656 153.75 199.53125 153.78125 C 199.59375 153.804688 199.65625 153.824219 199.722656 153.835938 C 199.746094 153.835938 199.773438 153.839844 199.800781 153.835938 C 199.828125 153.839844 199.851562 153.839844 199.875 153.835938 C 200.542969 153.652344 200.707031 153.476562 201.085938 152.828125 C 201.601562 151.894531 201.890625 150.179688 202.429688 148.808594 C 202.722656 148.03125 203.046875 147.242188 203.609375 146.617188 C 203.945312 146.273438 204.339844 145.972656 204.78125 145.777344 C 204.78125 145.777344 204.785156 145.777344 204.792969 145.773438 C 204.792969 145.773438 204.792969 145.773438 204.796875 145.769531 C 204.804688 145.769531 204.816406 145.761719 204.828125 145.757812 C 204.832031 145.753906 204.835938 145.753906 204.839844 145.753906 C 204.847656 145.75 204.859375 145.746094 204.867188 145.742188 C 204.875 145.738281 204.878906 145.738281 204.882812 145.734375 C 204.890625 145.730469 204.898438 145.726562 204.902344 145.726562 C 205.085938 145.644531 205.277344 145.589844 205.476562 145.574219 C 206.285156 145.511719 207.109375 145.902344 207.609375 146.53125 C 208.085938 147.144531 208.203125 147.949219 208.363281 148.6875 C 208.609375 150.019531 208.742188 151.371094 209.101562 152.675781 C 209.121094 152.738281 209.148438 152.800781 209.171875 152.863281 C 209.179688 152.882812 209.191406 152.90625 209.210938 152.941406 C 209.230469 152.980469 209.257812 153.015625 209.28125 153.054688 C 209.289062 153.0625 209.292969 153.066406 209.300781 153.078125 C 209.628906 153.386719 209.375 153.1875 209.742188 153.421875 C 210.1875 153.632812 209.996094 153.59375 210.347656 153.671875 C 210.414062 153.671875 210.539062 153.675781 210.632812 153.671875 C 211.277344 153.539062 211.390625 153.453125 211.691406 153.226562 C 212.511719 152.34375 212.984375 150.917969 213.4375 149.257812 C 213.90625 147.589844 214.257812 145.894531 214.664062 144.214844 C 215.089844 142.773438 215.804688 140.621094 217.222656 139.914062 C 217.878906 139.5625 218.660156 139.535156 219.320312 139.894531 C 221.617188 141.292969 221.691406 144.320312 221.789062 146.726562 C 221.84375 148.203125 221.792969 149.683594 221.875 151.15625 C 221.917969 152.046875 222.046875 152.507812 222.410156 153.207031 C 222.4375 153.257812 222.472656 153.320312 222.5 153.359375 C 222.535156 153.402344 222.570312 153.441406 222.609375 153.480469 C 222.625 153.488281 222.640625 153.496094 222.652344 153.507812 L 222.683594 153.507812 C 222.703125 153.503906 222.726562 153.496094 222.753906 153.488281 C 222.820312 153.453125 222.917969 153.402344 222.96875 153.363281 C 222.972656 153.363281 222.976562 153.363281 222.976562 153.359375 C 223.0625 153.289062 223.144531 153.210938 223.21875 153.128906 C 223.535156 152.695312 223.757812 152.207031 223.964844 151.714844 C 224.269531 151.039062 224.871094 148.441406 225.808594 147.410156 C 226.492188 146.558594 227.617188 146.003906 228.71875 146.09375 C 229.441406 146.171875 230.144531 146.554688 230.640625 147.078125 C 231.28125 147.785156 231.597656 148.695312 231.972656 149.554688 C 232.375 150.492188 232.828125 151.414062 233.4375 152.230469 C 234.160156 153.257812 234.816406 153.765625 235.816406 153.917969 C 235.859375 153.925781 235.902344 153.933594 235.945312 153.9375 C 236.324219 153.976562 237.59375 154.210938 237.738281 154.355469 C 237.796875 154.410156 237.859375 154.484375 237.859375 154.5625 Z M 237.859375 154.5625 " fill-opacity="1" fill-rule="nonzero"/></g><g fill="#ffffff" fill-opacity="1"><g transform="translate(93.434262, 236.841603)"><g><path d="M 14.902344 0 L 14.902344 -17.078125 L 20.816406 -17.078125 L 20.816406 -24.449219 L 0.414062 -24.449219 L 0.414062 -17.078125 L 6.34375 -17.078125 L 6.34375 0 Z M 14.902344 0 "/></g></g></g><g fill="#ffffff" fill-opacity="1"><g transform="translate(114.662441, 236.841603)"><g><path d="M 9.617188 0 L 9.617188 -9.113281 C 9.617188 -11.234375 10.75 -12.511719 12.117188 -12.511719 C 13.410156 -12.511719 14.292969 -11.757812 14.292969 -9.671875 L 14.292969 0 L 22.46875 0 L 22.46875 -10.03125 C 22.46875 -15.980469 20.097656 -19.523438 14.992188 -19.523438 C 12.761719 -19.523438 10.820312 -18.875 9.457031 -17.472656 L 9.597656 -19.394531 L 9.597656 -25.347656 L 1.4375 -25.347656 L 1.4375 0 Z M 9.617188 0 "/></g></g></g><g fill="#ffffff" fill-opacity="1"><g transform="translate(138.496958, 236.841603)"><g><path d="M 5.589844 6.632812 C 10.28125 6.632812 13.339844 6.039062 15.566406 -0.324219 L 22.074219 -18.875 L 13.554688 -18.839844 L 11.539062 -10.820312 L 11.164062 -8.898438 L 10.984375 -8.898438 L 10.605469 -10.820312 L 8.519531 -18.855469 L 0.0546875 -18.855469 L 6.292969 -1.402344 L 6.09375 -0.828125 C 5.789062 0.199219 5.140625 0.574219 3.882812 0.574219 L 0.808594 0.574219 L 0.808594 6.632812 Z M 5.589844 6.632812 "/></g></g></g><g fill="#ffffff" fill-opacity="1"><g transform="translate(160.605899, 236.841603)"><g><path d="M 9.617188 0 L 9.617188 -9.113281 C 9.617188 -11.488281 10.75 -12.511719 12.132812 -12.511719 C 13.339844 -12.511719 14.292969 -11.792969 14.292969 -9.6875 L 14.292969 0 L 22.488281 0 L 22.488281 -10.03125 C 22.488281 -15.980469 20.097656 -19.523438 14.992188 -19.523438 C 12.457031 -19.523438 10.410156 -18.605469 9.148438 -17.222656 L 8.789062 -18.875 L 1.4375 -18.875 L 1.4375 0 Z M 9.617188 0 "/></g></g></g><g fill="#ffffff" fill-opacity="1"><g transform="translate(184.45839, 236.841603)"><g><path d="M 23.007812 0 L 17.597656 -11.109375 L 22.558594 -18.875 L 13.175781 -18.875 L 9.617188 -12.152344 L 9.617188 -25.347656 L 1.4375 -25.347656 L 1.4375 0 L 9.617188 0 L 9.617188 -5.265625 L 11.144531 -6.632812 L 14.074219 0 Z M 23.007812 0 "/></g></g></g><g fill="#ffffff" fill-opacity="1"><g transform="translate(207.555943, 236.841603)"><g><path d="M 15.242188 0 L 15.242188 -6.21875 L 12.582031 -6.21875 C 11.648438 -6.21875 11.128906 -6.847656 11.128906 -7.890625 L 11.128906 -12.546875 L 15.242188 -12.546875 L 15.242188 -18.875 L 11.128906 -18.875 L 11.128906 -24.070312 L 4.1875 -24.035156 L 3.183594 -18.875 L 0.125 -18.875 L 0.125 -12.546875 L 2.949219 -12.546875 L 2.949219 -7.585938 C 2.949219 -0.628906 7.226562 0 10.589844 0 Z M 15.242188 0 "/></g></g></g><g fill="#ffffff" fill-opacity="1"><g transform="translate(223.553469, 236.841603)"><g><path d="M 9.382812 0.664062 C 11.59375 0.664062 13.480469 -0.0703125 14.777344 -1.5625 L 15.082031 0 L 22.433594 0 L 22.433594 -18.875 L 15.082031 -18.875 L 14.777344 -17.273438 C 13.5 -18.785156 11.59375 -19.523438 9.328125 -19.523438 C 4.457031 -19.523438 0.699219 -15.226562 0.699219 -9.417969 C 0.699219 -3.46875 4.546875 0.664062 9.382812 0.664062 Z M 11.539062 -6.34375 C 10.046875 -6.34375 8.773438 -7.316406 8.773438 -9.4375 C 8.773438 -11.433594 9.996094 -12.511719 11.539062 -12.511719 C 13.121094 -12.511719 14.308594 -11.179688 14.308594 -9.4375 C 14.308594 -7.640625 13.140625 -6.34375 11.539062 -6.34375 Z M 11.539062 -6.34375 "/></g></g></g><g fill="#ffffff" fill-opacity="1"><g transform="translate(247.423936, 236.841603)"><g><path d="M 9.617188 0 L 9.617188 -25.347656 L 1.4375 -25.347656 L 1.4375 0 Z M 9.617188 0 "/></g></g></g><g fill="#ffffff" fill-opacity="1"><g transform="translate(258.460431, 236.841603)"><g><path d="M 23.007812 0 L 17.597656 -11.109375 L 22.558594 -18.875 L 13.175781 -18.875 L 9.617188 -12.152344 L 9.617188 -25.347656 L 1.4375 -25.347656 L 1.4375 0 L 9.617188 0 L 9.617188 -5.265625 L 11.144531 -6.632812 L 14.074219 0 Z M 23.007812 0 "/></g></g></g><g fill="#ffffff" fill-opacity="1"><g transform="translate(115.349996, 260.184943)"><g><path d="M 2.261719 0 L 2.261719 -2.902344 L 4.664062 -2.902344 C 6.292969 -2.902344 7.460938 -4.058594 7.460938 -5.71875 C 7.460938 -7.324219 6.289062 -8.492188 4.640625 -8.492188 L 1.15625 -8.492188 L 1.15625 0 Z M 2.261719 -7.5 L 4.601562 -7.5 C 5.601562 -7.5 6.355469 -6.6875 6.355469 -5.714844 C 6.355469 -4.683594 5.605469 -3.902344 4.613281 -3.902344 L 2.261719 -3.902344 Z M 2.261719 -7.5 "/></g></g></g><g fill="#ffffff" fill-opacity="1"><g transform="translate(125.765497, 260.184943)"><g><path d="M 5.039062 0.167969 C 7.550781 0.167969 9.585938 -1.796875 9.585938 -4.253906 C 9.585938 -6.726562 7.550781 -8.679688 5.039062 -8.679688 C 2.535156 -8.679688 0.503906 -6.726562 0.503906 -4.253906 C 0.503906 -1.796875 2.535156 0.167969 5.039062 0.167969 Z M 5.039062 -0.855469 C 3.148438 -0.855469 1.609375 -2.324219 1.609375 -4.253906 C 1.609375 -6.1875 3.140625 -7.660156 5.039062 -7.660156 C 6.941406 -7.660156 8.480469 -6.1875 8.480469 -4.253906 C 8.480469 -2.324219 6.941406 -0.855469 5.039062 -0.855469 Z M 5.039062 -0.855469 "/></g></g></g><g fill="#ffffff" fill-opacity="1"><g transform="translate(138.553245, 260.184943)"><g><path d="M 4.277344 0 C 6.957031 0 8.734375 -1.699219 8.734375 -4.253906 C 8.734375 -6.792969 6.941406 -8.492188 4.257812 -8.492188 L 1.15625 -8.492188 L 1.15625 0 Z M 2.242188 -7.503906 L 4.226562 -7.503906 C 6.335938 -7.503906 7.617188 -6.199219 7.617188 -4.226562 C 7.617188 -2.261719 6.332031 -1 4.253906 -1 L 2.242188 -1 Z M 2.242188 -7.503906 "/></g></g></g><g fill="#ffffff" fill-opacity="1"><g transform="translate(150.498227, 260.184943)"><g><path d="M 4.933594 0.167969 C 6.742188 0.167969 8.484375 -0.847656 8.910156 -2.902344 L 7.78125 -2.902344 C 7.398438 -1.535156 6.269531 -0.855469 4.902344 -0.855469 C 3.054688 -0.855469 1.609375 -2.246094 1.609375 -4.253906 C 1.609375 -6.242188 3.054688 -7.660156 4.902344 -7.660156 C 6.273438 -7.660156 7.398438 -6.980469 7.785156 -5.605469 L 8.910156 -5.605469 C 8.484375 -7.65625 6.730469 -8.679688 4.933594 -8.679688 C 2.441406 -8.679688 0.503906 -6.726562 0.503906 -4.253906 C 0.503906 -1.796875 2.441406 0.167969 4.933594 0.167969 Z M 4.933594 0.167969 "/></g></g></g><g fill="#ffffff" fill-opacity="1"><g transform="translate(162.618005, 260.184943)"><g><path d="M 8.328125 0 L 4.738281 -8.492188 L 3.675781 -8.492188 L 0.0820312 0 L 1.253906 0 L 2.058594 -1.921875 L 6.351562 -1.921875 L 7.15625 0 Z M 4.164062 -6.9375 L 4.203125 -7.082031 L 4.214844 -7.082031 L 4.246094 -6.9375 L 5.957031 -2.859375 L 2.453125 -2.859375 Z M 4.164062 -6.9375 "/></g></g></g><g fill="#ffffff" fill-opacity="1"><g transform="translate(173.726458, 260.184943)"><g><path d="M 3.800781 0.179688 C 5.886719 0.179688 7.160156 -0.753906 7.160156 -2.347656 C 7.160156 -4.089844 5.582031 -4.609375 4.171875 -4.832031 C 2.648438 -5.039062 1.792969 -5.417969 1.792969 -6.3125 C 1.792969 -7.011719 2.214844 -7.703125 3.753906 -7.703125 C 5.027344 -7.703125 5.714844 -7.105469 5.714844 -6.261719 L 6.824219 -6.261719 C 6.824219 -7.679688 5.761719 -8.679688 3.765625 -8.679688 C 1.554688 -8.679688 0.6875 -7.585938 0.6875 -6.320312 C 0.6875 -4.601562 2.410156 -4.132812 3.828125 -3.894531 C 5.09375 -3.703125 6.042969 -3.347656 6.042969 -2.347656 C 6.042969 -1.296875 5.246094 -0.769531 3.796875 -0.769531 C 2.398438 -0.769531 1.574219 -1.566406 1.574219 -2.460938 L 0.46875 -2.460938 C 0.46875 -1.175781 1.5 0.179688 3.800781 0.179688 Z M 3.800781 0.179688 "/></g></g></g><g fill="#ffffff" fill-opacity="1"><g transform="translate(184.023354, 260.184943)"><g><path d="M 4.097656 0 L 4.097656 -7.5 L 6.789062 -7.5 L 6.789062 -8.492188 L 0.304688 -8.492188 L 0.304688 -7.5 L 2.992188 -7.5 L 2.992188 0 Z M 4.097656 0 "/></g></g></g><g fill="#ffffff" fill-opacity="1"><g transform="translate(193.820829, 260.184943)"><g/></g></g><g fill="#ffffff" fill-opacity="1"><g transform="translate(199.679122, 260.184943)"><g><path d="M 3.800781 0.179688 C 5.886719 0.179688 7.160156 -0.753906 7.160156 -2.347656 C 7.160156 -4.089844 5.582031 -4.609375 4.171875 -4.832031 C 2.648438 -5.039062 1.792969 -5.417969 1.792969 -6.3125 C 1.792969 -7.011719 2.214844 -7.703125 3.753906 -7.703125 C 5.027344 -7.703125 5.714844 -7.105469 5.714844 -6.261719 L 6.824219 -6.261719 C 6.824219 -7.679688 5.761719 -8.679688 3.765625 -8.679688 C 1.554688 -8.679688 0.6875 -7.585938 0.6875 -6.320312 C 0.6875 -4.601562 2.410156 -4.132812 3.828125 -3.894531 C 5.09375 -3.703125 6.042969 -3.347656 6.042969 -2.347656 C 6.042969 -1.296875 5.246094 -0.769531 3.796875 -0.769531 C 2.398438 -0.769531 1.574219 -1.566406 1.574219 -2.460938 L 0.46875 -2.460938 C 0.46875 -1.175781 1.5 0.179688 3.800781 0.179688 Z M 3.800781 0.179688 "/></g></g></g><g fill="#ffffff" fill-opacity="1"><g transform="translate(209.976017, 260.184943)"><g><path d="M 4.097656 0 L 4.097656 -7.5 L 6.789062 -7.5 L 6.789062 -8.492188 L 0.304688 -8.492188 L 0.304688 -7.5 L 2.992188 -7.5 L 2.992188 0 Z M 4.097656 0 "/></g></g></g><g fill="#ffffff" fill-opacity="1"><g transform="translate(219.773492, 260.184943)"><g><path d="M 4.507812 0.175781 C 6.5625 0.175781 8.023438 -1.242188 8.023438 -3.289062 L 8.023438 -8.496094 L 6.917969 -8.496094 L 6.917969 -3.359375 C 6.917969 -1.972656 6.019531 -0.847656 4.507812 -0.847656 C 2.960938 -0.847656 2.089844 -1.992188 2.089844 -3.371094 L 2.089844 -8.496094 L 0.992188 -8.496094 L 0.992188 -3.289062 C 0.992188 -1.1875 2.527344 0.175781 4.507812 0.175781 Z M 4.507812 0.175781 "/></g></g></g><g fill="#ffffff" fill-opacity="1"><g transform="translate(231.487481, 260.184943)"><g><path d="M 4.277344 0 C 6.957031 0 8.734375 -1.699219 8.734375 -4.253906 C 8.734375 -6.792969 6.941406 -8.492188 4.257812 -8.492188 L 1.15625 -8.492188 L 1.15625 0 Z M 2.242188 -7.503906 L 4.226562 -7.503906 C 6.335938 -7.503906 7.617188 -6.199219 7.617188 -4.226562 C 7.617188 -2.261719 6.332031 -1 4.253906 -1 L 2.242188 -1 Z M 2.242188 -7.503906 "/></g></g></g><g fill="#ffffff" fill-opacity="1"><g transform="translate(243.432457, 260.184943)"><g><path d="M 2.261719 0 L 2.261719 -8.492188 L 1.15625 -8.492188 L 1.15625 0 Z M 2.261719 0 "/></g></g></g><g fill="#ffffff" fill-opacity="1"><g transform="translate(249.546703, 260.184943)"><g><path d="M 5.039062 0.167969 C 7.550781 0.167969 9.585938 -1.796875 9.585938 -4.253906 C 9.585938 -6.726562 7.550781 -8.679688 5.039062 -8.679688 C 2.535156 -8.679688 0.503906 -6.726562 0.503906 -4.253906 C 0.503906 -1.796875 2.535156 0.167969 5.039062 0.167969 Z M 5.039062 -0.855469 C 3.148438 -0.855469 1.609375 -2.324219 1.609375 -4.253906 C 1.609375 -6.1875 3.140625 -7.660156 5.039062 -7.660156 C 6.941406 -7.660156 8.480469 -6.1875 8.480469 -4.253906 C 8.480469 -2.324219 6.941406 -0.855469 5.039062 -0.855469 Z M 5.039062 -0.855469 "/></g></g></g></svg>