<svg xmlns="http://www.w3.org/2000/svg" xmlns:xlink="http://www.w3.org/1999/xlink" width="500" zoomAndPan="magnify" viewBox="0 0 375 374.999991" height="500" preserveAspectRatio="xMidYMid meet" version="1.0"><defs><g/><linearGradient x1="0" gradientTransform="matrix(0.75, 0, 0, 0.75, 0.0000045, 0)" y1="0" x2="499.999979" gradientUnits="userSpaceOnUse" y2="0" id="15ba5abc1a"><stop stop-opacity="1" stop-color="rgb(0%, 0%, 0%)" offset="0"/><stop stop-opacity="1" stop-color="rgb(0.0808716%, 0.0778198%, 0.312805%)" offset="0.00390625"/><stop stop-opacity="1" stop-color="rgb(0.161743%, 0.15564%, 0.627136%)" offset="0.0078125"/><stop stop-opacity="1" stop-color="rgb(0.242615%, 0.233459%, 0.941467%)" offset="0.0117187"/><stop stop-opacity="1" stop-color="rgb(0.323486%, 0.311279%, 1.255798%)" offset="0.015625"/><stop stop-opacity="1" stop-color="rgb(0.404358%, 0.389099%, 1.568604%)" offset="0.0195312"/><stop stop-opacity="1" stop-color="rgb(0.486755%, 0.468445%, 1.882935%)" offset="0.0234375"/><stop stop-opacity="1" stop-color="rgb(0.567627%, 0.546265%, 2.197266%)" offset="0.0273438"/><stop stop-opacity="1" stop-color="rgb(0.648499%, 0.624084%, 2.511597%)" offset="0.03125"/><stop stop-opacity="1" stop-color="rgb(0.72937%, 0.701904%, 2.825928%)" offset="0.0351562"/><stop stop-opacity="1" stop-color="rgb(0.811768%, 0.779724%, 3.140259%)" offset="0.0390625"/><stop stop-opacity="1" stop-color="rgb(0.892639%, 0.857544%, 3.453064%)" offset="0.0429687"/><stop stop-opacity="1" stop-color="rgb(0.973511%, 0.93689%, 3.767395%)" offset="0.046875"/><stop stop-opacity="1" stop-color="rgb(1.054382%, 1.014709%, 4.081726%)" offset="0.0507812"/><stop stop-opacity="1" stop-color="rgb(1.13678%, 1.092529%, 4.396057%)" offset="0.0546875"/><stop stop-opacity="1" stop-color="rgb(1.217651%, 1.170349%, 4.710388%)" offset="0.0585938"/><stop stop-opacity="1" stop-color="rgb(1.298523%, 1.249695%, 5.024719%)" offset="0.0625"/><stop stop-opacity="1" stop-color="rgb(1.379395%, 1.327515%, 5.337524%)" offset="0.0664062"/><stop stop-opacity="1" stop-color="rgb(1.461792%, 1.405334%, 5.651855%)" offset="0.0703125"/><stop stop-opacity="1" stop-color="rgb(1.542664%, 1.483154%, 5.966187%)" offset="0.0742187"/><stop stop-opacity="1" stop-color="rgb(1.623535%, 1.560974%, 6.280518%)" offset="0.078125"/><stop stop-opacity="1" stop-color="rgb(1.704407%, 1.638794%, 6.594849%)" offset="0.0820312"/><stop stop-opacity="1" stop-color="rgb(1.786804%, 1.71814%, 6.90918%)" offset="0.0859375"/><stop stop-opacity="1" stop-color="rgb(1.867676%, 1.795959%, 7.221985%)" offset="0.0898437"/><stop stop-opacity="1" stop-color="rgb(1.948547%, 1.873779%, 7.536316%)" offset="0.09375"/><stop stop-opacity="1" stop-color="rgb(2.029419%, 1.951599%, 7.850647%)" offset="0.0976562"/><stop stop-opacity="1" stop-color="rgb(2.111816%, 2.030945%, 8.164978%)" offset="0.101562"/><stop stop-opacity="1" stop-color="rgb(2.192688%, 2.108765%, 8.479309%)" offset="0.105469"/><stop stop-opacity="1" stop-color="rgb(2.27356%, 2.186584%, 8.79364%)" offset="0.109375"/><stop stop-opacity="1" stop-color="rgb(2.354431%, 2.264404%, 9.106445%)" offset="0.113281"/><stop stop-opacity="1" stop-color="rgb(2.436829%, 2.342224%, 9.420776%)" offset="0.117188"/><stop stop-opacity="1" stop-color="rgb(2.5177%, 2.420044%, 9.735107%)" offset="0.121094"/><stop stop-opacity="1" stop-color="rgb(2.598572%, 2.49939%, 10.049438%)" offset="0.125"/><stop stop-opacity="1" stop-color="rgb(2.679443%, 2.577209%, 10.36377%)" offset="0.128906"/><stop stop-opacity="1" stop-color="rgb(2.761841%, 2.655029%, 10.678101%)" offset="0.132812"/><stop stop-opacity="1" stop-color="rgb(2.842712%, 2.732849%, 10.990906%)" offset="0.136719"/><stop stop-opacity="1" stop-color="rgb(2.923584%, 2.812195%, 11.305237%)" offset="0.140625"/><stop stop-opacity="1" stop-color="rgb(3.004456%, 2.890015%, 11.619568%)" offset="0.144531"/><stop stop-opacity="1" stop-color="rgb(3.086853%, 2.967834%, 11.933899%)" offset="0.148437"/><stop stop-opacity="1" stop-color="rgb(3.167725%, 3.045654%, 12.246704%)" offset="0.152344"/><stop stop-opacity="1" stop-color="rgb(3.248596%, 3.123474%, 12.561035%)" offset="0.15625"/><stop stop-opacity="1" stop-color="rgb(3.329468%, 3.201294%, 12.875366%)" offset="0.160156"/><stop stop-opacity="1" stop-color="rgb(3.411865%, 3.28064%, 13.189697%)" offset="0.164062"/><stop stop-opacity="1" stop-color="rgb(3.492737%, 3.358459%, 13.504028%)" offset="0.167969"/><stop stop-opacity="1" stop-color="rgb(3.573608%, 3.436279%, 13.818359%)" offset="0.171875"/><stop stop-opacity="1" stop-color="rgb(3.65448%, 3.514099%, 14.131165%)" offset="0.175781"/><stop stop-opacity="1" stop-color="rgb(3.736877%, 3.593445%, 14.445496%)" offset="0.179687"/><stop stop-opacity="1" stop-color="rgb(3.817749%, 3.671265%, 14.759827%)" offset="0.183594"/><stop stop-opacity="1" stop-color="rgb(3.898621%, 3.749084%, 15.074158%)" offset="0.1875"/><stop stop-opacity="1" stop-color="rgb(3.979492%, 3.826904%, 15.388489%)" offset="0.191406"/><stop stop-opacity="1" stop-color="rgb(4.06189%, 3.904724%, 15.70282%)" offset="0.195312"/><stop stop-opacity="1" stop-color="rgb(4.142761%, 3.982544%, 16.015625%)" offset="0.199219"/><stop stop-opacity="1" stop-color="rgb(4.223633%, 4.06189%, 16.329956%)" offset="0.203125"/><stop stop-opacity="1" stop-color="rgb(4.304504%, 4.139709%, 16.644287%)" offset="0.207031"/><stop stop-opacity="1" stop-color="rgb(4.386902%, 4.217529%, 16.958618%)" offset="0.210938"/><stop stop-opacity="1" stop-color="rgb(4.467773%, 4.295349%, 17.272949%)" offset="0.214844"/><stop stop-opacity="1" stop-color="rgb(4.548645%, 4.374695%, 17.58728%)" offset="0.21875"/><stop stop-opacity="1" stop-color="rgb(4.629517%, 4.452515%, 17.900085%)" offset="0.222656"/><stop stop-opacity="1" stop-color="rgb(4.711914%, 4.530334%, 18.214417%)" offset="0.226562"/><stop stop-opacity="1" stop-color="rgb(4.792786%, 4.608154%, 18.528748%)" offset="0.230469"/><stop stop-opacity="1" stop-color="rgb(4.873657%, 4.685974%, 18.843079%)" offset="0.234375"/><stop stop-opacity="1" stop-color="rgb(4.954529%, 4.763794%, 19.15741%)" offset="0.238281"/><stop stop-opacity="1" stop-color="rgb(5.036926%, 4.84314%, 19.471741%)" offset="0.242188"/><stop stop-opacity="1" stop-color="rgb(5.117798%, 4.920959%, 19.784546%)" offset="0.246094"/><stop stop-opacity="1" stop-color="rgb(5.198669%, 4.998779%, 20.098877%)" offset="0.25"/><stop stop-opacity="1" stop-color="rgb(5.279541%, 5.076599%, 20.413208%)" offset="0.253906"/><stop stop-opacity="1" stop-color="rgb(5.361938%, 5.155945%, 20.727539%)" offset="0.257812"/><stop stop-opacity="1" stop-color="rgb(5.44281%, 5.233765%, 21.04187%)" offset="0.261719"/><stop stop-opacity="1" stop-color="rgb(5.523682%, 5.311584%, 21.356201%)" offset="0.265625"/><stop stop-opacity="1" stop-color="rgb(5.604553%, 5.389404%, 21.669006%)" offset="0.269531"/><stop stop-opacity="1" stop-color="rgb(5.686951%, 5.467224%, 21.983337%)" offset="0.273437"/><stop stop-opacity="1" stop-color="rgb(5.767822%, 5.545044%, 22.297668%)" offset="0.277344"/><stop stop-opacity="1" stop-color="rgb(5.848694%, 5.62439%, 22.612%)" offset="0.28125"/><stop stop-opacity="1" stop-color="rgb(5.929565%, 5.702209%, 22.924805%)" offset="0.285156"/><stop stop-opacity="1" stop-color="rgb(6.011963%, 5.780029%, 23.239136%)" offset="0.289062"/><stop stop-opacity="1" stop-color="rgb(6.092834%, 5.857849%, 23.553467%)" offset="0.292969"/><stop stop-opacity="1" stop-color="rgb(6.173706%, 5.937195%, 23.867798%)" offset="0.296875"/><stop stop-opacity="1" stop-color="rgb(6.254578%, 6.015015%, 24.182129%)" offset="0.300781"/><stop stop-opacity="1" stop-color="rgb(6.336975%, 6.092834%, 24.49646%)" offset="0.304687"/><stop stop-opacity="1" stop-color="rgb(6.417847%, 6.170654%, 24.809265%)" offset="0.308594"/><stop stop-opacity="1" stop-color="rgb(6.498718%, 6.248474%, 25.123596%)" offset="0.3125"/><stop stop-opacity="1" stop-color="rgb(6.57959%, 6.326294%, 25.437927%)" offset="0.316406"/><stop stop-opacity="1" stop-color="rgb(6.661987%, 6.40564%, 25.752258%)" offset="0.320312"/><stop stop-opacity="1" stop-color="rgb(6.742859%, 6.483459%, 26.066589%)" offset="0.324219"/><stop stop-opacity="1" stop-color="rgb(6.82373%, 6.561279%, 26.38092%)" offset="0.328125"/><stop stop-opacity="1" stop-color="rgb(6.904602%, 6.639099%, 26.693726%)" offset="0.332031"/><stop stop-opacity="1" stop-color="rgb(6.987%, 6.718445%, 27.008057%)" offset="0.335937"/><stop stop-opacity="1" stop-color="rgb(7.067871%, 6.796265%, 27.322388%)" offset="0.339844"/><stop stop-opacity="1" stop-color="rgb(7.148743%, 6.874084%, 27.636719%)" offset="0.34375"/><stop stop-opacity="1" stop-color="rgb(7.229614%, 6.951904%, 27.95105%)" offset="0.347656"/><stop stop-opacity="1" stop-color="rgb(7.312012%, 7.029724%, 28.265381%)" offset="0.351562"/><stop stop-opacity="1" stop-color="rgb(7.392883%, 7.107544%, 28.578186%)" offset="0.355469"/><stop stop-opacity="1" stop-color="rgb(7.473755%, 7.18689%, 28.892517%)" offset="0.359375"/><stop stop-opacity="1" stop-color="rgb(7.554626%, 7.264709%, 29.206848%)" offset="0.363281"/><stop stop-opacity="1" stop-color="rgb(7.637024%, 7.342529%, 29.521179%)" offset="0.367187"/><stop stop-opacity="1" stop-color="rgb(7.717896%, 7.420349%, 29.83551%)" offset="0.371094"/><stop stop-opacity="1" stop-color="rgb(7.798767%, 7.499695%, 30.149841%)" offset="0.375"/><stop stop-opacity="1" stop-color="rgb(7.879639%, 7.577515%, 30.462646%)" offset="0.378906"/><stop stop-opacity="1" stop-color="rgb(7.962036%, 7.655334%, 30.776978%)" offset="0.382812"/><stop stop-opacity="1" stop-color="rgb(8.042908%, 7.733154%, 31.091309%)" offset="0.386719"/><stop stop-opacity="1" stop-color="rgb(8.123779%, 7.810974%, 31.40564%)" offset="0.390625"/><stop stop-opacity="1" stop-color="rgb(8.204651%, 7.888794%, 31.719971%)" offset="0.394531"/><stop stop-opacity="1" stop-color="rgb(8.287048%, 7.96814%, 32.034302%)" offset="0.398438"/><stop stop-opacity="1" stop-color="rgb(8.36792%, 8.045959%, 32.347107%)" offset="0.402344"/><stop stop-opacity="1" stop-color="rgb(8.448792%, 8.123779%, 32.661438%)" offset="0.40625"/><stop stop-opacity="1" stop-color="rgb(8.529663%, 8.201599%, 32.975769%)" offset="0.410156"/><stop stop-opacity="1" stop-color="rgb(8.612061%, 8.280945%, 33.2901%)" offset="0.414062"/><stop stop-opacity="1" stop-color="rgb(8.692932%, 8.358765%, 33.602905%)" offset="0.417969"/><stop stop-opacity="1" stop-color="rgb(8.773804%, 8.436584%, 33.917236%)" offset="0.421875"/><stop stop-opacity="1" stop-color="rgb(8.854675%, 8.514404%, 34.231567%)" offset="0.425781"/><stop stop-opacity="1" stop-color="rgb(8.937073%, 8.592224%, 34.545898%)" offset="0.429688"/><stop stop-opacity="1" stop-color="rgb(9.017944%, 8.670044%, 34.860229%)" offset="0.433594"/><stop stop-opacity="1" stop-color="rgb(9.098816%, 8.74939%, 35.174561%)" offset="0.4375"/><stop stop-opacity="1" stop-color="rgb(9.179688%, 8.827209%, 35.487366%)" offset="0.441406"/><stop stop-opacity="1" stop-color="rgb(9.262085%, 8.905029%, 35.801697%)" offset="0.445312"/><stop stop-opacity="1" stop-color="rgb(9.342957%, 8.982849%, 36.116028%)" offset="0.449219"/><stop stop-opacity="1" stop-color="rgb(9.423828%, 9.062195%, 36.430359%)" offset="0.453125"/><stop stop-opacity="1" stop-color="rgb(9.5047%, 9.140015%, 36.74469%)" offset="0.457031"/><stop stop-opacity="1" stop-color="rgb(9.587097%, 9.217834%, 37.059021%)" offset="0.460938"/><stop stop-opacity="1" stop-color="rgb(9.667969%, 9.295654%, 37.371826%)" offset="0.464844"/><stop stop-opacity="1" stop-color="rgb(9.74884%, 9.373474%, 37.686157%)" offset="0.46875"/><stop stop-opacity="1" stop-color="rgb(9.829712%, 9.451294%, 38.000488%)" offset="0.472656"/><stop stop-opacity="1" stop-color="rgb(9.912109%, 9.53064%, 38.314819%)" offset="0.476562"/><stop stop-opacity="1" stop-color="rgb(9.992981%, 9.608459%, 38.62915%)" offset="0.480469"/><stop stop-opacity="1" stop-color="rgb(10.073853%, 9.686279%, 38.943481%)" offset="0.484375"/><stop stop-opacity="1" stop-color="rgb(10.154724%, 9.764099%, 39.256287%)" offset="0.488281"/><stop stop-opacity="1" stop-color="rgb(10.237122%, 9.843445%, 39.570618%)" offset="0.492188"/><stop stop-opacity="1" stop-color="rgb(10.317993%, 9.921265%, 39.884949%)" offset="0.496094"/><stop stop-opacity="1" stop-color="rgb(10.398865%, 9.999084%, 40.19928%)" offset="0.5"/><stop stop-opacity="1" stop-color="rgb(10.479736%, 10.076904%, 40.513611%)" offset="0.503906"/><stop stop-opacity="1" stop-color="rgb(10.562134%, 10.154724%, 40.827942%)" offset="0.507812"/><stop stop-opacity="1" stop-color="rgb(10.643005%, 10.232544%, 41.140747%)" offset="0.511719"/><stop stop-opacity="1" stop-color="rgb(10.723877%, 10.31189%, 41.455078%)" offset="0.515625"/><stop stop-opacity="1" stop-color="rgb(10.804749%, 10.389709%, 41.769409%)" offset="0.519531"/><stop stop-opacity="1" stop-color="rgb(10.887146%, 10.467529%, 42.08374%)" offset="0.523437"/><stop stop-opacity="1" stop-color="rgb(10.968018%, 10.545349%, 42.398071%)" offset="0.527344"/><stop stop-opacity="1" stop-color="rgb(11.048889%, 10.624695%, 42.712402%)" offset="0.53125"/><stop stop-opacity="1" stop-color="rgb(11.129761%, 10.702515%, 43.025208%)" offset="0.535156"/><stop stop-opacity="1" stop-color="rgb(11.212158%, 10.780334%, 43.339539%)" offset="0.539062"/><stop stop-opacity="1" stop-color="rgb(11.29303%, 10.858154%, 43.65387%)" offset="0.542969"/><stop stop-opacity="1" stop-color="rgb(11.373901%, 10.935974%, 43.968201%)" offset="0.546875"/><stop stop-opacity="1" stop-color="rgb(11.454773%, 11.013794%, 44.282532%)" offset="0.550781"/><stop stop-opacity="1" stop-color="rgb(11.53717%, 11.09314%, 44.596863%)" offset="0.554687"/><stop stop-opacity="1" stop-color="rgb(11.618042%, 11.170959%, 44.909668%)" offset="0.558594"/><stop stop-opacity="1" stop-color="rgb(11.698914%, 11.248779%, 45.223999%)" offset="0.5625"/><stop stop-opacity="1" stop-color="rgb(11.779785%, 11.326599%, 45.53833%)" offset="0.566406"/><stop stop-opacity="1" stop-color="rgb(11.862183%, 11.405945%, 45.852661%)" offset="0.570312"/><stop stop-opacity="1" stop-color="rgb(11.943054%, 11.483765%, 46.165466%)" offset="0.574219"/><stop stop-opacity="1" stop-color="rgb(12.023926%, 11.561584%, 46.479797%)" offset="0.578125"/><stop stop-opacity="1" stop-color="rgb(12.104797%, 11.639404%, 46.794128%)" offset="0.582031"/><stop stop-opacity="1" stop-color="rgb(12.187195%, 11.717224%, 47.108459%)" offset="0.585937"/><stop stop-opacity="1" stop-color="rgb(12.268066%, 11.795044%, 47.422791%)" offset="0.589844"/><stop stop-opacity="1" stop-color="rgb(12.348938%, 11.87439%, 47.737122%)" offset="0.59375"/><stop stop-opacity="1" stop-color="rgb(12.42981%, 11.952209%, 48.049927%)" offset="0.597656"/><stop stop-opacity="1" stop-color="rgb(12.512207%, 12.030029%, 48.364258%)" offset="0.601562"/><stop stop-opacity="1" stop-color="rgb(12.593079%, 12.107849%, 48.678589%)" offset="0.605469"/><stop stop-opacity="1" stop-color="rgb(12.67395%, 12.187195%, 48.99292%)" offset="0.609375"/><stop stop-opacity="1" stop-color="rgb(12.754822%, 12.265015%, 49.307251%)" offset="0.613281"/><stop stop-opacity="1" stop-color="rgb(12.837219%, 12.342834%, 49.621582%)" offset="0.617187"/><stop stop-opacity="1" stop-color="rgb(12.918091%, 12.420654%, 49.934387%)" offset="0.621094"/><stop stop-opacity="1" stop-color="rgb(12.998962%, 12.498474%, 50.248718%)" offset="0.625"/><stop stop-opacity="1" stop-color="rgb(13.079834%, 12.576294%, 50.563049%)" offset="0.628906"/><stop stop-opacity="1" stop-color="rgb(13.162231%, 12.65564%, 50.87738%)" offset="0.632812"/><stop stop-opacity="1" stop-color="rgb(13.243103%, 12.733459%, 51.191711%)" offset="0.636719"/><stop stop-opacity="1" stop-color="rgb(13.323975%, 12.811279%, 51.506042%)" offset="0.640625"/><stop stop-opacity="1" stop-color="rgb(13.404846%, 12.889099%, 51.818848%)" offset="0.644531"/><stop stop-opacity="1" stop-color="rgb(13.487244%, 12.968445%, 52.133179%)" offset="0.648437"/><stop stop-opacity="1" stop-color="rgb(13.568115%, 13.046265%, 52.44751%)" offset="0.652344"/><stop stop-opacity="1" stop-color="rgb(13.648987%, 13.124084%, 52.761841%)" offset="0.65625"/><stop stop-opacity="1" stop-color="rgb(13.729858%, 13.201904%, 53.076172%)" offset="0.660156"/><stop stop-opacity="1" stop-color="rgb(13.812256%, 13.279724%, 53.390503%)" offset="0.664062"/><stop stop-opacity="1" stop-color="rgb(13.893127%, 13.357544%, 53.703308%)" offset="0.667969"/><stop stop-opacity="1" stop-color="rgb(13.973999%, 13.43689%, 54.017639%)" offset="0.671875"/><stop stop-opacity="1" stop-color="rgb(14.054871%, 13.514709%, 54.33197%)" offset="0.675781"/><stop stop-opacity="1" stop-color="rgb(14.137268%, 13.592529%, 54.646301%)" offset="0.679687"/><stop stop-opacity="1" stop-color="rgb(14.21814%, 13.670349%, 54.960632%)" offset="0.683594"/><stop stop-opacity="1" stop-color="rgb(14.299011%, 13.749695%, 55.274963%)" offset="0.6875"/><stop stop-opacity="1" stop-color="rgb(14.379883%, 13.827515%, 55.587769%)" offset="0.691406"/><stop stop-opacity="1" stop-color="rgb(14.46228%, 13.905334%, 55.9021%)" offset="0.695312"/><stop stop-opacity="1" stop-color="rgb(14.543152%, 13.983154%, 56.216431%)" offset="0.699219"/><stop stop-opacity="1" stop-color="rgb(14.624023%, 14.060974%, 56.530762%)" offset="0.703125"/><stop stop-opacity="1" stop-color="rgb(14.704895%, 14.138794%, 56.843567%)" offset="0.707031"/><stop stop-opacity="1" stop-color="rgb(14.787292%, 14.21814%, 57.157898%)" offset="0.710937"/><stop stop-opacity="1" stop-color="rgb(14.868164%, 14.295959%, 57.472229%)" offset="0.714844"/><stop stop-opacity="1" stop-color="rgb(14.949036%, 14.373779%, 57.78656%)" offset="0.71875"/><stop stop-opacity="1" stop-color="rgb(15.029907%, 14.451599%, 58.100891%)" offset="0.722656"/><stop stop-opacity="1" stop-color="rgb(15.112305%, 14.530945%, 58.415222%)" offset="0.726562"/><stop stop-opacity="1" stop-color="rgb(15.193176%, 14.608765%, 58.728027%)" offset="0.730469"/><stop stop-opacity="1" stop-color="rgb(15.274048%, 14.686584%, 59.042358%)" offset="0.734375"/><stop stop-opacity="1" stop-color="rgb(15.354919%, 14.764404%, 59.356689%)" offset="0.738281"/><stop stop-opacity="1" stop-color="rgb(15.437317%, 14.842224%, 59.671021%)" offset="0.742187"/><stop stop-opacity="1" stop-color="rgb(15.518188%, 14.920044%, 59.985352%)" offset="0.746094"/><stop stop-opacity="1" stop-color="rgb(15.59906%, 14.99939%, 60.299683%)" offset="0.75"/><stop stop-opacity="1" stop-color="rgb(15.679932%, 15.077209%, 60.612488%)" offset="0.753906"/><stop stop-opacity="1" stop-color="rgb(15.762329%, 15.155029%, 60.926819%)" offset="0.757812"/><stop stop-opacity="1" stop-color="rgb(15.843201%, 15.232849%, 61.24115%)" offset="0.761719"/><stop stop-opacity="1" stop-color="rgb(15.924072%, 15.312195%, 61.555481%)" offset="0.765625"/><stop stop-opacity="1" stop-color="rgb(16.004944%, 15.390015%, 61.869812%)" offset="0.769531"/><stop stop-opacity="1" stop-color="rgb(16.087341%, 15.467834%, 62.184143%)" offset="0.773438"/><stop stop-opacity="1" stop-color="rgb(16.168213%, 15.545654%, 62.496948%)" offset="0.777344"/><stop stop-opacity="1" stop-color="rgb(16.249084%, 15.623474%, 62.811279%)" offset="0.78125"/><stop stop-opacity="1" stop-color="rgb(16.329956%, 15.701294%, 63.12561%)" offset="0.785156"/><stop stop-opacity="1" stop-color="rgb(16.412354%, 15.78064%, 63.439941%)" offset="0.789062"/><stop stop-opacity="1" stop-color="rgb(16.493225%, 15.858459%, 63.754272%)" offset="0.792969"/><stop stop-opacity="1" stop-color="rgb(16.574097%, 15.936279%, 64.068604%)" offset="0.796875"/><stop stop-opacity="1" stop-color="rgb(16.654968%, 16.014099%, 64.381409%)" offset="0.800781"/><stop stop-opacity="1" stop-color="rgb(16.737366%, 16.093445%, 64.69574%)" offset="0.804688"/><stop stop-opacity="1" stop-color="rgb(16.818237%, 16.171265%, 65.010071%)" offset="0.808594"/><stop stop-opacity="1" stop-color="rgb(16.899109%, 16.249084%, 65.324402%)" offset="0.8125"/><stop stop-opacity="1" stop-color="rgb(16.97998%, 16.326904%, 65.638733%)" offset="0.816406"/><stop stop-opacity="1" stop-color="rgb(17.062378%, 16.404724%, 65.953064%)" offset="0.820312"/><stop stop-opacity="1" stop-color="rgb(17.14325%, 16.482544%, 66.265869%)" offset="0.824219"/><stop stop-opacity="1" stop-color="rgb(17.224121%, 16.56189%, 66.5802%)" offset="0.828125"/><stop stop-opacity="1" stop-color="rgb(17.304993%, 16.639709%, 66.894531%)" offset="0.832031"/><stop stop-opacity="1" stop-color="rgb(17.38739%, 16.717529%, 67.208862%)" offset="0.835938"/><stop stop-opacity="1" stop-color="rgb(17.468262%, 16.795349%, 67.521667%)" offset="0.839844"/><stop stop-opacity="1" stop-color="rgb(17.549133%, 16.874695%, 67.835999%)" offset="0.84375"/><stop stop-opacity="1" stop-color="rgb(17.630005%, 16.952515%, 68.15033%)" offset="0.847656"/><stop stop-opacity="1" stop-color="rgb(17.712402%, 17.030334%, 68.464661%)" offset="0.851562"/><stop stop-opacity="1" stop-color="rgb(17.793274%, 17.108154%, 68.778992%)" offset="0.855469"/><stop stop-opacity="1" stop-color="rgb(17.874146%, 17.185974%, 69.093323%)" offset="0.859375"/><stop stop-opacity="1" stop-color="rgb(17.955017%, 17.263794%, 69.406128%)" offset="0.863281"/><stop stop-opacity="1" stop-color="rgb(18.037415%, 17.34314%, 69.720459%)" offset="0.867188"/><stop stop-opacity="1" stop-color="rgb(18.118286%, 17.420959%, 70.03479%)" offset="0.871094"/><stop stop-opacity="1" stop-color="rgb(18.199158%, 17.498779%, 70.349121%)" offset="0.875"/><stop stop-opacity="1" stop-color="rgb(18.280029%, 17.576599%, 70.663452%)" offset="0.878906"/><stop stop-opacity="1" stop-color="rgb(18.362427%, 17.655945%, 70.977783%)" offset="0.882812"/><stop stop-opacity="1" stop-color="rgb(18.443298%, 17.733765%, 71.290588%)" offset="0.886719"/><stop stop-opacity="1" stop-color="rgb(18.52417%, 17.811584%, 71.604919%)" offset="0.890625"/><stop stop-opacity="1" stop-color="rgb(18.605042%, 17.889404%, 71.91925%)" offset="0.894531"/><stop stop-opacity="1" stop-color="rgb(18.687439%, 17.967224%, 72.233582%)" offset="0.898438"/><stop stop-opacity="1" stop-color="rgb(18.768311%, 18.045044%, 72.547913%)" offset="0.902344"/><stop stop-opacity="1" stop-color="rgb(18.849182%, 18.12439%, 72.862244%)" offset="0.90625"/><stop stop-opacity="1" stop-color="rgb(18.930054%, 18.202209%, 73.175049%)" offset="0.910156"/><stop stop-opacity="1" stop-color="rgb(19.012451%, 18.280029%, 73.48938%)" offset="0.914062"/><stop stop-opacity="1" stop-color="rgb(19.093323%, 18.357849%, 73.803711%)" offset="0.917969"/><stop stop-opacity="1" stop-color="rgb(19.174194%, 18.437195%, 74.118042%)" offset="0.921875"/><stop stop-opacity="1" stop-color="rgb(19.255066%, 18.515015%, 74.432373%)" offset="0.925781"/><stop stop-opacity="1" stop-color="rgb(19.337463%, 18.592834%, 74.746704%)" offset="0.929688"/><stop stop-opacity="1" stop-color="rgb(19.418335%, 18.670654%, 75.059509%)" offset="0.933594"/><stop stop-opacity="1" stop-color="rgb(19.499207%, 18.748474%, 75.37384%)" offset="0.9375"/><stop stop-opacity="1" stop-color="rgb(19.580078%, 18.826294%, 75.688171%)" offset="0.941406"/><stop stop-opacity="1" stop-color="rgb(19.662476%, 18.90564%, 76.002502%)" offset="0.945312"/><stop stop-opacity="1" stop-color="rgb(19.743347%, 18.983459%, 76.316833%)" offset="0.949219"/><stop stop-opacity="1" stop-color="rgb(19.824219%, 19.061279%, 76.631165%)" offset="0.953125"/><stop stop-opacity="1" stop-color="rgb(19.90509%, 19.139099%, 76.94397%)" offset="0.957031"/><stop stop-opacity="1" stop-color="rgb(19.987488%, 19.218445%, 77.258301%)" offset="0.960938"/><stop stop-opacity="1" stop-color="rgb(20.068359%, 19.296265%, 77.572632%)" offset="0.964844"/><stop stop-opacity="1" stop-color="rgb(20.149231%, 19.374084%, 77.886963%)" offset="0.96875"/><stop stop-opacity="1" stop-color="rgb(20.230103%, 19.451904%, 78.199768%)" offset="0.972656"/><stop stop-opacity="1" stop-color="rgb(20.310974%, 19.529724%, 78.514099%)" offset="0.976562"/><stop stop-opacity="1" stop-color="rgb(20.391846%, 19.607544%, 78.82843%)" offset="0.980469"/><stop stop-opacity="1" stop-color="rgb(20.474243%, 19.68689%, 79.142761%)" offset="0.984375"/><stop stop-opacity="1" stop-color="rgb(20.555115%, 19.764709%, 79.457092%)" offset="0.988281"/><stop stop-opacity="1" stop-color="rgb(20.635986%, 19.842529%, 79.771423%)" offset="0.992188"/><stop stop-opacity="1" stop-color="rgb(20.716858%, 19.920349%, 80.084229%)" offset="0.996094"/><stop stop-opacity="1" stop-color="rgb(20.799255%, 19.999695%, 80.39856%)" offset="1"/></linearGradient><clipPath id="0bab4dc193"><path d="M 179 111.085938 L 260.183594 111.085938 L 260.183594 202.230469 L 179 202.230469 Z M 179 111.085938 " clip-rule="nonzero"/></clipPath><clipPath id="b88628a66f"><path d="M 114.800781 85.6875 L 196 85.6875 L 196 177 L 114.800781 177 Z M 114.800781 85.6875 " clip-rule="nonzero"/></clipPath></defs><rect x="-37.5" width="450" fill="#ffffff" y="-37.499999" height="449.999989" fill-opacity="1"/><rect x="-37.5" fill="url(#15ba5abc1a)" width="450" y="-37.499999" height="449.999989"/><g clip-path="url(#0bab4dc193)"><path fill="#000000" d="M 219.707031 111.382812 C 197.351562 111.382812 179.226562 129.507812 179.226562 151.863281 C 179.226562 152.027344 179.230469 152.191406 179.230469 152.355469 L 179.226562 199.984375 C 179.226562 201.875 181.417969 202.917969 182.886719 201.726562 L 200.4375 187.472656 C 206.167969 190.578125 212.730469 192.34375 219.707031 192.34375 C 242.0625 192.34375 260.183594 174.21875 260.183594 151.863281 C 260.183594 129.507812 242.0625 111.382812 219.707031 111.382812 " fill-opacity="1" fill-rule="nonzero"/></g><g clip-path="url(#b88628a66f)"><path fill="#ffffff" d="M 195.757812 126.792969 C 195.757812 126.628906 195.761719 126.464844 195.761719 126.300781 C 195.761719 103.945312 177.636719 85.824219 155.28125 85.824219 C 132.925781 85.824219 114.800781 103.945312 114.800781 126.300781 C 114.800781 148.660156 132.925781 166.78125 155.28125 166.78125 C 162.257812 166.78125 168.820312 165.015625 174.546875 161.910156 L 192.101562 176.164062 C 193.566406 177.355469 195.761719 176.3125 195.761719 174.421875 L 195.757812 126.792969 " fill-opacity="1" fill-rule="nonzero"/></g><path fill="#000000" d="M 157.136719 154.808594 L 153.429688 154.808594 C 152.238281 154.808594 151.273438 153.84375 151.273438 152.652344 L 151.273438 150.632812 C 151.273438 149.441406 152.238281 148.480469 153.429688 148.480469 L 157.136719 148.480469 C 158.324219 148.480469 159.289062 149.441406 159.289062 150.632812 L 159.289062 152.652344 C 159.289062 153.84375 158.324219 154.808594 157.136719 154.808594 " fill-opacity="1" fill-rule="nonzero"/><path fill="#000000" d="M 157.890625 159.628906 L 152.671875 159.628906 C 151.902344 159.628906 151.273438 159.003906 151.273438 158.234375 L 151.273438 158.203125 C 151.273438 157.433594 151.902344 156.808594 152.671875 156.808594 L 157.890625 156.808594 C 158.664062 156.808594 159.289062 157.433594 159.289062 158.203125 L 159.289062 158.234375 C 159.289062 159.003906 158.664062 159.628906 157.890625 159.628906 " fill-opacity="1" fill-rule="nonzero"/><path fill="#000000" d="M 169.632812 131.300781 L 169.632812 135.796875 C 169.632812 143.628906 163.285156 149.976562 155.453125 149.976562 L 155.167969 149.976562 C 147.304688 149.976562 140.933594 143.601562 140.933594 135.742188 L 140.933594 131.300781 C 140.933594 130.542969 140.316406 129.925781 139.558594 129.925781 L 139.527344 129.925781 C 138.769531 129.925781 138.15625 130.542969 138.15625 131.300781 L 138.15625 135.851562 C 138.15625 145.1875 145.71875 152.75 155.054688 152.75 L 155.398438 152.75 C 164.792969 152.75 172.40625 145.132812 172.40625 135.742188 L 172.40625 131.300781 C 172.40625 130.542969 171.792969 129.925781 171.035156 129.925781 L 171.003906 129.925781 C 170.246094 129.925781 169.632812 130.542969 169.632812 131.300781 " fill-opacity="1" fill-rule="nonzero"/><path fill="#000000" d="M 152.964844 150.679688 L 152.964844 166.714844 C 153.734375 166.757812 154.503906 166.78125 155.28125 166.78125 C 156.058594 166.78125 156.828125 166.757812 157.597656 166.714844 L 157.597656 150.679688 L 152.964844 150.679688 " fill-opacity="1" fill-rule="nonzero"/><path fill="#000000" d="M 163.273438 107.253906 L 163.273438 120.199219 C 163.273438 121.019531 162.609375 121.683594 161.792969 121.683594 L 161.761719 121.683594 C 160.941406 121.683594 160.277344 121.015625 160.277344 120.199219 L 160.277344 105.023438 C 160.277344 104.738281 160.109375 104.484375 159.847656 104.371094 C 159.140625 104.070312 158.394531 103.839844 157.625 103.6875 C 157.183594 103.597656 156.777344 103.933594 156.777344 104.378906 C 156.777344 107.746094 156.78125 120.199219 156.78125 120.199219 C 156.78125 121.019531 156.113281 121.683594 155.296875 121.683594 L 155.265625 121.683594 C 154.449219 121.683594 153.78125 121.019531 153.78125 120.199219 C 153.78125 120.199219 153.785156 107.746094 153.785156 104.378906 C 153.785156 103.933594 153.378906 103.597656 152.9375 103.6875 C 152.167969 103.839844 151.421875 104.070312 150.714844 104.371094 C 150.453125 104.484375 150.285156 104.738281 150.285156 105.023438 L 150.285156 120.199219 C 150.285156 121.019531 149.621094 121.683594 148.800781 121.683594 L 148.773438 121.683594 C 147.953125 121.683594 147.289062 121.015625 147.289062 120.199219 L 147.289062 107.253906 C 147.289062 107.023438 147.007812 106.910156 146.847656 107.082031 C 144.949219 109.113281 143.789062 111.84375 143.789062 114.847656 L 143.789062 135.003906 C 143.789062 141.289062 148.882812 146.382812 155.167969 146.382812 L 155.398438 146.382812 C 161.679688 146.382812 166.777344 141.289062 166.777344 135.003906 L 166.777344 114.847656 C 166.777344 111.84375 165.613281 109.113281 163.714844 107.082031 C 163.558594 106.910156 163.273438 107.023438 163.273438 107.253906 " fill-opacity="1" fill-rule="nonzero"/><path fill="#ffffff" d="M 224.382812 156.808594 C 224.382812 154.226562 222.289062 152.132812 219.707031 152.132812 C 217.125 152.132812 215.03125 154.226562 215.03125 156.808594 C 215.03125 159.390625 217.125 161.484375 219.707031 161.484375 C 222.289062 161.484375 224.382812 159.390625 224.382812 156.808594 " fill-opacity="1" fill-rule="nonzero"/><path fill="#ffffff" d="M 239.382812 156.808594 C 239.382812 154.226562 237.289062 152.132812 234.707031 152.132812 C 232.125 152.132812 230.03125 154.226562 230.03125 156.808594 C 230.03125 159.390625 232.125 161.484375 234.707031 161.484375 C 237.289062 161.484375 239.382812 159.390625 239.382812 156.808594 " fill-opacity="1" fill-rule="nonzero"/><path fill="#ffffff" d="M 209.378906 156.808594 C 209.378906 154.226562 207.285156 152.132812 204.703125 152.132812 C 202.121094 152.132812 200.027344 154.226562 200.027344 156.808594 C 200.027344 159.390625 202.121094 161.484375 204.703125 161.484375 C 207.285156 161.484375 209.378906 159.390625 209.378906 156.808594 " fill-opacity="1" fill-rule="nonzero"/><g fill="#ffffff" fill-opacity="1"><g transform="translate(78.461439, 251.240242)"><g><path d="M 18.660156 -37.425781 L 4.277344 -37.425781 L 4.277344 0 L 12.351562 0 L 12.351562 -11.65625 L 18.660156 -11.65625 C 26.199219 -11.65625 31.867188 -17.164062 31.867188 -24.539062 C 31.867188 -31.917969 26.144531 -37.425781 18.660156 -37.425781 Z M 18.285156 -19.140625 L 12.351562 -19.140625 L 12.351562 -29.886719 L 18.285156 -29.886719 C 21.492188 -29.886719 23.683594 -27.640625 23.683594 -24.539062 C 23.683594 -21.441406 21.492188 -19.140625 18.285156 -19.140625 Z M 18.285156 -19.140625 "/></g></g></g><g fill="#ffffff" fill-opacity="1"><g transform="translate(111.712704, 251.240242)"><g><path d="M 17.429688 0.855469 C 26.359375 0.855469 33.042969 -5.722656 33.042969 -14.4375 C 33.042969 -23.152344 26.359375 -29.671875 17.429688 -29.671875 C 8.5 -29.671875 1.816406 -23.152344 1.816406 -14.4375 C 1.816406 -5.722656 8.5 0.855469 17.429688 0.855469 Z M 17.429688 -6.523438 C 12.9375 -6.523438 9.730469 -9.730469 9.730469 -14.4375 C 9.730469 -19.085938 12.9375 -22.347656 17.429688 -22.347656 C 21.921875 -22.347656 25.128906 -19.085938 25.128906 -14.4375 C 25.128906 -9.730469 21.921875 -6.523438 17.429688 -6.523438 Z M 17.429688 -6.523438 "/></g></g></g><g fill="#ffffff" fill-opacity="1"><g transform="translate(146.62119, 251.240242)"><g><path d="M 24.914062 -39.246094 L 24.914062 -27.269531 C 22.667969 -28.816406 19.996094 -29.671875 17.003906 -29.671875 C 8.234375 -29.671875 1.816406 -23.152344 1.816406 -14.382812 C 1.816406 -5.667969 8.234375 0.910156 17.003906 0.910156 C 20.53125 0.910156 23.632812 -0.320312 26.039062 -2.351562 L 26.945312 0.0546875 L 32.722656 0.0546875 L 32.722656 -39.246094 Z M 17.644531 -6.46875 C 13.097656 -6.46875 9.785156 -9.890625 9.785156 -14.382812 C 9.785156 -18.925781 13.097656 -22.296875 17.644531 -22.296875 C 22.1875 -22.296875 25.503906 -18.925781 25.503906 -14.382812 C 25.503906 -9.890625 22.1875 -6.46875 17.644531 -6.46875 Z M 17.644531 -6.46875 "/></g></g></g><g fill="#ffffff" fill-opacity="1"><g transform="translate(183.133428, 251.240242)"><g><path d="M 30.046875 -37.425781 L 1.121094 -37.425781 L 1.121094 -29.886719 L 11.546875 -29.886719 L 11.546875 0 L 19.621094 0 L 19.621094 -29.886719 L 30.046875 -29.886719 Z M 30.046875 -37.425781 "/></g></g></g><g fill="#ffffff" fill-opacity="1"><g transform="translate(214.353261, 251.240242)"><g><path d="M 27.269531 -28.871094 L 26.464844 -26.144531 C 23.953125 -28.335938 20.691406 -29.671875 16.949219 -29.671875 C 8.289062 -29.671875 1.816406 -23.152344 1.816406 -14.4375 C 1.816406 -5.722656 8.289062 0.855469 16.949219 0.855469 C 20.636719 0.855469 23.847656 -0.425781 26.304688 -2.621094 L 27 0 L 33.09375 0 L 33.09375 -28.871094 Z M 17.589844 -6.523438 C 13.046875 -6.523438 9.730469 -9.945312 9.730469 -14.4375 C 9.730469 -18.980469 13.046875 -22.347656 17.589844 -22.347656 C 22.136719 -22.347656 25.449219 -18.980469 25.449219 -14.4375 C 25.449219 -9.890625 22.136719 -6.523438 17.589844 -6.523438 Z M 17.589844 -6.523438 "/></g></g></g><g fill="#ffffff" fill-opacity="1"><g transform="translate(251.239711, 251.240242)"><g><path d="M 3.742188 0 L 11.546875 0 L 11.546875 -39.246094 L 3.742188 -39.246094 Z M 3.742188 0 "/></g></g></g><g fill="#ffffff" fill-opacity="1"><g transform="translate(266.528872, 251.240242)"><g><path d="M 30.207031 0 L 19.410156 -15.078125 L 29.191406 -28.871094 L 20.210938 -28.871094 L 11.546875 -16.039062 L 11.546875 -39.246094 L 3.742188 -39.246094 L 3.742188 0 L 11.546875 0 L 11.546875 -13.792969 L 20.746094 0 Z M 30.207031 0 "/></g></g></g><g fill="#ffffff" fill-opacity="1"><g transform="translate(131.305303, 281.568123)"><g><path d="M 7.515625 0.335938 C 11.007812 0.335938 13.898438 -1.421875 13.898438 -5.058594 C 13.898438 -8.839844 10.671875 -9.632812 8.117188 -10.285156 C 6.3125 -10.71875 4.867188 -11.078125 4.867188 -12.261719 C 4.867188 -13.367188 6.046875 -13.875 7.226562 -13.875 C 8.597656 -13.875 9.804688 -13.199219 9.804688 -11.730469 L 13.390625 -11.730469 C 13.390625 -15.101562 11.199219 -17.171875 7.320312 -17.171875 C 3.589844 -17.171875 1.203125 -15.34375 1.203125 -12.117188 C 1.203125 -8.476562 4.289062 -7.730469 6.839844 -7.105469 C 8.671875 -6.695312 10.210938 -6.335938 10.210938 -5.011719 C 10.210938 -3.757812 8.863281 -3.035156 7.492188 -3.035156 C 5.996094 -3.035156 4.648438 -3.828125 4.648438 -5.445312 L 0.964844 -5.445312 C 0.964844 -1.832031 3.636719 0.335938 7.515625 0.335938 Z M 7.515625 0.335938 "/></g></g></g><g fill="#ffffff" fill-opacity="1"><g transform="translate(151.776238, 281.568123)"><g><path d="M 13.535156 -16.859375 L 0.503906 -16.859375 L 0.503906 -13.464844 L 5.203125 -13.464844 L 5.203125 0 L 8.839844 0 L 8.839844 -13.464844 L 13.535156 -13.464844 Z M 13.535156 -16.859375 "/></g></g></g><g fill="#ffffff" fill-opacity="1"><g transform="translate(171.404321, 281.568123)"><g><path d="M 8.71875 0.386719 C 12.695312 0.386719 15.679688 -2.382812 15.679688 -6.335938 L 15.679688 -16.859375 L 12.019531 -16.859375 L 12.019531 -6.503906 C 12.019531 -4.40625 10.644531 -3.058594 8.71875 -3.058594 C 6.769531 -3.058594 5.394531 -4.40625 5.394531 -6.503906 L 5.394531 -16.859375 L 1.734375 -16.859375 L 1.734375 -6.335938 C 1.734375 -2.382812 4.722656 0.386719 8.71875 0.386719 Z M 8.71875 0.386719 "/></g></g></g><g fill="#ffffff" fill-opacity="1"><g transform="translate(194.403814, 281.568123)"><g><path d="M 8.285156 -16.859375 L 1.925781 -16.859375 L 1.925781 0 L 8.285156 0 C 13.246094 0 16.835938 -3.539062 16.835938 -8.429688 C 16.835938 -13.320312 13.246094 -16.859375 8.285156 -16.859375 Z M 8.214844 -3.371094 L 5.5625 -3.371094 L 5.5625 -13.464844 L 8.214844 -13.464844 C 11.105469 -13.464844 13.101562 -11.417969 13.101562 -8.429688 C 13.101562 -5.492188 11.105469 -3.371094 8.214844 -3.371094 Z M 8.214844 -3.371094 "/></g></g></g><g fill="#ffffff" fill-opacity="1"><g transform="translate(217.812693, 281.568123)"><g><path d="M 1.925781 0 L 5.5625 0 L 5.5625 -16.859375 L 1.925781 -16.859375 Z M 1.925781 0 "/></g></g></g><g fill="#ffffff" fill-opacity="1"><g transform="translate(230.890607, 281.568123)"><g><path d="M 9.921875 0.386719 C 15.054688 0.386719 18.882812 -3.394531 18.882812 -8.429688 C 18.882812 -13.441406 15.054688 -17.222656 9.921875 -17.222656 C 4.769531 -17.222656 0.914062 -13.414062 0.914062 -8.429688 C 0.914062 -3.421875 4.769531 0.386719 9.921875 0.386719 Z M 9.921875 -3.058594 C 6.914062 -3.058594 4.625 -5.394531 4.625 -8.429688 C 4.625 -11.464844 6.914062 -13.777344 9.921875 -13.777344 C 12.933594 -13.777344 15.175781 -11.488281 15.175781 -8.429688 C 15.175781 -5.371094 12.933594 -3.058594 9.921875 -3.058594 Z M 9.921875 -3.058594 "/></g></g></g></svg>