<svg xmlns="http://www.w3.org/2000/svg" xmlns:xlink="http://www.w3.org/1999/xlink" width="500" zoomAndPan="magnify" viewBox="0 0 375 374.999991" height="500" preserveAspectRatio="xMidYMid meet" version="1.0"><defs><g/><clipPath id="1489412449"><path d="M 114.984375 120 L 259.734375 120 L 259.734375 187.378906 L 114.984375 187.378906 Z M 114.984375 120 " clip-rule="nonzero"/></clipPath></defs><rect x="-37.5" width="450" fill="#ffffff" y="-37.499999" height="449.999989" fill-opacity="1"/><rect x="-37.5" width="450" fill="#000000" y="-37.499999" height="449.999989" fill-opacity="1"/><path fill="#ff66c4" d="M 238.113281 151.652344 C 237.800781 151.554688 237.53125 151.382812 237.363281 151.09375 C 236.636719 149.855469 235.617188 147.332031 234.890625 142.214844 C 233.75 134.019531 232.996094 129.386719 231.664062 127.082031 C 231.277344 126.402344 230.257812 126.402344 229.867188 127.082031 C 228.558594 129.410156 227.808594 134.019531 226.644531 142.214844 C 226.011719 146.75 225.140625 149.25 224.4375 150.632812 C 224.195312 151.117188 223.707031 151.410156 223.175781 151.382812 L 223.152344 151.382812 C 222.691406 151.382812 222.253906 151.117188 222.011719 150.730469 C 221.332031 149.636719 220.53125 147.722656 219.925781 144.449219 C 218.6875 137.632812 217.9375 133.996094 216.410156 132.34375 C 216.09375 132.007812 215.535156 132.007812 215.21875 132.34375 C 213.714844 133.996094 212.964844 137.65625 211.703125 144.449219 C 211.265625 146.824219 210.734375 148.472656 210.222656 149.636719 C 209.8125 150.558594 208.867188 151.164062 207.847656 151.164062 L 207.824219 151.164062 C 206.949219 151.164062 206.125 150.730469 205.664062 150 C 205.421875 149.636719 205.203125 149.226562 205.011719 148.742188 C 203.96875 146.097656 203.238281 144.542969 202.101562 143.671875 C 201.394531 143.113281 200.378906 143.136719 199.675781 143.671875 C 198.558594 144.542969 197.855469 146.121094 196.789062 148.742188 C 196.617188 149.152344 196.449219 149.515625 196.253906 149.832031 C 195.792969 150.609375 194.945312 151.09375 194.046875 151.09375 L 194.023438 151.09375 C 193.003906 151.09375 192.058594 150.460938 191.671875 149.515625 C 191.136719 148.230469 190.578125 146.316406 190.117188 143.550781 C 188.953125 136.371094 188.203125 132.320312 186.867188 130.332031 C 186.457031 129.726562 185.558594 129.726562 185.148438 130.332031 C 183.8125 132.320312 183.0625 136.347656 181.898438 143.527344 C 181.339844 146.996094 180.585938 149.105469 179.957031 150.367188 C 179.714844 150.828125 179.253906 151.117188 178.71875 151.117188 L 178.695312 151.117188 C 178.136719 151.117188 177.628906 150.777344 177.410156 150.242188 C 176.707031 148.546875 175.835938 145.417969 175.203125 139.792969 C 174.039062 129.460938 173.289062 123.710938 171.90625 120.898438 C 171.566406 120.21875 170.59375 120.21875 170.28125 120.898438 C 168.921875 123.710938 168.171875 129.460938 166.980469 139.792969 C 166.351562 145.34375 165.503906 148.449219 164.824219 150.148438 C 164.386719 151.238281 162.835938 151.285156 162.347656 150.195312 C 161.671875 148.714844 160.894531 146.144531 160.3125 141.78125 C 159.171875 133.363281 158.445312 128.585938 157.136719 126.136719 C 156.722656 125.386719 155.679688 125.386719 155.269531 126.136719 C 153.957031 128.5625 153.230469 133.363281 152.089844 141.78125 C 151.410156 146.898438 150.417969 149.539062 149.714844 150.875 C 149.472656 151.335938 148.984375 151.652344 148.453125 151.652344 L 148.429688 151.652344 C 148.015625 151.652344 147.628906 151.503906 147.335938 151.214844 C 146.707031 150.582031 145.953125 149.515625 145.398438 147.746094 C 144.304688 144.351562 143.578125 142.335938 142.414062 141.246094 C 141.78125 140.664062 140.8125 140.664062 140.160156 141.246094 C 138.96875 142.3125 138.242188 144.351562 137.175781 147.746094 C 137.101562 148.011719 137.003906 148.230469 136.910156 148.472656 C 136.058594 150.65625 134.023438 152.113281 131.695312 152.183594 C 127.960938 152.328125 124.222656 152.449219 120.511719 152.621094 L 120.511719 152.816406 C 124.128906 152.960938 130.652344 153.203125 132.980469 153.277344 C 133.828125 153.300781 134.652344 153.640625 135.257812 154.269531 C 135.890625 154.925781 136.640625 155.96875 137.175781 157.714844 C 138.339844 161.375 139.089844 163.4375 140.449219 164.457031 C 140.957031 164.820312 141.636719 164.820312 142.121094 164.457031 C 143.480469 163.4375 144.207031 161.398438 145.398438 157.714844 C 146.003906 155.796875 146.828125 154.730469 147.484375 154.101562 C 147.726562 153.882812 148.039062 153.761719 148.378906 153.761719 L 148.402344 153.761719 C 148.863281 153.785156 149.300781 154.050781 149.496094 154.464844 C 150.222656 155.945312 151.316406 159.21875 152.089844 166.226562 C 153.351562 177.964844 154.152344 184.078125 155.753906 186.695312 C 155.945312 187.011719 156.433594 187.011719 156.625 186.695312 C 158.25 184.078125 159.027344 177.964844 160.289062 166.226562 C 160.992188 159.703125 161.984375 156.429688 162.714844 154.804688 C 162.90625 154.390625 163.320312 154.125 163.804688 154.125 L 163.828125 154.125 C 164.242188 154.125 164.605469 154.367188 164.824219 154.707031 C 165.503906 155.917969 166.375 158.125 167.007812 162.128906 C 168.21875 169.597656 168.945312 173.722656 170.351562 175.683594 C 170.714844 176.21875 171.492188 176.21875 171.878906 175.683594 C 173.289062 173.695312 174.039062 169.597656 175.226562 162.128906 C 175.738281 158.976562 176.367188 156.914062 176.972656 155.605469 C 177.3125 154.828125 178.089844 154.34375 178.9375 154.367188 L 178.960938 154.367188 C 179.691406 154.367188 180.371094 154.730469 180.734375 155.335938 C 181.144531 156.015625 181.558594 156.890625 181.921875 158.078125 C 183.160156 162.25 183.910156 164.480469 185.390625 165.523438 C 185.777344 165.789062 186.3125 165.789062 186.699219 165.523438 C 188.179688 164.480469 188.953125 162.25 190.167969 158.078125 C 190.507812 156.9375 190.894531 156.089844 191.308594 155.433594 C 191.695312 154.828125 192.375 154.464844 193.078125 154.464844 L 193.101562 154.464844 C 193.199219 154.464844 193.296875 154.464844 193.394531 154.464844 C 194.191406 154.464844 194.921875 154.925781 195.261719 155.652344 C 195.816406 156.816406 196.375 158.539062 196.835938 161.109375 C 198 167.535156 198.730469 171.148438 200.039062 172.992188 C 200.5 173.625 201.421875 173.625 201.882812 172.992188 C 203.191406 171.148438 203.941406 167.535156 205.082031 161.109375 C 205.617188 158.175781 206.296875 156.332031 206.925781 155.191406 C 207.191406 154.683594 207.703125 154.390625 208.261719 154.367188 L 208.285156 154.367188 C 208.890625 154.367188 209.449219 154.730469 209.691406 155.289062 C 210.371094 156.839844 211.171875 159.558594 211.777344 164.285156 C 213.039062 173.988281 213.789062 179.175781 215.292969 181.53125 C 215.558594 181.964844 216.191406 181.964844 216.480469 181.53125 C 218.007812 179.175781 218.761719 173.988281 220 164.285156 C 220.652344 159.242188 221.550781 156.476562 222.230469 154.972656 C 222.472656 154.464844 222.980469 154.148438 223.515625 154.148438 L 223.539062 154.148438 C 224.046875 154.148438 224.535156 154.390625 224.800781 154.828125 C 225.429688 155.796875 226.132812 157.398438 226.691406 159.992188 C 227.832031 165.402344 228.558594 168.480469 229.84375 170.058594 C 230.328125 170.664062 231.277344 170.664062 231.761719 170.058594 C 233.046875 168.480469 233.773438 165.378906 234.914062 159.96875 C 235.519531 157.109375 236.320312 155.457031 237 154.511719 C 237.265625 154.125 237.679688 153.929688 238.140625 153.832031 L 238.140625 151.652344 Z M 238.113281 151.652344 " fill-opacity="1" fill-rule="nonzero"/><g clip-path="url(#1489412449)"><path fill="#770cca" d="M 260.0625 152.667969 C 256.328125 152.5 252.59375 152.378906 248.882812 152.234375 C 246.554688 152.160156 244.492188 150.679688 243.667969 148.523438 C 243.570312 148.304688 243.5 148.0625 243.402344 147.792969 C 242.335938 144.398438 241.605469 142.363281 240.417969 141.292969 C 239.789062 140.710938 238.816406 140.710938 238.164062 141.292969 C 236.976562 142.363281 236.273438 144.398438 235.179688 147.792969 C 234.621094 149.566406 233.871094 150.632812 233.238281 151.261719 C 232.949219 151.554688 232.5625 151.699219 232.148438 151.699219 L 232.125 151.699219 C 231.589844 151.675781 231.105469 151.382812 230.863281 150.921875 C 230.136719 149.589844 229.164062 146.945312 228.488281 141.828125 C 227.347656 133.414062 226.621094 128.636719 225.308594 126.183594 C 224.898438 125.433594 223.855469 125.433594 223.441406 126.183594 C 222.132812 128.609375 221.40625 133.414062 220.265625 141.828125 C 219.683594 146.195312 218.882812 148.765625 218.226562 150.246094 C 217.742188 151.335938 216.191406 151.285156 215.753906 150.195312 C 215.074219 148.472656 214.226562 145.371094 213.59375 139.839844 C 212.40625 129.507812 211.679688 123.761719 210.296875 120.945312 C 209.957031 120.269531 208.988281 120.269531 208.671875 120.945312 C 207.289062 123.761719 206.539062 129.507812 205.375 139.839844 C 204.742188 145.464844 203.871094 148.59375 203.167969 150.292969 C 202.949219 150.828125 202.4375 151.164062 201.882812 151.164062 L 201.855469 151.164062 C 201.347656 151.164062 200.863281 150.875 200.621094 150.414062 C 199.988281 149.152344 199.238281 147.042969 198.679688 143.574219 C 197.515625 136.394531 196.765625 132.371094 195.429688 130.382812 C 195.019531 129.773438 194.121094 129.773438 193.707031 130.382812 C 192.351562 132.371094 191.597656 136.394531 190.457031 143.597656 C 189.996094 146.363281 189.441406 148.253906 188.90625 149.566406 C 188.519531 150.511719 187.597656 151.140625 186.554688 151.140625 L 186.53125 151.140625 C 185.609375 151.140625 184.785156 150.65625 184.324219 149.878906 C 184.128906 149.566406 183.957031 149.203125 183.789062 148.789062 C 182.722656 146.167969 182.019531 144.59375 180.902344 143.71875 C 180.199219 143.164062 179.179688 143.164062 178.476562 143.71875 C 177.335938 144.59375 176.632812 146.167969 175.589844 148.789062 C 175.398438 149.273438 175.179688 149.6875 174.9375 150.050781 C 174.476562 150.777344 173.652344 151.214844 172.777344 151.214844 L 172.753906 151.214844 C 171.734375 151.214844 170.789062 150.632812 170.378906 149.6875 C 169.867188 148.546875 169.335938 146.898438 168.898438 144.496094 C 167.636719 137.679688 166.882812 134.042969 165.382812 132.394531 C 165.066406 132.054688 164.507812 132.054688 164.191406 132.394531 C 162.664062 134.042969 161.914062 137.707031 160.675781 144.496094 C 160.070312 147.769531 159.269531 149.6875 158.589844 150.777344 C 158.347656 151.191406 157.910156 151.433594 157.449219 151.433594 L 157.425781 151.433594 C 156.894531 151.433594 156.40625 151.140625 156.164062 150.679688 C 155.460938 149.324219 154.613281 146.800781 153.957031 142.265625 C 152.792969 134.066406 152.066406 129.433594 150.730469 127.132812 C 150.34375 126.453125 149.324219 126.453125 148.9375 127.132812 C 147.605469 129.460938 146.875 134.066406 145.710938 142.265625 C 144.984375 147.359375 143.964844 149.90625 143.238281 151.140625 C 142.996094 151.554688 142.558594 151.796875 142.097656 151.820312 L 142.074219 151.820312 C 141.710938 151.820312 141.371094 151.699219 141.105469 151.457031 C 140.425781 150.828125 139.601562 149.734375 138.992188 147.84375 C 137.804688 144.179688 137.054688 142.121094 135.71875 141.125 C 135.210938 140.738281 134.507812 140.761719 134.023438 141.148438 C 132.710938 142.167969 132.058594 144.253906 130.773438 147.84375 C 128.808594 153.300781 119.347656 152.574219 114.933594 152.742188 L 114.933594 152.9375 C 119.105469 153.128906 129.195312 152.984375 130.773438 157.785156 C 131.914062 161.277344 132.640625 163.316406 133.875 164.382812 C 134.457031 164.867188 135.308594 164.867188 135.890625 164.382812 C 137.125 163.339844 137.855469 161.304688 138.992188 157.785156 C 139.527344 156.136719 140.207031 155.09375 140.8125 154.441406 C 141.175781 154.074219 141.660156 153.859375 142.171875 153.882812 L 142.195312 153.882812 C 142.753906 153.90625 143.285156 154.171875 143.601562 154.632812 C 144.28125 155.578125 145.082031 157.230469 145.6875 160.089844 C 146.804688 165.5 147.554688 168.578125 148.839844 170.179688 C 149.324219 170.785156 150.273438 170.785156 150.757812 170.179688 C 152.042969 168.601562 152.769531 165.5 153.910156 160.113281 C 154.441406 157.519531 155.171875 155.917969 155.800781 154.949219 C 156.066406 154.511719 156.554688 154.269531 157.0625 154.269531 L 157.085938 154.269531 C 157.644531 154.269531 158.152344 154.609375 158.371094 155.09375 C 159.074219 156.597656 159.949219 159.363281 160.601562 164.40625 C 161.839844 174.109375 162.59375 179.300781 164.121094 181.652344 C 164.386719 182.089844 165.015625 182.089844 165.308594 181.652344 C 166.835938 179.300781 167.589844 174.109375 168.824219 164.40625 C 169.429688 159.703125 170.230469 156.960938 170.910156 155.410156 C 171.152344 154.851562 171.710938 154.488281 172.316406 154.488281 L 172.339844 154.488281 C 172.898438 154.488281 173.410156 154.804688 173.675781 155.3125 C 174.28125 156.453125 174.984375 158.296875 175.519531 161.230469 C 176.660156 167.65625 177.410156 171.296875 178.71875 173.113281 C 179.179688 173.746094 180.101562 173.746094 180.5625 173.113281 C 181.871094 171.269531 182.601562 167.65625 183.765625 161.230469 C 184.226562 158.660156 184.808594 156.9375 185.339844 155.773438 C 185.679688 155.046875 186.40625 154.585938 187.207031 154.585938 C 187.304688 154.585938 187.402344 154.585938 187.5 154.585938 L 187.523438 154.585938 C 188.25 154.585938 188.929688 154.949219 189.292969 155.554688 C 189.707031 156.210938 190.09375 157.058594 190.433594 158.199219 C 191.648438 162.371094 192.421875 164.601562 193.902344 165.644531 C 194.289062 165.910156 194.824219 165.910156 195.210938 165.644531 C 196.691406 164.601562 197.441406 162.371094 198.679688 158.199219 C 199.019531 157.011719 199.433594 156.113281 199.867188 155.457031 C 200.257812 154.851562 200.933594 154.488281 201.640625 154.488281 L 201.664062 154.488281 C 202.511719 154.488281 203.289062 154.972656 203.628906 155.726562 C 204.210938 157.035156 204.863281 159.097656 205.375 162.25 C 206.5625 169.71875 207.3125 173.84375 208.71875 175.804688 C 209.109375 176.339844 209.859375 176.339844 210.25 175.804688 C 211.65625 173.816406 212.40625 169.71875 213.59375 162.25 C 214.226562 158.246094 215.097656 156.039062 215.777344 154.828125 C 215.972656 154.464844 216.359375 154.246094 216.773438 154.246094 L 216.796875 154.246094 C 217.257812 154.246094 217.695312 154.511719 217.886719 154.925781 C 218.617188 156.550781 219.609375 159.824219 220.3125 166.347656 C 221.574219 178.085938 222.375 184.199219 223.976562 186.816406 C 224.167969 187.132812 224.65625 187.132812 224.847656 186.816406 C 226.472656 184.199219 227.25 178.085938 228.511719 166.347656 C 229.261719 159.339844 230.378906 156.066406 231.105469 154.585938 C 231.324219 154.171875 231.738281 153.90625 232.199219 153.882812 C 232.535156 153.882812 232.851562 153.980469 233.09375 154.222656 C 233.773438 154.828125 234.574219 155.917969 235.179688 157.835938 C 236.367188 161.496094 237.097656 163.558594 238.453125 164.578125 C 238.964844 164.941406 239.644531 164.941406 240.128906 164.578125 C 241.484375 163.558594 242.238281 161.523438 243.402344 157.835938 C 243.960938 156.113281 244.6875 155.046875 245.316406 154.390625 C 245.925781 153.785156 246.75 153.445312 247.597656 153.398438 C 249.925781 153.324219 256.449219 153.082031 260.0625 152.9375 Z M 260.0625 152.667969 " fill-opacity="1" fill-rule="nonzero"/></g><g fill="#ffffff" fill-opacity="1"><g transform="translate(74.238009, 219.277061)"><g><path d="M 10.0625 -22.03125 C 12.894531 -22.03125 15.445312 -21.28125 17.71875 -19.78125 L 16.1875 -16.53125 C 13.957031 -17.882812 11.820312 -18.5625 9.78125 -18.5625 C 8.675781 -18.5625 7.804688 -18.363281 7.171875 -17.96875 C 6.535156 -17.570312 6.21875 -17.007812 6.21875 -16.28125 C 6.21875 -15.550781 6.507812 -14.929688 7.09375 -14.421875 C 7.675781 -13.910156 8.40625 -13.535156 9.28125 -13.296875 C 10.15625 -13.054688 11.101562 -12.753906 12.125 -12.390625 C 13.144531 -12.023438 14.09375 -11.640625 14.96875 -11.234375 C 15.84375 -10.828125 16.566406 -10.191406 17.140625 -9.328125 C 17.710938 -8.460938 18 -7.414062 18 -6.1875 C 18 -4.269531 17.234375 -2.738281 15.703125 -1.59375 C 14.171875 -0.445312 12.1875 0.125 9.75 0.125 C 8.082031 0.125 6.46875 -0.1875 4.90625 -0.8125 C 3.34375 -1.4375 1.976562 -2.28125 0.8125 -3.34375 L 2.40625 -6.53125 C 3.507812 -5.507812 4.722656 -4.722656 6.046875 -4.171875 C 7.367188 -3.617188 8.625 -3.34375 9.8125 -3.34375 C 11.101562 -3.34375 12.109375 -3.578125 12.828125 -4.046875 C 13.546875 -4.515625 13.90625 -5.164062 13.90625 -6 C 13.90625 -6.75 13.613281 -7.378906 13.03125 -7.890625 C 12.445312 -8.398438 11.71875 -8.773438 10.84375 -9.015625 C 9.96875 -9.253906 9.019531 -9.546875 8 -9.890625 C 6.976562 -10.234375 6.03125 -10.597656 5.15625 -10.984375 C 4.28125 -11.367188 3.550781 -11.988281 2.96875 -12.84375 C 2.382812 -13.695312 2.09375 -14.726562 2.09375 -15.9375 C 2.09375 -17.789062 2.820312 -19.269531 4.28125 -20.375 C 5.738281 -21.476562 7.664062 -22.03125 10.0625 -22.03125 Z M 10.0625 -22.03125 "/></g></g></g><g fill="#ffffff" fill-opacity="1"><g transform="translate(99.388854, 219.277061)"><g><path d="M 4.40625 -18.796875 C 6.632812 -20.910156 9.382812 -21.96875 12.65625 -21.96875 C 15.925781 -21.96875 18.675781 -20.910156 20.90625 -18.796875 C 23.132812 -16.679688 24.25 -14.0625 24.25 -10.9375 C 24.25 -7.8125 23.132812 -5.179688 20.90625 -3.046875 C 18.675781 -0.910156 15.925781 0.15625 12.65625 0.15625 C 9.382812 0.15625 6.632812 -0.910156 4.40625 -3.046875 C 2.175781 -5.179688 1.0625 -7.8125 1.0625 -10.9375 C 1.0625 -14.0625 2.175781 -16.679688 4.40625 -18.796875 Z M 12.6875 -18.65625 C 10.519531 -18.65625 8.664062 -17.910156 7.125 -16.421875 C 5.582031 -14.929688 4.8125 -13.101562 4.8125 -10.9375 C 4.8125 -8.769531 5.585938 -6.929688 7.140625 -5.421875 C 8.691406 -3.910156 10.539062 -3.15625 12.6875 -3.15625 C 14.832031 -3.15625 16.664062 -3.910156 18.1875 -5.421875 C 19.707031 -6.929688 20.46875 -8.769531 20.46875 -10.9375 C 20.46875 -13.101562 19.707031 -14.929688 18.1875 -16.421875 C 16.664062 -17.910156 14.832031 -18.65625 12.6875 -18.65625 Z M 12.6875 -18.65625 "/></g></g></g><g fill="#ffffff" fill-opacity="1"><g transform="translate(130.41323, 219.277061)"><g><path d="M 26 0 L 22.59375 0 L 22.5625 -16.34375 L 15.65625 -2.28125 L 13.25 -2.28125 L 6.34375 -16.34375 L 6.34375 0 L 2.875 0 L 2.875 -21.875 L 7.25 -21.875 L 14.46875 -7.34375 L 21.65625 -21.875 L 26 -21.875 Z M 26 0 "/></g></g></g><g fill="#ffffff" fill-opacity="1"><g transform="translate(165.030467, 219.277061)"><g><path d="M 4.40625 -18.796875 C 6.632812 -20.910156 9.382812 -21.96875 12.65625 -21.96875 C 15.925781 -21.96875 18.675781 -20.910156 20.90625 -18.796875 C 23.132812 -16.679688 24.25 -14.0625 24.25 -10.9375 C 24.25 -7.8125 23.132812 -5.179688 20.90625 -3.046875 C 18.675781 -0.910156 15.925781 0.15625 12.65625 0.15625 C 9.382812 0.15625 6.632812 -0.910156 4.40625 -3.046875 C 2.175781 -5.179688 1.0625 -7.8125 1.0625 -10.9375 C 1.0625 -14.0625 2.175781 -16.679688 4.40625 -18.796875 Z M 12.6875 -18.65625 C 10.519531 -18.65625 8.664062 -17.910156 7.125 -16.421875 C 5.582031 -14.929688 4.8125 -13.101562 4.8125 -10.9375 C 4.8125 -8.769531 5.585938 -6.929688 7.140625 -5.421875 C 8.691406 -3.910156 10.539062 -3.15625 12.6875 -3.15625 C 14.832031 -3.15625 16.664062 -3.910156 18.1875 -5.421875 C 19.707031 -6.929688 20.46875 -8.769531 20.46875 -10.9375 C 20.46875 -13.101562 19.707031 -14.929688 18.1875 -16.421875 C 16.664062 -17.910156 14.832031 -18.65625 12.6875 -18.65625 Z M 12.6875 -18.65625 "/></g></g></g><g fill="#ffffff" fill-opacity="1"><g transform="translate(196.054842, 219.277061)"><g><path d="M 6.5625 -3.34375 L 16.03125 -3.34375 L 16.03125 0 L 2.875 0 L 2.875 -21.875 L 6.5625 -21.875 Z M 6.5625 -3.34375 "/></g></g></g><g fill="#ffffff" fill-opacity="1"><g transform="translate(218.456376, 219.277061)"><g><path d="M 17 -4.9375 L 5.96875 -4.9375 L 3.875 0 L 0.03125 0 L 9.6875 -21.875 L 13.46875 -21.875 L 23.03125 0 L 19.09375 0 Z M 15.59375 -8.21875 L 11.46875 -17.9375 L 7.34375 -8.21875 Z M 15.59375 -8.21875 "/></g></g></g><g fill="#ffffff" fill-opacity="1"><g transform="translate(247.231306, 219.277061)"><g><path d="M 21.84375 0 L 18.21875 0 L 6.5625 -15.6875 L 6.5625 0 L 2.875 0 L 2.875 -21.875 L 6.5 -21.875 L 18.21875 -6.15625 L 18.21875 -21.875 L 21.84375 -21.875 Z M 21.84375 0 "/></g></g></g><g fill="#ffffff" fill-opacity="1"><g transform="translate(277.693325, 219.277061)"><g><path d="M 17 -4.9375 L 5.96875 -4.9375 L 3.875 0 L 0.03125 0 L 9.6875 -21.875 L 13.46875 -21.875 L 23.03125 0 L 19.09375 0 Z M 15.59375 -8.21875 L 11.46875 -17.9375 L 7.34375 -8.21875 Z M 15.59375 -8.21875 "/></g></g></g><g fill="#ffffff" fill-opacity="1"><g transform="translate(120.962362, 246.166565)"><g><path d="M 4.96875 -4.28125 L 0.984375 -4.28125 L 0.984375 -5.5625 L 4.96875 -5.5625 Z M 4.96875 -4.28125 "/></g></g></g><g fill="#ffffff" fill-opacity="1"><g transform="translate(130.278849, 246.166565)"><g/></g></g><g fill="#ffffff" fill-opacity="1"><g transform="translate(137.816421, 246.166565)"><g><path d="M 1.484375 -11.328125 L 6 -11.328125 C 7.425781 -11.328125 8.53125 -10.988281 9.3125 -10.3125 C 10.09375 -9.632812 10.484375 -8.679688 10.484375 -7.453125 C 10.484375 -6.171875 10.09375 -5.175781 9.3125 -4.46875 C 8.53125 -3.757812 7.425781 -3.40625 6 -3.40625 L 3.390625 -3.40625 L 3.390625 0 L 1.484375 0 Z M 3.390625 -9.609375 L 3.390625 -5.125 L 5.921875 -5.125 C 7.742188 -5.125 8.65625 -5.882812 8.65625 -7.40625 C 8.65625 -8.875 7.742188 -9.609375 5.921875 -9.609375 Z M 3.390625 -9.609375 "/></g></g></g><g fill="#ffffff" fill-opacity="1"><g transform="translate(152.065347, 246.166565)"><g><path d="M 2.28125 -9.734375 C 3.4375 -10.828125 4.859375 -11.375 6.546875 -11.375 C 8.242188 -11.375 9.664062 -10.828125 10.8125 -9.734375 C 11.96875 -8.640625 12.546875 -7.28125 12.546875 -5.65625 C 12.546875 -4.039062 11.96875 -2.679688 10.8125 -1.578125 C 9.664062 -0.472656 8.242188 0.078125 6.546875 0.078125 C 4.859375 0.078125 3.4375 -0.472656 2.28125 -1.578125 C 1.125 -2.679688 0.546875 -4.039062 0.546875 -5.65625 C 0.546875 -7.28125 1.125 -8.640625 2.28125 -9.734375 Z M 6.5625 -9.65625 C 5.445312 -9.65625 4.488281 -9.269531 3.6875 -8.5 C 2.882812 -7.726562 2.484375 -6.78125 2.484375 -5.65625 C 2.484375 -4.539062 2.882812 -3.59375 3.6875 -2.8125 C 4.5 -2.03125 5.457031 -1.640625 6.5625 -1.640625 C 7.675781 -1.640625 8.625 -2.03125 9.40625 -2.8125 C 10.195312 -3.59375 10.59375 -4.539062 10.59375 -5.65625 C 10.59375 -6.78125 10.195312 -7.726562 9.40625 -8.5 C 8.625 -9.269531 7.675781 -9.65625 6.5625 -9.65625 Z M 6.5625 -9.65625 "/></g></g></g><g fill="#ffffff" fill-opacity="1"><g transform="translate(168.529824, 246.166565)"><g><path d="M 1.484375 -11.328125 L 6.125 -11.328125 C 7.820312 -11.328125 9.222656 -10.789062 10.328125 -9.71875 C 11.429688 -8.65625 11.984375 -7.300781 11.984375 -5.65625 C 11.984375 -4.019531 11.425781 -2.664062 10.3125 -1.59375 C 9.207031 -0.53125 7.796875 0 6.078125 0 L 1.484375 0 Z M 3.390625 -9.609375 L 3.390625 -1.71875 L 6.171875 -1.71875 C 7.285156 -1.71875 8.210938 -2.085938 8.953125 -2.828125 C 9.691406 -3.566406 10.0625 -4.503906 10.0625 -5.640625 C 10.0625 -6.785156 9.679688 -7.734375 8.921875 -8.484375 C 8.160156 -9.234375 7.21875 -9.609375 6.09375 -9.609375 Z M 3.390625 -9.609375 "/></g></g></g><g fill="#ffffff" fill-opacity="1"><g transform="translate(184.428287, 246.166565)"><g><path d="M 6.5 -11.375 C 7.300781 -11.375 8.082031 -11.21875 8.84375 -10.90625 C 9.601562 -10.601562 10.253906 -10.175781 10.796875 -9.625 L 9.6875 -8.234375 C 9.28125 -8.671875 8.796875 -9.019531 8.234375 -9.28125 C 7.671875 -9.539062 7.101562 -9.671875 6.53125 -9.671875 C 5.394531 -9.671875 4.4375 -9.285156 3.65625 -8.515625 C 2.875 -7.742188 2.484375 -6.800781 2.484375 -5.6875 C 2.484375 -4.570312 2.875 -3.628906 3.65625 -2.859375 C 4.4375 -2.085938 5.394531 -1.703125 6.53125 -1.703125 C 7.707031 -1.703125 8.757812 -2.148438 9.6875 -3.046875 L 10.8125 -1.78125 C 10.238281 -1.207031 9.5625 -0.753906 8.78125 -0.421875 C 8 -0.0859375 7.21875 0.078125 6.4375 0.078125 C 4.78125 0.078125 3.382812 -0.472656 2.25 -1.578125 C 1.113281 -2.679688 0.546875 -4.046875 0.546875 -5.671875 C 0.546875 -7.285156 1.117188 -8.640625 2.265625 -9.734375 C 3.421875 -10.828125 4.832031 -11.375 6.5 -11.375 Z M 6.5 -11.375 "/></g></g></g><g fill="#ffffff" fill-opacity="1"><g transform="translate(199.065337, 246.166565)"><g><path d="M 8.796875 -2.5625 L 3.09375 -2.5625 L 2 0 L 0.015625 0 L 5.015625 -11.328125 L 6.96875 -11.328125 L 11.921875 0 L 9.875 0 Z M 8.0625 -4.25 L 5.9375 -9.28125 L 3.796875 -4.25 Z M 8.0625 -4.25 "/></g></g></g><g fill="#ffffff" fill-opacity="1"><g transform="translate(214.365434, 246.166565)"><g><path d="M 5.203125 -11.40625 C 6.671875 -11.40625 7.992188 -11.015625 9.171875 -10.234375 L 8.375 -8.5625 C 7.21875 -9.257812 6.113281 -9.609375 5.0625 -9.609375 C 4.488281 -9.609375 4.035156 -9.503906 3.703125 -9.296875 C 3.378906 -9.085938 3.21875 -8.796875 3.21875 -8.421875 C 3.21875 -8.046875 3.367188 -7.722656 3.671875 -7.453125 C 3.972656 -7.191406 4.347656 -7 4.796875 -6.875 C 5.253906 -6.75 5.742188 -6.59375 6.265625 -6.40625 C 6.796875 -6.21875 7.285156 -6.019531 7.734375 -5.8125 C 8.191406 -5.601562 8.566406 -5.273438 8.859375 -4.828125 C 9.160156 -4.378906 9.3125 -3.835938 9.3125 -3.203125 C 9.3125 -2.210938 8.914062 -1.421875 8.125 -0.828125 C 7.332031 -0.234375 6.304688 0.0625 5.046875 0.0625 C 4.179688 0.0625 3.34375 -0.0976562 2.53125 -0.421875 C 1.726562 -0.742188 1.023438 -1.179688 0.421875 -1.734375 L 1.25 -3.375 C 1.820312 -2.851562 2.445312 -2.445312 3.125 -2.15625 C 3.8125 -1.875 4.460938 -1.734375 5.078125 -1.734375 C 5.742188 -1.734375 6.265625 -1.851562 6.640625 -2.09375 C 7.015625 -2.332031 7.203125 -2.671875 7.203125 -3.109375 C 7.203125 -3.492188 7.050781 -3.816406 6.75 -4.078125 C 6.445312 -4.347656 6.066406 -4.546875 5.609375 -4.671875 C 5.160156 -4.796875 4.671875 -4.945312 4.140625 -5.125 C 3.609375 -5.300781 3.113281 -5.488281 2.65625 -5.6875 C 2.207031 -5.882812 1.832031 -6.203125 1.53125 -6.640625 C 1.226562 -7.085938 1.078125 -7.625 1.078125 -8.25 C 1.078125 -9.207031 1.453125 -9.972656 2.203125 -10.546875 C 2.960938 -11.117188 3.960938 -11.40625 5.203125 -11.40625 Z M 5.203125 -11.40625 "/></g></g></g><g fill="#ffffff" fill-opacity="1"><g transform="translate(227.789599, 246.166565)"><g><path d="M 9.21875 -9.609375 L 5.625 -9.609375 L 5.625 0 L 3.71875 0 L 3.71875 -9.609375 L 0.140625 -9.609375 L 0.140625 -11.328125 L 9.21875 -11.328125 Z M 9.21875 -9.609375 "/></g></g></g><g fill="#ffffff" fill-opacity="1"><g transform="translate(240.518358, 246.166565)"><g/></g></g><g fill="#ffffff" fill-opacity="1"><g transform="translate(248.055929, 246.166565)"><g><path d="M 4.96875 -4.28125 L 0.984375 -4.28125 L 0.984375 -5.5625 L 4.96875 -5.5625 Z M 4.96875 -4.28125 "/></g></g></g></svg>