<svg xmlns="http://www.w3.org/2000/svg" xmlns:xlink="http://www.w3.org/1999/xlink" width="500" zoomAndPan="magnify" viewBox="0 0 375 374.999991" height="500" preserveAspectRatio="xMidYMid meet" version="1.0"><defs><g/><linearGradient x1="0" gradientTransform="matrix(0.75, 0, 0, 0.75, 0.0000045, 0)" y1="0" x2="499.999979" gradientUnits="userSpaceOnUse" y2="0" id="0650876461"><stop stop-opacity="1" stop-color="rgb(100%, 34.098816%, 34.098816%)" offset="0"/><stop stop-opacity="1" stop-color="rgb(99.822998%, 34.091187%, 34.356689%)" offset="0.00390625"/><stop stop-opacity="1" stop-color="rgb(99.647522%, 34.085083%, 34.614563%)" offset="0.0078125"/><stop stop-opacity="1" stop-color="rgb(99.47052%, 34.077454%, 34.870911%)" offset="0.0117187"/><stop stop-opacity="1" stop-color="rgb(99.295044%, 34.069824%, 35.128784%)" offset="0.015625"/><stop stop-opacity="1" stop-color="rgb(99.118042%, 34.062195%, 35.385132%)" offset="0.0195312"/><stop stop-opacity="1" stop-color="rgb(98.942566%, 34.054565%, 35.643005%)" offset="0.0234375"/><stop stop-opacity="1" stop-color="rgb(98.765564%, 34.046936%, 35.900879%)" offset="0.0273438"/><stop stop-opacity="1" stop-color="rgb(98.590088%, 34.039307%, 36.158752%)" offset="0.03125"/><stop stop-opacity="1" stop-color="rgb(98.413086%, 34.031677%, 36.4151%)" offset="0.0351562"/><stop stop-opacity="1" stop-color="rgb(98.23761%, 34.025574%, 36.672974%)" offset="0.0390625"/><stop stop-opacity="1" stop-color="rgb(98.060608%, 34.017944%, 36.930847%)" offset="0.0429687"/><stop stop-opacity="1" stop-color="rgb(97.885132%, 34.010315%, 37.188721%)" offset="0.046875"/><stop stop-opacity="1" stop-color="rgb(97.70813%, 34.002686%, 37.445068%)" offset="0.0507812"/><stop stop-opacity="1" stop-color="rgb(97.532654%, 33.995056%, 37.702942%)" offset="0.0546875"/><stop stop-opacity="1" stop-color="rgb(97.355652%, 33.987427%, 37.960815%)" offset="0.0585938"/><stop stop-opacity="1" stop-color="rgb(97.180176%, 33.979797%, 38.218689%)" offset="0.0625"/><stop stop-opacity="1" stop-color="rgb(97.003174%, 33.972168%, 38.475037%)" offset="0.0664062"/><stop stop-opacity="1" stop-color="rgb(96.827698%, 33.966064%, 38.73291%)" offset="0.0703125"/><stop stop-opacity="1" stop-color="rgb(96.650696%, 33.958435%, 38.989258%)" offset="0.0742187"/><stop stop-opacity="1" stop-color="rgb(96.47522%, 33.950806%, 39.247131%)" offset="0.078125"/><stop stop-opacity="1" stop-color="rgb(96.298218%, 33.943176%, 39.505005%)" offset="0.0820312"/><stop stop-opacity="1" stop-color="rgb(96.122742%, 33.935547%, 39.762878%)" offset="0.0859375"/><stop stop-opacity="1" stop-color="rgb(95.947266%, 33.927917%, 40.019226%)" offset="0.0898437"/><stop stop-opacity="1" stop-color="rgb(95.77179%, 33.921814%, 40.2771%)" offset="0.09375"/><stop stop-opacity="1" stop-color="rgb(95.594788%, 33.914185%, 40.534973%)" offset="0.0976562"/><stop stop-opacity="1" stop-color="rgb(95.419312%, 33.906555%, 40.792847%)" offset="0.101562"/><stop stop-opacity="1" stop-color="rgb(95.24231%, 33.898926%, 41.049194%)" offset="0.105469"/><stop stop-opacity="1" stop-color="rgb(95.066833%, 33.891296%, 41.307068%)" offset="0.109375"/><stop stop-opacity="1" stop-color="rgb(94.889832%, 33.883667%, 41.563416%)" offset="0.113281"/><stop stop-opacity="1" stop-color="rgb(94.714355%, 33.876038%, 41.821289%)" offset="0.117188"/><stop stop-opacity="1" stop-color="rgb(94.537354%, 33.868408%, 42.079163%)" offset="0.121094"/><stop stop-opacity="1" stop-color="rgb(94.361877%, 33.862305%, 42.337036%)" offset="0.125"/><stop stop-opacity="1" stop-color="rgb(94.184875%, 33.854675%, 42.593384%)" offset="0.128906"/><stop stop-opacity="1" stop-color="rgb(94.009399%, 33.847046%, 42.851257%)" offset="0.132812"/><stop stop-opacity="1" stop-color="rgb(93.832397%, 33.839417%, 43.109131%)" offset="0.136719"/><stop stop-opacity="1" stop-color="rgb(93.656921%, 33.831787%, 43.367004%)" offset="0.140625"/><stop stop-opacity="1" stop-color="rgb(93.479919%, 33.824158%, 43.623352%)" offset="0.144531"/><stop stop-opacity="1" stop-color="rgb(93.304443%, 33.816528%, 43.881226%)" offset="0.148437"/><stop stop-opacity="1" stop-color="rgb(93.127441%, 33.808899%, 44.137573%)" offset="0.152344"/><stop stop-opacity="1" stop-color="rgb(92.951965%, 33.802795%, 44.395447%)" offset="0.15625"/><stop stop-opacity="1" stop-color="rgb(92.774963%, 33.795166%, 44.65332%)" offset="0.160156"/><stop stop-opacity="1" stop-color="rgb(92.599487%, 33.787537%, 44.911194%)" offset="0.164062"/><stop stop-opacity="1" stop-color="rgb(92.422485%, 33.779907%, 45.167542%)" offset="0.167969"/><stop stop-opacity="1" stop-color="rgb(92.247009%, 33.772278%, 45.425415%)" offset="0.171875"/><stop stop-opacity="1" stop-color="rgb(92.071533%, 33.764648%, 45.683289%)" offset="0.175781"/><stop stop-opacity="1" stop-color="rgb(91.896057%, 33.758545%, 45.941162%)" offset="0.179687"/><stop stop-opacity="1" stop-color="rgb(91.719055%, 33.750916%, 46.19751%)" offset="0.183594"/><stop stop-opacity="1" stop-color="rgb(91.543579%, 33.743286%, 46.455383%)" offset="0.1875"/><stop stop-opacity="1" stop-color="rgb(91.366577%, 33.735657%, 46.711731%)" offset="0.191406"/><stop stop-opacity="1" stop-color="rgb(91.191101%, 33.728027%, 46.969604%)" offset="0.195312"/><stop stop-opacity="1" stop-color="rgb(91.014099%, 33.720398%, 47.227478%)" offset="0.199219"/><stop stop-opacity="1" stop-color="rgb(90.838623%, 33.712769%, 47.485352%)" offset="0.203125"/><stop stop-opacity="1" stop-color="rgb(90.661621%, 33.705139%, 47.741699%)" offset="0.207031"/><stop stop-opacity="1" stop-color="rgb(90.486145%, 33.699036%, 47.999573%)" offset="0.210938"/><stop stop-opacity="1" stop-color="rgb(90.309143%, 33.691406%, 48.257446%)" offset="0.214844"/><stop stop-opacity="1" stop-color="rgb(90.133667%, 33.683777%, 48.51532%)" offset="0.21875"/><stop stop-opacity="1" stop-color="rgb(89.956665%, 33.676147%, 48.771667%)" offset="0.222656"/><stop stop-opacity="1" stop-color="rgb(89.781189%, 33.668518%, 49.029541%)" offset="0.226562"/><stop stop-opacity="1" stop-color="rgb(89.604187%, 33.660889%, 49.287415%)" offset="0.230469"/><stop stop-opacity="1" stop-color="rgb(89.428711%, 33.653259%, 49.545288%)" offset="0.234375"/><stop stop-opacity="1" stop-color="rgb(89.251709%, 33.64563%, 49.801636%)" offset="0.238281"/><stop stop-opacity="1" stop-color="rgb(89.076233%, 33.639526%, 50.059509%)" offset="0.242188"/><stop stop-opacity="1" stop-color="rgb(88.899231%, 33.631897%, 50.315857%)" offset="0.246094"/><stop stop-opacity="1" stop-color="rgb(88.723755%, 33.624268%, 50.57373%)" offset="0.25"/><stop stop-opacity="1" stop-color="rgb(88.546753%, 33.616638%, 50.831604%)" offset="0.253906"/><stop stop-opacity="1" stop-color="rgb(88.371277%, 33.609009%, 51.089478%)" offset="0.257812"/><stop stop-opacity="1" stop-color="rgb(88.194275%, 33.601379%, 51.345825%)" offset="0.261719"/><stop stop-opacity="1" stop-color="rgb(88.018799%, 33.595276%, 51.603699%)" offset="0.265625"/><stop stop-opacity="1" stop-color="rgb(87.843323%, 33.587646%, 51.861572%)" offset="0.269531"/><stop stop-opacity="1" stop-color="rgb(87.667847%, 33.580017%, 52.119446%)" offset="0.273437"/><stop stop-opacity="1" stop-color="rgb(87.490845%, 33.572388%, 52.375793%)" offset="0.277344"/><stop stop-opacity="1" stop-color="rgb(87.315369%, 33.564758%, 52.633667%)" offset="0.28125"/><stop stop-opacity="1" stop-color="rgb(87.138367%, 33.557129%, 52.890015%)" offset="0.285156"/><stop stop-opacity="1" stop-color="rgb(86.962891%, 33.5495%, 53.147888%)" offset="0.289062"/><stop stop-opacity="1" stop-color="rgb(86.785889%, 33.54187%, 53.405762%)" offset="0.292969"/><stop stop-opacity="1" stop-color="rgb(86.610413%, 33.535767%, 53.663635%)" offset="0.296875"/><stop stop-opacity="1" stop-color="rgb(86.433411%, 33.528137%, 53.919983%)" offset="0.300781"/><stop stop-opacity="1" stop-color="rgb(86.257935%, 33.520508%, 54.177856%)" offset="0.304687"/><stop stop-opacity="1" stop-color="rgb(86.080933%, 33.512878%, 54.43573%)" offset="0.308594"/><stop stop-opacity="1" stop-color="rgb(85.905457%, 33.505249%, 54.693604%)" offset="0.3125"/><stop stop-opacity="1" stop-color="rgb(85.728455%, 33.49762%, 54.949951%)" offset="0.316406"/><stop stop-opacity="1" stop-color="rgb(85.552979%, 33.48999%, 55.207825%)" offset="0.320312"/><stop stop-opacity="1" stop-color="rgb(85.375977%, 33.482361%, 55.464172%)" offset="0.324219"/><stop stop-opacity="1" stop-color="rgb(85.2005%, 33.476257%, 55.722046%)" offset="0.328125"/><stop stop-opacity="1" stop-color="rgb(85.023499%, 33.468628%, 55.979919%)" offset="0.332031"/><stop stop-opacity="1" stop-color="rgb(84.848022%, 33.460999%, 56.237793%)" offset="0.335937"/><stop stop-opacity="1" stop-color="rgb(84.671021%, 33.453369%, 56.494141%)" offset="0.339844"/><stop stop-opacity="1" stop-color="rgb(84.495544%, 33.44574%, 56.752014%)" offset="0.34375"/><stop stop-opacity="1" stop-color="rgb(84.318542%, 33.43811%, 57.009888%)" offset="0.347656"/><stop stop-opacity="1" stop-color="rgb(84.143066%, 33.432007%, 57.267761%)" offset="0.351562"/><stop stop-opacity="1" stop-color="rgb(83.96759%, 33.424377%, 57.524109%)" offset="0.355469"/><stop stop-opacity="1" stop-color="rgb(83.792114%, 33.416748%, 57.781982%)" offset="0.359375"/><stop stop-opacity="1" stop-color="rgb(83.615112%, 33.409119%, 58.03833%)" offset="0.363281"/><stop stop-opacity="1" stop-color="rgb(83.439636%, 33.401489%, 58.296204%)" offset="0.367187"/><stop stop-opacity="1" stop-color="rgb(83.262634%, 33.39386%, 58.554077%)" offset="0.371094"/><stop stop-opacity="1" stop-color="rgb(83.087158%, 33.38623%, 58.811951%)" offset="0.375"/><stop stop-opacity="1" stop-color="rgb(82.910156%, 33.378601%, 59.068298%)" offset="0.378906"/><stop stop-opacity="1" stop-color="rgb(82.73468%, 33.372498%, 59.326172%)" offset="0.382812"/><stop stop-opacity="1" stop-color="rgb(82.557678%, 33.364868%, 59.584045%)" offset="0.386719"/><stop stop-opacity="1" stop-color="rgb(82.382202%, 33.357239%, 59.841919%)" offset="0.390625"/><stop stop-opacity="1" stop-color="rgb(82.2052%, 33.349609%, 60.098267%)" offset="0.394531"/><stop stop-opacity="1" stop-color="rgb(82.029724%, 33.34198%, 60.35614%)" offset="0.398438"/><stop stop-opacity="1" stop-color="rgb(81.852722%, 33.334351%, 60.612488%)" offset="0.402344"/><stop stop-opacity="1" stop-color="rgb(81.677246%, 33.326721%, 60.870361%)" offset="0.40625"/><stop stop-opacity="1" stop-color="rgb(81.500244%, 33.319092%, 61.128235%)" offset="0.410156"/><stop stop-opacity="1" stop-color="rgb(81.324768%, 33.312988%, 61.386108%)" offset="0.414062"/><stop stop-opacity="1" stop-color="rgb(81.147766%, 33.305359%, 61.642456%)" offset="0.417969"/><stop stop-opacity="1" stop-color="rgb(80.97229%, 33.297729%, 61.90033%)" offset="0.421875"/><stop stop-opacity="1" stop-color="rgb(80.795288%, 33.2901%, 62.158203%)" offset="0.425781"/><stop stop-opacity="1" stop-color="rgb(80.619812%, 33.282471%, 62.416077%)" offset="0.429688"/><stop stop-opacity="1" stop-color="rgb(80.44281%, 33.274841%, 62.672424%)" offset="0.433594"/><stop stop-opacity="1" stop-color="rgb(80.267334%, 33.268738%, 62.930298%)" offset="0.4375"/><stop stop-opacity="1" stop-color="rgb(80.091858%, 33.261108%, 63.188171%)" offset="0.441406"/><stop stop-opacity="1" stop-color="rgb(79.916382%, 33.253479%, 63.446045%)" offset="0.445312"/><stop stop-opacity="1" stop-color="rgb(79.73938%, 33.24585%, 63.702393%)" offset="0.449219"/><stop stop-opacity="1" stop-color="rgb(79.563904%, 33.23822%, 63.960266%)" offset="0.453125"/><stop stop-opacity="1" stop-color="rgb(79.386902%, 33.230591%, 64.216614%)" offset="0.457031"/><stop stop-opacity="1" stop-color="rgb(79.211426%, 33.222961%, 64.474487%)" offset="0.460938"/><stop stop-opacity="1" stop-color="rgb(79.034424%, 33.215332%, 64.732361%)" offset="0.464844"/><stop stop-opacity="1" stop-color="rgb(78.858948%, 33.209229%, 64.990234%)" offset="0.46875"/><stop stop-opacity="1" stop-color="rgb(78.681946%, 33.201599%, 65.246582%)" offset="0.472656"/><stop stop-opacity="1" stop-color="rgb(78.50647%, 33.19397%, 65.504456%)" offset="0.476562"/><stop stop-opacity="1" stop-color="rgb(78.329468%, 33.18634%, 65.762329%)" offset="0.480469"/><stop stop-opacity="1" stop-color="rgb(78.153992%, 33.178711%, 66.020203%)" offset="0.484375"/><stop stop-opacity="1" stop-color="rgb(77.97699%, 33.171082%, 66.27655%)" offset="0.488281"/><stop stop-opacity="1" stop-color="rgb(77.801514%, 33.163452%, 66.534424%)" offset="0.492188"/><stop stop-opacity="1" stop-color="rgb(77.624512%, 33.155823%, 66.790771%)" offset="0.496094"/><stop stop-opacity="1" stop-color="rgb(77.449036%, 33.149719%, 67.048645%)" offset="0.5"/><stop stop-opacity="1" stop-color="rgb(77.272034%, 33.14209%, 67.306519%)" offset="0.503906"/><stop stop-opacity="1" stop-color="rgb(77.096558%, 33.13446%, 67.564392%)" offset="0.507812"/><stop stop-opacity="1" stop-color="rgb(76.919556%, 33.126831%, 67.82074%)" offset="0.511719"/><stop stop-opacity="1" stop-color="rgb(76.74408%, 33.119202%, 68.078613%)" offset="0.515625"/><stop stop-opacity="1" stop-color="rgb(76.567078%, 33.111572%, 68.336487%)" offset="0.519531"/><stop stop-opacity="1" stop-color="rgb(76.391602%, 33.105469%, 68.59436%)" offset="0.523437"/><stop stop-opacity="1" stop-color="rgb(76.2146%, 33.097839%, 68.850708%)" offset="0.527344"/><stop stop-opacity="1" stop-color="rgb(76.039124%, 33.09021%, 69.108582%)" offset="0.53125"/><stop stop-opacity="1" stop-color="rgb(75.863647%, 33.082581%, 69.364929%)" offset="0.535156"/><stop stop-opacity="1" stop-color="rgb(75.688171%, 33.074951%, 69.622803%)" offset="0.539062"/><stop stop-opacity="1" stop-color="rgb(75.511169%, 33.067322%, 69.880676%)" offset="0.542969"/><stop stop-opacity="1" stop-color="rgb(75.335693%, 33.059692%, 70.13855%)" offset="0.546875"/><stop stop-opacity="1" stop-color="rgb(75.158691%, 33.052063%, 70.394897%)" offset="0.550781"/><stop stop-opacity="1" stop-color="rgb(74.983215%, 33.045959%, 70.652771%)" offset="0.554687"/><stop stop-opacity="1" stop-color="rgb(74.806213%, 33.03833%, 70.910645%)" offset="0.558594"/><stop stop-opacity="1" stop-color="rgb(74.630737%, 33.030701%, 71.168518%)" offset="0.5625"/><stop stop-opacity="1" stop-color="rgb(74.453735%, 33.023071%, 71.424866%)" offset="0.566406"/><stop stop-opacity="1" stop-color="rgb(74.278259%, 33.015442%, 71.682739%)" offset="0.570312"/><stop stop-opacity="1" stop-color="rgb(74.101257%, 33.007812%, 71.939087%)" offset="0.574219"/><stop stop-opacity="1" stop-color="rgb(73.925781%, 33.000183%, 72.19696%)" offset="0.578125"/><stop stop-opacity="1" stop-color="rgb(73.748779%, 32.992554%, 72.454834%)" offset="0.582031"/><stop stop-opacity="1" stop-color="rgb(73.573303%, 32.98645%, 72.712708%)" offset="0.585937"/><stop stop-opacity="1" stop-color="rgb(73.396301%, 32.978821%, 72.969055%)" offset="0.589844"/><stop stop-opacity="1" stop-color="rgb(73.220825%, 32.971191%, 73.226929%)" offset="0.59375"/><stop stop-opacity="1" stop-color="rgb(73.043823%, 32.963562%, 73.484802%)" offset="0.597656"/><stop stop-opacity="1" stop-color="rgb(72.868347%, 32.955933%, 73.742676%)" offset="0.601562"/><stop stop-opacity="1" stop-color="rgb(72.691345%, 32.948303%, 73.999023%)" offset="0.605469"/><stop stop-opacity="1" stop-color="rgb(72.515869%, 32.940674%, 74.256897%)" offset="0.609375"/><stop stop-opacity="1" stop-color="rgb(72.338867%, 32.933044%, 74.514771%)" offset="0.613281"/><stop stop-opacity="1" stop-color="rgb(72.163391%, 32.926941%, 74.772644%)" offset="0.617187"/><stop stop-opacity="1" stop-color="rgb(71.987915%, 32.919312%, 75.028992%)" offset="0.621094"/><stop stop-opacity="1" stop-color="rgb(71.812439%, 32.911682%, 75.286865%)" offset="0.625"/><stop stop-opacity="1" stop-color="rgb(71.635437%, 32.904053%, 75.543213%)" offset="0.628906"/><stop stop-opacity="1" stop-color="rgb(71.459961%, 32.896423%, 75.801086%)" offset="0.632812"/><stop stop-opacity="1" stop-color="rgb(71.282959%, 32.888794%, 76.05896%)" offset="0.636719"/><stop stop-opacity="1" stop-color="rgb(71.107483%, 32.88269%, 76.316833%)" offset="0.640625"/><stop stop-opacity="1" stop-color="rgb(70.930481%, 32.875061%, 76.573181%)" offset="0.644531"/><stop stop-opacity="1" stop-color="rgb(70.755005%, 32.867432%, 76.831055%)" offset="0.648437"/><stop stop-opacity="1" stop-color="rgb(70.578003%, 32.859802%, 77.088928%)" offset="0.652344"/><stop stop-opacity="1" stop-color="rgb(70.402527%, 32.852173%, 77.346802%)" offset="0.65625"/><stop stop-opacity="1" stop-color="rgb(70.225525%, 32.844543%, 77.603149%)" offset="0.660156"/><stop stop-opacity="1" stop-color="rgb(70.050049%, 32.836914%, 77.861023%)" offset="0.664062"/><stop stop-opacity="1" stop-color="rgb(69.873047%, 32.829285%, 78.117371%)" offset="0.667969"/><stop stop-opacity="1" stop-color="rgb(69.697571%, 32.823181%, 78.375244%)" offset="0.671875"/><stop stop-opacity="1" stop-color="rgb(69.520569%, 32.815552%, 78.633118%)" offset="0.675781"/><stop stop-opacity="1" stop-color="rgb(69.345093%, 32.807922%, 78.890991%)" offset="0.679687"/><stop stop-opacity="1" stop-color="rgb(69.168091%, 32.800293%, 79.147339%)" offset="0.683594"/><stop stop-opacity="1" stop-color="rgb(68.992615%, 32.792664%, 79.405212%)" offset="0.6875"/><stop stop-opacity="1" stop-color="rgb(68.815613%, 32.785034%, 79.663086%)" offset="0.691406"/><stop stop-opacity="1" stop-color="rgb(68.640137%, 32.777405%, 79.920959%)" offset="0.695312"/><stop stop-opacity="1" stop-color="rgb(68.463135%, 32.769775%, 80.177307%)" offset="0.699219"/><stop stop-opacity="1" stop-color="rgb(68.287659%, 32.763672%, 80.435181%)" offset="0.703125"/><stop stop-opacity="1" stop-color="rgb(68.112183%, 32.756042%, 80.691528%)" offset="0.707031"/><stop stop-opacity="1" stop-color="rgb(67.936707%, 32.748413%, 80.949402%)" offset="0.710937"/><stop stop-opacity="1" stop-color="rgb(67.759705%, 32.740784%, 81.207275%)" offset="0.714844"/><stop stop-opacity="1" stop-color="rgb(67.584229%, 32.733154%, 81.465149%)" offset="0.71875"/><stop stop-opacity="1" stop-color="rgb(67.407227%, 32.725525%, 81.721497%)" offset="0.722656"/><stop stop-opacity="1" stop-color="rgb(67.23175%, 32.719421%, 81.97937%)" offset="0.726562"/><stop stop-opacity="1" stop-color="rgb(67.054749%, 32.711792%, 82.237244%)" offset="0.730469"/><stop stop-opacity="1" stop-color="rgb(66.879272%, 32.704163%, 82.495117%)" offset="0.734375"/><stop stop-opacity="1" stop-color="rgb(66.702271%, 32.696533%, 82.751465%)" offset="0.738281"/><stop stop-opacity="1" stop-color="rgb(66.526794%, 32.688904%, 83.009338%)" offset="0.742187"/><stop stop-opacity="1" stop-color="rgb(66.349792%, 32.681274%, 83.265686%)" offset="0.746094"/><stop stop-opacity="1" stop-color="rgb(66.174316%, 32.673645%, 83.52356%)" offset="0.75"/><stop stop-opacity="1" stop-color="rgb(65.997314%, 32.666016%, 83.781433%)" offset="0.753906"/><stop stop-opacity="1" stop-color="rgb(65.821838%, 32.659912%, 84.039307%)" offset="0.757812"/><stop stop-opacity="1" stop-color="rgb(65.644836%, 32.652283%, 84.295654%)" offset="0.761719"/><stop stop-opacity="1" stop-color="rgb(65.46936%, 32.644653%, 84.553528%)" offset="0.765625"/><stop stop-opacity="1" stop-color="rgb(65.292358%, 32.637024%, 84.811401%)" offset="0.769531"/><stop stop-opacity="1" stop-color="rgb(65.116882%, 32.629395%, 85.069275%)" offset="0.773438"/><stop stop-opacity="1" stop-color="rgb(64.93988%, 32.621765%, 85.325623%)" offset="0.777344"/><stop stop-opacity="1" stop-color="rgb(64.764404%, 32.614136%, 85.583496%)" offset="0.78125"/><stop stop-opacity="1" stop-color="rgb(64.587402%, 32.606506%, 85.839844%)" offset="0.785156"/><stop stop-opacity="1" stop-color="rgb(64.411926%, 32.600403%, 86.097717%)" offset="0.789062"/><stop stop-opacity="1" stop-color="rgb(64.234924%, 32.592773%, 86.355591%)" offset="0.792969"/><stop stop-opacity="1" stop-color="rgb(64.059448%, 32.585144%, 86.613464%)" offset="0.796875"/><stop stop-opacity="1" stop-color="rgb(63.883972%, 32.577515%, 86.869812%)" offset="0.800781"/><stop stop-opacity="1" stop-color="rgb(63.708496%, 32.569885%, 87.127686%)" offset="0.804688"/><stop stop-opacity="1" stop-color="rgb(63.531494%, 32.562256%, 87.385559%)" offset="0.808594"/><stop stop-opacity="1" stop-color="rgb(63.356018%, 32.556152%, 87.643433%)" offset="0.8125"/><stop stop-opacity="1" stop-color="rgb(63.179016%, 32.548523%, 87.89978%)" offset="0.816406"/><stop stop-opacity="1" stop-color="rgb(63.00354%, 32.540894%, 88.157654%)" offset="0.820312"/><stop stop-opacity="1" stop-color="rgb(62.826538%, 32.533264%, 88.415527%)" offset="0.824219"/><stop stop-opacity="1" stop-color="rgb(62.651062%, 32.525635%, 88.673401%)" offset="0.828125"/><stop stop-opacity="1" stop-color="rgb(62.47406%, 32.518005%, 88.929749%)" offset="0.832031"/><stop stop-opacity="1" stop-color="rgb(62.298584%, 32.510376%, 89.187622%)" offset="0.835938"/><stop stop-opacity="1" stop-color="rgb(62.121582%, 32.502747%, 89.44397%)" offset="0.839844"/><stop stop-opacity="1" stop-color="rgb(61.946106%, 32.496643%, 89.701843%)" offset="0.84375"/><stop stop-opacity="1" stop-color="rgb(61.769104%, 32.489014%, 89.959717%)" offset="0.847656"/><stop stop-opacity="1" stop-color="rgb(61.593628%, 32.481384%, 90.21759%)" offset="0.851562"/><stop stop-opacity="1" stop-color="rgb(61.416626%, 32.473755%, 90.473938%)" offset="0.855469"/><stop stop-opacity="1" stop-color="rgb(61.24115%, 32.466125%, 90.731812%)" offset="0.859375"/><stop stop-opacity="1" stop-color="rgb(61.064148%, 32.458496%, 90.989685%)" offset="0.863281"/><stop stop-opacity="1" stop-color="rgb(60.888672%, 32.450867%, 91.247559%)" offset="0.867188"/><stop stop-opacity="1" stop-color="rgb(60.71167%, 32.443237%, 91.503906%)" offset="0.871094"/><stop stop-opacity="1" stop-color="rgb(60.536194%, 32.437134%, 91.76178%)" offset="0.875"/><stop stop-opacity="1" stop-color="rgb(60.359192%, 32.429504%, 92.018127%)" offset="0.878906"/><stop stop-opacity="1" stop-color="rgb(60.183716%, 32.421875%, 92.276001%)" offset="0.882812"/><stop stop-opacity="1" stop-color="rgb(60.00824%, 32.414246%, 92.533875%)" offset="0.886719"/><stop stop-opacity="1" stop-color="rgb(59.832764%, 32.406616%, 92.791748%)" offset="0.890625"/><stop stop-opacity="1" stop-color="rgb(59.655762%, 32.398987%, 93.048096%)" offset="0.894531"/><stop stop-opacity="1" stop-color="rgb(59.480286%, 32.392883%, 93.305969%)" offset="0.898438"/><stop stop-opacity="1" stop-color="rgb(59.303284%, 32.385254%, 93.563843%)" offset="0.902344"/><stop stop-opacity="1" stop-color="rgb(59.127808%, 32.377625%, 93.821716%)" offset="0.90625"/><stop stop-opacity="1" stop-color="rgb(58.950806%, 32.369995%, 94.078064%)" offset="0.910156"/><stop stop-opacity="1" stop-color="rgb(58.77533%, 32.362366%, 94.335938%)" offset="0.914062"/><stop stop-opacity="1" stop-color="rgb(58.598328%, 32.354736%, 94.592285%)" offset="0.917969"/><stop stop-opacity="1" stop-color="rgb(58.422852%, 32.347107%, 94.850159%)" offset="0.921875"/><stop stop-opacity="1" stop-color="rgb(58.24585%, 32.339478%, 95.108032%)" offset="0.925781"/><stop stop-opacity="1" stop-color="rgb(58.070374%, 32.333374%, 95.365906%)" offset="0.929688"/><stop stop-opacity="1" stop-color="rgb(57.893372%, 32.325745%, 95.622253%)" offset="0.933594"/><stop stop-opacity="1" stop-color="rgb(57.717896%, 32.318115%, 95.880127%)" offset="0.9375"/><stop stop-opacity="1" stop-color="rgb(57.540894%, 32.310486%, 96.138%)" offset="0.941406"/><stop stop-opacity="1" stop-color="rgb(57.365417%, 32.302856%, 96.395874%)" offset="0.945312"/><stop stop-opacity="1" stop-color="rgb(57.188416%, 32.295227%, 96.652222%)" offset="0.949219"/><stop stop-opacity="1" stop-color="rgb(57.012939%, 32.287598%, 96.910095%)" offset="0.953125"/><stop stop-opacity="1" stop-color="rgb(56.835938%, 32.279968%, 97.166443%)" offset="0.957031"/><stop stop-opacity="1" stop-color="rgb(56.660461%, 32.273865%, 97.424316%)" offset="0.960938"/><stop stop-opacity="1" stop-color="rgb(56.483459%, 32.266235%, 97.68219%)" offset="0.964844"/><stop stop-opacity="1" stop-color="rgb(56.307983%, 32.258606%, 97.940063%)" offset="0.96875"/><stop stop-opacity="1" stop-color="rgb(56.132507%, 32.250977%, 98.196411%)" offset="0.972656"/><stop stop-opacity="1" stop-color="rgb(55.957031%, 32.243347%, 98.454285%)" offset="0.976562"/><stop stop-opacity="1" stop-color="rgb(55.780029%, 32.235718%, 98.712158%)" offset="0.980469"/><stop stop-opacity="1" stop-color="rgb(55.604553%, 32.229614%, 98.970032%)" offset="0.984375"/><stop stop-opacity="1" stop-color="rgb(55.427551%, 32.221985%, 99.226379%)" offset="0.988281"/><stop stop-opacity="1" stop-color="rgb(55.252075%, 32.214355%, 99.484253%)" offset="0.992188"/><stop stop-opacity="1" stop-color="rgb(55.075073%, 32.206726%, 99.740601%)" offset="0.996094"/><stop stop-opacity="1" stop-color="rgb(54.899597%, 32.199097%, 99.998474%)" offset="1"/></linearGradient><clipPath id="16280fb3bc"><path d="M 118.332031 187.867188 L 298.542969 187.867188 L 298.542969 253.304688 L 118.332031 253.304688 Z M 118.332031 187.867188 " clip-rule="nonzero"/></clipPath><clipPath id="9365908f66"><path d="M 135.582031 187.867188 L 281.1875 187.867188 C 285.765625 187.867188 290.152344 189.683594 293.386719 192.917969 C 296.621094 196.15625 298.4375 200.542969 298.4375 205.117188 L 298.4375 236.054688 C 298.4375 240.628906 296.621094 245.019531 293.386719 248.253906 C 290.152344 251.488281 285.765625 253.304688 281.1875 253.304688 L 135.582031 253.304688 C 131.007812 253.304688 126.621094 251.488281 123.386719 248.253906 C 120.152344 245.019531 118.332031 240.628906 118.332031 236.054688 L 118.332031 205.117188 C 118.332031 200.542969 120.152344 196.15625 123.386719 192.917969 C 126.621094 189.683594 131.007812 187.867188 135.582031 187.867188 Z M 135.582031 187.867188 " clip-rule="nonzero"/></clipPath><clipPath id="2a764d471a"><path d="M 76.5625 121.695312 L 284.734375 121.695312 L 284.734375 190.726562 L 76.5625 190.726562 Z M 76.5625 121.695312 " clip-rule="nonzero"/></clipPath><clipPath id="4133dc0dc2"><path d="M 93.8125 121.695312 L 267.425781 121.695312 C 276.953125 121.695312 284.675781 129.417969 284.675781 138.945312 L 284.675781 173.476562 C 284.675781 183.003906 276.953125 190.726562 267.425781 190.726562 L 93.8125 190.726562 C 84.285156 190.726562 76.5625 183.003906 76.5625 173.476562 L 76.5625 138.945312 C 76.5625 129.417969 84.285156 121.695312 93.8125 121.695312 Z M 93.8125 121.695312 " clip-rule="nonzero"/></clipPath><clipPath id="7e3d15a1a6"><path d="M 120.8125 179.410156 L 165.742188 179.410156 L 165.742188 219.574219 L 120.8125 219.574219 Z M 120.8125 179.410156 " clip-rule="nonzero"/></clipPath><clipPath id="47278ec1a8"><path d="M 140.253906 217.769531 L 121.308594 184.617188 C 120.691406 183.539062 120.695312 182.214844 121.320312 181.144531 C 121.941406 180.070312 123.089844 179.410156 124.332031 179.410156 L 162.125 179.410156 C 163.367188 179.410156 164.515625 180.070312 165.136719 181.144531 C 165.761719 182.214844 165.765625 183.539062 165.148438 184.617188 L 146.207031 217.769531 C 145.59375 218.839844 144.460938 219.496094 143.230469 219.496094 C 142 219.496094 140.863281 218.839844 140.253906 217.769531 Z M 140.253906 217.769531 " clip-rule="nonzero"/></clipPath><clipPath id="b36e7f2e37"><path d="M 239.894531 162.144531 L 282.164062 162.144531 L 282.164062 200.0625 L 239.894531 200.0625 Z M 239.894531 162.144531 " clip-rule="nonzero"/></clipPath><clipPath id="d1142687d5"><path d="M 264.050781 163.96875 L 281.699219 194.851562 C 282.316406 195.929688 282.3125 197.253906 281.6875 198.328125 C 281.066406 199.398438 279.917969 200.0625 278.675781 200.0625 L 243.472656 200.0625 C 242.234375 200.0625 241.085938 199.398438 240.460938 198.328125 C 239.839844 197.253906 239.835938 195.929688 240.449219 194.851562 L 258.097656 163.96875 C 258.710938 162.898438 259.84375 162.238281 261.074219 162.238281 C 262.304688 162.238281 263.441406 162.898438 264.050781 163.96875 Z M 264.050781 163.96875 " clip-rule="nonzero"/></clipPath><clipPath id="1e7a81700c"><path d="M 76.5625 196.652344 L 109.5625 196.652344 L 109.5625 249.152344 L 76.5625 249.152344 Z M 76.5625 196.652344 " clip-rule="nonzero"/></clipPath></defs><rect x="-37.5" width="450" fill="#ffffff" y="-37.499999" height="449.999989" fill-opacity="1"/><rect x="-37.5" fill="url(#0650876461)" width="450" y="-37.499999" height="449.999989"/><g clip-path="url(#16280fb3bc)"><g clip-path="url(#9365908f66)"><path fill="#000000" d="M 118.332031 187.867188 L 298.542969 187.867188 L 298.542969 253.304688 L 118.332031 253.304688 Z M 118.332031 187.867188 " fill-opacity="1" fill-rule="nonzero"/></g></g><g clip-path="url(#2a764d471a)"><g clip-path="url(#4133dc0dc2)"><path fill="#ffffff" d="M 76.5625 121.695312 L 284.734375 121.695312 L 284.734375 190.726562 L 76.5625 190.726562 Z M 76.5625 121.695312 " fill-opacity="1" fill-rule="nonzero"/></g></g><g clip-path="url(#7e3d15a1a6)"><g clip-path="url(#47278ec1a8)"><path fill="#ffffff" d="M 168.125 222.980469 L 118.257812 222.980469 L 118.257812 179.410156 L 168.125 179.410156 Z M 168.125 222.980469 " fill-opacity="1" fill-rule="nonzero"/></g></g><g clip-path="url(#b36e7f2e37)"><g clip-path="url(#d1142687d5)"><path fill="#000000" d="M 237.472656 158.757812 L 284.746094 158.757812 L 284.746094 200.0625 L 237.472656 200.0625 Z M 237.472656 158.757812 " fill-opacity="1" fill-rule="nonzero"/></g></g><g clip-path="url(#1e7a81700c)"><path fill="#ffffff" d="M 96.246094 240.601562 L 89.730469 240.601562 L 89.730469 245.15625 C 86.316406 245.378906 82.894531 245.945312 79.46875 246.863281 L 79.46875 249.203125 L 106.355469 249.203125 L 106.355469 246.863281 C 102.988281 245.949219 99.621094 245.382812 96.246094 245.160156 Z M 89.664062 223.335938 C 90.25 223.335938 90.722656 223.808594 90.722656 224.394531 C 90.722656 224.980469 90.25 225.453125 89.664062 225.453125 L 81.527344 225.453125 C 82.6875 230.671875 87.34375 234.570312 92.914062 234.570312 C 98.480469 234.570312 103.136719 230.671875 104.300781 225.453125 L 96.160156 225.453125 C 95.578125 225.453125 95.101562 224.980469 95.101562 224.394531 C 95.101562 223.808594 95.578125 223.335938 96.160156 223.335938 L 104.570312 223.335938 C 104.578125 223.191406 104.582031 223.050781 104.582031 222.902344 L 104.582031 220.996094 L 96.160156 220.996094 C 95.578125 220.996094 95.101562 220.523438 95.101562 219.9375 C 95.101562 219.355469 95.578125 218.882812 96.160156 218.882812 L 104.582031 218.882812 L 104.582031 216.539062 L 96.160156 216.539062 C 95.578125 216.539062 95.101562 216.066406 95.101562 215.484375 C 95.101562 214.898438 95.578125 214.425781 96.160156 214.425781 L 104.582031 214.425781 L 104.582031 212.085938 L 96.160156 212.085938 C 95.578125 212.085938 95.101562 211.613281 95.101562 211.027344 C 95.101562 210.441406 95.578125 209.96875 96.160156 209.96875 L 104.582031 209.96875 L 104.582031 208.421875 C 104.582031 208.152344 104.570312 207.890625 104.550781 207.625 L 96.160156 207.625 C 95.578125 207.625 95.101562 207.152344 95.101562 206.570312 C 95.101562 205.984375 95.578125 205.511719 96.160156 205.511719 L 104.21875 205.511719 C 102.921875 200.476562 98.351562 196.753906 92.910156 196.753906 C 87.472656 196.753906 82.902344 200.476562 81.609375 205.511719 L 89.664062 205.511719 C 90.25 205.511719 90.722656 205.984375 90.722656 206.570312 C 90.722656 207.15625 90.25 207.628906 89.664062 207.628906 L 81.273438 207.628906 C 81.257812 207.890625 81.246094 208.15625 81.246094 208.421875 L 81.246094 209.96875 L 89.664062 209.96875 C 90.25 209.96875 90.722656 210.441406 90.722656 211.027344 C 90.722656 211.613281 90.25 212.085938 89.664062 212.085938 L 81.246094 212.085938 L 81.246094 214.425781 L 89.664062 214.425781 C 90.25 214.425781 90.722656 214.898438 90.722656 215.484375 C 90.722656 216.070312 90.25 216.542969 89.664062 216.542969 L 81.246094 216.542969 L 81.246094 218.882812 L 89.664062 218.882812 C 90.25 218.882812 90.722656 219.355469 90.722656 219.941406 C 90.722656 220.523438 90.25 220.996094 89.664062 220.996094 L 81.246094 220.996094 L 81.246094 222.902344 C 81.246094 223.050781 81.25 223.195312 81.253906 223.339844 L 89.664062 223.339844 Z M 106.921875 220.355469 L 106.921875 222.902344 C 106.921875 230.628906 100.636719 236.914062 92.914062 236.914062 C 85.1875 236.914062 78.902344 230.628906 78.902344 222.902344 L 78.902344 220.351562 L 76.5625 220.351562 L 76.5625 222.902344 C 76.5625 231.917969 83.894531 239.253906 92.910156 239.253906 C 101.925781 239.253906 109.261719 231.917969 109.261719 222.902344 L 109.261719 220.351562 L 106.921875 220.351562 Z M 106.921875 220.355469 " fill-opacity="1" fill-rule="nonzero"/></g><g fill="#000000" fill-opacity="1"><g transform="translate(115.523764, 167.088123)"><g><path d="M 20.671875 -5.859375 C 20.671875 -4.578125 20.335938 -3.503906 19.671875 -2.640625 C 19.015625 -1.773438 18.125 -1.117188 17 -0.671875 C 15.882812 -0.222656 14.664062 0 13.34375 0 L 2.375 0 L 2.375 -22.71875 L 14.53125 -22.71875 C 15.59375 -22.71875 16.515625 -22.4375 17.296875 -21.875 C 18.078125 -21.3125 18.675781 -20.585938 19.09375 -19.703125 C 19.507812 -18.816406 19.71875 -17.890625 19.71875 -16.921875 C 19.71875 -15.835938 19.4375 -14.804688 18.875 -13.828125 C 18.320312 -12.847656 17.515625 -12.117188 16.453125 -11.640625 C 17.753906 -11.265625 18.78125 -10.570312 19.53125 -9.5625 C 20.289062 -8.5625 20.671875 -7.328125 20.671875 -5.859375 Z M 16.21875 -6.6875 C 16.21875 -7.257812 16.097656 -7.773438 15.859375 -8.234375 C 15.628906 -8.691406 15.316406 -9.054688 14.921875 -9.328125 C 14.535156 -9.597656 14.082031 -9.734375 13.5625 -9.734375 L 6.78125 -9.734375 L 6.78125 -3.75 L 13.34375 -3.75 C 13.875 -3.75 14.359375 -3.878906 14.796875 -4.140625 C 15.234375 -4.410156 15.578125 -4.769531 15.828125 -5.21875 C 16.085938 -5.664062 16.21875 -6.15625 16.21875 -6.6875 Z M 6.78125 -18.9375 L 6.78125 -13.21875 L 12.671875 -13.21875 C 13.160156 -13.21875 13.609375 -13.332031 14.015625 -13.5625 C 14.421875 -13.800781 14.742188 -14.132812 14.984375 -14.5625 C 15.234375 -14.988281 15.359375 -15.5 15.359375 -16.09375 C 15.359375 -16.664062 15.242188 -17.164062 15.015625 -17.59375 C 14.796875 -18.019531 14.5 -18.347656 14.125 -18.578125 C 13.75 -18.816406 13.328125 -18.9375 12.859375 -18.9375 Z M 6.78125 -18.9375 "/></g></g></g><g fill="#000000" fill-opacity="1"><g transform="translate(137.27842, 167.088123)"><g><path d="M 9.703125 0.3125 C 8.328125 0.3125 7.097656 0.0820312 6.015625 -0.375 C 4.929688 -0.832031 4.007812 -1.460938 3.25 -2.265625 C 2.488281 -3.078125 1.90625 -4.003906 1.5 -5.046875 C 1.09375 -6.097656 0.890625 -7.203125 0.890625 -8.359375 C 0.890625 -9.523438 1.09375 -10.628906 1.5 -11.671875 C 1.90625 -12.722656 2.488281 -13.65625 3.25 -14.46875 C 4.007812 -15.28125 4.929688 -15.914062 6.015625 -16.375 C 7.097656 -16.832031 8.328125 -17.0625 9.703125 -17.0625 C 11.066406 -17.0625 12.285156 -16.832031 13.359375 -16.375 C 14.429688 -15.914062 15.351562 -15.28125 16.125 -14.46875 C 16.894531 -13.65625 17.476562 -12.722656 17.875 -11.671875 C 18.269531 -10.628906 18.46875 -9.523438 18.46875 -8.359375 C 18.46875 -7.203125 18.269531 -6.097656 17.875 -5.046875 C 17.476562 -4.003906 16.898438 -3.078125 16.140625 -2.265625 C 15.390625 -1.460938 14.46875 -0.832031 13.375 -0.375 C 12.289062 0.0820312 11.066406 0.3125 9.703125 0.3125 Z M 5.3125 -8.359375 C 5.3125 -7.367188 5.503906 -6.492188 5.890625 -5.734375 C 6.273438 -4.984375 6.796875 -4.394531 7.453125 -3.96875 C 8.117188 -3.539062 8.867188 -3.328125 9.703125 -3.328125 C 10.503906 -3.328125 11.234375 -3.546875 11.890625 -3.984375 C 12.554688 -4.421875 13.085938 -5.015625 13.484375 -5.765625 C 13.878906 -6.523438 14.078125 -7.398438 14.078125 -8.390625 C 14.078125 -9.347656 13.878906 -10.207031 13.484375 -10.96875 C 13.085938 -11.738281 12.554688 -12.335938 11.890625 -12.765625 C 11.234375 -13.191406 10.503906 -13.40625 9.703125 -13.40625 C 8.867188 -13.40625 8.117188 -13.1875 7.453125 -12.75 C 6.796875 -12.3125 6.273438 -11.710938 5.890625 -10.953125 C 5.503906 -10.203125 5.3125 -9.335938 5.3125 -8.359375 Z M 5.3125 -8.359375 "/></g></g></g><g fill="#000000" fill-opacity="1"><g transform="translate(156.665649, 167.088123)"><g><path d="M 11.9375 -13.0625 C 10.632812 -13.0625 9.46875 -12.804688 8.4375 -12.296875 C 7.414062 -11.796875 6.679688 -11.078125 6.234375 -10.140625 L 6.234375 0 L 1.953125 0 L 1.953125 -16.765625 L 5.890625 -16.765625 L 5.890625 -13.1875 C 6.484375 -14.332031 7.238281 -15.234375 8.15625 -15.890625 C 9.070312 -16.554688 10.046875 -16.921875 11.078125 -16.984375 C 11.304688 -16.984375 11.484375 -16.984375 11.609375 -16.984375 C 11.742188 -16.984375 11.851562 -16.972656 11.9375 -16.953125 Z M 11.9375 -13.0625 "/></g></g></g><g fill="#000000" fill-opacity="1"><g transform="translate(169.04661, 167.088123)"><g><path d="M 9.765625 0.3125 C 8.398438 0.3125 7.171875 0.0820312 6.078125 -0.375 C 4.992188 -0.832031 4.066406 -1.46875 3.296875 -2.28125 C 2.523438 -3.101562 1.929688 -4.035156 1.515625 -5.078125 C 1.097656 -6.128906 0.890625 -7.234375 0.890625 -8.390625 C 0.890625 -9.960938 1.25 -11.40625 1.96875 -12.71875 C 2.6875 -14.03125 3.707031 -15.082031 5.03125 -15.875 C 6.351562 -16.664062 7.921875 -17.0625 9.734375 -17.0625 C 11.546875 -17.0625 13.101562 -16.664062 14.40625 -15.875 C 15.707031 -15.082031 16.675781 -14.046875 17.3125 -12.765625 L 13.125 -11.484375 C 12.757812 -12.109375 12.273438 -12.582031 11.671875 -12.90625 C 11.078125 -13.238281 10.421875 -13.40625 9.703125 -13.40625 C 8.890625 -13.40625 8.144531 -13.195312 7.46875 -12.78125 C 6.800781 -12.363281 6.273438 -11.773438 5.890625 -11.015625 C 5.503906 -10.265625 5.3125 -9.390625 5.3125 -8.390625 C 5.3125 -7.398438 5.507812 -6.523438 5.90625 -5.765625 C 6.300781 -5.015625 6.828125 -4.421875 7.484375 -3.984375 C 8.148438 -3.546875 8.890625 -3.328125 9.703125 -3.328125 C 10.210938 -3.328125 10.695312 -3.410156 11.15625 -3.578125 C 11.613281 -3.753906 12.019531 -3.988281 12.375 -4.28125 C 12.738281 -4.582031 13.007812 -4.925781 13.1875 -5.3125 L 17.375 -4.03125 C 16.988281 -3.195312 16.425781 -2.445312 15.6875 -1.78125 C 14.957031 -1.125 14.09375 -0.609375 13.09375 -0.234375 C 12.101562 0.128906 10.992188 0.3125 9.765625 0.3125 Z M 9.765625 0.3125 "/></g></g></g><g fill="#000000" fill-opacity="1"><g transform="translate(187.090177, 167.088123)"><g><path d="M 9.734375 0.3125 C 8.390625 0.3125 7.171875 0.0820312 6.078125 -0.375 C 4.992188 -0.832031 4.066406 -1.457031 3.296875 -2.25 C 2.523438 -3.050781 1.929688 -3.96875 1.515625 -5 C 1.097656 -6.039062 0.890625 -7.132812 0.890625 -8.28125 C 0.890625 -9.882812 1.25 -11.347656 1.96875 -12.671875 C 2.6875 -13.992188 3.710938 -15.054688 5.046875 -15.859375 C 6.378906 -16.660156 7.953125 -17.0625 9.765625 -17.0625 C 11.597656 -17.0625 13.164062 -16.660156 14.46875 -15.859375 C 15.769531 -15.054688 16.765625 -14 17.453125 -12.6875 C 18.148438 -11.375 18.5 -9.960938 18.5 -8.453125 C 18.5 -8.191406 18.488281 -7.925781 18.46875 -7.65625 C 18.445312 -7.394531 18.425781 -7.179688 18.40625 -7.015625 L 5.4375 -7.015625 C 5.519531 -6.160156 5.769531 -5.410156 6.1875 -4.765625 C 6.601562 -4.128906 7.132812 -3.644531 7.78125 -3.3125 C 8.4375 -2.976562 9.140625 -2.8125 9.890625 -2.8125 C 10.742188 -2.8125 11.546875 -3.019531 12.296875 -3.4375 C 13.054688 -3.851562 13.578125 -4.40625 13.859375 -5.09375 L 17.53125 -4.0625 C 17.125 -3.207031 16.539062 -2.445312 15.78125 -1.78125 C 15.03125 -1.125 14.140625 -0.609375 13.109375 -0.234375 C 12.085938 0.128906 10.960938 0.3125 9.734375 0.3125 Z M 5.34375 -9.734375 L 14.109375 -9.734375 C 14.023438 -10.585938 13.785156 -11.328125 13.390625 -11.953125 C 12.992188 -12.578125 12.472656 -13.066406 11.828125 -13.421875 C 11.191406 -13.773438 10.484375 -13.953125 9.703125 -13.953125 C 8.929688 -13.953125 8.226562 -13.773438 7.59375 -13.421875 C 6.96875 -13.066406 6.457031 -12.578125 6.0625 -11.953125 C 5.664062 -11.328125 5.425781 -10.585938 5.34375 -9.734375 Z M 5.34375 -9.734375 "/></g></g></g><g fill="#000000" fill-opacity="1"><g transform="translate(206.253468, 167.088123)"><g><path d="M 1.921875 -23.359375 L 6.203125 -23.359375 L 6.203125 -5.375 C 6.203125 -4.601562 6.328125 -4.082031 6.578125 -3.8125 C 6.835938 -3.550781 7.191406 -3.421875 7.640625 -3.421875 C 7.984375 -3.421875 8.335938 -3.460938 8.703125 -3.546875 C 9.066406 -3.640625 9.382812 -3.75 9.65625 -3.875 L 10.234375 -0.609375 C 9.660156 -0.328125 8.988281 -0.113281 8.21875 0.03125 C 7.457031 0.175781 6.765625 0.25 6.140625 0.25 C 4.796875 0.25 3.753906 -0.101562 3.015625 -0.8125 C 2.285156 -1.53125 1.921875 -2.550781 1.921875 -3.875 Z M 1.921875 -23.359375 "/></g></g></g><g fill="#000000" fill-opacity="1"><g transform="translate(216.394969, 167.088123)"><g><path d="M 1.921875 -23.359375 L 6.203125 -23.359375 L 6.203125 -5.375 C 6.203125 -4.601562 6.328125 -4.082031 6.578125 -3.8125 C 6.835938 -3.550781 7.191406 -3.421875 7.640625 -3.421875 C 7.984375 -3.421875 8.335938 -3.460938 8.703125 -3.546875 C 9.066406 -3.640625 9.382812 -3.75 9.65625 -3.875 L 10.234375 -0.609375 C 9.660156 -0.328125 8.988281 -0.113281 8.21875 0.03125 C 7.457031 0.175781 6.765625 0.25 6.140625 0.25 C 4.796875 0.25 3.753906 -0.101562 3.015625 -0.8125 C 2.285156 -1.53125 1.921875 -2.550781 1.921875 -3.875 Z M 1.921875 -23.359375 "/></g></g></g><g fill="#000000" fill-opacity="1"><g transform="translate(226.536471, 167.088123)"><g><path d="M 9.734375 0.3125 C 8.390625 0.3125 7.171875 0.0820312 6.078125 -0.375 C 4.992188 -0.832031 4.066406 -1.457031 3.296875 -2.25 C 2.523438 -3.050781 1.929688 -3.96875 1.515625 -5 C 1.097656 -6.039062 0.890625 -7.132812 0.890625 -8.28125 C 0.890625 -9.882812 1.25 -11.347656 1.96875 -12.671875 C 2.6875 -13.992188 3.710938 -15.054688 5.046875 -15.859375 C 6.378906 -16.660156 7.953125 -17.0625 9.765625 -17.0625 C 11.597656 -17.0625 13.164062 -16.660156 14.46875 -15.859375 C 15.769531 -15.054688 16.765625 -14 17.453125 -12.6875 C 18.148438 -11.375 18.5 -9.960938 18.5 -8.453125 C 18.5 -8.191406 18.488281 -7.925781 18.46875 -7.65625 C 18.445312 -7.394531 18.425781 -7.179688 18.40625 -7.015625 L 5.4375 -7.015625 C 5.519531 -6.160156 5.769531 -5.410156 6.1875 -4.765625 C 6.601562 -4.128906 7.132812 -3.644531 7.78125 -3.3125 C 8.4375 -2.976562 9.140625 -2.8125 9.890625 -2.8125 C 10.742188 -2.8125 11.546875 -3.019531 12.296875 -3.4375 C 13.054688 -3.851562 13.578125 -4.40625 13.859375 -5.09375 L 17.53125 -4.0625 C 17.125 -3.207031 16.539062 -2.445312 15.78125 -1.78125 C 15.03125 -1.125 14.140625 -0.609375 13.109375 -0.234375 C 12.085938 0.128906 10.960938 0.3125 9.734375 0.3125 Z M 5.34375 -9.734375 L 14.109375 -9.734375 C 14.023438 -10.585938 13.785156 -11.328125 13.390625 -11.953125 C 12.992188 -12.578125 12.472656 -13.066406 11.828125 -13.421875 C 11.191406 -13.773438 10.484375 -13.953125 9.703125 -13.953125 C 8.929688 -13.953125 8.226562 -13.773438 7.59375 -13.421875 C 6.96875 -13.066406 6.457031 -12.578125 6.0625 -11.953125 C 5.664062 -11.328125 5.425781 -10.585938 5.34375 -9.734375 Z M 5.34375 -9.734375 "/></g></g></g><g fill="#ffffff" fill-opacity="1"><g transform="translate(153.919902, 230.337393)"><g><path d="M 2.078125 0 L 2.078125 -19.875 L 10.5 -19.875 C 11.414062 -19.875 12.253906 -19.6875 13.015625 -19.3125 C 13.785156 -18.945312 14.453125 -18.445312 15.015625 -17.8125 C 15.585938 -17.175781 16.03125 -16.460938 16.34375 -15.671875 C 16.664062 -14.890625 16.828125 -14.085938 16.828125 -13.265625 C 16.828125 -12.148438 16.566406 -11.085938 16.046875 -10.078125 C 15.523438 -9.066406 14.804688 -8.242188 13.890625 -7.609375 C 12.972656 -6.972656 11.890625 -6.65625 10.640625 -6.65625 L 5.9375 -6.65625 L 5.9375 0 Z M 5.9375 -10.046875 L 10.421875 -10.046875 C 10.878906 -10.046875 11.296875 -10.175781 11.671875 -10.4375 C 12.046875 -10.707031 12.34375 -11.085938 12.5625 -11.578125 C 12.789062 -12.066406 12.90625 -12.628906 12.90625 -13.265625 C 12.90625 -13.960938 12.78125 -14.550781 12.53125 -15.03125 C 12.28125 -15.519531 11.953125 -15.882812 11.546875 -16.125 C 11.148438 -16.363281 10.71875 -16.484375 10.25 -16.484375 L 5.9375 -16.484375 Z M 5.9375 -10.046875 "/></g></g></g><g fill="#ffffff" fill-opacity="1"><g transform="translate(171.361521, 230.337393)"><g><path d="M 8.484375 0.28125 C 7.285156 0.28125 6.210938 0.0820312 5.265625 -0.3125 C 4.316406 -0.71875 3.507812 -1.273438 2.84375 -1.984375 C 2.175781 -2.691406 1.664062 -3.503906 1.3125 -4.421875 C 0.957031 -5.335938 0.78125 -6.300781 0.78125 -7.3125 C 0.78125 -8.332031 0.957031 -9.300781 1.3125 -10.21875 C 1.664062 -11.132812 2.175781 -11.945312 2.84375 -12.65625 C 3.507812 -13.363281 4.316406 -13.914062 5.265625 -14.3125 C 6.210938 -14.71875 7.285156 -14.921875 8.484375 -14.921875 C 9.679688 -14.921875 10.75 -14.71875 11.6875 -14.3125 C 12.632812 -13.914062 13.441406 -13.363281 14.109375 -12.65625 C 14.785156 -11.945312 15.296875 -11.132812 15.640625 -10.21875 C 15.984375 -9.300781 16.15625 -8.332031 16.15625 -7.3125 C 16.15625 -6.300781 15.984375 -5.335938 15.640625 -4.421875 C 15.296875 -3.503906 14.789062 -2.691406 14.125 -1.984375 C 13.457031 -1.273438 12.648438 -0.71875 11.703125 -0.3125 C 10.753906 0.0820312 9.679688 0.28125 8.484375 0.28125 Z M 4.640625 -7.3125 C 4.640625 -6.445312 4.804688 -5.679688 5.140625 -5.015625 C 5.484375 -4.359375 5.941406 -3.84375 6.515625 -3.46875 C 7.097656 -3.09375 7.753906 -2.90625 8.484375 -2.90625 C 9.191406 -2.90625 9.832031 -3.097656 10.40625 -3.484375 C 10.988281 -3.867188 11.453125 -4.390625 11.796875 -5.046875 C 12.140625 -5.710938 12.3125 -6.476562 12.3125 -7.34375 C 12.3125 -8.175781 12.140625 -8.925781 11.796875 -9.59375 C 11.453125 -10.269531 10.988281 -10.796875 10.40625 -11.171875 C 9.832031 -11.546875 9.191406 -11.734375 8.484375 -11.734375 C 7.753906 -11.734375 7.097656 -11.539062 6.515625 -11.15625 C 5.941406 -10.769531 5.484375 -10.242188 5.140625 -9.578125 C 4.804688 -8.921875 4.640625 -8.164062 4.640625 -7.3125 Z M 4.640625 -7.3125 "/></g></g></g><g fill="#ffffff" fill-opacity="1"><g transform="translate(188.327203, 230.337393)"><g><path d="M 0.8125 -7.34375 C 0.8125 -8.757812 1.085938 -10.039062 1.640625 -11.1875 C 2.203125 -12.332031 2.976562 -13.238281 3.96875 -13.90625 C 4.957031 -14.582031 6.085938 -14.921875 7.359375 -14.921875 C 8.441406 -14.921875 9.414062 -14.65625 10.28125 -14.125 C 11.15625 -13.59375 11.832031 -12.914062 12.3125 -12.09375 L 12.3125 -20.4375 L 16.078125 -20.4375 L 16.078125 -4.203125 C 16.078125 -3.804688 16.140625 -3.523438 16.265625 -3.359375 C 16.398438 -3.191406 16.625 -3.085938 16.9375 -3.046875 L 16.9375 0 C 16.28125 0.132812 15.75 0.203125 15.34375 0.203125 C 14.675781 0.203125 14.117188 0.0351562 13.671875 -0.296875 C 13.234375 -0.640625 12.988281 -1.082031 12.9375 -1.625 L 12.875 -2.546875 C 12.332031 -1.628906 11.597656 -0.925781 10.671875 -0.4375 C 9.753906 0.0390625 8.789062 0.28125 7.78125 0.28125 C 6.769531 0.28125 5.835938 0.0859375 4.984375 -0.296875 C 4.140625 -0.691406 3.40625 -1.234375 2.78125 -1.921875 C 2.15625 -2.617188 1.671875 -3.425781 1.328125 -4.34375 C 0.984375 -5.269531 0.8125 -6.269531 0.8125 -7.34375 Z M 12.3125 -5.375 L 12.3125 -8.875 C 12.132812 -9.414062 11.835938 -9.898438 11.421875 -10.328125 C 11.015625 -10.753906 10.554688 -11.09375 10.046875 -11.34375 C 9.546875 -11.601562 9.046875 -11.734375 8.546875 -11.734375 C 7.960938 -11.734375 7.4375 -11.609375 6.96875 -11.359375 C 6.5 -11.117188 6.09375 -10.789062 5.75 -10.375 C 5.40625 -9.96875 5.144531 -9.492188 4.96875 -8.953125 C 4.789062 -8.410156 4.703125 -7.84375 4.703125 -7.25 C 4.703125 -6.65625 4.800781 -6.09375 5 -5.5625 C 5.195312 -5.03125 5.476562 -4.566406 5.84375 -4.171875 C 6.21875 -3.773438 6.648438 -3.460938 7.140625 -3.234375 C 7.640625 -3.015625 8.179688 -2.90625 8.765625 -2.90625 C 9.117188 -2.90625 9.476562 -2.96875 9.84375 -3.09375 C 10.207031 -3.21875 10.550781 -3.382812 10.875 -3.59375 C 11.207031 -3.8125 11.5 -4.070312 11.75 -4.375 C 12 -4.6875 12.1875 -5.019531 12.3125 -5.375 Z M 12.3125 -5.375 "/></g></g></g><g fill="#ffffff" fill-opacity="1"><g transform="translate(206.384743, 230.337393)"><g><path d="M 8.546875 0.28125 C 7.347656 0.28125 6.269531 0.0820312 5.3125 -0.3125 C 4.363281 -0.71875 3.550781 -1.28125 2.875 -2 C 2.207031 -2.71875 1.691406 -3.535156 1.328125 -4.453125 C 0.960938 -5.367188 0.78125 -6.332031 0.78125 -7.34375 C 0.78125 -8.71875 1.09375 -9.976562 1.71875 -11.125 C 2.34375 -12.28125 3.234375 -13.203125 4.390625 -13.890625 C 5.546875 -14.578125 6.921875 -14.921875 8.515625 -14.921875 C 10.097656 -14.921875 11.457031 -14.578125 12.59375 -13.890625 C 13.738281 -13.203125 14.585938 -12.296875 15.140625 -11.171875 L 11.484375 -10.046875 C 11.160156 -10.585938 10.738281 -11.003906 10.21875 -11.296875 C 9.695312 -11.585938 9.117188 -11.734375 8.484375 -11.734375 C 7.773438 -11.734375 7.125 -11.550781 6.53125 -11.1875 C 5.945312 -10.820312 5.484375 -10.304688 5.140625 -9.640625 C 4.804688 -8.984375 4.640625 -8.21875 4.640625 -7.34375 C 4.640625 -6.476562 4.8125 -5.710938 5.15625 -5.046875 C 5.507812 -4.390625 5.972656 -3.867188 6.546875 -3.484375 C 7.128906 -3.097656 7.773438 -2.90625 8.484375 -2.90625 C 8.929688 -2.90625 9.351562 -2.976562 9.75 -3.125 C 10.15625 -3.28125 10.515625 -3.488281 10.828125 -3.75 C 11.148438 -4.007812 11.382812 -4.304688 11.53125 -4.640625 L 15.203125 -3.53125 C 14.867188 -2.800781 14.378906 -2.144531 13.734375 -1.5625 C 13.085938 -0.988281 12.328125 -0.535156 11.453125 -0.203125 C 10.585938 0.117188 9.617188 0.28125 8.546875 0.28125 Z M 8.546875 0.28125 "/></g></g></g><g fill="#ffffff" fill-opacity="1"><g transform="translate(222.17459, 230.337393)"><g><path d="M 0.703125 -4.34375 C 0.703125 -5.289062 0.96875 -6.125 1.5 -6.84375 C 2.03125 -7.5625 2.769531 -8.113281 3.71875 -8.5 C 4.675781 -8.894531 5.769531 -9.09375 7 -9.09375 C 7.613281 -9.09375 8.238281 -9.046875 8.875 -8.953125 C 9.507812 -8.859375 10.0625 -8.710938 10.53125 -8.515625 L 10.53125 -9.296875 C 10.53125 -10.234375 10.253906 -10.953125 9.703125 -11.453125 C 9.148438 -11.953125 8.332031 -12.203125 7.25 -12.203125 C 6.445312 -12.203125 5.679688 -12.0625 4.953125 -11.78125 C 4.222656 -11.507812 3.457031 -11.101562 2.65625 -10.5625 L 1.453125 -13.015625 C 2.421875 -13.648438 3.414062 -14.125 4.4375 -14.4375 C 5.457031 -14.757812 6.523438 -14.921875 7.640625 -14.921875 C 9.734375 -14.921875 11.363281 -14.394531 12.53125 -13.34375 C 13.695312 -12.300781 14.28125 -10.8125 14.28125 -8.875 L 14.28125 -4.203125 C 14.28125 -3.804688 14.347656 -3.523438 14.484375 -3.359375 C 14.628906 -3.191406 14.859375 -3.085938 15.171875 -3.046875 L 15.171875 0 C 14.835938 0.0507812 14.535156 0.0976562 14.265625 0.140625 C 13.992188 0.179688 13.765625 0.203125 13.578125 0.203125 C 12.828125 0.203125 12.257812 0.0351562 11.875 -0.296875 C 11.5 -0.640625 11.265625 -1.054688 11.171875 -1.546875 L 11.09375 -2.296875 C 10.457031 -1.472656 9.660156 -0.835938 8.703125 -0.390625 C 7.753906 0.0546875 6.785156 0.28125 5.796875 0.28125 C 4.828125 0.28125 3.953125 0.0820312 3.171875 -0.3125 C 2.398438 -0.71875 1.796875 -1.269531 1.359375 -1.96875 C 0.921875 -2.675781 0.703125 -3.46875 0.703125 -4.34375 Z M 9.828125 -3.578125 C 10.035156 -3.804688 10.203125 -4.03125 10.328125 -4.25 C 10.460938 -4.476562 10.53125 -4.6875 10.53125 -4.875 L 10.53125 -6.359375 C 10.082031 -6.546875 9.59375 -6.6875 9.0625 -6.78125 C 8.539062 -6.882812 8.050781 -6.9375 7.59375 -6.9375 C 6.613281 -6.9375 5.8125 -6.726562 5.1875 -6.3125 C 4.5625 -5.894531 4.25 -5.335938 4.25 -4.640625 C 4.25 -4.273438 4.351562 -3.921875 4.5625 -3.578125 C 4.769531 -3.242188 5.066406 -2.972656 5.453125 -2.765625 C 5.847656 -2.566406 6.316406 -2.46875 6.859375 -2.46875 C 7.421875 -2.46875 7.972656 -2.570312 8.515625 -2.78125 C 9.054688 -3 9.492188 -3.265625 9.828125 -3.578125 Z M 9.828125 -3.578125 "/></g></g></g><g fill="#ffffff" fill-opacity="1"><g transform="translate(238.244394, 230.337393)"><g><path d="M 7.109375 0.28125 C 5.859375 0.28125 4.660156 0.078125 3.515625 -0.328125 C 2.378906 -0.742188 1.40625 -1.351562 0.59375 -2.15625 L 1.9375 -4.59375 C 2.8125 -3.882812 3.671875 -3.359375 4.515625 -3.015625 C 5.367188 -2.679688 6.1875 -2.515625 6.96875 -2.515625 C 7.695312 -2.515625 8.28125 -2.644531 8.71875 -2.90625 C 9.15625 -3.164062 9.375 -3.5625 9.375 -4.09375 C 9.375 -4.445312 9.253906 -4.71875 9.015625 -4.90625 C 8.773438 -5.101562 8.425781 -5.273438 7.96875 -5.421875 C 7.507812 -5.578125 6.953125 -5.75 6.296875 -5.9375 C 5.210938 -6.289062 4.304688 -6.632812 3.578125 -6.96875 C 2.847656 -7.300781 2.300781 -7.722656 1.9375 -8.234375 C 1.582031 -8.753906 1.40625 -9.414062 1.40625 -10.21875 C 1.40625 -11.1875 1.648438 -12.019531 2.140625 -12.71875 C 2.640625 -13.425781 3.332031 -13.972656 4.21875 -14.359375 C 5.101562 -14.753906 6.144531 -14.953125 7.34375 -14.953125 C 8.382812 -14.953125 9.367188 -14.785156 10.296875 -14.453125 C 11.234375 -14.128906 12.085938 -13.601562 12.859375 -12.875 L 11.34375 -10.5 C 10.59375 -11.082031 9.878906 -11.507812 9.203125 -11.78125 C 8.535156 -12.050781 7.859375 -12.1875 7.171875 -12.1875 C 6.773438 -12.1875 6.40625 -12.140625 6.0625 -12.046875 C 5.71875 -11.953125 5.4375 -11.796875 5.21875 -11.578125 C 5.007812 -11.359375 4.90625 -11.054688 4.90625 -10.671875 C 4.90625 -10.316406 5 -10.039062 5.1875 -9.84375 C 5.382812 -9.644531 5.679688 -9.46875 6.078125 -9.3125 C 6.484375 -9.164062 6.976562 -9 7.5625 -8.8125 C 8.738281 -8.476562 9.734375 -8.132812 10.546875 -7.78125 C 11.359375 -7.425781 11.96875 -6.992188 12.375 -6.484375 C 12.78125 -5.972656 12.984375 -5.269531 12.984375 -4.375 C 12.984375 -2.914062 12.453125 -1.773438 11.390625 -0.953125 C 10.328125 -0.128906 8.898438 0.28125 7.109375 0.28125 Z M 7.109375 0.28125 "/></g></g></g><g fill="#ffffff" fill-opacity="1"><g transform="translate(252.074509, 230.337393)"><g><path d="M 10.5 -0.75 C 10.1875 -0.625 9.804688 -0.476562 9.359375 -0.3125 C 8.910156 -0.144531 8.425781 -0.0078125 7.90625 0.09375 C 7.394531 0.195312 6.878906 0.25 6.359375 0.25 C 5.660156 0.25 5.019531 0.128906 4.4375 -0.109375 C 3.863281 -0.347656 3.40625 -0.734375 3.0625 -1.265625 C 2.71875 -1.804688 2.546875 -2.503906 2.546875 -3.359375 L 2.546875 -11.78125 L 0.609375 -11.78125 L 0.609375 -14.671875 L 2.546875 -14.671875 L 2.546875 -19.4375 L 6.296875 -19.4375 L 6.296875 -14.671875 L 9.375 -14.671875 L 9.375 -11.78125 L 6.296875 -11.78125 L 6.296875 -4.625 C 6.316406 -4.113281 6.457031 -3.742188 6.71875 -3.515625 C 6.976562 -3.296875 7.304688 -3.1875 7.703125 -3.1875 C 8.085938 -3.1875 8.46875 -3.25 8.84375 -3.375 C 9.21875 -3.507812 9.519531 -3.625 9.75 -3.71875 Z M 10.5 -0.75 "/></g></g></g></svg>