<svg xmlns="http://www.w3.org/2000/svg" xmlns:xlink="http://www.w3.org/1999/xlink" width="500" zoomAndPan="magnify" viewBox="0 0 375 374.999991" height="500" preserveAspectRatio="xMidYMid meet" version="1.0"><defs><g/><linearGradient x1="0" gradientTransform="matrix(0.75, 0, 0, 0.75, 0.0000045, 0)" y1="0" x2="499.999979" gradientUnits="userSpaceOnUse" y2="0" id="af6979cca0"><stop stop-opacity="1" stop-color="rgb(0%, 28.999329%, 67.799377%)" offset="0"/><stop stop-opacity="1" stop-color="rgb(0.309753%, 29.051208%, 67.886353%)" offset="0.00390625"/><stop stop-opacity="1" stop-color="rgb(0.621033%, 29.104614%, 67.974854%)" offset="0.0078125"/><stop stop-opacity="1" stop-color="rgb(0.932312%, 29.156494%, 68.061829%)" offset="0.0117187"/><stop stop-opacity="1" stop-color="rgb(1.243591%, 29.208374%, 68.148804%)" offset="0.015625"/><stop stop-opacity="1" stop-color="rgb(1.553345%, 29.260254%, 68.235779%)" offset="0.0195312"/><stop stop-opacity="1" stop-color="rgb(1.864624%, 29.31366%, 68.32428%)" offset="0.0234375"/><stop stop-opacity="1" stop-color="rgb(2.175903%, 29.36554%, 68.411255%)" offset="0.0273438"/><stop stop-opacity="1" stop-color="rgb(2.487183%, 29.417419%, 68.499756%)" offset="0.03125"/><stop stop-opacity="1" stop-color="rgb(2.796936%, 29.469299%, 68.586731%)" offset="0.0351562"/><stop stop-opacity="1" stop-color="rgb(3.108215%, 29.522705%, 68.673706%)" offset="0.0390625"/><stop stop-opacity="1" stop-color="rgb(3.419495%, 29.574585%, 68.760681%)" offset="0.0429687"/><stop stop-opacity="1" stop-color="rgb(3.730774%, 29.627991%, 68.849182%)" offset="0.046875"/><stop stop-opacity="1" stop-color="rgb(4.040527%, 29.679871%, 68.936157%)" offset="0.0507812"/><stop stop-opacity="1" stop-color="rgb(4.351807%, 29.73175%, 69.024658%)" offset="0.0546875"/><stop stop-opacity="1" stop-color="rgb(4.663086%, 29.78363%, 69.111633%)" offset="0.0585938"/><stop stop-opacity="1" stop-color="rgb(4.974365%, 29.837036%, 69.198608%)" offset="0.0625"/><stop stop-opacity="1" stop-color="rgb(5.284119%, 29.888916%, 69.285583%)" offset="0.0664062"/><stop stop-opacity="1" stop-color="rgb(5.595398%, 29.940796%, 69.374084%)" offset="0.0703125"/><stop stop-opacity="1" stop-color="rgb(5.906677%, 29.992676%, 69.46106%)" offset="0.0742187"/><stop stop-opacity="1" stop-color="rgb(6.217957%, 30.046082%, 69.549561%)" offset="0.078125"/><stop stop-opacity="1" stop-color="rgb(6.529236%, 30.097961%, 69.636536%)" offset="0.0820312"/><stop stop-opacity="1" stop-color="rgb(6.840515%, 30.151367%, 69.723511%)" offset="0.0859375"/><stop stop-opacity="1" stop-color="rgb(7.150269%, 30.203247%, 69.810486%)" offset="0.0898437"/><stop stop-opacity="1" stop-color="rgb(7.461548%, 30.255127%, 69.898987%)" offset="0.09375"/><stop stop-opacity="1" stop-color="rgb(7.772827%, 30.307007%, 69.985962%)" offset="0.0976562"/><stop stop-opacity="1" stop-color="rgb(8.084106%, 30.360413%, 70.074463%)" offset="0.101562"/><stop stop-opacity="1" stop-color="rgb(8.39386%, 30.412292%, 70.161438%)" offset="0.105469"/><stop stop-opacity="1" stop-color="rgb(8.705139%, 30.464172%, 70.249939%)" offset="0.109375"/><stop stop-opacity="1" stop-color="rgb(9.016418%, 30.516052%, 70.336914%)" offset="0.113281"/><stop stop-opacity="1" stop-color="rgb(9.327698%, 30.569458%, 70.423889%)" offset="0.117188"/><stop stop-opacity="1" stop-color="rgb(9.637451%, 30.621338%, 70.510864%)" offset="0.121094"/><stop stop-opacity="1" stop-color="rgb(9.94873%, 30.674744%, 70.599365%)" offset="0.125"/><stop stop-opacity="1" stop-color="rgb(10.26001%, 30.726624%, 70.68634%)" offset="0.128906"/><stop stop-opacity="1" stop-color="rgb(10.571289%, 30.778503%, 70.774841%)" offset="0.132812"/><stop stop-opacity="1" stop-color="rgb(10.881042%, 30.830383%, 70.861816%)" offset="0.136719"/><stop stop-opacity="1" stop-color="rgb(11.192322%, 30.883789%, 70.948792%)" offset="0.140625"/><stop stop-opacity="1" stop-color="rgb(11.503601%, 30.935669%, 71.035767%)" offset="0.144531"/><stop stop-opacity="1" stop-color="rgb(11.81488%, 30.987549%, 71.124268%)" offset="0.148437"/><stop stop-opacity="1" stop-color="rgb(12.12616%, 31.039429%, 71.211243%)" offset="0.152344"/><stop stop-opacity="1" stop-color="rgb(12.437439%, 31.092834%, 71.299744%)" offset="0.15625"/><stop stop-opacity="1" stop-color="rgb(12.747192%, 31.144714%, 71.386719%)" offset="0.160156"/><stop stop-opacity="1" stop-color="rgb(13.058472%, 31.19812%, 71.473694%)" offset="0.164062"/><stop stop-opacity="1" stop-color="rgb(13.369751%, 31.25%, 71.560669%)" offset="0.167969"/><stop stop-opacity="1" stop-color="rgb(13.68103%, 31.30188%, 71.64917%)" offset="0.171875"/><stop stop-opacity="1" stop-color="rgb(13.990784%, 31.35376%, 71.736145%)" offset="0.175781"/><stop stop-opacity="1" stop-color="rgb(14.302063%, 31.407166%, 71.824646%)" offset="0.179687"/><stop stop-opacity="1" stop-color="rgb(14.613342%, 31.459045%, 71.911621%)" offset="0.183594"/><stop stop-opacity="1" stop-color="rgb(14.924622%, 31.512451%, 71.998596%)" offset="0.1875"/><stop stop-opacity="1" stop-color="rgb(15.234375%, 31.564331%, 72.085571%)" offset="0.191406"/><stop stop-opacity="1" stop-color="rgb(15.545654%, 31.616211%, 72.174072%)" offset="0.195312"/><stop stop-opacity="1" stop-color="rgb(15.856934%, 31.668091%, 72.261047%)" offset="0.199219"/><stop stop-opacity="1" stop-color="rgb(16.168213%, 31.721497%, 72.349548%)" offset="0.203125"/><stop stop-opacity="1" stop-color="rgb(16.477966%, 31.773376%, 72.436523%)" offset="0.207031"/><stop stop-opacity="1" stop-color="rgb(16.789246%, 31.825256%, 72.523499%)" offset="0.210938"/><stop stop-opacity="1" stop-color="rgb(17.100525%, 31.877136%, 72.610474%)" offset="0.214844"/><stop stop-opacity="1" stop-color="rgb(17.411804%, 31.930542%, 72.698975%)" offset="0.21875"/><stop stop-opacity="1" stop-color="rgb(17.723083%, 31.982422%, 72.78595%)" offset="0.222656"/><stop stop-opacity="1" stop-color="rgb(18.034363%, 32.035828%, 72.874451%)" offset="0.226562"/><stop stop-opacity="1" stop-color="rgb(18.344116%, 32.087708%, 72.961426%)" offset="0.230469"/><stop stop-opacity="1" stop-color="rgb(18.655396%, 32.139587%, 73.049927%)" offset="0.234375"/><stop stop-opacity="1" stop-color="rgb(18.966675%, 32.191467%, 73.136902%)" offset="0.238281"/><stop stop-opacity="1" stop-color="rgb(19.277954%, 32.244873%, 73.223877%)" offset="0.242188"/><stop stop-opacity="1" stop-color="rgb(19.587708%, 32.296753%, 73.310852%)" offset="0.246094"/><stop stop-opacity="1" stop-color="rgb(19.898987%, 32.348633%, 73.399353%)" offset="0.25"/><stop stop-opacity="1" stop-color="rgb(20.210266%, 32.400513%, 73.486328%)" offset="0.253906"/><stop stop-opacity="1" stop-color="rgb(20.521545%, 32.453918%, 73.574829%)" offset="0.257812"/><stop stop-opacity="1" stop-color="rgb(20.831299%, 32.505798%, 73.661804%)" offset="0.261719"/><stop stop-opacity="1" stop-color="rgb(21.142578%, 32.559204%, 73.748779%)" offset="0.265625"/><stop stop-opacity="1" stop-color="rgb(21.453857%, 32.611084%, 73.835754%)" offset="0.269531"/><stop stop-opacity="1" stop-color="rgb(21.765137%, 32.662964%, 73.924255%)" offset="0.273437"/><stop stop-opacity="1" stop-color="rgb(22.07489%, 32.714844%, 74.01123%)" offset="0.277344"/><stop stop-opacity="1" stop-color="rgb(22.386169%, 32.76825%, 74.099731%)" offset="0.28125"/><stop stop-opacity="1" stop-color="rgb(22.697449%, 32.820129%, 74.186707%)" offset="0.285156"/><stop stop-opacity="1" stop-color="rgb(23.008728%, 32.872009%, 74.273682%)" offset="0.289062"/><stop stop-opacity="1" stop-color="rgb(23.318481%, 32.923889%, 74.360657%)" offset="0.292969"/><stop stop-opacity="1" stop-color="rgb(23.629761%, 32.977295%, 74.449158%)" offset="0.296875"/><stop stop-opacity="1" stop-color="rgb(23.94104%, 33.029175%, 74.536133%)" offset="0.300781"/><stop stop-opacity="1" stop-color="rgb(24.252319%, 33.082581%, 74.624634%)" offset="0.304687"/><stop stop-opacity="1" stop-color="rgb(24.563599%, 33.13446%, 74.711609%)" offset="0.308594"/><stop stop-opacity="1" stop-color="rgb(24.874878%, 33.18634%, 74.798584%)" offset="0.3125"/><stop stop-opacity="1" stop-color="rgb(25.184631%, 33.23822%, 74.885559%)" offset="0.316406"/><stop stop-opacity="1" stop-color="rgb(25.495911%, 33.291626%, 74.97406%)" offset="0.320312"/><stop stop-opacity="1" stop-color="rgb(25.80719%, 33.343506%, 75.061035%)" offset="0.324219"/><stop stop-opacity="1" stop-color="rgb(26.118469%, 33.395386%, 75.149536%)" offset="0.328125"/><stop stop-opacity="1" stop-color="rgb(26.428223%, 33.447266%, 75.236511%)" offset="0.332031"/><stop stop-opacity="1" stop-color="rgb(26.739502%, 33.500671%, 75.323486%)" offset="0.335937"/><stop stop-opacity="1" stop-color="rgb(27.050781%, 33.552551%, 75.410461%)" offset="0.339844"/><stop stop-opacity="1" stop-color="rgb(27.362061%, 33.605957%, 75.498962%)" offset="0.34375"/><stop stop-opacity="1" stop-color="rgb(27.671814%, 33.657837%, 75.585938%)" offset="0.347656"/><stop stop-opacity="1" stop-color="rgb(27.983093%, 33.709717%, 75.674438%)" offset="0.351562"/><stop stop-opacity="1" stop-color="rgb(28.294373%, 33.761597%, 75.761414%)" offset="0.355469"/><stop stop-opacity="1" stop-color="rgb(28.605652%, 33.815002%, 75.849915%)" offset="0.359375"/><stop stop-opacity="1" stop-color="rgb(28.915405%, 33.866882%, 75.93689%)" offset="0.363281"/><stop stop-opacity="1" stop-color="rgb(29.226685%, 33.920288%, 76.023865%)" offset="0.367187"/><stop stop-opacity="1" stop-color="rgb(29.537964%, 33.972168%, 76.11084%)" offset="0.371094"/><stop stop-opacity="1" stop-color="rgb(29.849243%, 34.024048%, 76.199341%)" offset="0.375"/><stop stop-opacity="1" stop-color="rgb(30.160522%, 34.075928%, 76.286316%)" offset="0.378906"/><stop stop-opacity="1" stop-color="rgb(30.471802%, 34.129333%, 76.374817%)" offset="0.382812"/><stop stop-opacity="1" stop-color="rgb(30.781555%, 34.181213%, 76.461792%)" offset="0.386719"/><stop stop-opacity="1" stop-color="rgb(31.092834%, 34.233093%, 76.548767%)" offset="0.390625"/><stop stop-opacity="1" stop-color="rgb(31.404114%, 34.284973%, 76.635742%)" offset="0.394531"/><stop stop-opacity="1" stop-color="rgb(31.715393%, 34.338379%, 76.724243%)" offset="0.398438"/><stop stop-opacity="1" stop-color="rgb(32.025146%, 34.390259%, 76.811218%)" offset="0.402344"/><stop stop-opacity="1" stop-color="rgb(32.336426%, 34.443665%, 76.899719%)" offset="0.40625"/><stop stop-opacity="1" stop-color="rgb(32.647705%, 34.495544%, 76.986694%)" offset="0.410156"/><stop stop-opacity="1" stop-color="rgb(32.958984%, 34.547424%, 77.073669%)" offset="0.414062"/><stop stop-opacity="1" stop-color="rgb(33.268738%, 34.599304%, 77.160645%)" offset="0.417969"/><stop stop-opacity="1" stop-color="rgb(33.580017%, 34.65271%, 77.249146%)" offset="0.421875"/><stop stop-opacity="1" stop-color="rgb(33.891296%, 34.70459%, 77.336121%)" offset="0.425781"/><stop stop-opacity="1" stop-color="rgb(34.202576%, 34.75647%, 77.424622%)" offset="0.429688"/><stop stop-opacity="1" stop-color="rgb(34.512329%, 34.80835%, 77.511597%)" offset="0.433594"/><stop stop-opacity="1" stop-color="rgb(34.823608%, 34.861755%, 77.598572%)" offset="0.4375"/><stop stop-opacity="1" stop-color="rgb(35.134888%, 34.913635%, 77.685547%)" offset="0.441406"/><stop stop-opacity="1" stop-color="rgb(35.446167%, 34.967041%, 77.774048%)" offset="0.445312"/><stop stop-opacity="1" stop-color="rgb(35.757446%, 35.018921%, 77.861023%)" offset="0.449219"/><stop stop-opacity="1" stop-color="rgb(36.068726%, 35.070801%, 77.949524%)" offset="0.453125"/><stop stop-opacity="1" stop-color="rgb(36.378479%, 35.122681%, 78.036499%)" offset="0.457031"/><stop stop-opacity="1" stop-color="rgb(36.689758%, 35.176086%, 78.123474%)" offset="0.460938"/><stop stop-opacity="1" stop-color="rgb(37.001038%, 35.227966%, 78.210449%)" offset="0.464844"/><stop stop-opacity="1" stop-color="rgb(37.312317%, 35.279846%, 78.29895%)" offset="0.46875"/><stop stop-opacity="1" stop-color="rgb(37.62207%, 35.331726%, 78.385925%)" offset="0.472656"/><stop stop-opacity="1" stop-color="rgb(37.93335%, 35.385132%, 78.474426%)" offset="0.476562"/><stop stop-opacity="1" stop-color="rgb(38.244629%, 35.437012%, 78.561401%)" offset="0.480469"/><stop stop-opacity="1" stop-color="rgb(38.555908%, 35.490417%, 78.649902%)" offset="0.484375"/><stop stop-opacity="1" stop-color="rgb(38.865662%, 35.542297%, 78.736877%)" offset="0.488281"/><stop stop-opacity="1" stop-color="rgb(39.176941%, 35.594177%, 78.823853%)" offset="0.492188"/><stop stop-opacity="1" stop-color="rgb(39.48822%, 35.646057%, 78.910828%)" offset="0.496094"/><stop stop-opacity="1" stop-color="rgb(39.7995%, 35.699463%, 78.999329%)" offset="0.5"/><stop stop-opacity="1" stop-color="rgb(40.109253%, 35.751343%, 79.086304%)" offset="0.503906"/><stop stop-opacity="1" stop-color="rgb(40.420532%, 35.803223%, 79.174805%)" offset="0.507812"/><stop stop-opacity="1" stop-color="rgb(40.731812%, 35.855103%, 79.26178%)" offset="0.511719"/><stop stop-opacity="1" stop-color="rgb(41.043091%, 35.908508%, 79.348755%)" offset="0.515625"/><stop stop-opacity="1" stop-color="rgb(41.352844%, 35.960388%, 79.43573%)" offset="0.519531"/><stop stop-opacity="1" stop-color="rgb(41.664124%, 36.013794%, 79.524231%)" offset="0.523437"/><stop stop-opacity="1" stop-color="rgb(41.975403%, 36.065674%, 79.611206%)" offset="0.527344"/><stop stop-opacity="1" stop-color="rgb(42.286682%, 36.117554%, 79.699707%)" offset="0.53125"/><stop stop-opacity="1" stop-color="rgb(42.597961%, 36.169434%, 79.786682%)" offset="0.535156"/><stop stop-opacity="1" stop-color="rgb(42.909241%, 36.222839%, 79.873657%)" offset="0.539062"/><stop stop-opacity="1" stop-color="rgb(43.218994%, 36.274719%, 79.960632%)" offset="0.542969"/><stop stop-opacity="1" stop-color="rgb(43.530273%, 36.326599%, 80.049133%)" offset="0.546875"/><stop stop-opacity="1" stop-color="rgb(43.841553%, 36.378479%, 80.136108%)" offset="0.550781"/><stop stop-opacity="1" stop-color="rgb(44.152832%, 36.431885%, 80.224609%)" offset="0.554687"/><stop stop-opacity="1" stop-color="rgb(44.462585%, 36.483765%, 80.311584%)" offset="0.558594"/><stop stop-opacity="1" stop-color="rgb(44.773865%, 36.53717%, 80.39856%)" offset="0.5625"/><stop stop-opacity="1" stop-color="rgb(45.085144%, 36.58905%, 80.485535%)" offset="0.566406"/><stop stop-opacity="1" stop-color="rgb(45.396423%, 36.64093%, 80.574036%)" offset="0.570312"/><stop stop-opacity="1" stop-color="rgb(45.706177%, 36.69281%, 80.661011%)" offset="0.574219"/><stop stop-opacity="1" stop-color="rgb(46.017456%, 36.746216%, 80.749512%)" offset="0.578125"/><stop stop-opacity="1" stop-color="rgb(46.328735%, 36.798096%, 80.836487%)" offset="0.582031"/><stop stop-opacity="1" stop-color="rgb(46.640015%, 36.851501%, 80.924988%)" offset="0.585937"/><stop stop-opacity="1" stop-color="rgb(46.949768%, 36.903381%, 81.011963%)" offset="0.589844"/><stop stop-opacity="1" stop-color="rgb(47.261047%, 36.955261%, 81.098938%)" offset="0.59375"/><stop stop-opacity="1" stop-color="rgb(47.572327%, 37.007141%, 81.185913%)" offset="0.597656"/><stop stop-opacity="1" stop-color="rgb(47.883606%, 37.060547%, 81.274414%)" offset="0.601562"/><stop stop-opacity="1" stop-color="rgb(48.194885%, 37.112427%, 81.361389%)" offset="0.605469"/><stop stop-opacity="1" stop-color="rgb(48.506165%, 37.164307%, 81.44989%)" offset="0.609375"/><stop stop-opacity="1" stop-color="rgb(48.815918%, 37.216187%, 81.536865%)" offset="0.613281"/><stop stop-opacity="1" stop-color="rgb(49.127197%, 37.269592%, 81.62384%)" offset="0.617187"/><stop stop-opacity="1" stop-color="rgb(49.438477%, 37.321472%, 81.710815%)" offset="0.621094"/><stop stop-opacity="1" stop-color="rgb(49.749756%, 37.374878%, 81.799316%)" offset="0.625"/><stop stop-opacity="1" stop-color="rgb(50.059509%, 37.426758%, 81.886292%)" offset="0.628906"/><stop stop-opacity="1" stop-color="rgb(50.370789%, 37.478638%, 81.974792%)" offset="0.632812"/><stop stop-opacity="1" stop-color="rgb(50.682068%, 37.530518%, 82.061768%)" offset="0.636719"/><stop stop-opacity="1" stop-color="rgb(50.993347%, 37.583923%, 82.148743%)" offset="0.640625"/><stop stop-opacity="1" stop-color="rgb(51.303101%, 37.635803%, 82.235718%)" offset="0.644531"/><stop stop-opacity="1" stop-color="rgb(51.61438%, 37.687683%, 82.324219%)" offset="0.648437"/><stop stop-opacity="1" stop-color="rgb(51.925659%, 37.739563%, 82.411194%)" offset="0.652344"/><stop stop-opacity="1" stop-color="rgb(52.236938%, 37.792969%, 82.499695%)" offset="0.65625"/><stop stop-opacity="1" stop-color="rgb(52.546692%, 37.844849%, 82.58667%)" offset="0.660156"/><stop stop-opacity="1" stop-color="rgb(52.857971%, 37.898254%, 82.673645%)" offset="0.664062"/><stop stop-opacity="1" stop-color="rgb(53.16925%, 37.950134%, 82.76062%)" offset="0.667969"/><stop stop-opacity="1" stop-color="rgb(53.48053%, 38.002014%, 82.849121%)" offset="0.671875"/><stop stop-opacity="1" stop-color="rgb(53.791809%, 38.053894%, 82.936096%)" offset="0.675781"/><stop stop-opacity="1" stop-color="rgb(54.103088%, 38.1073%, 83.024597%)" offset="0.679687"/><stop stop-opacity="1" stop-color="rgb(54.412842%, 38.15918%, 83.111572%)" offset="0.683594"/><stop stop-opacity="1" stop-color="rgb(54.724121%, 38.21106%, 83.198547%)" offset="0.6875"/><stop stop-opacity="1" stop-color="rgb(55.0354%, 38.262939%, 83.285522%)" offset="0.691406"/><stop stop-opacity="1" stop-color="rgb(55.34668%, 38.316345%, 83.374023%)" offset="0.695312"/><stop stop-opacity="1" stop-color="rgb(55.656433%, 38.368225%, 83.460999%)" offset="0.699219"/><stop stop-opacity="1" stop-color="rgb(55.967712%, 38.421631%, 83.5495%)" offset="0.703125"/><stop stop-opacity="1" stop-color="rgb(56.278992%, 38.473511%, 83.636475%)" offset="0.707031"/><stop stop-opacity="1" stop-color="rgb(56.590271%, 38.525391%, 83.724976%)" offset="0.710937"/><stop stop-opacity="1" stop-color="rgb(56.900024%, 38.577271%, 83.811951%)" offset="0.714844"/><stop stop-opacity="1" stop-color="rgb(57.211304%, 38.630676%, 83.898926%)" offset="0.71875"/><stop stop-opacity="1" stop-color="rgb(57.522583%, 38.682556%, 83.985901%)" offset="0.722656"/><stop stop-opacity="1" stop-color="rgb(57.833862%, 38.734436%, 84.074402%)" offset="0.726562"/><stop stop-opacity="1" stop-color="rgb(58.143616%, 38.786316%, 84.161377%)" offset="0.730469"/><stop stop-opacity="1" stop-color="rgb(58.454895%, 38.839722%, 84.249878%)" offset="0.734375"/><stop stop-opacity="1" stop-color="rgb(58.766174%, 38.891602%, 84.336853%)" offset="0.738281"/><stop stop-opacity="1" stop-color="rgb(59.077454%, 38.945007%, 84.423828%)" offset="0.742187"/><stop stop-opacity="1" stop-color="rgb(59.387207%, 38.996887%, 84.510803%)" offset="0.746094"/><stop stop-opacity="1" stop-color="rgb(59.698486%, 39.048767%, 84.599304%)" offset="0.75"/><stop stop-opacity="1" stop-color="rgb(60.009766%, 39.100647%, 84.686279%)" offset="0.753906"/><stop stop-opacity="1" stop-color="rgb(60.321045%, 39.154053%, 84.77478%)" offset="0.757812"/><stop stop-opacity="1" stop-color="rgb(60.632324%, 39.205933%, 84.861755%)" offset="0.761719"/><stop stop-opacity="1" stop-color="rgb(60.943604%, 39.259338%, 84.94873%)" offset="0.765625"/><stop stop-opacity="1" stop-color="rgb(61.253357%, 39.311218%, 85.035706%)" offset="0.769531"/><stop stop-opacity="1" stop-color="rgb(61.564636%, 39.363098%, 85.124207%)" offset="0.773438"/><stop stop-opacity="1" stop-color="rgb(61.875916%, 39.414978%, 85.211182%)" offset="0.777344"/><stop stop-opacity="1" stop-color="rgb(62.187195%, 39.468384%, 85.299683%)" offset="0.78125"/><stop stop-opacity="1" stop-color="rgb(62.496948%, 39.520264%, 85.386658%)" offset="0.785156"/><stop stop-opacity="1" stop-color="rgb(62.808228%, 39.572144%, 85.473633%)" offset="0.789062"/><stop stop-opacity="1" stop-color="rgb(63.119507%, 39.624023%, 85.560608%)" offset="0.792969"/><stop stop-opacity="1" stop-color="rgb(63.430786%, 39.677429%, 85.649109%)" offset="0.796875"/><stop stop-opacity="1" stop-color="rgb(63.74054%, 39.729309%, 85.736084%)" offset="0.800781"/><stop stop-opacity="1" stop-color="rgb(64.051819%, 39.782715%, 85.824585%)" offset="0.804688"/><stop stop-opacity="1" stop-color="rgb(64.363098%, 39.834595%, 85.91156%)" offset="0.808594"/><stop stop-opacity="1" stop-color="rgb(64.674377%, 39.886475%, 85.998535%)" offset="0.8125"/><stop stop-opacity="1" stop-color="rgb(64.984131%, 39.938354%, 86.08551%)" offset="0.816406"/><stop stop-opacity="1" stop-color="rgb(65.29541%, 39.99176%, 86.174011%)" offset="0.820312"/><stop stop-opacity="1" stop-color="rgb(65.606689%, 40.04364%, 86.260986%)" offset="0.824219"/><stop stop-opacity="1" stop-color="rgb(65.917969%, 40.09552%, 86.349487%)" offset="0.828125"/><stop stop-opacity="1" stop-color="rgb(66.229248%, 40.1474%, 86.436462%)" offset="0.832031"/><stop stop-opacity="1" stop-color="rgb(66.540527%, 40.200806%, 86.524963%)" offset="0.835938"/><stop stop-opacity="1" stop-color="rgb(66.850281%, 40.252686%, 86.611938%)" offset="0.839844"/><stop stop-opacity="1" stop-color="rgb(67.16156%, 40.306091%, 86.698914%)" offset="0.84375"/><stop stop-opacity="1" stop-color="rgb(67.472839%, 40.357971%, 86.785889%)" offset="0.847656"/><stop stop-opacity="1" stop-color="rgb(67.784119%, 40.409851%, 86.87439%)" offset="0.851562"/><stop stop-opacity="1" stop-color="rgb(68.093872%, 40.461731%, 86.961365%)" offset="0.855469"/><stop stop-opacity="1" stop-color="rgb(68.405151%, 40.515137%, 87.049866%)" offset="0.859375"/><stop stop-opacity="1" stop-color="rgb(68.716431%, 40.567017%, 87.136841%)" offset="0.863281"/><stop stop-opacity="1" stop-color="rgb(69.02771%, 40.618896%, 87.223816%)" offset="0.867188"/><stop stop-opacity="1" stop-color="rgb(69.337463%, 40.670776%, 87.310791%)" offset="0.871094"/><stop stop-opacity="1" stop-color="rgb(69.648743%, 40.724182%, 87.399292%)" offset="0.875"/><stop stop-opacity="1" stop-color="rgb(69.960022%, 40.776062%, 87.486267%)" offset="0.878906"/><stop stop-opacity="1" stop-color="rgb(70.271301%, 40.829468%, 87.574768%)" offset="0.882812"/><stop stop-opacity="1" stop-color="rgb(70.581055%, 40.881348%, 87.661743%)" offset="0.886719"/><stop stop-opacity="1" stop-color="rgb(70.892334%, 40.933228%, 87.748718%)" offset="0.890625"/><stop stop-opacity="1" stop-color="rgb(71.203613%, 40.985107%, 87.835693%)" offset="0.894531"/><stop stop-opacity="1" stop-color="rgb(71.514893%, 41.038513%, 87.924194%)" offset="0.898438"/><stop stop-opacity="1" stop-color="rgb(71.826172%, 41.090393%, 88.011169%)" offset="0.902344"/><stop stop-opacity="1" stop-color="rgb(72.137451%, 41.142273%, 88.09967%)" offset="0.90625"/><stop stop-opacity="1" stop-color="rgb(72.447205%, 41.194153%, 88.186646%)" offset="0.910156"/><stop stop-opacity="1" stop-color="rgb(72.758484%, 41.247559%, 88.273621%)" offset="0.914062"/><stop stop-opacity="1" stop-color="rgb(73.069763%, 41.299438%, 88.360596%)" offset="0.917969"/><stop stop-opacity="1" stop-color="rgb(73.381042%, 41.352844%, 88.449097%)" offset="0.921875"/><stop stop-opacity="1" stop-color="rgb(73.690796%, 41.404724%, 88.536072%)" offset="0.925781"/><stop stop-opacity="1" stop-color="rgb(74.002075%, 41.456604%, 88.624573%)" offset="0.929688"/><stop stop-opacity="1" stop-color="rgb(74.313354%, 41.508484%, 88.711548%)" offset="0.933594"/><stop stop-opacity="1" stop-color="rgb(74.624634%, 41.56189%, 88.798523%)" offset="0.9375"/><stop stop-opacity="1" stop-color="rgb(74.934387%, 41.61377%, 88.885498%)" offset="0.941406"/><stop stop-opacity="1" stop-color="rgb(75.245667%, 41.667175%, 88.973999%)" offset="0.945312"/><stop stop-opacity="1" stop-color="rgb(75.556946%, 41.719055%, 89.060974%)" offset="0.949219"/><stop stop-opacity="1" stop-color="rgb(75.868225%, 41.770935%, 89.149475%)" offset="0.953125"/><stop stop-opacity="1" stop-color="rgb(76.177979%, 41.822815%, 89.23645%)" offset="0.957031"/><stop stop-opacity="1" stop-color="rgb(76.489258%, 41.876221%, 89.324951%)" offset="0.960938"/><stop stop-opacity="1" stop-color="rgb(76.800537%, 41.928101%, 89.411926%)" offset="0.964844"/><stop stop-opacity="1" stop-color="rgb(77.111816%, 41.97998%, 89.498901%)" offset="0.96875"/><stop stop-opacity="1" stop-color="rgb(77.42157%, 42.03186%, 89.585876%)" offset="0.972656"/><stop stop-opacity="1" stop-color="rgb(77.732849%, 42.085266%, 89.674377%)" offset="0.976562"/><stop stop-opacity="1" stop-color="rgb(78.044128%, 42.137146%, 89.761353%)" offset="0.980469"/><stop stop-opacity="1" stop-color="rgb(78.355408%, 42.190552%, 89.849854%)" offset="0.984375"/><stop stop-opacity="1" stop-color="rgb(78.666687%, 42.242432%, 89.936829%)" offset="0.988281"/><stop stop-opacity="1" stop-color="rgb(78.977966%, 42.294312%, 90.023804%)" offset="0.992188"/><stop stop-opacity="1" stop-color="rgb(79.28772%, 42.346191%, 90.110779%)" offset="0.996094"/><stop stop-opacity="1" stop-color="rgb(79.598999%, 42.399597%, 90.19928%)" offset="1"/></linearGradient><clipPath id="d6bac8c61b"><path d="M 65.074219 166 L 136.324219 166 L 136.324219 242.257812 L 65.074219 242.257812 Z M 65.074219 166 " clip-rule="nonzero"/></clipPath><clipPath id="2c60307a73"><path d="M 76 132.007812 L 126 132.007812 L 126 154 L 76 154 Z M 76 132.007812 " clip-rule="nonzero"/></clipPath></defs><rect x="-37.5" width="450" fill="#ffffff" y="-37.499999" height="449.999989" fill-opacity="1"/><rect x="-37.5" fill="url(#af6979cca0)" width="450" y="-37.499999" height="449.999989"/><path fill="#a6a6a6" d="M 108.457031 182.488281 C 108.789062 182.882812 108.925781 183.40625 108.832031 183.914062 L 107.71875 189.941406 L 116.070312 182.316406 C 116.390625 182.023438 116.808594 181.859375 117.242188 181.859375 L 125.441406 181.859375 L 125.441406 157.285156 L 75.996094 157.285156 L 75.996094 181.859375 L 107.121094 181.859375 C 107.636719 181.859375 108.128906 182.089844 108.457031 182.488281 Z M 112.164062 166.863281 C 113.660156 166.863281 114.871094 168.078125 114.871094 169.574219 C 114.871094 171.070312 113.660156 172.28125 112.164062 172.28125 C 110.667969 172.28125 109.453125 171.070312 109.453125 169.574219 C 109.453125 168.078125 110.667969 166.863281 112.164062 166.863281 Z M 89.269531 172.28125 C 87.777344 172.28125 86.5625 171.070312 86.5625 169.574219 C 86.5625 168.078125 87.777344 166.863281 89.269531 166.863281 C 90.769531 166.863281 91.980469 168.078125 91.980469 169.574219 C 91.980469 171.070312 90.769531 172.28125 89.269531 172.28125 Z M 100.71875 172.28125 C 99.222656 172.28125 98.007812 171.070312 98.007812 169.574219 C 98.007812 168.078125 99.222656 166.863281 100.71875 166.863281 C 102.214844 166.863281 103.425781 168.078125 103.425781 169.574219 C 103.425781 171.070312 102.214844 172.28125 100.71875 172.28125 Z M 100.71875 172.28125 " fill-opacity="1" fill-rule="nonzero"/><g clip-path="url(#d6bac8c61b)"><path fill="#ffffff" d="M 130.40625 166.433594 L 130.40625 182.414062 C 130.40625 198.78125 117.085938 212.101562 100.71875 212.101562 C 84.347656 212.101562 71.03125 198.78125 71.03125 182.414062 L 71.03125 166.433594 L 65.074219 166.433594 L 65.074219 182.414062 C 65.074219 201.0625 79.476562 216.402344 97.738281 217.921875 L 97.738281 232.488281 C 85.589844 232.777344 76.171875 234.832031 76.171875 237.320312 C 76.171875 240.007812 87.164062 242.1875 100.71875 242.1875 C 114.273438 242.1875 125.261719 240.007812 125.261719 237.320312 C 125.261719 234.832031 115.847656 232.777344 103.695312 232.488281 L 103.695312 217.921875 C 121.960938 216.402344 136.359375 201.0625 136.359375 182.414062 L 136.359375 166.433594 Z M 130.40625 166.433594 " fill-opacity="1" fill-rule="nonzero"/></g><path fill="#ffffff" d="M 76.171875 185.335938 C 77.621094 197.613281 88.054688 207.136719 100.71875 207.136719 C 113.382812 207.136719 123.816406 197.613281 125.261719 185.335938 L 117.917969 185.335938 L 104.230469 196.230469 L 105.035156 185.335938 Z M 76.171875 185.335938 " fill-opacity="1" fill-rule="nonzero"/><g clip-path="url(#2c60307a73)"><path fill="#ffffff" d="M 100.71875 132.007812 C 88.054688 132.007812 77.621094 141.53125 76.171875 153.808594 L 125.261719 153.808594 C 123.816406 141.53125 113.382812 132.007812 100.71875 132.007812 Z M 100.71875 132.007812 " fill-opacity="1" fill-rule="nonzero"/></g><g fill="#ffffff" fill-opacity="1"><g transform="translate(155.230689, 162.178858)"><g><path d="M 19.53125 -24.324219 L 0.730469 -24.324219 L 0.730469 -19.425781 L 7.507812 -19.425781 L 7.507812 0 L 12.753906 0 L 12.753906 -19.425781 L 19.53125 -19.425781 Z M 19.53125 -24.324219 "/></g></g></g><g fill="#ffffff" fill-opacity="1"><g transform="translate(175.523876, 162.178858)"><g><path d="M 17.722656 -18.765625 L 17.203125 -16.992188 C 15.566406 -18.417969 13.449219 -19.285156 11.015625 -19.285156 C 5.386719 -19.285156 1.179688 -15.046875 1.179688 -9.382812 C 1.179688 -3.71875 5.386719 0.554688 11.015625 0.554688 C 13.414062 0.554688 15.5 -0.277344 17.097656 -1.703125 L 17.546875 0 L 21.511719 0 L 21.511719 -18.765625 Z M 11.433594 -4.238281 C 8.480469 -4.238281 6.324219 -6.464844 6.324219 -9.382812 C 6.324219 -12.335938 8.480469 -14.527344 11.433594 -14.527344 C 14.386719 -14.527344 16.539062 -12.335938 16.539062 -9.382812 C 16.539062 -6.429688 14.386719 -4.238281 11.433594 -4.238281 Z M 11.433594 -4.238281 "/></g></g></g><g fill="#ffffff" fill-opacity="1"><g transform="translate(199.500417, 162.178858)"><g><path d="M 2.433594 0 L 7.507812 0 L 7.507812 -25.507812 L 2.433594 -25.507812 Z M 2.433594 0 "/></g></g></g><g fill="#ffffff" fill-opacity="1"><g transform="translate(209.438518, 162.178858)"><g><path d="M 19.632812 0 L 12.613281 -9.800781 L 18.972656 -18.765625 L 13.136719 -18.765625 L 7.507812 -10.425781 L 7.507812 -25.507812 L 2.433594 -25.507812 L 2.433594 0 L 7.507812 0 L 7.507812 -8.964844 L 13.484375 0 Z M 19.632812 0 "/></g></g></g><g fill="#ffffff" fill-opacity="1"><g transform="translate(155.230689, 196.713722)"><g><path d="M 12.128906 -24.324219 L 2.78125 -24.324219 L 2.78125 0 L 8.027344 0 L 8.027344 -7.574219 L 12.128906 -7.574219 C 17.027344 -7.574219 20.710938 -11.15625 20.710938 -15.949219 C 20.710938 -20.746094 16.992188 -24.324219 12.128906 -24.324219 Z M 11.882812 -12.441406 L 8.027344 -12.441406 L 8.027344 -19.425781 L 11.882812 -19.425781 C 13.96875 -19.425781 15.394531 -17.964844 15.394531 -15.949219 C 15.394531 -13.933594 13.96875 -12.441406 11.882812 -12.441406 Z M 11.882812 -12.441406 "/></g></g></g><g fill="#ffffff" fill-opacity="1"><g transform="translate(176.844329, 196.713722)"><g><path d="M 11.328125 0.554688 C 17.132812 0.554688 21.476562 -3.71875 21.476562 -9.382812 C 21.476562 -15.046875 17.132812 -19.285156 11.328125 -19.285156 C 5.523438 -19.285156 1.179688 -15.046875 1.179688 -9.382812 C 1.179688 -3.71875 5.523438 0.554688 11.328125 0.554688 Z M 11.328125 -4.238281 C 8.410156 -4.238281 6.324219 -6.324219 6.324219 -9.382812 C 6.324219 -12.40625 8.410156 -14.527344 11.328125 -14.527344 C 14.246094 -14.527344 16.332031 -12.40625 16.332031 -9.382812 C 16.332031 -6.324219 14.246094 -4.238281 11.328125 -4.238281 Z M 11.328125 -4.238281 "/></g></g></g><g fill="#ffffff" fill-opacity="1"><g transform="translate(199.535176, 196.713722)"><g><path d="M 16.195312 -25.507812 L 16.195312 -17.722656 C 14.734375 -18.730469 12.996094 -19.285156 11.050781 -19.285156 C 5.351562 -19.285156 1.179688 -15.046875 1.179688 -9.347656 C 1.179688 -3.683594 5.351562 0.589844 11.050781 0.589844 C 13.34375 0.589844 15.359375 -0.207031 16.921875 -1.527344 L 17.515625 0.0351562 L 21.265625 0.0351562 L 21.265625 -25.507812 Z M 11.46875 -4.203125 C 8.515625 -4.203125 6.359375 -6.429688 6.359375 -9.347656 C 6.359375 -12.300781 8.515625 -14.492188 11.46875 -14.492188 C 14.421875 -14.492188 16.574219 -12.300781 16.574219 -9.347656 C 16.574219 -6.429688 14.421875 -4.203125 11.46875 -4.203125 Z M 11.46875 -4.203125 "/></g></g></g><g fill="#ffffff" fill-opacity="1"><g transform="translate(223.26848, 196.713722)"><g><path d="M 11.15625 0.554688 C 16.054688 0.554688 19.910156 -2.640625 20.78125 -7.367188 L 15.671875 -7.367188 C 14.804688 -5.351562 13.203125 -4.238281 11.15625 -4.238281 C 8.445312 -4.238281 6.324219 -6.5 6.324219 -9.382812 C 6.324219 -12.300781 8.410156 -14.527344 11.15625 -14.527344 C 13.171875 -14.527344 14.871094 -13.414062 15.671875 -11.570312 L 20.710938 -11.570312 C 19.808594 -16.195312 16.054688 -19.285156 11.191406 -19.285156 C 5.492188 -19.285156 1.179688 -15.046875 1.179688 -9.417969 C 1.179688 -3.789062 5.492188 0.554688 11.15625 0.554688 Z M 11.15625 0.554688 "/></g></g></g><g fill="#ffffff" fill-opacity="1"><g transform="translate(244.986359, 196.713722)"><g><path d="M 17.722656 -18.765625 L 17.203125 -16.992188 C 15.566406 -18.417969 13.449219 -19.285156 11.015625 -19.285156 C 5.386719 -19.285156 1.179688 -15.046875 1.179688 -9.382812 C 1.179688 -3.71875 5.386719 0.554688 11.015625 0.554688 C 13.414062 0.554688 15.5 -0.277344 17.097656 -1.703125 L 17.546875 0 L 21.511719 0 L 21.511719 -18.765625 Z M 11.433594 -4.238281 C 8.480469 -4.238281 6.324219 -6.464844 6.324219 -9.382812 C 6.324219 -12.335938 8.480469 -14.527344 11.433594 -14.527344 C 14.386719 -14.527344 16.539062 -12.335938 16.539062 -9.382812 C 16.539062 -6.429688 14.386719 -4.238281 11.433594 -4.238281 Z M 11.433594 -4.238281 "/></g></g></g><g fill="#ffffff" fill-opacity="1"><g transform="translate(268.962899, 196.713722)"><g><path d="M 9.070312 0.554688 C 13.832031 0.554688 16.957031 -1.945312 16.957031 -5.769531 C 16.957031 -10.355469 13.03125 -10.980469 9.972656 -11.535156 C 8.027344 -11.882812 6.429688 -12.195312 6.429688 -13.449219 C 6.429688 -14.527344 7.367188 -15.21875 8.929688 -15.21875 C 10.703125 -15.21875 11.746094 -14.492188 11.78125 -12.996094 L 16.609375 -12.996094 C 16.574219 -16.75 13.585938 -19.285156 9.070312 -19.285156 C 4.550781 -19.285156 1.527344 -16.820312 1.527344 -13.273438 C 1.527344 -8.859375 5.351562 -8.0625 8.339844 -7.539062 C 10.320312 -7.226562 11.953125 -6.847656 11.953125 -5.558594 C 11.953125 -4.308594 10.667969 -3.648438 9.277344 -3.648438 C 7.472656 -3.648438 6.183594 -4.484375 6.152344 -6.152344 L 1.214844 -6.152344 C 1.214844 -2.15625 4.378906 0.554688 9.070312 0.554688 Z M 9.070312 0.554688 "/></g></g></g><g fill="#ffffff" fill-opacity="1"><g transform="translate(287.205923, 196.713722)"><g><path d="M 11.605469 -4.515625 C 9.730469 -4.515625 8.6875 -5.558594 8.6875 -7.367188 L 8.6875 -14.664062 L 13.796875 -14.664062 L 13.796875 -18.765625 L 8.617188 -18.765625 L 8.617188 -23.628906 L 7.644531 -23.628906 L 0.242188 -15.777344 L 0.242188 -14.664062 L 3.613281 -14.664062 L 3.613281 -6.671875 C 3.613281 -2.535156 6.152344 0 10.285156 0 L 13.898438 0 L 13.898438 -4.515625 Z M 11.605469 -4.515625 "/></g></g></g><g fill="#ffffff" fill-opacity="1"><g transform="translate(155.230689, 231.248586)"><g><path d="M 10.84375 0.488281 C 15.878906 0.488281 20.050781 -2.050781 20.050781 -7.296875 C 20.050781 -12.753906 15.394531 -13.898438 11.710938 -14.839844 C 9.105469 -15.464844 7.019531 -15.984375 7.019531 -17.6875 C 7.019531 -19.285156 8.722656 -20.015625 10.425781 -20.015625 C 12.40625 -20.015625 14.144531 -19.042969 14.144531 -16.921875 L 19.320312 -16.921875 C 19.320312 -21.789062 16.160156 -24.777344 10.5625 -24.777344 C 5.179688 -24.777344 1.738281 -22.136719 1.738281 -17.480469 C 1.738281 -12.230469 6.183594 -11.15625 9.867188 -10.25 C 12.511719 -9.660156 14.734375 -9.140625 14.734375 -7.226562 C 14.734375 -5.421875 12.789062 -4.378906 10.808594 -4.378906 C 8.652344 -4.378906 6.707031 -5.523438 6.707031 -7.851562 L 1.390625 -7.851562 C 1.390625 -2.640625 5.246094 0.488281 10.84375 0.488281 Z M 10.84375 0.488281 "/></g></g></g><g fill="#ffffff" fill-opacity="1"><g transform="translate(176.740081, 231.248586)"><g><path d="M 11.605469 -4.515625 C 9.730469 -4.515625 8.6875 -5.558594 8.6875 -7.367188 L 8.6875 -14.664062 L 13.796875 -14.664062 L 13.796875 -18.765625 L 8.617188 -18.765625 L 8.617188 -23.628906 L 7.644531 -23.628906 L 0.242188 -15.777344 L 0.242188 -14.664062 L 3.613281 -14.664062 L 3.613281 -6.671875 C 3.613281 -2.535156 6.152344 0 10.285156 0 L 13.898438 0 L 13.898438 -4.515625 Z M 11.605469 -4.515625 "/></g></g></g><g fill="#ffffff" fill-opacity="1"><g transform="translate(191.681988, 231.248586)"><g><path d="M 10.980469 0.554688 C 16.296875 0.554688 19.808594 -2.847656 19.808594 -7.921875 L 19.808594 -18.765625 L 14.734375 -18.765625 L 14.734375 -8.480469 C 14.734375 -5.839844 13.34375 -4.238281 10.980469 -4.238281 C 8.652344 -4.238281 7.226562 -5.804688 7.226562 -8.480469 L 7.226562 -18.765625 L 2.15625 -18.765625 L 2.15625 -7.921875 C 2.15625 -2.847656 5.699219 0.554688 10.980469 0.554688 Z M 10.980469 0.554688 "/></g></g></g><g fill="#ffffff" fill-opacity="1"><g transform="translate(213.677864, 231.248586)"><g><path d="M 16.195312 -25.507812 L 16.195312 -17.722656 C 14.734375 -18.730469 12.996094 -19.285156 11.050781 -19.285156 C 5.351562 -19.285156 1.179688 -15.046875 1.179688 -9.347656 C 1.179688 -3.683594 5.351562 0.589844 11.050781 0.589844 C 13.34375 0.589844 15.359375 -0.207031 16.921875 -1.527344 L 17.515625 0.0351562 L 21.265625 0.0351562 L 21.265625 -25.507812 Z M 11.46875 -4.203125 C 8.515625 -4.203125 6.359375 -6.429688 6.359375 -9.347656 C 6.359375 -12.300781 8.515625 -14.492188 11.46875 -14.492188 C 14.421875 -14.492188 16.574219 -12.300781 16.574219 -9.347656 C 16.574219 -6.429688 14.421875 -4.203125 11.46875 -4.203125 Z M 11.46875 -4.203125 "/></g></g></g><g fill="#ffffff" fill-opacity="1"><g transform="translate(237.411167, 231.248586)"><g><path d="M 2.433594 -21.265625 L 7.472656 -21.265625 L 7.472656 -25.957031 L 2.433594 -25.957031 Z M 2.433594 0 L 7.507812 0 L 7.507812 -18.765625 L 2.433594 -18.765625 Z M 2.433594 0 "/></g></g></g><g fill="#ffffff" fill-opacity="1"><g transform="translate(247.349269, 231.248586)"><g><path d="M 11.328125 0.554688 C 17.132812 0.554688 21.476562 -3.71875 21.476562 -9.382812 C 21.476562 -15.046875 17.132812 -19.285156 11.328125 -19.285156 C 5.523438 -19.285156 1.179688 -15.046875 1.179688 -9.382812 C 1.179688 -3.71875 5.523438 0.554688 11.328125 0.554688 Z M 11.328125 -4.238281 C 8.410156 -4.238281 6.324219 -6.324219 6.324219 -9.382812 C 6.324219 -12.40625 8.410156 -14.527344 11.328125 -14.527344 C 14.246094 -14.527344 16.332031 -12.40625 16.332031 -9.382812 C 16.332031 -6.324219 14.246094 -4.238281 11.328125 -4.238281 Z M 11.328125 -4.238281 "/></g></g></g></svg>