<svg xmlns="http://www.w3.org/2000/svg" xmlns:xlink="http://www.w3.org/1999/xlink" width="500" zoomAndPan="magnify" viewBox="0 0 375 374.999991" height="500" preserveAspectRatio="xMidYMid meet" version="1.0"><defs><g/><clipPath id="c5f8ebdbc7"><path d="M 186 147 L 237 147 L 237 190.574219 L 186 190.574219 Z M 186 147 " clip-rule="nonzero"/></clipPath><clipPath id="0d359e7e85"><path d="M 138 102.824219 L 184 102.824219 L 184 190.574219 L 138 190.574219 Z M 138 102.824219 " clip-rule="nonzero"/></clipPath></defs><rect x="-37.5" width="450" fill="#ffffff" y="-37.499999" height="449.999989" fill-opacity="1"/><rect x="-37.5" width="450" fill="#050a30" y="-37.499999" height="449.999989" fill-opacity="1"/><path fill="#233dff" d="M 180.679688 151.777344 C 177.90625 151.273438 175.886719 148.75 176.390625 145.972656 C 176.894531 143.199219 179.417969 141.179688 182.195312 141.683594 C 182.699219 141.683594 182.953125 141.9375 183.457031 141.9375 L 183.457031 151.273438 C 182.449219 151.777344 181.4375 151.777344 180.429688 151.523438 Z M 180.679688 151.777344 " fill-opacity="1" fill-rule="nonzero"/><g clip-path="url(#c5f8ebdbc7)"><path fill="#cae8ff" d="M 186.738281 150.011719 C 186.738281 148.75 187.746094 147.738281 189.007812 147.738281 C 190.269531 147.738281 191.28125 148.75 191.28125 150.011719 C 191.28125 161.367188 200.363281 170.449219 211.71875 170.449219 C 223.074219 170.449219 232.160156 161.367188 232.160156 150.011719 C 232.160156 148.75 233.167969 147.738281 234.429688 147.738281 C 235.691406 147.738281 236.699219 148.75 236.699219 150.011719 C 236.699219 162.878906 226.605469 173.480469 213.992188 174.742188 L 213.992188 186.601562 L 221.8125 186.601562 C 223.074219 186.601562 224.082031 187.609375 224.082031 188.871094 C 224.082031 190.132812 223.074219 191.140625 221.8125 191.140625 L 201.878906 191.140625 C 200.617188 191.140625 199.605469 190.132812 199.605469 188.871094 C 199.605469 187.609375 200.617188 186.601562 201.878906 186.601562 L 209.699219 186.601562 L 209.699219 174.742188 C 197.082031 173.730469 186.988281 162.878906 186.988281 150.011719 Z M 186.738281 150.011719 " fill-opacity="1" fill-rule="nonzero"/></g><path fill="#233dff" d="M 200.617188 140.421875 C 202.382812 140.421875 203.898438 138.90625 203.898438 137.140625 C 203.898438 135.375 202.382812 133.859375 200.617188 133.859375 L 195.570312 133.859375 L 195.570312 128.5625 L 200.617188 128.5625 C 202.382812 128.5625 203.898438 127.046875 203.898438 125.28125 C 203.898438 123.515625 202.382812 122 200.617188 122 L 195.570312 122 L 195.570312 119.984375 C 195.570312 111.152344 202.636719 104.085938 211.46875 104.085938 C 220.296875 104.085938 227.363281 111.152344 227.363281 119.984375 L 227.363281 122 L 222.316406 122 C 220.550781 122 219.035156 123.515625 219.035156 125.28125 C 219.035156 127.046875 220.550781 128.5625 222.316406 128.5625 L 227.363281 128.5625 L 227.363281 133.859375 L 222.316406 133.859375 C 220.550781 133.859375 219.035156 135.375 219.035156 137.140625 C 219.035156 138.90625 220.550781 140.421875 222.316406 140.421875 L 227.363281 140.421875 L 227.363281 150.011719 C 227.363281 158.84375 220.296875 165.910156 211.46875 165.910156 C 202.636719 165.910156 195.570312 158.84375 195.570312 150.011719 L 195.570312 140.421875 Z M 200.617188 140.421875 " fill-opacity="1" fill-rule="nonzero"/><g clip-path="url(#0d359e7e85)"><path fill="#cae8ff" d="M 183.710938 131.84375 L 183.710938 102.824219 C 162.261719 102.320312 143.082031 117.710938 139.296875 139.414062 C 135.261719 163.386719 151.410156 186.09375 175.382812 190.132812 C 178.15625 190.636719 180.933594 190.890625 183.710938 190.636719 L 183.710938 161.617188 C 182.699219 161.617188 181.691406 161.617188 180.679688 161.367188 C 172.355469 160.105469 166.804688 152.28125 168.066406 144.207031 C 169.328125 136.890625 176.140625 131.589844 183.710938 131.84375 Z M 163.523438 132.601562 L 165.542969 133.609375 C 163.773438 137.644531 163.019531 142.1875 163.269531 146.476562 C 163.523438 151.019531 165.035156 155.5625 167.308594 159.601562 L 165.289062 160.355469 C 162.765625 156.066406 161.25 151.273438 161 146.476562 C 160.746094 141.683594 161.503906 136.890625 163.523438 132.347656 Z M 158.222656 130.078125 C 155.953125 135.375 154.691406 141.179688 155.195312 146.984375 C 155.449219 152.535156 157.214844 158.085938 159.988281 162.878906 L 157.972656 163.890625 C 155.195312 158.84375 153.429688 153.039062 153.175781 147.234375 C 152.925781 140.925781 153.933594 134.871094 156.457031 129.066406 L 158.476562 130.078125 Z M 147.371094 147.488281 C 147.625 153.796875 149.644531 160.105469 152.671875 165.65625 L 150.652344 166.414062 C 147.625 160.609375 145.605469 154.046875 145.355469 147.488281 C 144.847656 140.167969 146.109375 132.851562 149.140625 126.292969 L 151.15625 127.300781 C 148.382812 133.859375 147.121094 140.675781 147.625 147.488281 Z M 147.371094 147.488281 " fill-opacity="1" fill-rule="nonzero"/></g><g fill="#f4f6fc" fill-opacity="1"><g transform="translate(104.531111, 240.089451)"><g><path d="M 15.875 -31.78125 C 17.863281 -31.78125 19.613281 -31.375 21.125 -30.5625 C 22.632812 -29.75 23.804688 -28.59375 24.640625 -27.09375 C 25.472656 -25.59375 25.890625 -23.878906 25.890625 -21.953125 C 25.890625 -20.046875 25.457031 -18.363281 24.59375 -16.90625 C 23.738281 -15.457031 22.53125 -14.332031 20.96875 -13.53125 C 19.414062 -12.726562 17.625 -12.328125 15.59375 -12.328125 L 9.203125 -12.328125 C 9.023438 -12.328125 8.9375 -12.238281 8.9375 -12.0625 L 8.9375 -0.765625 C 8.9375 -0.253906 8.675781 0 8.15625 0 L 3.3125 0 C 2.800781 0 2.546875 -0.253906 2.546875 -0.765625 L 2.546875 -31.015625 C 2.546875 -31.523438 2.800781 -31.78125 3.3125 -31.78125 Z M 14.921875 -17.453125 C 16.304688 -17.453125 17.421875 -17.851562 18.265625 -18.65625 C 19.117188 -19.457031 19.546875 -20.507812 19.546875 -21.8125 C 19.546875 -23.144531 19.117188 -24.21875 18.265625 -25.03125 C 17.421875 -25.84375 16.304688 -26.25 14.921875 -26.25 L 9.203125 -26.25 C 9.023438 -26.25 8.9375 -26.160156 8.9375 -25.984375 L 8.9375 -17.734375 C 8.9375 -17.546875 9.023438 -17.453125 9.203125 -17.453125 Z M 14.921875 -17.453125 "/></g></g></g><g fill="#f4f6fc" fill-opacity="1"><g transform="translate(131.602253, 240.089451)"><g><path d="M 12.703125 0.359375 C 10.128906 0.359375 7.9375 -0.300781 6.125 -1.625 C 4.3125 -2.957031 3.070312 -4.773438 2.40625 -7.078125 C 1.976562 -8.492188 1.765625 -10.035156 1.765625 -11.703125 C 1.765625 -13.546875 1.992188 -15.144531 2.453125 -16.5 C 3.140625 -18.738281 4.382812 -20.492188 6.1875 -21.765625 C 7.988281 -23.035156 10.171875 -23.671875 12.734375 -23.671875 C 15.210938 -23.671875 17.335938 -23.035156 19.109375 -21.765625 C 20.878906 -20.492188 22.113281 -18.753906 22.8125 -16.546875 C 23.257812 -15.160156 23.484375 -13.578125 23.484375 -11.796875 C 23.484375 -10.222656 23.289062 -8.691406 22.90625 -7.203125 C 22.207031 -4.847656 20.957031 -3 19.15625 -1.65625 C 17.351562 -0.3125 15.203125 0.359375 12.703125 0.359375 Z M 12.703125 -5.125 C 13.660156 -5.125 14.488281 -5.425781 15.1875 -6.03125 C 15.882812 -6.632812 16.382812 -7.46875 16.6875 -8.53125 C 16.925781 -9.34375 17.046875 -10.398438 17.046875 -11.703125 C 17.046875 -12.972656 16.925781 -14.046875 16.6875 -14.921875 C 16.382812 -15.941406 15.882812 -16.738281 15.1875 -17.3125 C 14.488281 -17.894531 13.628906 -18.1875 12.609375 -18.1875 C 11.609375 -18.1875 10.757812 -17.894531 10.0625 -17.3125 C 9.363281 -16.738281 8.863281 -15.941406 8.5625 -14.921875 C 8.320312 -14.046875 8.203125 -12.972656 8.203125 -11.703125 C 8.203125 -10.460938 8.320312 -9.40625 8.5625 -8.53125 C 8.863281 -7.46875 9.367188 -6.632812 10.078125 -6.03125 C 10.796875 -5.425781 11.671875 -5.125 12.703125 -5.125 Z M 12.703125 -5.125 "/></g></g></g><g fill="#f4f6fc" fill-opacity="1"><g transform="translate(156.859585, 240.089451)"><g><path d="M 16.421875 -30.96875 C 16.421875 -31.476562 16.675781 -31.734375 17.1875 -31.734375 L 22.03125 -31.734375 C 22.550781 -31.734375 22.8125 -31.476562 22.8125 -30.96875 L 22.8125 -0.765625 C 22.8125 -0.253906 22.550781 0 22.03125 0 L 17.1875 0 C 16.675781 0 16.421875 -0.253906 16.421875 -0.765625 L 16.421875 -2 C 16.421875 -2.113281 16.378906 -2.175781 16.296875 -2.1875 C 16.222656 -2.207031 16.15625 -2.171875 16.09375 -2.078125 C 14.851562 -0.453125 13.128906 0.359375 10.921875 0.359375 C 8.867188 0.359375 7.046875 -0.25 5.453125 -1.46875 C 3.867188 -2.695312 2.773438 -4.304688 2.171875 -6.296875 C 1.660156 -7.753906 1.40625 -9.570312 1.40625 -11.75 C 1.40625 -13.976562 1.691406 -15.847656 2.265625 -17.359375 C 2.929688 -19.296875 4.023438 -20.835938 5.546875 -21.984375 C 7.078125 -23.140625 8.867188 -23.71875 10.921875 -23.71875 C 13.160156 -23.71875 14.882812 -22.976562 16.09375 -21.5 C 16.15625 -21.40625 16.222656 -21.375 16.296875 -21.40625 C 16.378906 -21.4375 16.421875 -21.507812 16.421875 -21.625 Z M 15.46875 -7.171875 C 16.070312 -8.285156 16.375 -9.78125 16.375 -11.65625 C 16.375 -13.644531 16.054688 -15.203125 15.421875 -16.328125 C 14.660156 -17.503906 13.644531 -18.09375 12.375 -18.09375 C 10.988281 -18.09375 9.929688 -17.519531 9.203125 -16.375 C 8.472656 -15.164062 8.109375 -13.578125 8.109375 -11.609375 C 8.109375 -9.828125 8.425781 -8.347656 9.0625 -7.171875 C 9.789062 -5.867188 10.894531 -5.21875 12.375 -5.21875 C 13.707031 -5.21875 14.738281 -5.867188 15.46875 -7.171875 Z M 15.46875 -7.171875 "/></g></g></g><g fill="#f4f6fc" fill-opacity="1"><g transform="translate(182.116917, 240.089451)"><g><path d="M 12.609375 0.359375 C 10.191406 0.359375 8.097656 -0.242188 6.328125 -1.453125 C 4.554688 -2.660156 3.296875 -4.320312 2.546875 -6.4375 C 2.023438 -7.945312 1.765625 -9.734375 1.765625 -11.796875 C 1.765625 -13.816406 2.023438 -15.566406 2.546875 -17.046875 C 3.265625 -19.097656 4.515625 -20.710938 6.296875 -21.890625 C 8.085938 -23.078125 10.191406 -23.671875 12.609375 -23.671875 C 15.023438 -23.671875 17.144531 -23.066406 18.96875 -21.859375 C 20.800781 -20.648438 22.019531 -19.125 22.625 -17.28125 C 22.8125 -16.851562 22.929688 -16.382812 22.984375 -15.875 L 22.984375 -15.78125 C 22.984375 -15.382812 22.757812 -15.140625 22.3125 -15.046875 L 17.546875 -14.328125 L 17.328125 -14.28125 C 16.960938 -14.28125 16.75 -14.460938 16.6875 -14.828125 L 16.546875 -15.46875 C 16.335938 -16.25 15.867188 -16.894531 15.140625 -17.40625 C 14.421875 -17.925781 13.5625 -18.1875 12.5625 -18.1875 C 11.59375 -18.1875 10.773438 -17.941406 10.109375 -17.453125 C 9.441406 -16.972656 8.972656 -16.3125 8.703125 -15.46875 C 8.367188 -14.5625 8.203125 -13.320312 8.203125 -11.75 C 8.203125 -10.175781 8.351562 -8.9375 8.65625 -8.03125 C 8.925781 -7.125 9.398438 -6.410156 10.078125 -5.890625 C 10.765625 -5.378906 11.59375 -5.125 12.5625 -5.125 C 13.5 -5.125 14.320312 -5.375 15.03125 -5.875 C 15.738281 -6.375 16.226562 -7.046875 16.5 -7.890625 L 16.546875 -8.109375 C 16.578125 -8.234375 16.679688 -8.378906 16.859375 -8.546875 C 17.046875 -8.710938 17.242188 -8.78125 17.453125 -8.75 L 22.21875 -8.03125 C 22.457031 -7.96875 22.628906 -7.859375 22.734375 -7.703125 C 22.847656 -7.554688 22.890625 -7.378906 22.859375 -7.171875 C 22.796875 -6.679688 22.71875 -6.332031 22.625 -6.125 C 21.988281 -4.09375 20.753906 -2.503906 18.921875 -1.359375 C 17.097656 -0.210938 14.992188 0.359375 12.609375 0.359375 Z M 12.609375 0.359375 "/></g></g></g><g fill="#f4f6fc" fill-opacity="1"><g transform="translate(206.467349, 240.089451)"><g><path d="M 11.703125 -23.671875 C 13.660156 -23.671875 15.410156 -23.328125 16.953125 -22.640625 C 18.492188 -21.960938 19.695312 -21.035156 20.5625 -19.859375 C 21.425781 -18.679688 21.859375 -17.367188 21.859375 -15.921875 L 21.859375 -0.765625 C 21.859375 -0.253906 21.597656 0 21.078125 0 L 16.234375 0 C 15.722656 0 15.46875 -0.253906 15.46875 -0.765625 L 15.46875 -1.859375 C 15.46875 -1.984375 15.4375 -2.050781 15.375 -2.0625 C 15.3125 -2.070312 15.234375 -2.035156 15.140625 -1.953125 C 13.753906 -0.410156 11.6875 0.359375 8.9375 0.359375 C 6.601562 0.359375 4.722656 -0.210938 3.296875 -1.359375 C 1.878906 -2.503906 1.171875 -4.195312 1.171875 -6.4375 C 1.171875 -8.769531 1.988281 -10.578125 3.625 -11.859375 C 5.257812 -13.140625 7.585938 -13.78125 10.609375 -13.78125 L 15.1875 -13.78125 C 15.375 -13.78125 15.46875 -13.875 15.46875 -14.0625 L 15.46875 -15.015625 C 15.46875 -16.003906 15.15625 -16.78125 14.53125 -17.34375 C 13.914062 -17.90625 13.015625 -18.1875 11.828125 -18.1875 C 10.921875 -18.1875 10.171875 -18.035156 9.578125 -17.734375 C 8.992188 -17.429688 8.597656 -17.003906 8.390625 -16.453125 C 8.203125 -16.035156 7.898438 -15.84375 7.484375 -15.875 L 2.453125 -16.5 C 2.203125 -16.53125 2.007812 -16.597656 1.875 -16.703125 C 1.738281 -16.816406 1.6875 -16.960938 1.71875 -17.140625 C 1.875 -18.378906 2.394531 -19.492188 3.28125 -20.484375 C 4.175781 -21.484375 5.351562 -22.265625 6.8125 -22.828125 C 8.28125 -23.390625 9.910156 -23.671875 11.703125 -23.671875 Z M 10.796875 -4.390625 C 12.085938 -4.390625 13.1875 -4.738281 14.09375 -5.4375 C 15.007812 -6.132812 15.46875 -7.023438 15.46875 -8.109375 L 15.46875 -9.703125 C 15.46875 -9.878906 15.375 -9.96875 15.1875 -9.96875 L 11.96875 -9.96875 C 10.613281 -9.96875 9.539062 -9.710938 8.75 -9.203125 C 7.96875 -8.691406 7.578125 -7.96875 7.578125 -7.03125 C 7.578125 -6.207031 7.867188 -5.5625 8.453125 -5.09375 C 9.046875 -4.625 9.828125 -4.390625 10.796875 -4.390625 Z M 10.796875 -4.390625 "/></g></g></g><g fill="#f4f6fc" fill-opacity="1"><g transform="translate(230.409673, 240.089451)"><g><path d="M 11.65625 0.3125 C 9.625 0.3125 7.851562 0.0234375 6.34375 -0.546875 C 4.832031 -1.117188 3.664062 -1.914062 2.84375 -2.9375 C 2.03125 -3.96875 1.625 -5.132812 1.625 -6.4375 L 1.625 -6.671875 C 1.625 -7.179688 1.882812 -7.4375 2.40625 -7.4375 L 6.984375 -7.4375 C 7.492188 -7.4375 7.75 -7.347656 7.75 -7.171875 L 7.75 -6.84375 C 7.75 -6.175781 8.113281 -5.609375 8.84375 -5.140625 C 9.570312 -4.671875 10.492188 -4.4375 11.609375 -4.4375 C 12.640625 -4.4375 13.46875 -4.632812 14.09375 -5.03125 C 14.726562 -5.425781 15.046875 -5.941406 15.046875 -6.578125 C 15.046875 -7.117188 14.773438 -7.523438 14.234375 -7.796875 C 13.691406 -8.066406 12.800781 -8.351562 11.5625 -8.65625 C 10.082031 -9.050781 8.976562 -9.398438 8.25 -9.703125 C 6.289062 -10.367188 4.734375 -11.1875 3.578125 -12.15625 C 2.429688 -13.125 1.859375 -14.515625 1.859375 -16.328125 C 1.859375 -18.554688 2.734375 -20.328125 4.484375 -21.640625 C 6.242188 -22.960938 8.539062 -23.625 11.375 -23.625 C 13.3125 -23.625 15.015625 -23.3125 16.484375 -22.6875 C 17.953125 -22.070312 19.082031 -21.203125 19.875 -20.078125 C 20.675781 -18.960938 21.078125 -17.695312 21.078125 -16.28125 C 21.078125 -16.125 21.007812 -15.992188 20.875 -15.890625 C 20.738281 -15.785156 20.550781 -15.734375 20.3125 -15.734375 L 15.875 -15.734375 C 15.351562 -15.734375 15.09375 -15.820312 15.09375 -16 L 15.09375 -16.28125 C 15.09375 -16.945312 14.757812 -17.503906 14.09375 -17.953125 C 13.4375 -18.410156 12.546875 -18.640625 11.421875 -18.640625 C 10.429688 -18.640625 9.609375 -18.457031 8.953125 -18.09375 C 8.304688 -17.726562 7.984375 -17.226562 7.984375 -16.59375 C 7.984375 -15.988281 8.289062 -15.535156 8.90625 -15.234375 C 9.53125 -14.929688 10.550781 -14.613281 11.96875 -14.28125 C 12.84375 -14.101562 13.691406 -13.878906 14.515625 -13.609375 C 16.691406 -12.972656 18.398438 -12.15625 19.640625 -11.15625 C 20.878906 -10.15625 21.5 -8.703125 21.5 -6.796875 C 21.5 -4.566406 20.601562 -2.820312 18.8125 -1.5625 C 17.03125 -0.3125 14.644531 0.3125 11.65625 0.3125 Z M 11.65625 0.3125 "/></g></g></g><g fill="#f4f6fc" fill-opacity="1"><g transform="translate(253.21836, 240.089451)"><g><path d="M 15.734375 -18.953125 C 15.734375 -18.441406 15.476562 -18.1875 14.96875 -18.1875 L 10.875 -18.1875 C 10.695312 -18.1875 10.609375 -18.09375 10.609375 -17.90625 L 10.609375 -8.53125 C 10.609375 -7.53125 10.8125 -6.796875 11.21875 -6.328125 C 11.625 -5.859375 12.28125 -5.625 13.1875 -5.625 L 14.46875 -5.625 C 14.976562 -5.625 15.234375 -5.367188 15.234375 -4.859375 L 15.234375 -0.953125 C 15.234375 -0.472656 14.976562 -0.203125 14.46875 -0.140625 C 13.3125 -0.078125 12.476562 -0.046875 11.96875 -0.046875 C 9.457031 -0.046875 7.582031 -0.46875 6.34375 -1.3125 C 5.101562 -2.15625 4.46875 -3.726562 4.4375 -6.03125 L 4.4375 -17.90625 C 4.4375 -18.09375 4.347656 -18.1875 4.171875 -18.1875 L 1.859375 -18.1875 C 1.347656 -18.1875 1.09375 -18.441406 1.09375 -18.953125 L 1.09375 -22.53125 C 1.09375 -23.050781 1.347656 -23.3125 1.859375 -23.3125 L 4.171875 -23.3125 C 4.347656 -23.3125 4.4375 -23.398438 4.4375 -23.578125 L 4.4375 -28.703125 C 4.4375 -29.210938 4.695312 -29.46875 5.21875 -29.46875 L 9.84375 -29.46875 C 10.351562 -29.46875 10.609375 -29.210938 10.609375 -28.703125 L 10.609375 -23.578125 C 10.609375 -23.398438 10.695312 -23.3125 10.875 -23.3125 L 14.96875 -23.3125 C 15.476562 -23.3125 15.734375 -23.050781 15.734375 -22.53125 Z M 15.734375 -18.953125 "/></g></g></g><g fill="#233dff" fill-opacity="1"><g transform="translate(139.638716, 268.232304)"><g><path d="M 5.890625 0.15625 C 4.929688 0.15625 4.085938 -0.03125 3.359375 -0.40625 C 2.628906 -0.789062 2.066406 -1.320312 1.671875 -2 C 1.273438 -2.675781 1.078125 -3.460938 1.078125 -4.359375 L 1.078125 -9.109375 C 1.078125 -10.003906 1.273438 -10.789062 1.671875 -11.46875 C 2.066406 -12.144531 2.628906 -12.664062 3.359375 -13.03125 C 4.085938 -13.40625 4.929688 -13.59375 5.890625 -13.59375 C 6.835938 -13.59375 7.675781 -13.410156 8.40625 -13.046875 C 9.132812 -12.691406 9.695312 -12.1875 10.09375 -11.53125 C 10.5 -10.882812 10.703125 -10.132812 10.703125 -9.28125 C 10.703125 -9.144531 10.601562 -9.066406 10.40625 -9.046875 L 8.78125 -8.953125 L 8.703125 -8.953125 C 8.546875 -8.953125 8.46875 -8.984375 8.46875 -9.046875 L 8.46875 -9.15625 C 8.46875 -9.914062 8.234375 -10.523438 7.765625 -10.984375 C 7.296875 -11.441406 6.671875 -11.671875 5.890625 -11.671875 C 5.109375 -11.671875 4.476562 -11.441406 4 -10.984375 C 3.53125 -10.523438 3.296875 -9.914062 3.296875 -9.15625 L 3.296875 -4.265625 C 3.296875 -3.523438 3.53125 -2.921875 4 -2.453125 C 4.476562 -1.992188 5.109375 -1.765625 5.890625 -1.765625 C 6.671875 -1.765625 7.296875 -1.988281 7.765625 -2.4375 C 8.234375 -2.894531 8.46875 -3.503906 8.46875 -4.265625 C 8.46875 -4.328125 8.492188 -4.378906 8.546875 -4.421875 C 8.609375 -4.472656 8.6875 -4.488281 8.78125 -4.46875 L 10.390625 -4.390625 C 10.597656 -4.367188 10.703125 -4.335938 10.703125 -4.296875 L 10.703125 -4.203125 C 10.703125 -3.335938 10.5 -2.570312 10.09375 -1.90625 C 9.695312 -1.25 9.132812 -0.738281 8.40625 -0.375 C 7.675781 -0.0195312 6.835938 0.15625 5.890625 0.15625 Z M 5.890625 0.15625 "/></g></g></g><g fill="#233dff" fill-opacity="1"><g transform="translate(154.131854, 268.232304)"><g><path d="M 5.375 0.15625 C 4.363281 0.15625 3.492188 -0.0976562 2.765625 -0.609375 C 2.035156 -1.117188 1.53125 -1.832031 1.25 -2.75 C 1.03125 -3.375 0.921875 -4.101562 0.921875 -4.9375 C 0.921875 -5.757812 1.023438 -6.488281 1.234375 -7.125 C 1.523438 -8.019531 2.035156 -8.71875 2.765625 -9.21875 C 3.492188 -9.71875 4.367188 -9.96875 5.390625 -9.96875 C 6.367188 -9.96875 7.210938 -9.71875 7.921875 -9.21875 C 8.628906 -8.71875 9.128906 -8.023438 9.421875 -7.140625 C 9.660156 -6.523438 9.78125 -5.796875 9.78125 -4.953125 C 9.78125 -4.148438 9.671875 -3.421875 9.453125 -2.765625 C 9.148438 -1.859375 8.640625 -1.144531 7.921875 -0.625 C 7.210938 -0.101562 6.363281 0.15625 5.375 0.15625 Z M 5.375 -1.765625 C 5.851562 -1.765625 6.257812 -1.898438 6.59375 -2.171875 C 6.9375 -2.441406 7.175781 -2.816406 7.3125 -3.296875 C 7.457031 -3.710938 7.53125 -4.253906 7.53125 -4.921875 C 7.53125 -5.546875 7.460938 -6.082031 7.328125 -6.53125 C 7.191406 -7.019531 6.945312 -7.394531 6.59375 -7.65625 C 6.238281 -7.914062 5.820312 -8.046875 5.34375 -8.046875 C 4.851562 -8.046875 4.4375 -7.914062 4.09375 -7.65625 C 3.75 -7.394531 3.503906 -7.019531 3.359375 -6.53125 C 3.234375 -6.082031 3.171875 -5.546875 3.171875 -4.921875 C 3.171875 -4.285156 3.234375 -3.742188 3.359375 -3.296875 C 3.503906 -2.816406 3.75 -2.441406 4.09375 -2.171875 C 4.445312 -1.898438 4.875 -1.765625 5.375 -1.765625 Z M 5.375 -1.765625 "/></g></g></g><g fill="#233dff" fill-opacity="1"><g transform="translate(167.646027, 268.232304)"><g><path d="M 11.6875 -9.96875 C 12.675781 -9.96875 13.445312 -9.671875 14 -9.078125 C 14.5625 -8.484375 14.84375 -7.65625 14.84375 -6.59375 L 14.84375 -0.3125 C 14.84375 -0.101562 14.738281 0 14.53125 0 L 12.9375 0 C 12.738281 0 12.640625 -0.101562 12.640625 -0.3125 L 12.640625 -6.125 C 12.640625 -6.71875 12.476562 -7.1875 12.15625 -7.53125 C 11.84375 -7.875 11.425781 -8.046875 10.90625 -8.046875 C 10.382812 -8.046875 9.957031 -7.875 9.625 -7.53125 C 9.289062 -7.1875 9.125 -6.722656 9.125 -6.140625 L 9.125 -0.3125 C 9.125 -0.101562 9.019531 0 8.8125 0 L 7.21875 0 C 7.007812 0 6.90625 -0.101562 6.90625 -0.3125 L 6.90625 -6.125 C 6.90625 -6.71875 6.742188 -7.1875 6.421875 -7.53125 C 6.109375 -7.875 5.691406 -8.046875 5.171875 -8.046875 C 4.679688 -8.046875 4.28125 -7.90625 3.96875 -7.625 C 3.65625 -7.34375 3.472656 -6.957031 3.421875 -6.46875 L 3.421875 -0.3125 C 3.421875 -0.101562 3.316406 0 3.109375 0 L 1.5 0 C 1.289062 0 1.1875 -0.101562 1.1875 -0.3125 L 1.1875 -9.5 C 1.1875 -9.707031 1.289062 -9.8125 1.5 -9.8125 L 3.109375 -9.8125 C 3.316406 -9.8125 3.421875 -9.707031 3.421875 -9.5 L 3.421875 -8.984375 C 3.421875 -8.929688 3.4375 -8.898438 3.46875 -8.890625 C 3.5 -8.878906 3.523438 -8.898438 3.546875 -8.953125 C 4.097656 -9.628906 4.90625 -9.96875 5.96875 -9.96875 C 6.59375 -9.96875 7.140625 -9.84375 7.609375 -9.59375 C 8.078125 -9.34375 8.441406 -8.972656 8.703125 -8.484375 C 8.722656 -8.453125 8.75 -8.4375 8.78125 -8.4375 C 8.8125 -8.4375 8.835938 -8.457031 8.859375 -8.5 C 9.148438 -8.988281 9.546875 -9.351562 10.046875 -9.59375 C 10.546875 -9.84375 11.09375 -9.96875 11.6875 -9.96875 Z M 11.6875 -9.96875 "/></g></g></g><g fill="#233dff" fill-opacity="1"><g transform="translate(186.381362, 268.232304)"><g><path d="M 9.53125 -7.28125 C 9.757812 -6.570312 9.875 -5.769531 9.875 -4.875 C 9.875 -3.96875 9.765625 -3.1875 9.546875 -2.53125 C 9.265625 -1.6875 8.804688 -1.023438 8.171875 -0.546875 C 7.546875 -0.078125 6.769531 0.15625 5.84375 0.15625 C 4.945312 0.15625 4.21875 -0.15625 3.65625 -0.78125 C 3.625 -0.820312 3.59375 -0.835938 3.5625 -0.828125 C 3.53125 -0.828125 3.515625 -0.800781 3.515625 -0.75 L 3.515625 3.328125 C 3.515625 3.523438 3.410156 3.625 3.203125 3.625 L 1.59375 3.625 C 1.382812 3.625 1.28125 3.523438 1.28125 3.328125 L 1.28125 -9.5 C 1.28125 -9.707031 1.382812 -9.8125 1.59375 -9.8125 L 3.203125 -9.8125 C 3.410156 -9.8125 3.515625 -9.707031 3.515625 -9.5 L 3.515625 -9 C 3.515625 -8.945312 3.53125 -8.914062 3.5625 -8.90625 C 3.59375 -8.894531 3.625 -8.914062 3.65625 -8.96875 C 4.195312 -9.632812 4.925781 -9.96875 5.84375 -9.96875 C 6.738281 -9.96875 7.503906 -9.726562 8.140625 -9.25 C 8.785156 -8.769531 9.25 -8.113281 9.53125 -7.28125 Z M 7.015625 -2.578125 C 7.378906 -3.140625 7.5625 -3.921875 7.5625 -4.921875 C 7.5625 -5.835938 7.410156 -6.566406 7.109375 -7.109375 C 6.773438 -7.722656 6.234375 -8.03125 5.484375 -8.03125 C 4.847656 -8.03125 4.351562 -7.726562 4 -7.125 C 3.695312 -6.625 3.546875 -5.878906 3.546875 -4.890625 C 3.546875 -3.898438 3.707031 -3.140625 4.03125 -2.609375 C 4.375 -2.046875 4.851562 -1.765625 5.46875 -1.765625 C 6.132812 -1.765625 6.648438 -2.035156 7.015625 -2.578125 Z M 7.015625 -2.578125 "/></g></g></g><g fill="#233dff" fill-opacity="1"><g transform="translate(199.857139, 268.232304)"><g><path d="M 4.9375 -9.96875 C 5.738281 -9.96875 6.445312 -9.828125 7.0625 -9.546875 C 7.6875 -9.265625 8.164062 -8.875 8.5 -8.375 C 8.832031 -7.882812 9 -7.328125 9 -6.703125 L 9 -0.3125 C 9 -0.101562 8.898438 0 8.703125 0 L 7.09375 0 C 6.882812 0 6.78125 -0.101562 6.78125 -0.3125 L 6.78125 -0.78125 C 6.78125 -0.832031 6.765625 -0.863281 6.734375 -0.875 C 6.710938 -0.882812 6.679688 -0.875 6.640625 -0.84375 C 5.953125 -0.175781 5.03125 0.15625 3.875 0.15625 C 2.925781 0.15625 2.148438 -0.0859375 1.546875 -0.578125 C 0.941406 -1.066406 0.640625 -1.789062 0.640625 -2.75 C 0.640625 -3.75 0.988281 -4.523438 1.6875 -5.078125 C 2.382812 -5.640625 3.363281 -5.921875 4.625 -5.921875 L 6.65625 -5.921875 C 6.738281 -5.921875 6.78125 -5.957031 6.78125 -6.03125 L 6.78125 -6.46875 C 6.78125 -6.96875 6.628906 -7.351562 6.328125 -7.625 C 6.023438 -7.90625 5.582031 -8.046875 5 -8.046875 C 4.550781 -8.046875 4.175781 -7.960938 3.875 -7.796875 C 3.582031 -7.640625 3.382812 -7.421875 3.28125 -7.140625 C 3.226562 -6.960938 3.113281 -6.878906 2.9375 -6.890625 L 1.203125 -7.109375 C 1.109375 -7.117188 1.035156 -7.144531 0.984375 -7.1875 C 0.929688 -7.238281 0.910156 -7.296875 0.921875 -7.359375 C 1.035156 -8.117188 1.457031 -8.742188 2.1875 -9.234375 C 2.925781 -9.722656 3.84375 -9.96875 4.9375 -9.96875 Z M 4.5 -1.609375 C 5.125 -1.609375 5.660156 -1.773438 6.109375 -2.109375 C 6.554688 -2.441406 6.78125 -2.863281 6.78125 -3.375 L 6.78125 -4.265625 C 6.78125 -4.335938 6.738281 -4.375 6.65625 -4.375 L 5.0625 -4.375 C 4.382812 -4.375 3.847656 -4.242188 3.453125 -3.984375 C 3.054688 -3.734375 2.859375 -3.375 2.859375 -2.90625 C 2.859375 -2.488281 3.007812 -2.164062 3.3125 -1.9375 C 3.625 -1.71875 4.019531 -1.609375 4.5 -1.609375 Z M 4.5 -1.609375 "/></g></g></g><g fill="#233dff" fill-opacity="1"><g transform="translate(212.699469, 268.232304)"><g><path d="M 5.890625 -9.96875 C 6.941406 -9.96875 7.773438 -9.660156 8.390625 -9.046875 C 9.015625 -8.429688 9.328125 -7.59375 9.328125 -6.53125 L 9.328125 -0.3125 C 9.328125 -0.101562 9.226562 0 9.03125 0 L 7.40625 0 C 7.207031 0 7.109375 -0.101562 7.109375 -0.3125 L 7.109375 -6.0625 C 7.109375 -6.65625 6.9375 -7.132812 6.59375 -7.5 C 6.257812 -7.863281 5.816406 -8.046875 5.265625 -8.046875 C 4.710938 -8.046875 4.265625 -7.863281 3.921875 -7.5 C 3.585938 -7.144531 3.421875 -6.675781 3.421875 -6.09375 L 3.421875 -0.3125 C 3.421875 -0.101562 3.316406 0 3.109375 0 L 1.5 0 C 1.289062 0 1.1875 -0.101562 1.1875 -0.3125 L 1.1875 -9.5 C 1.1875 -9.707031 1.289062 -9.8125 1.5 -9.8125 L 3.109375 -9.8125 C 3.316406 -9.8125 3.421875 -9.707031 3.421875 -9.5 L 3.421875 -8.984375 C 3.421875 -8.929688 3.429688 -8.898438 3.453125 -8.890625 C 3.484375 -8.878906 3.507812 -8.890625 3.53125 -8.921875 C 4.070312 -9.617188 4.859375 -9.96875 5.890625 -9.96875 Z M 5.890625 -9.96875 "/></g></g></g><g fill="#233dff" fill-opacity="1"><g transform="translate(225.964097, 268.232304)"><g><path d="M 1 3.828125 C 0.90625 3.828125 0.859375 3.722656 0.859375 3.515625 L 0.859375 2.28125 C 0.859375 2.082031 0.90625 1.984375 1 1.984375 L 1.109375 1.984375 C 1.640625 1.984375 2.050781 1.929688 2.34375 1.828125 C 2.632812 1.734375 2.875 1.550781 3.0625 1.28125 C 3.25 1.019531 3.421875 0.617188 3.578125 0.078125 C 3.597656 0.015625 3.597656 -0.0351562 3.578125 -0.078125 L 0.4375 -9.46875 C 0.425781 -9.507812 0.421875 -9.554688 0.421875 -9.609375 C 0.421875 -9.742188 0.507812 -9.8125 0.6875 -9.8125 L 2.421875 -9.8125 C 2.597656 -9.8125 2.710938 -9.726562 2.765625 -9.5625 L 4.640625 -3.203125 C 4.671875 -3.148438 4.703125 -3.125 4.734375 -3.125 C 4.765625 -3.125 4.785156 -3.148438 4.796875 -3.203125 L 6.625 -9.5625 C 6.675781 -9.726562 6.789062 -9.8125 6.96875 -9.8125 L 8.703125 -9.8125 C 8.816406 -9.8125 8.894531 -9.78125 8.9375 -9.71875 C 8.976562 -9.664062 8.984375 -9.582031 8.953125 -9.46875 L 5.59375 0.53125 C 5.269531 1.445312 4.953125 2.128906 4.640625 2.578125 C 4.335938 3.023438 3.921875 3.34375 3.390625 3.53125 C 2.859375 3.726562 2.109375 3.828125 1.140625 3.828125 Z M 1 3.828125 "/></g></g></g></svg>