<svg xmlns="http://www.w3.org/2000/svg" xmlns:xlink="http://www.w3.org/1999/xlink" width="500" zoomAndPan="magnify" viewBox="0 0 375 374.999991" height="500" preserveAspectRatio="xMidYMid meet" version="1.0"><defs><g/><linearGradient x1="0" gradientTransform="matrix(0.75, 0, 0, 0.75, 0.0000045, 0)" y1="0" x2="499.999979" gradientUnits="userSpaceOnUse" y2="0" id="be284d1c98"><stop stop-opacity="1" stop-color="rgb(0%, 0%, 0%)" offset="0"/><stop stop-opacity="1" stop-color="rgb(0.160217%, 0.189209%, 0.389099%)" offset="0.00390625"/><stop stop-opacity="1" stop-color="rgb(0.320435%, 0.378418%, 0.779724%)" offset="0.0078125"/><stop stop-opacity="1" stop-color="rgb(0.480652%, 0.567627%, 1.170349%)" offset="0.0117187"/><stop stop-opacity="1" stop-color="rgb(0.642395%, 0.758362%, 1.560974%)" offset="0.015625"/><stop stop-opacity="1" stop-color="rgb(0.802612%, 0.947571%, 1.951599%)" offset="0.0195312"/><stop stop-opacity="1" stop-color="rgb(0.964355%, 1.138306%, 2.342224%)" offset="0.0234375"/><stop stop-opacity="1" stop-color="rgb(1.124573%, 1.327515%, 2.732849%)" offset="0.0273438"/><stop stop-opacity="1" stop-color="rgb(1.286316%, 1.51825%, 3.123474%)" offset="0.03125"/><stop stop-opacity="1" stop-color="rgb(1.446533%, 1.707458%, 3.514099%)" offset="0.0351562"/><stop stop-opacity="1" stop-color="rgb(1.608276%, 1.898193%, 3.904724%)" offset="0.0390625"/><stop stop-opacity="1" stop-color="rgb(1.768494%, 2.087402%, 4.295349%)" offset="0.0429687"/><stop stop-opacity="1" stop-color="rgb(1.930237%, 2.276611%, 4.685974%)" offset="0.046875"/><stop stop-opacity="1" stop-color="rgb(2.090454%, 2.46582%, 5.076599%)" offset="0.0507812"/><stop stop-opacity="1" stop-color="rgb(2.252197%, 2.656555%, 5.467224%)" offset="0.0546875"/><stop stop-opacity="1" stop-color="rgb(2.412415%, 2.845764%, 5.857849%)" offset="0.0585938"/><stop stop-opacity="1" stop-color="rgb(2.574158%, 3.036499%, 6.248474%)" offset="0.0625"/><stop stop-opacity="1" stop-color="rgb(2.734375%, 3.225708%, 6.639099%)" offset="0.0664062"/><stop stop-opacity="1" stop-color="rgb(2.896118%, 3.416443%, 7.029724%)" offset="0.0703125"/><stop stop-opacity="1" stop-color="rgb(3.056335%, 3.605652%, 7.420349%)" offset="0.0742187"/><stop stop-opacity="1" stop-color="rgb(3.218079%, 3.796387%, 7.810974%)" offset="0.078125"/><stop stop-opacity="1" stop-color="rgb(3.378296%, 3.985596%, 8.201599%)" offset="0.0820312"/><stop stop-opacity="1" stop-color="rgb(3.540039%, 4.176331%, 8.592224%)" offset="0.0859375"/><stop stop-opacity="1" stop-color="rgb(3.700256%, 4.36554%, 8.982849%)" offset="0.0898437"/><stop stop-opacity="1" stop-color="rgb(3.862%, 4.554749%, 9.373474%)" offset="0.09375"/><stop stop-opacity="1" stop-color="rgb(4.022217%, 4.743958%, 9.764099%)" offset="0.0976562"/><stop stop-opacity="1" stop-color="rgb(4.18396%, 4.934692%, 10.154724%)" offset="0.101562"/><stop stop-opacity="1" stop-color="rgb(4.344177%, 5.123901%, 10.545349%)" offset="0.105469"/><stop stop-opacity="1" stop-color="rgb(4.50592%, 5.314636%, 10.935974%)" offset="0.109375"/><stop stop-opacity="1" stop-color="rgb(4.666138%, 5.503845%, 11.326599%)" offset="0.113281"/><stop stop-opacity="1" stop-color="rgb(4.827881%, 5.69458%, 11.717224%)" offset="0.117188"/><stop stop-opacity="1" stop-color="rgb(4.988098%, 5.883789%, 12.107849%)" offset="0.121094"/><stop stop-opacity="1" stop-color="rgb(5.149841%, 6.074524%, 12.498474%)" offset="0.125"/><stop stop-opacity="1" stop-color="rgb(5.310059%, 6.263733%, 12.889099%)" offset="0.128906"/><stop stop-opacity="1" stop-color="rgb(5.471802%, 6.454468%, 13.279724%)" offset="0.132812"/><stop stop-opacity="1" stop-color="rgb(5.632019%, 6.643677%, 13.670349%)" offset="0.136719"/><stop stop-opacity="1" stop-color="rgb(5.792236%, 6.832886%, 14.060974%)" offset="0.140625"/><stop stop-opacity="1" stop-color="rgb(5.952454%, 7.022095%, 14.451599%)" offset="0.144531"/><stop stop-opacity="1" stop-color="rgb(6.114197%, 7.21283%, 14.842224%)" offset="0.148437"/><stop stop-opacity="1" stop-color="rgb(6.274414%, 7.402039%, 15.232849%)" offset="0.152344"/><stop stop-opacity="1" stop-color="rgb(6.436157%, 7.592773%, 15.623474%)" offset="0.15625"/><stop stop-opacity="1" stop-color="rgb(6.596375%, 7.781982%, 16.014099%)" offset="0.160156"/><stop stop-opacity="1" stop-color="rgb(6.758118%, 7.972717%, 16.404724%)" offset="0.164062"/><stop stop-opacity="1" stop-color="rgb(6.918335%, 8.161926%, 16.795349%)" offset="0.167969"/><stop stop-opacity="1" stop-color="rgb(7.080078%, 8.352661%, 17.185974%)" offset="0.171875"/><stop stop-opacity="1" stop-color="rgb(7.240295%, 8.54187%, 17.576599%)" offset="0.175781"/><stop stop-opacity="1" stop-color="rgb(7.402039%, 8.732605%, 17.967224%)" offset="0.179687"/><stop stop-opacity="1" stop-color="rgb(7.562256%, 8.921814%, 18.357849%)" offset="0.183594"/><stop stop-opacity="1" stop-color="rgb(7.723999%, 9.111023%, 18.748474%)" offset="0.1875"/><stop stop-opacity="1" stop-color="rgb(7.884216%, 9.300232%, 19.139099%)" offset="0.191406"/><stop stop-opacity="1" stop-color="rgb(8.045959%, 9.490967%, 19.529724%)" offset="0.195312"/><stop stop-opacity="1" stop-color="rgb(8.206177%, 9.680176%, 19.920349%)" offset="0.199219"/><stop stop-opacity="1" stop-color="rgb(8.36792%, 9.870911%, 20.310974%)" offset="0.203125"/><stop stop-opacity="1" stop-color="rgb(8.528137%, 10.06012%, 20.701599%)" offset="0.207031"/><stop stop-opacity="1" stop-color="rgb(8.68988%, 10.250854%, 21.092224%)" offset="0.210938"/><stop stop-opacity="1" stop-color="rgb(8.850098%, 10.440063%, 21.482849%)" offset="0.214844"/><stop stop-opacity="1" stop-color="rgb(9.011841%, 10.630798%, 21.873474%)" offset="0.21875"/><stop stop-opacity="1" stop-color="rgb(9.172058%, 10.820007%, 22.264099%)" offset="0.222656"/><stop stop-opacity="1" stop-color="rgb(9.333801%, 11.010742%, 22.654724%)" offset="0.226562"/><stop stop-opacity="1" stop-color="rgb(9.494019%, 11.199951%, 23.045349%)" offset="0.230469"/><stop stop-opacity="1" stop-color="rgb(9.655762%, 11.38916%, 23.435974%)" offset="0.234375"/><stop stop-opacity="1" stop-color="rgb(9.815979%, 11.578369%, 23.826599%)" offset="0.238281"/><stop stop-opacity="1" stop-color="rgb(9.977722%, 11.769104%, 24.217224%)" offset="0.242188"/><stop stop-opacity="1" stop-color="rgb(10.137939%, 11.958313%, 24.607849%)" offset="0.246094"/><stop stop-opacity="1" stop-color="rgb(10.299683%, 12.149048%, 24.998474%)" offset="0.25"/><stop stop-opacity="1" stop-color="rgb(10.4599%, 12.338257%, 25.389099%)" offset="0.253906"/><stop stop-opacity="1" stop-color="rgb(10.621643%, 12.528992%, 25.779724%)" offset="0.257812"/><stop stop-opacity="1" stop-color="rgb(10.78186%, 12.718201%, 26.170349%)" offset="0.261719"/><stop stop-opacity="1" stop-color="rgb(10.943604%, 12.908936%, 26.560974%)" offset="0.265625"/><stop stop-opacity="1" stop-color="rgb(11.103821%, 13.098145%, 26.951599%)" offset="0.269531"/><stop stop-opacity="1" stop-color="rgb(11.265564%, 13.288879%, 27.342224%)" offset="0.273437"/><stop stop-opacity="1" stop-color="rgb(11.425781%, 13.478088%, 27.732849%)" offset="0.277344"/><stop stop-opacity="1" stop-color="rgb(11.585999%, 13.667297%, 28.123474%)" offset="0.28125"/><stop stop-opacity="1" stop-color="rgb(11.746216%, 13.856506%, 28.514099%)" offset="0.285156"/><stop stop-opacity="1" stop-color="rgb(11.907959%, 14.047241%, 28.904724%)" offset="0.289062"/><stop stop-opacity="1" stop-color="rgb(12.068176%, 14.23645%, 29.295349%)" offset="0.292969"/><stop stop-opacity="1" stop-color="rgb(12.229919%, 14.427185%, 29.685974%)" offset="0.296875"/><stop stop-opacity="1" stop-color="rgb(12.390137%, 14.616394%, 30.076599%)" offset="0.300781"/><stop stop-opacity="1" stop-color="rgb(12.55188%, 14.807129%, 30.467224%)" offset="0.304687"/><stop stop-opacity="1" stop-color="rgb(12.712097%, 14.996338%, 30.857849%)" offset="0.308594"/><stop stop-opacity="1" stop-color="rgb(12.87384%, 15.187073%, 31.248474%)" offset="0.3125"/><stop stop-opacity="1" stop-color="rgb(13.034058%, 15.376282%, 31.639099%)" offset="0.316406"/><stop stop-opacity="1" stop-color="rgb(13.195801%, 15.567017%, 32.029724%)" offset="0.320312"/><stop stop-opacity="1" stop-color="rgb(13.356018%, 15.756226%, 32.420349%)" offset="0.324219"/><stop stop-opacity="1" stop-color="rgb(13.517761%, 15.945435%, 32.810974%)" offset="0.328125"/><stop stop-opacity="1" stop-color="rgb(13.677979%, 16.134644%, 33.201599%)" offset="0.332031"/><stop stop-opacity="1" stop-color="rgb(13.839722%, 16.325378%, 33.592224%)" offset="0.335937"/><stop stop-opacity="1" stop-color="rgb(13.999939%, 16.514587%, 33.982849%)" offset="0.339844"/><stop stop-opacity="1" stop-color="rgb(14.161682%, 16.705322%, 34.373474%)" offset="0.34375"/><stop stop-opacity="1" stop-color="rgb(14.321899%, 16.894531%, 34.764099%)" offset="0.347656"/><stop stop-opacity="1" stop-color="rgb(14.483643%, 17.085266%, 35.154724%)" offset="0.351562"/><stop stop-opacity="1" stop-color="rgb(14.64386%, 17.274475%, 35.545349%)" offset="0.355469"/><stop stop-opacity="1" stop-color="rgb(14.805603%, 17.46521%, 35.935974%)" offset="0.359375"/><stop stop-opacity="1" stop-color="rgb(14.96582%, 17.654419%, 36.326599%)" offset="0.363281"/><stop stop-opacity="1" stop-color="rgb(15.127563%, 17.845154%, 36.717224%)" offset="0.367187"/><stop stop-opacity="1" stop-color="rgb(15.287781%, 18.034363%, 37.107849%)" offset="0.371094"/><stop stop-opacity="1" stop-color="rgb(15.449524%, 18.223572%, 37.498474%)" offset="0.375"/><stop stop-opacity="1" stop-color="rgb(15.609741%, 18.412781%, 37.889099%)" offset="0.378906"/><stop stop-opacity="1" stop-color="rgb(15.771484%, 18.603516%, 38.279724%)" offset="0.382812"/><stop stop-opacity="1" stop-color="rgb(15.931702%, 18.792725%, 38.670349%)" offset="0.386719"/><stop stop-opacity="1" stop-color="rgb(16.093445%, 18.983459%, 39.060974%)" offset="0.390625"/><stop stop-opacity="1" stop-color="rgb(16.253662%, 19.172668%, 39.451599%)" offset="0.394531"/><stop stop-opacity="1" stop-color="rgb(16.415405%, 19.363403%, 39.842224%)" offset="0.398438"/><stop stop-opacity="1" stop-color="rgb(16.575623%, 19.552612%, 40.232849%)" offset="0.402344"/><stop stop-opacity="1" stop-color="rgb(16.737366%, 19.743347%, 40.623474%)" offset="0.40625"/><stop stop-opacity="1" stop-color="rgb(16.897583%, 19.932556%, 41.014099%)" offset="0.410156"/><stop stop-opacity="1" stop-color="rgb(17.059326%, 20.123291%, 41.404724%)" offset="0.414062"/><stop stop-opacity="1" stop-color="rgb(17.219543%, 20.3125%, 41.795349%)" offset="0.417969"/><stop stop-opacity="1" stop-color="rgb(17.379761%, 20.501709%, 42.185974%)" offset="0.421875"/><stop stop-opacity="1" stop-color="rgb(17.539978%, 20.690918%, 42.576599%)" offset="0.425781"/><stop stop-opacity="1" stop-color="rgb(17.701721%, 20.881653%, 42.967224%)" offset="0.429688"/><stop stop-opacity="1" stop-color="rgb(17.861938%, 21.070862%, 43.357849%)" offset="0.433594"/><stop stop-opacity="1" stop-color="rgb(18.023682%, 21.261597%, 43.748474%)" offset="0.4375"/><stop stop-opacity="1" stop-color="rgb(18.183899%, 21.450806%, 44.139099%)" offset="0.441406"/><stop stop-opacity="1" stop-color="rgb(18.345642%, 21.641541%, 44.529724%)" offset="0.445312"/><stop stop-opacity="1" stop-color="rgb(18.505859%, 21.83075%, 44.920349%)" offset="0.449219"/><stop stop-opacity="1" stop-color="rgb(18.667603%, 22.021484%, 45.310974%)" offset="0.453125"/><stop stop-opacity="1" stop-color="rgb(18.82782%, 22.210693%, 45.701599%)" offset="0.457031"/><stop stop-opacity="1" stop-color="rgb(18.989563%, 22.401428%, 46.092224%)" offset="0.460938"/><stop stop-opacity="1" stop-color="rgb(19.14978%, 22.590637%, 46.482849%)" offset="0.464844"/><stop stop-opacity="1" stop-color="rgb(19.311523%, 22.779846%, 46.873474%)" offset="0.46875"/><stop stop-opacity="1" stop-color="rgb(19.471741%, 22.969055%, 47.264099%)" offset="0.472656"/><stop stop-opacity="1" stop-color="rgb(19.633484%, 23.15979%, 47.654724%)" offset="0.476562"/><stop stop-opacity="1" stop-color="rgb(19.793701%, 23.348999%, 48.045349%)" offset="0.480469"/><stop stop-opacity="1" stop-color="rgb(19.955444%, 23.539734%, 48.435974%)" offset="0.484375"/><stop stop-opacity="1" stop-color="rgb(20.115662%, 23.728943%, 48.826599%)" offset="0.488281"/><stop stop-opacity="1" stop-color="rgb(20.277405%, 23.919678%, 49.217224%)" offset="0.492188"/><stop stop-opacity="1" stop-color="rgb(20.437622%, 24.108887%, 49.607849%)" offset="0.496094"/><stop stop-opacity="1" stop-color="rgb(20.599365%, 24.299622%, 49.998474%)" offset="0.5"/><stop stop-opacity="1" stop-color="rgb(20.759583%, 24.488831%, 50.389099%)" offset="0.503906"/><stop stop-opacity="1" stop-color="rgb(20.921326%, 24.679565%, 50.779724%)" offset="0.507812"/><stop stop-opacity="1" stop-color="rgb(21.081543%, 24.868774%, 51.170349%)" offset="0.511719"/><stop stop-opacity="1" stop-color="rgb(21.243286%, 25.057983%, 51.560974%)" offset="0.515625"/><stop stop-opacity="1" stop-color="rgb(21.403503%, 25.247192%, 51.951599%)" offset="0.519531"/><stop stop-opacity="1" stop-color="rgb(21.565247%, 25.437927%, 52.342224%)" offset="0.523437"/><stop stop-opacity="1" stop-color="rgb(21.725464%, 25.627136%, 52.732849%)" offset="0.527344"/><stop stop-opacity="1" stop-color="rgb(21.887207%, 25.817871%, 53.123474%)" offset="0.53125"/><stop stop-opacity="1" stop-color="rgb(22.047424%, 26.00708%, 53.514099%)" offset="0.535156"/><stop stop-opacity="1" stop-color="rgb(22.209167%, 26.197815%, 53.904724%)" offset="0.539062"/><stop stop-opacity="1" stop-color="rgb(22.369385%, 26.387024%, 54.295349%)" offset="0.542969"/><stop stop-opacity="1" stop-color="rgb(22.531128%, 26.577759%, 54.685974%)" offset="0.546875"/><stop stop-opacity="1" stop-color="rgb(22.691345%, 26.766968%, 55.076599%)" offset="0.550781"/><stop stop-opacity="1" stop-color="rgb(22.853088%, 26.957703%, 55.467224%)" offset="0.554687"/><stop stop-opacity="1" stop-color="rgb(23.013306%, 27.146912%, 55.857849%)" offset="0.558594"/><stop stop-opacity="1" stop-color="rgb(23.173523%, 27.336121%, 56.248474%)" offset="0.5625"/><stop stop-opacity="1" stop-color="rgb(23.33374%, 27.52533%, 56.639099%)" offset="0.566406"/><stop stop-opacity="1" stop-color="rgb(23.495483%, 27.716064%, 57.029724%)" offset="0.570312"/><stop stop-opacity="1" stop-color="rgb(23.655701%, 27.905273%, 57.420349%)" offset="0.574219"/><stop stop-opacity="1" stop-color="rgb(23.817444%, 28.096008%, 57.810974%)" offset="0.578125"/><stop stop-opacity="1" stop-color="rgb(23.977661%, 28.285217%, 58.201599%)" offset="0.582031"/><stop stop-opacity="1" stop-color="rgb(24.139404%, 28.475952%, 58.592224%)" offset="0.585937"/><stop stop-opacity="1" stop-color="rgb(24.299622%, 28.665161%, 58.982849%)" offset="0.589844"/><stop stop-opacity="1" stop-color="rgb(24.461365%, 28.855896%, 59.373474%)" offset="0.59375"/><stop stop-opacity="1" stop-color="rgb(24.621582%, 29.045105%, 59.764099%)" offset="0.597656"/><stop stop-opacity="1" stop-color="rgb(24.783325%, 29.23584%, 60.154724%)" offset="0.601562"/><stop stop-opacity="1" stop-color="rgb(24.943542%, 29.425049%, 60.545349%)" offset="0.605469"/><stop stop-opacity="1" stop-color="rgb(25.105286%, 29.614258%, 60.935974%)" offset="0.609375"/><stop stop-opacity="1" stop-color="rgb(25.265503%, 29.803467%, 61.326599%)" offset="0.613281"/><stop stop-opacity="1" stop-color="rgb(25.427246%, 29.994202%, 61.717224%)" offset="0.617187"/><stop stop-opacity="1" stop-color="rgb(25.587463%, 30.183411%, 62.107849%)" offset="0.621094"/><stop stop-opacity="1" stop-color="rgb(25.749207%, 30.374146%, 62.498474%)" offset="0.625"/><stop stop-opacity="1" stop-color="rgb(25.909424%, 30.563354%, 62.889099%)" offset="0.628906"/><stop stop-opacity="1" stop-color="rgb(26.071167%, 30.754089%, 63.279724%)" offset="0.632812"/><stop stop-opacity="1" stop-color="rgb(26.231384%, 30.943298%, 63.670349%)" offset="0.636719"/><stop stop-opacity="1" stop-color="rgb(26.393127%, 31.134033%, 64.060974%)" offset="0.640625"/><stop stop-opacity="1" stop-color="rgb(26.553345%, 31.323242%, 64.451599%)" offset="0.644531"/><stop stop-opacity="1" stop-color="rgb(26.715088%, 31.513977%, 64.842224%)" offset="0.648437"/><stop stop-opacity="1" stop-color="rgb(26.875305%, 31.703186%, 65.232849%)" offset="0.652344"/><stop stop-opacity="1" stop-color="rgb(27.037048%, 31.892395%, 65.623474%)" offset="0.65625"/><stop stop-opacity="1" stop-color="rgb(27.197266%, 32.081604%, 66.014099%)" offset="0.660156"/><stop stop-opacity="1" stop-color="rgb(27.359009%, 32.272339%, 66.404724%)" offset="0.664062"/><stop stop-opacity="1" stop-color="rgb(27.519226%, 32.461548%, 66.795349%)" offset="0.667969"/><stop stop-opacity="1" stop-color="rgb(27.680969%, 32.652283%, 67.185974%)" offset="0.671875"/><stop stop-opacity="1" stop-color="rgb(27.841187%, 32.841492%, 67.576599%)" offset="0.675781"/><stop stop-opacity="1" stop-color="rgb(28.00293%, 33.032227%, 67.967224%)" offset="0.679687"/><stop stop-opacity="1" stop-color="rgb(28.163147%, 33.221436%, 68.357849%)" offset="0.683594"/><stop stop-opacity="1" stop-color="rgb(28.32489%, 33.41217%, 68.748474%)" offset="0.6875"/><stop stop-opacity="1" stop-color="rgb(28.485107%, 33.601379%, 69.139099%)" offset="0.691406"/><stop stop-opacity="1" stop-color="rgb(28.646851%, 33.792114%, 69.529724%)" offset="0.695312"/><stop stop-opacity="1" stop-color="rgb(28.807068%, 33.981323%, 69.920349%)" offset="0.699219"/><stop stop-opacity="1" stop-color="rgb(28.967285%, 34.170532%, 70.310974%)" offset="0.703125"/><stop stop-opacity="1" stop-color="rgb(29.127502%, 34.359741%, 70.701599%)" offset="0.707031"/><stop stop-opacity="1" stop-color="rgb(29.289246%, 34.550476%, 71.092224%)" offset="0.710937"/><stop stop-opacity="1" stop-color="rgb(29.449463%, 34.739685%, 71.482849%)" offset="0.714844"/><stop stop-opacity="1" stop-color="rgb(29.611206%, 34.93042%, 71.873474%)" offset="0.71875"/><stop stop-opacity="1" stop-color="rgb(29.771423%, 35.119629%, 72.264099%)" offset="0.722656"/><stop stop-opacity="1" stop-color="rgb(29.933167%, 35.310364%, 72.654724%)" offset="0.726562"/><stop stop-opacity="1" stop-color="rgb(30.093384%, 35.499573%, 73.045349%)" offset="0.730469"/><stop stop-opacity="1" stop-color="rgb(30.255127%, 35.690308%, 73.435974%)" offset="0.734375"/><stop stop-opacity="1" stop-color="rgb(30.415344%, 35.879517%, 73.826599%)" offset="0.738281"/><stop stop-opacity="1" stop-color="rgb(30.577087%, 36.070251%, 74.217224%)" offset="0.742187"/><stop stop-opacity="1" stop-color="rgb(30.737305%, 36.25946%, 74.607849%)" offset="0.746094"/><stop stop-opacity="1" stop-color="rgb(30.899048%, 36.448669%, 74.998474%)" offset="0.75"/><stop stop-opacity="1" stop-color="rgb(31.059265%, 36.637878%, 75.389099%)" offset="0.753906"/><stop stop-opacity="1" stop-color="rgb(31.221008%, 36.828613%, 75.779724%)" offset="0.757812"/><stop stop-opacity="1" stop-color="rgb(31.381226%, 37.017822%, 76.170349%)" offset="0.761719"/><stop stop-opacity="1" stop-color="rgb(31.542969%, 37.208557%, 76.560974%)" offset="0.765625"/><stop stop-opacity="1" stop-color="rgb(31.703186%, 37.397766%, 76.951599%)" offset="0.769531"/><stop stop-opacity="1" stop-color="rgb(31.864929%, 37.588501%, 77.342224%)" offset="0.773438"/><stop stop-opacity="1" stop-color="rgb(32.025146%, 37.77771%, 77.732849%)" offset="0.777344"/><stop stop-opacity="1" stop-color="rgb(32.18689%, 37.968445%, 78.123474%)" offset="0.78125"/><stop stop-opacity="1" stop-color="rgb(32.347107%, 38.157654%, 78.514099%)" offset="0.785156"/><stop stop-opacity="1" stop-color="rgb(32.50885%, 38.348389%, 78.904724%)" offset="0.789062"/><stop stop-opacity="1" stop-color="rgb(32.669067%, 38.537598%, 79.295349%)" offset="0.792969"/><stop stop-opacity="1" stop-color="rgb(32.830811%, 38.726807%, 79.685974%)" offset="0.796875"/><stop stop-opacity="1" stop-color="rgb(32.991028%, 38.916016%, 80.076599%)" offset="0.800781"/><stop stop-opacity="1" stop-color="rgb(33.152771%, 39.10675%, 80.467224%)" offset="0.804688"/><stop stop-opacity="1" stop-color="rgb(33.312988%, 39.295959%, 80.857849%)" offset="0.808594"/><stop stop-opacity="1" stop-color="rgb(33.474731%, 39.486694%, 81.248474%)" offset="0.8125"/><stop stop-opacity="1" stop-color="rgb(33.634949%, 39.675903%, 81.639099%)" offset="0.816406"/><stop stop-opacity="1" stop-color="rgb(33.796692%, 39.866638%, 82.029724%)" offset="0.820312"/><stop stop-opacity="1" stop-color="rgb(33.956909%, 40.055847%, 82.420349%)" offset="0.824219"/><stop stop-opacity="1" stop-color="rgb(34.118652%, 40.246582%, 82.810974%)" offset="0.828125"/><stop stop-opacity="1" stop-color="rgb(34.27887%, 40.435791%, 83.201599%)" offset="0.832031"/><stop stop-opacity="1" stop-color="rgb(34.440613%, 40.626526%, 83.592224%)" offset="0.835938"/><stop stop-opacity="1" stop-color="rgb(34.60083%, 40.815735%, 83.982849%)" offset="0.839844"/><stop stop-opacity="1" stop-color="rgb(34.761047%, 41.004944%, 84.373474%)" offset="0.84375"/><stop stop-opacity="1" stop-color="rgb(34.921265%, 41.194153%, 84.764099%)" offset="0.847656"/><stop stop-opacity="1" stop-color="rgb(35.083008%, 41.384888%, 85.154724%)" offset="0.851562"/><stop stop-opacity="1" stop-color="rgb(35.243225%, 41.574097%, 85.545349%)" offset="0.855469"/><stop stop-opacity="1" stop-color="rgb(35.404968%, 41.764832%, 85.935974%)" offset="0.859375"/><stop stop-opacity="1" stop-color="rgb(35.565186%, 41.954041%, 86.326599%)" offset="0.863281"/><stop stop-opacity="1" stop-color="rgb(35.726929%, 42.144775%, 86.717224%)" offset="0.867188"/><stop stop-opacity="1" stop-color="rgb(35.887146%, 42.333984%, 87.107849%)" offset="0.871094"/><stop stop-opacity="1" stop-color="rgb(36.048889%, 42.524719%, 87.498474%)" offset="0.875"/><stop stop-opacity="1" stop-color="rgb(36.209106%, 42.713928%, 87.889099%)" offset="0.878906"/><stop stop-opacity="1" stop-color="rgb(36.37085%, 42.904663%, 88.279724%)" offset="0.882812"/><stop stop-opacity="1" stop-color="rgb(36.531067%, 43.093872%, 88.670349%)" offset="0.886719"/><stop stop-opacity="1" stop-color="rgb(36.69281%, 43.283081%, 89.060974%)" offset="0.890625"/><stop stop-opacity="1" stop-color="rgb(36.853027%, 43.47229%, 89.451599%)" offset="0.894531"/><stop stop-opacity="1" stop-color="rgb(37.014771%, 43.663025%, 89.842224%)" offset="0.898438"/><stop stop-opacity="1" stop-color="rgb(37.174988%, 43.852234%, 90.232849%)" offset="0.902344"/><stop stop-opacity="1" stop-color="rgb(37.336731%, 44.042969%, 90.623474%)" offset="0.90625"/><stop stop-opacity="1" stop-color="rgb(37.496948%, 44.232178%, 91.014099%)" offset="0.910156"/><stop stop-opacity="1" stop-color="rgb(37.658691%, 44.422913%, 91.404724%)" offset="0.914062"/><stop stop-opacity="1" stop-color="rgb(37.818909%, 44.612122%, 91.795349%)" offset="0.917969"/><stop stop-opacity="1" stop-color="rgb(37.980652%, 44.802856%, 92.185974%)" offset="0.921875"/><stop stop-opacity="1" stop-color="rgb(38.140869%, 44.992065%, 92.576599%)" offset="0.925781"/><stop stop-opacity="1" stop-color="rgb(38.302612%, 45.1828%, 92.967224%)" offset="0.929688"/><stop stop-opacity="1" stop-color="rgb(38.46283%, 45.372009%, 93.357849%)" offset="0.933594"/><stop stop-opacity="1" stop-color="rgb(38.624573%, 45.561218%, 93.748474%)" offset="0.9375"/><stop stop-opacity="1" stop-color="rgb(38.78479%, 45.750427%, 94.139099%)" offset="0.941406"/><stop stop-opacity="1" stop-color="rgb(38.946533%, 45.941162%, 94.529724%)" offset="0.945312"/><stop stop-opacity="1" stop-color="rgb(39.10675%, 46.130371%, 94.920349%)" offset="0.949219"/><stop stop-opacity="1" stop-color="rgb(39.268494%, 46.321106%, 95.310974%)" offset="0.953125"/><stop stop-opacity="1" stop-color="rgb(39.428711%, 46.510315%, 95.701599%)" offset="0.957031"/><stop stop-opacity="1" stop-color="rgb(39.590454%, 46.70105%, 96.092224%)" offset="0.960938"/><stop stop-opacity="1" stop-color="rgb(39.750671%, 46.890259%, 96.482849%)" offset="0.964844"/><stop stop-opacity="1" stop-color="rgb(39.912415%, 47.080994%, 96.873474%)" offset="0.96875"/><stop stop-opacity="1" stop-color="rgb(40.072632%, 47.270203%, 97.264099%)" offset="0.972656"/><stop stop-opacity="1" stop-color="rgb(40.232849%, 47.459412%, 97.654724%)" offset="0.976562"/><stop stop-opacity="1" stop-color="rgb(40.393066%, 47.648621%, 98.045349%)" offset="0.980469"/><stop stop-opacity="1" stop-color="rgb(40.55481%, 47.839355%, 98.435974%)" offset="0.984375"/><stop stop-opacity="1" stop-color="rgb(40.715027%, 48.028564%, 98.826599%)" offset="0.988281"/><stop stop-opacity="1" stop-color="rgb(40.87677%, 48.219299%, 99.217224%)" offset="0.992188"/><stop stop-opacity="1" stop-color="rgb(41.036987%, 48.408508%, 99.607849%)" offset="0.996094"/><stop stop-opacity="1" stop-color="rgb(41.19873%, 48.599243%, 99.998474%)" offset="1"/></linearGradient><clipPath id="a8b9a6183c"><path d="M 90.707031 93 L 282.707031 93 L 282.707031 284.992188 L 90.707031 284.992188 Z M 90.707031 93 " clip-rule="nonzero"/></clipPath><clipPath id="35de10058a"><path d="M 140 87.742188 L 232 87.742188 L 232 263 L 140 263 Z M 140 87.742188 " clip-rule="nonzero"/></clipPath></defs><rect x="-37.5" width="450" fill="#ffffff" y="-37.499999" height="449.999989" fill-opacity="1"/><rect x="-37.5" fill="url(#be284d1c98)" width="450" y="-37.499999" height="449.999989"/><g clip-path="url(#a8b9a6183c)"><path fill="#5b1bdb" d="M 282.40625 189.253906 C 282.40625 190.820312 282.367188 192.386719 282.289062 193.953125 C 282.214844 195.515625 282.097656 197.078125 281.945312 198.640625 C 281.792969 200.199219 281.601562 201.753906 281.371094 203.304688 C 281.140625 204.851562 280.871094 206.398438 280.566406 207.933594 C 280.261719 209.46875 279.917969 211 279.535156 212.519531 C 279.15625 214.039062 278.738281 215.546875 278.285156 217.046875 C 277.828125 218.546875 277.335938 220.035156 276.808594 221.511719 C 276.28125 222.984375 275.71875 224.445312 275.117188 225.894531 C 274.519531 227.34375 273.882812 228.773438 273.214844 230.191406 C 272.542969 231.605469 271.839844 233.007812 271.101562 234.386719 C 270.363281 235.769531 269.589844 237.132812 268.785156 238.476562 C 267.980469 239.820312 267.140625 241.144531 266.269531 242.449219 C 265.398438 243.75 264.496094 245.03125 263.5625 246.289062 C 262.628906 247.546875 261.667969 248.785156 260.671875 249.996094 C 259.679688 251.207031 258.65625 252.390625 257.601562 253.554688 C 256.550781 254.714844 255.472656 255.847656 254.363281 256.957031 C 253.253906 258.066406 252.121094 259.144531 250.960938 260.199219 C 249.796875 261.25 248.613281 262.273438 247.402344 263.265625 C 246.191406 264.261719 244.953125 265.226562 243.695312 266.15625 C 242.4375 267.089844 241.15625 267.992188 239.855469 268.863281 C 238.550781 269.734375 237.226562 270.574219 235.882812 271.378906 C 234.539062 272.183594 233.175781 272.957031 231.792969 273.695312 C 230.414062 274.433594 229.011719 275.136719 227.597656 275.808594 C 226.179688 276.476562 224.75 277.113281 223.300781 277.710938 C 221.851562 278.3125 220.390625 278.875 218.917969 279.402344 C 217.441406 279.929688 215.953125 280.421875 214.453125 280.878906 C 212.953125 281.332031 211.445312 281.75 209.925781 282.128906 C 208.40625 282.511719 206.875 282.855469 205.339844 283.160156 C 203.800781 283.464844 202.257812 283.734375 200.710938 283.964844 C 199.160156 284.195312 197.605469 284.386719 196.046875 284.539062 C 194.484375 284.691406 192.921875 284.808594 191.359375 284.886719 C 189.792969 284.960938 188.226562 285 186.660156 285 C 185.09375 285 183.527344 284.960938 181.960938 284.886719 C 180.398438 284.808594 178.835938 284.691406 177.277344 284.539062 C 175.714844 284.386719 174.160156 284.195312 172.613281 283.964844 C 171.0625 283.734375 169.519531 283.464844 167.980469 283.160156 C 166.445312 282.855469 164.914062 282.511719 163.394531 282.128906 C 161.875 281.75 160.367188 281.332031 158.867188 280.878906 C 157.367188 280.421875 155.878906 279.929688 154.40625 279.402344 C 152.929688 278.875 151.46875 278.3125 150.019531 277.710938 C 148.570312 277.113281 147.140625 276.476562 145.722656 275.808594 C 144.308594 275.136719 142.90625 274.433594 141.527344 273.695312 C 140.144531 272.957031 138.78125 272.183594 137.4375 271.378906 C 136.09375 270.574219 134.769531 269.734375 133.464844 268.863281 C 132.164062 267.992188 130.882812 267.089844 129.625 266.15625 C 128.367188 265.226562 127.132812 264.261719 125.917969 263.265625 C 124.707031 262.273438 123.523438 261.25 122.359375 260.195312 C 121.199219 259.144531 120.066406 258.066406 118.957031 256.957031 C 117.851562 255.847656 116.769531 254.714844 115.71875 253.554688 C 114.664062 252.390625 113.640625 251.207031 112.648438 249.996094 C 111.652344 248.785156 110.691406 247.546875 109.757812 246.289062 C 108.824219 245.03125 107.921875 243.75 107.050781 242.449219 C 106.179688 241.144531 105.34375 239.820312 104.535156 238.476562 C 103.730469 237.132812 102.957031 235.769531 102.21875 234.386719 C 101.480469 233.007812 100.777344 231.605469 100.105469 230.191406 C 99.4375 228.773438 98.800781 227.34375 98.203125 225.894531 C 97.601562 224.445312 97.039062 222.984375 96.511719 221.511719 C 95.984375 220.035156 95.492188 218.546875 95.039062 217.046875 C 94.582031 215.546875 94.164062 214.039062 93.785156 212.519531 C 93.402344 211 93.058594 209.46875 92.753906 207.933594 C 92.449219 206.398438 92.179688 204.851562 91.949219 203.304688 C 91.722656 201.753906 91.527344 200.199219 91.375 198.640625 C 91.222656 197.078125 91.105469 195.515625 91.03125 193.953125 C 90.953125 192.386719 90.914062 190.820312 90.914062 189.253906 C 90.914062 187.6875 90.953125 186.121094 91.03125 184.554688 C 91.105469 182.992188 91.222656 181.429688 91.375 179.871094 C 91.527344 178.308594 91.722656 176.753906 91.949219 175.207031 C 92.179688 173.65625 92.449219 172.113281 92.753906 170.574219 C 93.058594 169.039062 93.402344 167.511719 93.785156 165.988281 C 94.164062 164.46875 94.582031 162.960938 95.039062 161.460938 C 95.492188 159.960938 95.984375 158.472656 96.511719 157 C 97.039062 155.523438 97.601562 154.0625 98.203125 152.613281 C 98.800781 151.167969 99.4375 149.734375 100.105469 148.316406 C 100.777344 146.902344 101.480469 145.5 102.21875 144.121094 C 102.957031 142.738281 103.730469 141.375 104.535156 140.03125 C 105.34375 138.6875 106.179688 137.363281 107.050781 136.0625 C 107.921875 134.757812 108.824219 133.476562 109.757812 132.21875 C 110.691406 130.960938 111.652344 129.726562 112.648438 128.515625 C 113.640625 127.300781 114.664062 126.117188 115.71875 124.957031 C 116.769531 123.792969 117.851562 122.660156 118.957031 121.550781 C 120.066406 120.445312 121.199219 119.363281 122.359375 118.3125 C 123.523438 117.257812 124.707031 116.234375 125.917969 115.242188 C 127.132812 114.246094 128.367188 113.285156 129.625 112.351562 C 130.882812 111.417969 132.164062 110.515625 133.464844 109.644531 C 134.769531 108.773438 136.09375 107.9375 137.4375 107.128906 C 138.78125 106.324219 140.144531 105.550781 141.527344 104.8125 C 142.90625 104.074219 144.308594 103.371094 145.722656 102.699219 C 147.140625 102.03125 148.570312 101.394531 150.019531 100.796875 C 151.46875 100.195312 152.929688 99.632812 154.40625 99.105469 C 155.878906 98.578125 157.367188 98.085938 158.867188 97.632812 C 160.367188 97.175781 161.875 96.757812 163.394531 96.378906 C 164.914062 95.996094 166.445312 95.652344 167.980469 95.347656 C 169.519531 95.042969 171.0625 94.773438 172.613281 94.542969 C 174.160156 94.316406 175.714844 94.125 177.277344 93.96875 C 178.835938 93.816406 180.398438 93.699219 181.960938 93.625 C 183.527344 93.546875 185.09375 93.507812 186.660156 93.507812 C 188.226562 93.507812 189.792969 93.546875 191.359375 93.625 C 192.921875 93.699219 194.484375 93.816406 196.046875 93.96875 C 197.605469 94.125 199.160156 94.316406 200.710938 94.542969 C 202.257812 94.773438 203.800781 95.042969 205.339844 95.347656 C 206.875 95.652344 208.40625 95.996094 209.925781 96.378906 C 211.445312 96.757812 212.953125 97.175781 214.453125 97.632812 C 215.953125 98.085938 217.441406 98.578125 218.917969 99.105469 C 220.390625 99.632812 221.851562 100.195312 223.300781 100.796875 C 224.75 101.394531 226.179688 102.03125 227.597656 102.699219 C 229.011719 103.371094 230.414062 104.074219 231.792969 104.8125 C 233.175781 105.550781 234.539062 106.324219 235.882812 107.128906 C 237.226562 107.9375 238.550781 108.773438 239.855469 109.644531 C 241.15625 110.515625 242.4375 111.417969 243.695312 112.351562 C 244.953125 113.285156 246.191406 114.246094 247.402344 115.242188 C 248.613281 116.234375 249.796875 117.257812 250.960938 118.3125 C 252.121094 119.363281 253.253906 120.445312 254.363281 121.550781 C 255.472656 122.660156 256.550781 123.792969 257.601562 124.957031 C 258.65625 126.117188 259.679688 127.300781 260.671875 128.515625 C 261.667969 129.726562 262.628906 130.960938 263.5625 132.21875 C 264.496094 133.476562 265.398438 134.757812 266.269531 136.0625 C 267.140625 137.363281 267.980469 138.6875 268.785156 140.03125 C 269.589844 141.375 270.363281 142.738281 271.101562 144.121094 C 271.839844 145.5 272.542969 146.902344 273.214844 148.316406 C 273.882812 149.734375 274.519531 151.167969 275.117188 152.613281 C 275.71875 154.0625 276.28125 155.523438 276.808594 157 C 277.335938 158.472656 277.828125 159.960938 278.285156 161.460938 C 278.738281 162.960938 279.15625 164.46875 279.535156 165.988281 C 279.917969 167.511719 280.261719 169.039062 280.566406 170.574219 C 280.871094 172.113281 281.140625 173.65625 281.371094 175.207031 C 281.601562 176.753906 281.792969 178.308594 281.945312 179.871094 C 282.097656 181.429688 282.214844 182.992188 282.289062 184.554688 C 282.367188 186.121094 282.40625 187.6875 282.40625 189.253906 Z M 282.40625 189.253906 " fill-opacity="1" fill-rule="nonzero"/><path fill="#5b1bdb" d="M 186.660156 285.15625 C 173.710938 285.15625 161.15625 282.632812 149.308594 277.617188 C 137.898438 272.800781 127.632812 265.890625 118.828125 257.046875 C 110.023438 248.242188 103.113281 237.976562 98.257812 226.566406 C 93.242188 214.761719 90.71875 202.164062 90.71875 189.214844 C 90.71875 176.265625 93.242188 163.707031 98.257812 151.863281 C 103.074219 140.453125 109.984375 130.1875 118.828125 121.382812 C 127.632812 112.578125 137.898438 105.667969 149.308594 100.8125 C 161.113281 95.796875 173.710938 93.273438 186.660156 93.273438 C 199.609375 93.273438 212.167969 95.796875 224.011719 100.8125 C 235.421875 105.628906 245.6875 112.539062 254.492188 121.382812 C 263.296875 130.1875 270.207031 140.453125 275.0625 151.863281 C 280.078125 163.667969 282.601562 176.265625 282.601562 189.214844 C 282.601562 202.164062 280.078125 214.722656 275.0625 226.566406 C 270.246094 237.976562 263.335938 248.242188 254.492188 257.046875 C 245.6875 265.851562 235.421875 272.761719 224.011719 277.617188 C 212.167969 282.632812 199.609375 285.15625 186.660156 285.15625 Z M 186.660156 93.667969 C 133.949219 93.667969 91.074219 136.542969 91.074219 189.253906 C 91.074219 241.964844 133.949219 284.84375 186.660156 284.84375 C 239.371094 284.84375 282.25 241.964844 282.25 189.253906 C 282.25 136.542969 239.371094 93.667969 186.660156 93.667969 Z M 186.660156 93.667969 " fill-opacity="1" fill-rule="nonzero"/></g><path fill="#ffffff" d="M 96.957031 188.03125 L 96.996094 186.648438 C 97.625 163.667969 106.945312 142.074219 123.210938 125.804688 C 140.148438 108.867188 162.65625 99.550781 186.621094 99.550781 C 210.585938 99.550781 233.09375 108.867188 250.03125 125.804688 C 259.902344 135.675781 267.164062 147.363281 271.585938 160.433594 L 272.023438 161.734375 L 264.679688 162.839844 L 264.441406 161.972656 C 260.335938 150.285156 253.78125 139.859375 244.9375 130.976562 C 229.339844 115.421875 208.652344 106.855469 186.660156 106.855469 C 164.667969 106.855469 143.980469 115.421875 128.382812 130.976562 L 127.59375 130.1875 L 128.382812 130.976562 C 113.65625 145.703125 105.128906 165.25 104.339844 185.976562 L 104.300781 186.925781 Z M 186.660156 101.839844 C 163.324219 101.839844 141.375 110.921875 124.871094 127.425781 C 109.3125 142.980469 100.3125 163.472656 99.363281 185.34375 L 102.128906 184.949219 C 102.640625 174.644531 104.96875 164.695312 109.078125 155.300781 C 113.300781 145.625 119.261719 136.898438 126.84375 129.359375 C 142.835938 113.367188 164.117188 104.5625 186.699219 104.5625 C 209.324219 104.5625 230.566406 113.367188 246.554688 129.359375 C 255.4375 138.242188 262.074219 148.664062 266.296875 160.3125 L 269.0625 159.917969 C 264.71875 147.679688 257.808594 136.78125 248.492188 127.464844 C 231.945312 110.921875 209.996094 101.839844 186.660156 101.839844 Z M 186.660156 101.839844 " fill-opacity="1" fill-rule="nonzero"/><path fill="#ffffff" d="M 102.007812 187.28125 L 102.046875 185.898438 C 102.445312 175.238281 104.8125 164.972656 109.035156 155.339844 C 113.261719 145.664062 119.222656 136.941406 126.804688 129.398438 C 142.792969 113.40625 164.074219 104.601562 186.660156 104.601562 C 209.246094 104.601562 230.527344 113.40625 246.515625 129.398438 C 255.636719 138.519531 262.386719 149.21875 266.574219 161.222656 L 267.046875 162.523438 L 259.703125 163.628906 L 259.386719 162.761719 C 255.519531 152.140625 249.476562 142.664062 241.382812 134.570312 C 226.773438 119.960938 207.347656 111.90625 186.660156 111.90625 C 166.011719 111.90625 146.546875 119.960938 131.9375 134.570312 C 118.355469 148.113281 110.339844 166.117188 109.390625 185.265625 L 109.351562 186.214844 Z M 186.660156 106.855469 C 164.667969 106.855469 143.980469 115.421875 128.382812 130.976562 C 114.011719 145.390625 105.523438 164.378906 104.417969 184.636719 L 107.179688 184.238281 C 107.773438 174.726562 110.023438 165.566406 113.855469 156.957031 C 117.800781 148.035156 123.371094 139.980469 130.359375 132.992188 C 145.402344 117.949219 165.417969 109.65625 186.699219 109.65625 C 207.980469 109.65625 228 117.949219 243.042969 132.992188 C 251.136719 141.085938 257.296875 150.5625 261.28125 161.140625 L 264.046875 160.707031 C 259.941406 149.535156 253.542969 139.585938 244.976562 131.015625 C 229.339844 115.421875 208.652344 106.855469 186.660156 106.855469 Z M 186.660156 106.855469 " fill-opacity="1" fill-rule="nonzero"/><path fill="#ffffff" d="M 256.148438 189.253906 C 256.148438 190.390625 256.121094 191.527344 256.066406 192.664062 C 256.011719 193.800781 255.925781 194.933594 255.816406 196.066406 C 255.703125 197.199219 255.566406 198.324219 255.398438 199.449219 C 255.230469 200.574219 255.035156 201.695312 254.816406 202.8125 C 254.59375 203.925781 254.34375 205.035156 254.066406 206.140625 C 253.792969 207.242188 253.488281 208.335938 253.15625 209.425781 C 252.828125 210.515625 252.472656 211.59375 252.085938 212.664062 C 251.703125 213.734375 251.296875 214.796875 250.859375 215.847656 C 250.425781 216.898438 249.964844 217.9375 249.476562 218.964844 C 248.992188 219.992188 248.480469 221.007812 247.945312 222.011719 C 247.410156 223.015625 246.847656 224.003906 246.261719 224.980469 C 245.679688 225.953125 245.070312 226.914062 244.4375 227.859375 C 243.808594 228.804688 243.152344 229.734375 242.476562 230.648438 C 241.796875 231.5625 241.097656 232.460938 240.375 233.339844 C 239.65625 234.21875 238.914062 235.078125 238.148438 235.921875 C 237.386719 236.761719 236.601562 237.585938 235.796875 238.390625 C 234.992188 239.195312 234.167969 239.980469 233.328125 240.742188 C 232.484375 241.507812 231.625 242.25 230.742188 242.96875 C 229.863281 243.691406 228.96875 244.390625 228.054688 245.070312 C 227.140625 245.746094 226.210938 246.402344 225.265625 247.03125 C 224.320312 247.664062 223.359375 248.273438 222.386719 248.859375 C 221.410156 249.441406 220.421875 250.003906 219.417969 250.539062 C 218.414062 251.074219 217.398438 251.585938 216.371094 252.074219 C 215.34375 252.558594 214.304688 253.019531 213.253906 253.453125 C 212.203125 253.890625 211.140625 254.296875 210.070312 254.683594 C 209 255.066406 207.921875 255.421875 206.832031 255.75 C 205.742188 256.082031 204.648438 256.386719 203.542969 256.660156 C 202.441406 256.9375 201.332031 257.1875 200.21875 257.410156 C 199.101562 257.628906 197.980469 257.824219 196.855469 257.992188 C 195.730469 258.160156 194.601562 258.296875 193.472656 258.410156 C 192.339844 258.519531 191.207031 258.605469 190.070312 258.660156 C 188.933594 258.714844 187.796875 258.742188 186.660156 258.742188 C 185.523438 258.742188 184.386719 258.714844 183.25 258.660156 C 182.113281 258.605469 180.980469 258.519531 179.847656 258.410156 C 178.71875 258.296875 177.589844 258.160156 176.464844 257.992188 C 175.339844 257.824219 174.21875 257.628906 173.101562 257.410156 C 171.988281 257.1875 170.878906 256.9375 169.777344 256.660156 C 168.671875 256.386719 167.578125 256.082031 166.488281 255.75 C 165.398438 255.421875 164.320312 255.066406 163.25 254.683594 C 162.179688 254.296875 161.117188 253.890625 160.066406 253.453125 C 159.015625 253.019531 157.976562 252.558594 156.949219 252.074219 C 155.921875 251.585938 154.90625 251.074219 153.902344 250.539062 C 152.898438 250.003906 151.910156 249.441406 150.933594 248.859375 C 149.960938 248.273438 149 247.664062 148.054688 247.03125 C 147.109375 246.402344 146.179688 245.746094 145.265625 245.070312 C 144.351562 244.390625 143.457031 243.691406 142.578125 242.96875 C 141.699219 242.25 140.835938 241.507812 139.992188 240.742188 C 139.152344 239.980469 138.328125 239.195312 137.523438 238.390625 C 136.71875 237.585938 135.933594 236.761719 135.171875 235.921875 C 134.40625 235.078125 133.664062 234.21875 132.945312 233.339844 C 132.222656 232.460938 131.523438 231.5625 130.84375 230.648438 C 130.167969 229.734375 129.511719 228.804688 128.882812 227.859375 C 128.25 226.914062 127.640625 225.953125 127.058594 224.980469 C 126.472656 224.003906 125.910156 223.015625 125.375 222.011719 C 124.839844 221.007812 124.328125 219.992188 123.84375 218.964844 C 123.355469 217.9375 122.894531 216.898438 122.460938 215.847656 C 122.023438 214.796875 121.617188 213.734375 121.234375 212.664062 C 120.847656 211.59375 120.492188 210.515625 120.164062 209.425781 C 119.832031 208.335938 119.53125 207.242188 119.253906 206.140625 C 118.976562 205.035156 118.726562 203.925781 118.503906 202.8125 C 118.285156 201.695312 118.089844 200.574219 117.921875 199.449219 C 117.753906 198.324219 117.617188 197.199219 117.503906 196.066406 C 117.394531 194.933594 117.308594 193.800781 117.253906 192.664062 C 117.199219 191.527344 117.171875 190.390625 117.171875 189.253906 C 117.171875 188.117188 117.199219 186.980469 117.253906 185.84375 C 117.308594 184.707031 117.394531 183.574219 117.503906 182.441406 C 117.617188 181.3125 117.753906 180.183594 117.921875 179.058594 C 118.089844 177.933594 118.285156 176.8125 118.503906 175.699219 C 118.726562 174.582031 118.976562 173.472656 119.253906 172.371094 C 119.53125 171.265625 119.832031 170.171875 120.164062 169.082031 C 120.492188 167.996094 120.847656 166.914062 121.234375 165.84375 C 121.617188 164.773438 122.023438 163.710938 122.460938 162.660156 C 122.894531 161.609375 123.355469 160.570312 123.84375 159.542969 C 124.328125 158.515625 124.839844 157.5 125.375 156.496094 C 125.910156 155.492188 126.472656 154.503906 127.058594 153.53125 C 127.640625 152.554688 128.25 151.59375 128.882812 150.648438 C 129.511719 149.703125 130.167969 148.773438 130.84375 147.859375 C 131.523438 146.945312 132.222656 146.050781 132.945312 145.171875 C 133.664062 144.292969 134.40625 143.429688 135.171875 142.585938 C 135.933594 141.746094 136.71875 140.921875 137.523438 140.117188 C 138.328125 139.3125 139.152344 138.53125 139.992188 137.765625 C 140.835938 137.003906 141.699219 136.257812 142.578125 135.539062 C 143.457031 134.816406 144.351562 134.117188 145.265625 133.441406 C 146.179688 132.761719 147.109375 132.109375 148.054688 131.476562 C 149 130.84375 149.960938 130.234375 150.933594 129.652344 C 151.910156 129.066406 152.898438 128.507812 153.902344 127.96875 C 154.90625 127.433594 155.921875 126.921875 156.949219 126.4375 C 157.976562 125.949219 159.015625 125.488281 160.066406 125.054688 C 161.117188 124.617188 162.179688 124.210938 163.25 123.828125 C 164.320312 123.445312 165.398438 123.085938 166.488281 122.757812 C 167.578125 122.425781 168.671875 122.125 169.777344 121.847656 C 170.878906 121.570312 171.988281 121.320312 173.101562 121.101562 C 174.21875 120.878906 175.339844 120.683594 176.464844 120.515625 C 177.589844 120.351562 178.71875 120.210938 179.847656 120.097656 C 180.980469 119.988281 182.113281 119.902344 183.25 119.847656 C 184.386719 119.792969 185.523438 119.765625 186.660156 119.765625 C 187.796875 119.765625 188.933594 119.792969 190.070312 119.847656 C 191.207031 119.902344 192.339844 119.988281 193.472656 120.097656 C 194.601562 120.210938 195.730469 120.351562 196.855469 120.515625 C 197.980469 120.683594 199.101562 120.878906 200.21875 121.101562 C 201.332031 121.320312 202.441406 121.570312 203.542969 121.847656 C 204.648438 122.125 205.742188 122.425781 206.832031 122.757812 C 207.921875 123.085938 209 123.445312 210.070312 123.828125 C 211.140625 124.210938 212.203125 124.617188 213.253906 125.054688 C 214.304688 125.488281 215.34375 125.949219 216.371094 126.4375 C 217.398438 126.921875 218.414062 127.433594 219.417969 127.96875 C 220.421875 128.507812 221.410156 129.066406 222.386719 129.652344 C 223.359375 130.234375 224.320312 130.84375 225.265625 131.476562 C 226.210938 132.109375 227.140625 132.761719 228.054688 133.441406 C 228.96875 134.117188 229.863281 134.816406 230.742188 135.539062 C 231.625 136.257812 232.484375 137.003906 233.328125 137.765625 C 234.167969 138.53125 234.992188 139.3125 235.796875 140.117188 C 236.601562 140.921875 237.386719 141.746094 238.148438 142.585938 C 238.914062 143.429688 239.65625 144.292969 240.375 145.171875 C 241.097656 146.050781 241.796875 146.945312 242.476562 147.859375 C 243.152344 148.773438 243.808594 149.703125 244.4375 150.648438 C 245.070312 151.59375 245.679688 152.554688 246.261719 153.53125 C 246.847656 154.503906 247.410156 155.492188 247.945312 156.496094 C 248.480469 157.5 248.992188 158.515625 249.476562 159.542969 C 249.964844 160.570312 250.425781 161.609375 250.859375 162.660156 C 251.296875 163.710938 251.703125 164.773438 252.085938 165.84375 C 252.472656 166.914062 252.828125 167.996094 253.15625 169.082031 C 253.488281 170.171875 253.792969 171.265625 254.066406 172.371094 C 254.34375 173.472656 254.59375 174.582031 254.816406 175.699219 C 255.035156 176.8125 255.230469 177.933594 255.398438 179.058594 C 255.566406 180.183594 255.703125 181.3125 255.816406 182.441406 C 255.925781 183.574219 256.011719 184.707031 256.066406 185.84375 C 256.121094 186.980469 256.148438 188.117188 256.148438 189.253906 Z M 256.148438 189.253906 " fill-opacity="1" fill-rule="nonzero"/><path fill="#5b1bdb" d="M 186.660156 258.863281 C 177.261719 258.863281 168.144531 257.007812 159.574219 253.375 C 151.285156 249.859375 143.859375 244.847656 137.464844 238.449219 C 131.070312 232.054688 126.054688 224.632812 122.539062 216.339844 C 118.90625 207.773438 117.050781 198.652344 117.050781 189.253906 C 117.050781 179.855469 118.90625 170.738281 122.539062 162.167969 C 126.054688 153.878906 131.070312 146.453125 137.464844 140.058594 C 143.859375 133.664062 151.285156 128.648438 159.574219 125.132812 C 168.144531 121.5 177.261719 119.644531 186.660156 119.644531 C 196.058594 119.644531 205.175781 121.5 213.746094 125.132812 C 222.035156 128.648438 229.460938 133.664062 235.855469 140.058594 C 242.253906 146.453125 247.265625 153.878906 250.78125 162.167969 C 254.414062 170.738281 256.269531 179.855469 256.269531 189.253906 C 256.269531 198.652344 254.414062 207.773438 250.78125 216.339844 C 247.265625 224.632812 242.253906 232.054688 235.855469 238.449219 C 229.460938 244.847656 222.035156 249.859375 213.746094 253.375 C 205.175781 257.007812 196.058594 258.863281 186.660156 258.863281 Z M 186.660156 119.882812 C 148.402344 119.882812 117.289062 150.996094 117.289062 189.253906 C 117.289062 227.511719 148.402344 258.625 186.660156 258.625 C 224.917969 258.625 256.03125 227.511719 256.03125 189.253906 C 256.03125 150.996094 224.917969 119.882812 186.660156 119.882812 Z M 186.660156 119.882812 " fill-opacity="1" fill-rule="nonzero"/><path fill="#5b1bdb" d="M 247.582031 189.253906 L 207.785156 188.703125 L 247.503906 186.054688 L 207.742188 187.597656 L 247.265625 182.898438 L 247.265625 182.859375 L 207.625 186.492188 L 246.832031 179.738281 L 246.832031 179.699219 L 207.429688 185.386719 L 246.277344 176.582031 L 207.191406 184.320312 L 245.527344 173.5 L 245.527344 173.460938 L 206.914062 183.253906 L 244.621094 170.421875 L 206.597656 182.1875 L 243.554688 167.421875 L 206.203125 181.160156 L 242.332031 164.460938 L 205.730469 180.132812 L 240.949219 161.617188 L 240.949219 161.578125 L 205.21875 179.148438 L 239.449219 158.8125 L 239.410156 158.773438 L 204.664062 178.199219 L 237.789062 156.089844 L 237.75 156.050781 L 204.070312 177.289062 L 235.972656 153.445312 L 235.933594 153.402344 L 203.441406 176.382812 L 234.039062 150.917969 L 234 150.878906 L 202.730469 175.515625 L 231.945312 148.46875 L 201.980469 174.683594 L 229.777344 146.179688 L 229.734375 146.140625 L 201.191406 173.933594 L 227.445312 143.96875 L 227.40625 143.96875 L 200.398438 173.183594 L 225.039062 141.914062 L 224.996094 141.875 L 199.53125 172.472656 L 222.472656 139.980469 L 222.472656 139.941406 L 198.625 171.84375 L 219.867188 138.164062 L 219.824219 138.125 L 197.714844 171.25 L 217.140625 136.503906 L 217.101562 136.464844 L 196.726562 170.699219 L 214.335938 134.964844 L 214.296875 134.964844 L 195.742188 170.183594 L 211.457031 133.582031 L 211.414062 133.582031 L 194.753906 169.710938 L 208.496094 132.359375 L 193.726562 169.316406 L 205.492188 131.292969 L 192.660156 169 L 202.453125 130.386719 L 202.414062 130.386719 L 191.59375 168.683594 L 199.335938 129.636719 L 190.53125 168.488281 L 196.214844 129.082031 L 196.175781 129.082031 L 189.425781 168.289062 L 193.054688 128.648438 L 193.015625 128.648438 L 188.320312 168.171875 L 189.859375 128.410156 L 189.820312 128.410156 L 187.214844 168.132812 L 186.660156 128.332031 L 186.109375 168.132812 L 183.5 128.410156 L 183.460938 128.410156 L 185 168.171875 L 180.304688 128.648438 L 180.265625 128.648438 L 183.894531 168.289062 L 177.144531 129.082031 L 177.105469 129.082031 L 182.789062 168.488281 L 173.984375 129.636719 L 181.726562 168.683594 L 170.90625 130.386719 L 170.867188 130.386719 L 180.660156 169 L 167.828125 131.292969 L 179.59375 169.316406 L 164.828125 132.359375 L 178.566406 169.710938 L 161.90625 133.582031 L 161.863281 133.582031 L 177.578125 170.183594 L 159.023438 134.964844 L 158.984375 134.964844 L 176.59375 170.699219 L 156.21875 136.464844 L 156.179688 136.503906 L 175.605469 171.25 L 153.496094 138.125 L 153.457031 138.164062 L 174.695312 171.84375 L 150.847656 139.941406 L 150.847656 139.980469 L 173.789062 172.472656 L 148.324219 141.875 L 148.28125 141.914062 L 172.921875 173.183594 L 145.914062 143.96875 L 145.875 143.96875 L 172.128906 173.933594 L 143.585938 146.140625 L 143.546875 146.179688 L 171.339844 174.683594 L 141.375 148.46875 L 170.589844 175.515625 L 139.320312 150.878906 L 139.28125 150.917969 L 169.878906 176.382812 L 137.386719 153.402344 L 137.347656 153.445312 L 169.25 177.289062 L 135.570312 156.050781 L 135.53125 156.089844 L 168.65625 178.199219 L 133.910156 158.773438 L 133.871094 158.8125 L 168.101562 179.148438 L 132.371094 161.578125 L 132.371094 161.617188 L 167.589844 180.132812 L 130.988281 164.460938 L 130.988281 164.5 L 167.117188 181.160156 L 129.765625 167.421875 L 166.722656 182.1875 L 128.699219 170.421875 L 166.40625 183.253906 L 127.792969 173.460938 L 127.792969 173.5 L 166.128906 184.320312 L 127.042969 176.582031 L 165.890625 185.386719 L 126.488281 179.699219 L 126.488281 179.738281 L 165.695312 186.492188 L 126.054688 182.859375 L 126.054688 182.898438 L 165.578125 187.597656 L 125.816406 186.054688 L 165.535156 188.703125 L 125.738281 189.253906 L 165.535156 189.808594 L 125.816406 192.414062 L 125.816406 192.453125 L 165.578125 190.914062 L 126.054688 195.609375 L 126.054688 195.652344 L 165.695312 192.019531 L 126.488281 198.769531 L 126.488281 198.808594 L 165.890625 193.085938 L 127.042969 201.890625 L 127.042969 201.929688 L 166.128906 194.191406 L 127.792969 205.007812 L 127.792969 205.046875 L 166.40625 195.253906 L 128.699219 208.046875 L 128.699219 208.085938 L 166.722656 196.320312 L 129.765625 211.089844 L 167.117188 197.347656 L 130.988281 214.011719 L 130.988281 214.050781 L 167.589844 198.335938 L 132.371094 216.890625 L 132.371094 216.933594 L 168.101562 199.324219 L 133.871094 219.695312 L 133.910156 219.734375 L 168.65625 200.308594 L 135.53125 222.417969 L 135.570312 222.460938 L 169.25 201.21875 L 137.347656 225.066406 L 137.386719 225.066406 L 169.878906 202.125 L 139.28125 227.59375 L 139.320312 227.59375 L 170.589844 202.996094 L 141.375 230 L 141.375 230.039062 L 171.339844 203.785156 L 143.546875 232.328125 L 143.585938 232.328125 L 172.128906 204.574219 L 145.875 234.542969 L 145.914062 234.542969 L 172.921875 205.324219 L 148.28125 236.59375 L 148.324219 236.632812 L 173.789062 206.035156 L 150.847656 238.527344 L 150.847656 238.566406 L 174.695312 206.667969 L 153.457031 240.34375 L 153.496094 240.34375 L 175.605469 207.257812 L 156.179688 242.003906 L 156.21875 242.042969 L 176.59375 207.8125 L 158.984375 243.542969 L 159.023438 243.542969 L 177.578125 208.324219 L 161.863281 244.925781 L 161.90625 244.925781 L 178.566406 208.757812 L 164.828125 246.148438 L 179.59375 209.152344 L 167.828125 247.214844 L 180.660156 209.507812 L 170.867188 248.125 L 170.90625 248.125 L 181.726562 209.785156 L 173.984375 248.832031 L 173.984375 248.875 L 182.789062 210.023438 L 177.105469 249.425781 L 177.144531 249.425781 L 183.894531 210.21875 L 180.265625 249.859375 L 180.304688 249.859375 L 185 210.339844 L 183.460938 250.097656 L 183.5 250.097656 L 186.109375 210.378906 L 186.660156 250.175781 L 187.214844 210.378906 L 189.820312 250.097656 L 189.859375 250.097656 L 188.320312 210.339844 L 193.015625 249.859375 L 193.054688 249.859375 L 189.425781 210.21875 L 196.175781 249.425781 L 196.214844 249.425781 L 190.53125 210.023438 L 199.335938 248.875 L 199.335938 248.832031 L 191.59375 209.785156 L 202.414062 248.125 L 202.453125 248.125 L 192.660156 209.507812 L 205.492188 247.214844 L 193.726562 209.152344 L 208.496094 246.148438 L 194.753906 208.757812 L 211.414062 244.925781 L 211.457031 244.925781 L 195.742188 208.324219 L 214.296875 243.542969 L 214.335938 243.542969 L 196.726562 207.8125 L 217.101562 242.042969 L 217.140625 242.003906 L 197.714844 207.257812 L 219.824219 240.34375 L 219.867188 240.34375 L 198.625 206.667969 L 222.472656 238.566406 L 222.472656 238.527344 L 199.53125 206.035156 L 224.996094 236.632812 L 225.039062 236.59375 L 200.398438 205.324219 L 227.40625 234.542969 L 227.445312 234.542969 L 201.191406 204.574219 L 229.734375 232.328125 L 229.777344 232.328125 L 201.980469 203.785156 L 231.945312 230.039062 L 231.945312 230 L 202.730469 202.996094 L 234 227.59375 L 234.039062 227.59375 L 203.441406 202.125 L 235.933594 225.066406 L 235.972656 225.066406 L 204.070312 201.21875 L 237.75 222.460938 L 237.789062 222.417969 L 204.664062 200.308594 L 239.410156 219.734375 L 239.449219 219.695312 L 205.21875 199.324219 L 240.949219 216.933594 L 240.949219 216.890625 L 205.730469 198.335938 L 242.332031 214.050781 L 242.332031 214.011719 L 206.203125 197.347656 L 243.554688 211.089844 L 206.597656 196.320312 L 244.621094 208.085938 L 244.621094 208.046875 L 206.914062 195.253906 L 245.527344 205.046875 L 245.527344 205.007812 L 207.191406 194.191406 L 246.277344 201.929688 L 246.277344 201.890625 L 207.429688 193.085938 L 246.832031 198.808594 L 246.832031 198.769531 L 207.625 192.019531 L 247.265625 195.652344 L 247.265625 195.609375 L 207.742188 190.914062 L 247.503906 192.453125 L 247.503906 192.414062 L 207.785156 189.808594 Z M 247.582031 189.253906 " fill-opacity="1" fill-rule="nonzero"/><g clip-path="url(#35de10058a)"><path fill="#5b1bdb" d="M 194.28125 262.691406 L 194.28125 208.085938 L 199.453125 208.085938 C 199.847656 208.085938 200.242188 208.085938 200.636719 208.046875 C 202.214844 207.96875 203.757812 207.730469 205.257812 207.335938 C 205.613281 207.257812 206.007812 207.140625 206.363281 207.023438 C 207.824219 206.585938 209.203125 205.996094 210.546875 205.246094 C 211.535156 204.691406 212.480469 204.101562 213.390625 203.429688 C 213.980469 202.996094 214.574219 202.519531 215.128906 202.007812 C 215.402344 201.769531 215.679688 201.492188 215.917969 201.21875 C 216.429688 200.703125 216.945312 200.152344 217.417969 199.558594 C 218.128906 198.691406 218.800781 197.78125 219.351562 196.835938 C 221.5625 193.203125 222.707031 189.015625 222.707031 184.753906 L 222.707031 165.566406 L 223.222656 162.957031 C 223.496094 161.578125 223.339844 160.195312 222.746094 158.929688 C 223.8125 158.140625 224.523438 156.996094 224.722656 155.65625 L 225.628906 151.230469 C 226.933594 149.929688 227.683594 148.035156 227.683594 145.980469 C 227.683594 145.074219 227.523438 144.203125 227.25 143.375 C 227.25 143.296875 227.289062 143.257812 227.289062 143.179688 L 228.355469 138.003906 C 228.628906 136.625 228.472656 135.203125 227.878906 133.976562 C 227.960938 133.898438 228.078125 133.859375 228.15625 133.78125 C 228.984375 133.1875 229.539062 132.28125 229.734375 131.292969 L 231.15625 124.34375 C 231.15625 124.304688 231.15625 124.265625 231.195312 124.226562 C 231.828125 120.949219 231.632812 117.515625 230.644531 114.316406 C 229.617188 111.078125 227.800781 108.117188 225.351562 105.789062 L 212.957031 93.902344 C 211.140625 92.167969 208.96875 90.863281 206.679688 90.152344 C 205.058594 89.679688 203.320312 89.71875 201.703125 90.269531 L 201.191406 90.507812 L 200.636719 90.191406 C 199.492188 89.601562 198.269531 89.246094 196.964844 89.164062 L 193.097656 88.929688 C 191.832031 88.847656 190.53125 89.007812 189.34375 89.441406 L 188.59375 89.71875 L 187.332031 89.125 C 186.304688 88.652344 185.199219 88.375 184.09375 88.296875 L 180.539062 88.058594 C 179.238281 87.980469 177.972656 88.140625 176.789062 88.574219 L 176.277344 88.769531 C 174.894531 88.097656 173.632812 87.742188 172.484375 87.742188 C 172.367188 87.742188 172.210938 87.742188 172.089844 87.742188 C 164.117188 88.535156 157.085938 93.785156 154.207031 101.128906 C 154.164062 101.285156 154.085938 101.445312 154.046875 101.5625 L 153.96875 101.839844 C 153.96875 101.917969 153.929688 101.996094 153.929688 102.078125 L 152.546875 108.828125 C 152.507812 108.945312 152.507812 109.066406 152.507812 109.183594 C 152.390625 110.128906 152.507812 111.117188 152.863281 111.988281 L 152.980469 112.261719 C 152.074219 113.171875 151.441406 114.316406 151.164062 115.578125 L 149.980469 121.34375 C 149.941406 121.460938 149.941406 121.582031 149.941406 121.660156 C 149.824219 122.605469 149.941406 123.59375 150.296875 124.464844 L 150.414062 124.738281 C 149.507812 125.648438 148.875 126.792969 148.597656 128.054688 L 147.414062 133.820312 C 147.375 133.9375 147.375 134.058594 147.375 134.136719 C 147.257812 135.082031 147.375 136.03125 147.730469 136.941406 L 147.847656 137.214844 C 146.941406 138.125 146.308594 139.269531 146.03125 140.53125 L 144.847656 146.296875 C 144.808594 146.414062 144.808594 146.535156 144.808594 146.613281 C 144.691406 147.558594 144.808594 148.546875 145.164062 149.417969 L 145.28125 149.691406 C 144.375 150.601562 143.742188 151.746094 143.464844 153.007812 L 141.058594 164.8125 C 140.070312 169.710938 141.609375 174.726562 145.242188 178.160156 L 145.480469 178.398438 L 145.480469 184.871094 C 145.480469 186.054688 145.558594 187.242188 145.757812 188.425781 C 146.03125 190.320312 146.585938 192.175781 147.335938 193.953125 C 147.53125 194.425781 147.769531 194.941406 148.046875 195.492188 C 148.324219 196.046875 148.597656 196.519531 148.875 196.953125 C 149.664062 198.21875 150.535156 199.441406 151.558594 200.546875 C 152.074219 201.097656 152.585938 201.613281 153.140625 202.125 C 155.941406 204.652344 159.339844 206.507812 162.96875 207.457031 C 163.71875 207.652344 164.472656 207.8125 165.261719 207.929688 C 166.40625 208.128906 167.628906 208.207031 168.8125 208.207031 L 174.894531 208.207031 L 174.894531 262.8125 L 194.28125 262.8125 Z M 199.058594 197.03125 C 197.832031 197.425781 196.570312 197.625 195.265625 197.625 L 173 197.625 C 166.523438 197.625 161.15625 192.769531 160.363281 186.53125 C 160.363281 186.53125 160.402344 186.53125 160.402344 186.53125 L 204.386719 189.570312 C 205.335938 189.648438 206.28125 189.609375 207.191406 189.492188 C 205.886719 192.847656 203.164062 195.570312 199.691406 196.835938 C 199.453125 196.875 199.253906 196.953125 199.058594 197.03125 Z M 199.058594 197.03125 " fill-opacity="1" fill-rule="nonzero"/></g><path fill="#5b1bdb" d="M 228.867188 114.59375 C 227.960938 111.710938 226.300781 109.066406 224.128906 106.972656 L 211.652344 95.007812 C 210.074219 93.507812 208.179688 92.363281 206.242188 91.769531 C 205.730469 91.613281 205.136719 91.535156 204.585938 91.535156 C 203.914062 91.535156 203.242188 91.652344 202.609375 91.890625 L 201.191406 92.402344 L 199.769531 91.652344 C 198.898438 91.179688 197.953125 90.941406 196.964844 90.863281 L 193.054688 90.585938 C 192.898438 90.585938 192.742188 90.585938 192.582031 90.585938 C 191.753906 90.585938 190.964844 90.746094 190.175781 91.019531 L 188.59375 91.574219 L 186.503906 90.625 C 185.710938 90.269531 184.882812 90.074219 184.015625 89.996094 L 180.460938 89.757812 C 180.304688 89.757812 180.144531 89.757812 179.988281 89.757812 C 179.160156 89.757812 178.367188 89.914062 177.578125 90.152344 L 176.117188 90.664062 C 175.171875 90.113281 173.75 89.441406 172.484375 89.441406 C 172.40625 89.441406 172.367188 89.441406 172.289062 89.441406 C 165.101562 90.152344 158.746094 94.890625 156.179688 101.484375 C 156.140625 101.5625 156.140625 101.601562 156.101562 101.679688 L 156.023438 101.917969 C 156.023438 101.957031 156.023438 101.996094 155.980469 102.035156 L 154.601562 108.828125 C 154.601562 108.867188 154.5625 108.945312 154.5625 108.984375 C 154.480469 109.539062 154.5625 110.128906 154.757812 110.644531 L 155.191406 111.632812 L 154.917969 112.933594 C 154.046875 113.566406 153.414062 114.472656 153.179688 115.578125 L 151.996094 121.382812 C 151.996094 121.421875 151.953125 121.5 151.953125 121.542969 C 151.875 122.09375 151.953125 122.6875 152.152344 123.199219 L 152.585938 124.1875 L 152.308594 125.488281 C 151.441406 126.121094 150.808594 127.03125 150.574219 128.136719 L 149.386719 133.9375 C 149.386719 133.976562 149.347656 134.058594 149.347656 134.097656 C 149.269531 134.648438 149.347656 135.242188 149.546875 135.753906 L 149.980469 136.742188 L 149.703125 138.046875 C 148.835938 138.675781 148.203125 139.585938 147.96875 140.691406 L 146.78125 146.496094 C 146.78125 146.535156 146.742188 146.613281 146.742188 146.652344 C 146.664062 147.207031 146.742188 147.796875 146.941406 148.3125 L 147.375 149.296875 L 147.097656 150.601562 C 146.230469 151.230469 145.597656 152.140625 145.359375 153.246094 L 142.914062 165.128906 C 142.042969 169.316406 143.386719 173.539062 146.464844 176.5 L 149.308594 179.226562 C 149.269531 179.1875 149.230469 179.148438 149.191406 179.105469 C 149.230469 179.148438 149.269531 179.1875 149.308594 179.226562 L 149.824219 179.699219 C 152.664062 182.382812 156.335938 184.042969 160.246094 184.320312 L 204.507812 187.359375 C 204.824219 187.398438 205.097656 187.398438 205.414062 187.398438 C 208.414062 187.398438 211.335938 186.371094 213.667969 184.476562 C 215.996094 182.582031 217.613281 179.898438 218.246094 176.9375 L 218.640625 175.039062 C 218.917969 173.617188 218.484375 172.160156 217.417969 171.132812 L 217.574219 170.460938 L 218.71875 169.867188 C 219.511719 169.433594 220.0625 168.683594 220.179688 167.777344 L 221.246094 162.484375 C 221.523438 161.0625 221.089844 159.601562 220.023438 158.574219 L 220.179688 157.90625 L 221.324219 157.3125 C 222.117188 156.878906 222.667969 156.128906 222.785156 155.21875 L 223.851562 149.929688 C 224.128906 148.507812 223.695312 147.046875 222.628906 146.019531 L 222.746094 145.347656 L 223.890625 144.757812 C 224.683594 144.324219 225.234375 143.574219 225.351562 142.664062 L 226.417969 137.375 C 226.695312 135.953125 226.261719 134.492188 225.195312 133.464844 L 225.3125 132.792969 L 226.457031 132.203125 C 226.65625 132.082031 226.855469 131.964844 227.011719 131.808594 C 227.40625 131.53125 227.722656 131.097656 227.800781 130.621094 L 229.222656 123.710938 L 229.222656 123.632812 C 229.222656 123.59375 229.222656 123.59375 229.222656 123.554688 C 229.933594 120.515625 229.777344 117.433594 228.867188 114.59375 Z M 228.867188 114.59375 " fill-opacity="1" fill-rule="nonzero"/><path fill="#5b1bdb" d="M 148.085938 177.84375 L 149.113281 178.832031 C 149.191406 178.910156 149.269531 178.949219 149.347656 179.027344 C 149.269531 178.949219 149.191406 178.910156 149.113281 178.832031 Z M 148.085938 177.84375 " fill-opacity="1" fill-rule="nonzero"/><path fill="#ffffff" d="M 222.785156 108.355469 L 210.308594 96.390625 C 209.007812 95.128906 207.390625 94.140625 205.652344 93.585938 C 204.863281 93.351562 204.03125 93.390625 203.242188 93.667969 L 201.070312 94.457031 L 199.925781 94.890625 C 199.292969 95.128906 198.859375 95.679688 198.703125 96.3125 L 197.992188 99.746094 C 197.792969 100.734375 196.886719 101.40625 195.898438 101.324219 L 193.371094 101.167969 C 191.992188 101.089844 191.003906 99.785156 191.28125 98.40625 L 191.792969 95.839844 C 191.910156 95.207031 192.386719 94.652344 193.015625 94.417969 L 193.804688 94.101562 C 194.398438 93.863281 195.070312 93.785156 195.703125 93.824219 L 200.441406 94.140625 L 198.820312 93.3125 C 198.1875 92.996094 197.480469 92.796875 196.769531 92.71875 L 192.859375 92.441406 C 192.148438 92.402344 191.4375 92.480469 190.765625 92.71875 L 188.792969 93.429688 L 187.332031 93.980469 C 186.699219 94.21875 186.265625 94.773438 186.109375 95.402344 L 185.398438 98.839844 C 185.199219 99.824219 184.292969 100.496094 183.304688 100.417969 L 180.777344 100.261719 C 179.394531 100.179688 178.410156 98.878906 178.683594 97.496094 L 179.199219 94.929688 C 179.316406 94.296875 179.789062 93.746094 180.421875 93.507812 L 181.210938 93.191406 C 181.804688 92.957031 182.476562 92.875 183.105469 92.917969 L 187.726562 93.230469 L 185.59375 92.246094 C 185.042969 91.96875 184.410156 91.8125 183.777344 91.769531 L 180.222656 91.535156 C 179.515625 91.496094 178.804688 91.574219 178.132812 91.8125 L 175.921875 92.601562 L 174.578125 93.113281 C 173.945312 93.351562 173.511719 93.902344 173.355469 94.535156 L 172.644531 97.96875 C 172.445312 98.957031 171.539062 99.628906 170.550781 99.550781 L 168.023438 99.390625 C 166.640625 99.3125 165.65625 98.007812 165.933594 96.628906 L 166.328125 94.773438 C 169.011719 93.191406 172.128906 92.324219 175.40625 92.441406 C 174.738281 92.046875 173.355469 91.257812 172.367188 91.257812 C 165.972656 91.890625 160.207031 96.074219 157.878906 102.078125 L 157.796875 102.3125 L 156.457031 108.90625 C 156.535156 108.667969 156.730469 108.472656 156.929688 108.355469 L 157.835938 107.839844 L 158.46875 107.445312 C 160.5625 106.222656 162.96875 105.667969 165.417969 105.828125 L 171.339844 106.222656 C 172.722656 106.300781 173.710938 107.605469 173.433594 108.984375 L 173.078125 110.683594 C 172.839844 111.828125 171.816406 112.617188 170.667969 112.539062 L 164.15625 112.105469 C 161.746094 111.945312 159.296875 112.5 157.207031 113.722656 L 156.574219 114.078125 L 156.140625 114.316406 C 155.585938 114.632812 155.191406 115.183594 155.035156 115.855469 L 153.890625 121.421875 C 153.96875 121.1875 154.164062 120.988281 154.363281 120.871094 L 155.269531 120.355469 L 155.902344 119.960938 C 157.996094 118.738281 160.402344 118.183594 162.851562 118.34375 L 168.734375 118.738281 C 170.117188 118.816406 171.105469 120.121094 170.828125 121.5 L 170.472656 123.199219 C 170.234375 124.34375 169.207031 125.132812 168.0625 125.054688 L 161.550781 124.621094 C 159.140625 124.464844 156.691406 125.015625 154.601562 126.238281 L 153.96875 126.59375 L 153.496094 126.871094 C 152.941406 127.1875 152.546875 127.738281 152.390625 128.410156 L 151.246094 133.976562 C 151.324219 133.742188 151.519531 133.542969 151.71875 133.425781 L 152.625 132.914062 L 153.257812 132.515625 C 155.351562 131.292969 157.757812 130.742188 160.207031 130.898438 L 166.089844 131.292969 C 167.472656 131.371094 168.457031 132.675781 168.183594 134.058594 L 167.828125 135.753906 C 167.589844 136.898438 166.5625 137.691406 165.417969 137.609375 L 158.902344 137.175781 C 156.496094 137.019531 154.046875 137.570312 151.953125 138.796875 L 151.324219 139.152344 L 150.847656 139.425781 C 150.296875 139.742188 149.902344 140.296875 149.742188 140.96875 L 148.597656 146.535156 C 148.679688 146.296875 148.875 146.097656 149.074219 145.980469 L 149.980469 145.46875 L 150.613281 145.074219 C 152.703125 143.847656 155.113281 143.296875 157.5625 143.453125 L 163.484375 143.847656 C 164.867188 143.929688 165.851562 145.230469 165.578125 146.613281 L 165.222656 148.3125 C 164.984375 149.457031 163.957031 150.246094 162.8125 150.167969 L 156.296875 149.730469 C 153.890625 149.574219 151.441406 150.125 149.347656 151.351562 L 148.71875 151.746094 L 148.28125 151.984375 C 147.730469 152.296875 147.335938 152.851562 147.175781 153.523438 L 144.730469 165.40625 C 144.019531 168.921875 145.125 172.511719 147.730469 175 L 151.085938 178.238281 C 153.574219 180.648438 156.851562 182.070312 160.324219 182.304688 L 204.585938 185.34375 C 210.152344 185.742188 215.167969 181.910156 216.3125 176.460938 L 216.707031 174.566406 C 216.863281 173.777344 216.628906 172.988281 216.035156 172.433594 L 215.285156 171.722656 L 212.5625 169.117188 C 212.085938 168.566406 211.890625 167.855469 212.046875 167.144531 L 212.246094 166.195312 C 212.601562 164.417969 214.8125 163.75 216.113281 164.972656 L 216.589844 165.445312 L 217.734375 166.511719 L 217.96875 166.75 C 218.128906 166.90625 218.207031 167.066406 218.207031 167.261719 L 219.273438 162.011719 C 219.429688 161.222656 219.195312 160.433594 218.601562 159.878906 L 217.8125 159.128906 L 215.128906 156.523438 C 214.652344 155.96875 214.457031 155.257812 214.613281 154.550781 L 214.8125 153.601562 C 215.167969 151.863281 217.257812 151.152344 218.5625 152.296875 L 219.15625 152.851562 L 220.300781 153.917969 L 220.535156 154.152344 C 220.695312 154.3125 220.773438 154.46875 220.773438 154.667969 L 221.839844 149.417969 C 221.996094 148.625 221.761719 147.835938 221.167969 147.285156 L 220.417969 146.574219 L 217.851562 144.085938 C 217.257812 143.535156 217.023438 142.742188 217.179688 141.953125 L 217.378906 141.046875 C 217.734375 139.269531 219.945312 138.597656 221.246094 139.820312 L 221.324219 139.902344 L 221.722656 140.296875 L 222.867188 141.363281 L 223.101562 141.597656 C 223.261719 141.757812 223.339844 141.914062 223.339844 142.113281 L 224.40625 136.859375 C 224.5625 136.070312 224.328125 135.28125 223.734375 134.730469 L 222.945312 133.976562 L 220.378906 131.53125 C 219.785156 130.976562 219.550781 130.1875 219.707031 129.398438 L 219.90625 128.492188 C 220.261719 126.714844 222.472656 126.042969 223.773438 127.265625 L 224.246094 127.738281 L 225.394531 128.804688 L 225.628906 129.042969 C 225.789062 129.199219 225.867188 129.398438 225.867188 129.554688 L 227.167969 123.121094 L 227.167969 123.042969 C 228.550781 117.75 226.773438 112.144531 222.785156 108.355469 Z M 184.054688 110.882812 L 184.410156 109.183594 C 184.648438 108.078125 185.710938 107.25 186.816406 107.328125 L 199.214844 108.195312 C 202.53125 108.433594 205.613281 109.816406 208.019531 112.066406 L 215.007812 118.738281 C 215.601562 119.289062 215.839844 120.082031 215.679688 120.871094 L 215.484375 121.777344 C 215.128906 123.554688 212.917969 124.226562 211.613281 123.003906 L 206.71875 118.304688 C 204.347656 116.015625 201.230469 114.632812 197.914062 114.433594 L 186.148438 113.605469 C 184.726562 113.527344 183.777344 112.300781 184.054688 110.882812 Z M 167.078125 181.515625 L 165.0625 181.359375 C 163.167969 181.238281 161.351562 180.449219 159.96875 179.105469 L 151.996094 171.488281 C 150.847656 170.382812 150.335938 168.800781 150.691406 167.261719 L 151.519531 163.195312 C 151.835938 161.734375 153.140625 160.707031 154.640625 160.828125 L 156.851562 160.984375 C 157.957031 161.0625 158.746094 162.089844 158.507812 163.195312 L 157.640625 167.421875 C 157.324219 168.960938 157.835938 170.578125 158.941406 171.644531 L 167.707031 180.054688 C 168.300781 180.566406 167.867188 181.554688 167.078125 181.515625 Z M 179.355469 182.34375 L 177.34375 182.1875 C 175.445312 182.070312 173.632812 181.277344 172.25 179.9375 L 164.273438 172.316406 C 163.128906 171.210938 162.613281 169.632812 162.96875 168.089844 L 163.800781 164.023438 C 164.117188 162.5625 165.417969 161.539062 166.917969 161.65625 L 169.128906 161.8125 C 170.234375 161.894531 171.023438 162.917969 170.789062 164.023438 L 169.917969 168.25 C 169.605469 169.789062 170.117188 171.40625 171.222656 172.472656 L 179.988281 180.882812 C 180.621094 181.4375 180.183594 182.421875 179.355469 182.34375 Z M 191.949219 183.214844 L 189.9375 183.054688 C 188.042969 182.9375 186.226562 182.148438 184.84375 180.804688 L 176.867188 173.183594 C 175.722656 172.078125 175.210938 170.5 175.566406 168.960938 L 176.394531 164.894531 C 176.710938 163.433594 178.011719 162.40625 179.515625 162.523438 L 181.726562 162.683594 C 182.832031 162.761719 183.621094 163.789062 183.382812 164.894531 L 182.515625 169.117188 C 182.199219 170.65625 182.710938 172.277344 183.816406 173.34375 L 192.582031 181.753906 C 193.214844 182.304688 192.78125 183.253906 191.949219 183.214844 Z M 207.941406 158.535156 L 207.742188 159.445312 C 207.390625 161.222656 205.175781 161.894531 203.875 160.667969 L 198.980469 155.96875 C 196.609375 153.679688 193.492188 152.296875 190.175781 152.101562 L 178.410156 151.273438 C 176.949219 151.152344 176 149.929688 176.316406 148.507812 L 176.671875 146.808594 C 176.90625 145.703125 177.972656 144.875 179.078125 144.953125 L 191.476562 145.824219 C 194.792969 146.058594 197.875 147.441406 200.28125 149.691406 L 207.269531 156.363281 C 207.863281 156.957031 208.097656 157.746094 207.941406 158.535156 Z M 210.507812 145.980469 L 210.308594 146.890625 C 209.957031 148.664062 207.742188 149.335938 206.441406 148.113281 L 201.585938 143.414062 C 199.214844 141.125 196.097656 139.742188 192.78125 139.546875 L 181.015625 138.714844 C 179.554688 138.597656 178.605469 137.375 178.921875 135.953125 L 179.277344 134.253906 C 179.515625 133.148438 180.578125 132.320312 181.683594 132.398438 L 194.082031 133.269531 C 197.398438 133.503906 200.480469 134.886719 202.886719 137.136719 L 209.875 143.808594 C 210.429688 144.402344 210.664062 145.191406 210.507812 145.980469 Z M 209.046875 135.558594 L 204.152344 130.859375 C 201.78125 128.570312 198.664062 127.1875 195.347656 126.988281 L 183.582031 126.160156 C 182.121094 126.042969 181.171875 124.816406 181.488281 123.398438 L 181.84375 121.699219 C 182.082031 120.59375 183.144531 119.765625 184.25 119.84375 L 196.648438 120.710938 C 199.964844 120.949219 203.046875 122.332031 205.453125 124.582031 L 212.441406 131.253906 C 213.035156 131.808594 213.273438 132.597656 213.113281 133.386719 L 212.917969 134.292969 C 212.519531 136.148438 210.351562 136.820312 209.046875 135.558594 Z M 209.046875 135.558594 " fill-opacity="1" fill-rule="nonzero"/><path fill="#5b1bdb" d="M 216.546875 176.539062 L 216.945312 174.644531 C 217.101562 173.855469 216.863281 173.066406 216.273438 172.511719 L 215.484375 171.761719 L 216.035156 169.15625 L 217.96875 168.132812 C 218.246094 167.972656 218.40625 167.734375 218.40625 167.460938 L 219.511719 162.089844 C 219.667969 161.300781 219.429688 160.511719 218.839844 159.957031 L 218.050781 159.207031 L 218.601562 156.601562 L 220.535156 155.574219 C 220.8125 155.417969 220.972656 155.179688 220.972656 154.902344 L 222.078125 149.535156 C 222.234375 148.746094 221.996094 147.957031 221.40625 147.402344 L 220.617188 146.652344 L 221.167969 144.046875 L 223.101562 143.019531 C 223.378906 142.863281 223.539062 142.625 223.539062 142.347656 L 224.644531 136.980469 C 224.800781 136.1875 224.5625 135.398438 223.972656 134.847656 L 223.183594 134.097656 L 223.695312 131.570312 L 223.695312 131.492188 L 225.628906 130.464844 C 225.75 130.425781 225.828125 130.347656 225.90625 130.265625 L 226.023438 130.1875 L 227.445312 123.238281 L 227.445312 123.160156 C 228.511719 117.75 226.773438 112.144531 222.785156 108.316406 L 216.273438 101.878906 C 221.523438 106.972656 222.15625 115.066406 221.011719 121.699219 C 218.996094 133.269531 212.046875 161.695312 209.246094 173.066406 C 208.769531 175.039062 206.203125 175.59375 204.941406 174.015625 L 201.703125 169.988281 C 201.703125 169.988281 206.796875 180.882812 195.582031 184.792969 L 204.863281 185.425781 C 210.429688 185.820312 215.441406 182.027344 216.546875 176.539062 Z M 216.546875 176.539062 " fill-opacity="1" fill-rule="nonzero"/><path fill="#5b1bdb" d="M 177.105469 204.019531 L 192.070312 204.019531 L 192.070312 260.441406 L 177.105469 260.441406 Z M 177.105469 204.019531 " fill-opacity="1" fill-rule="nonzero"/><path fill="#ffffff" d="M 187.015625 258.46875 L 187.132812 258.429688 L 187.132812 205.71875 L 185.4375 205.71875 L 185.4375 256.21875 C 185.4375 256.730469 184.804688 256.929688 184.488281 256.53125 L 184.171875 256.136719 C 183.855469 255.703125 183.660156 255.152344 183.660156 254.597656 L 183.660156 205.71875 L 182.515625 205.71875 L 182.515625 254.558594 C 182.515625 254.675781 182.355469 254.757812 182.277344 254.636719 C 182 254.28125 181.882812 253.847656 181.882812 253.375 L 181.882812 205.71875 L 178.804688 205.71875 L 178.804688 256.21875 C 178.804688 256.96875 179.316406 257.679688 180.066406 257.875 L 182.160156 258.46875 C 182.75 258.625 183.382812 258.742188 184.015625 258.785156 C 184.410156 258.824219 184.804688 258.824219 185.199219 258.785156 C 185.792969 258.742188 186.421875 258.625 187.015625 258.46875 Z M 187.015625 258.46875 " fill-opacity="1" fill-rule="nonzero"/><path fill="#5b1bdb" d="M 148.28125 177.921875 L 149.308594 178.910156 C 150.136719 179.699219 151.007812 180.371094 151.953125 180.964844 C 152.230469 181.160156 152.546875 181.316406 152.863281 181.476562 C 153.179688 181.632812 153.496094 181.792969 153.808594 181.910156 C 154.125 182.070312 154.480469 182.1875 154.835938 182.304688 C 154.996094 182.382812 155.191406 182.421875 155.351562 182.464844 C 156.0625 182.699219 156.773438 182.859375 157.484375 182.976562 C 157.679688 183.015625 157.835938 183.015625 158.035156 183.054688 L 158.035156 184.832031 C 158.035156 193.125 164.746094 199.835938 173.039062 199.835938 L 195.308594 199.835938 C 196.847656 199.835938 198.347656 199.597656 199.769531 199.164062 C 200.003906 199.085938 200.242188 199.007812 200.480469 198.925781 C 206.203125 196.835938 210.308594 191.308594 210.308594 184.832031 L 210.308594 138.953125 C 210.308594 138.242188 210.625 137.570312 211.179688 137.136719 C 211.296875 137.058594 211.414062 136.941406 211.535156 136.898438 C 211.652344 136.820312 211.8125 136.78125 211.96875 136.742188 C 212.046875 136.703125 212.125 136.703125 212.207031 136.703125 C 212.363281 136.664062 212.519531 136.664062 212.679688 136.664062 L 214.023438 136.664062 C 214.179688 136.664062 214.378906 136.664062 214.535156 136.703125 L 214.535156 136.664062 L 218.207031 136.664062 C 219.273438 136.664062 220.179688 137.375 220.457031 138.320312 C 220.535156 138.558594 220.574219 138.796875 220.574219 139.03125 L 220.574219 141.480469 L 221.996094 141.480469 C 223.972656 141.480469 225.550781 143.574219 225.550781 146.140625 C 225.550781 148.707031 223.972656 150.796875 221.996094 150.796875 L 220.574219 150.796875 L 220.574219 184.910156 C 220.574219 188.898438 219.46875 192.648438 217.535156 195.808594 C 217.023438 196.675781 216.429688 197.507812 215.757812 198.296875 C 215.324219 198.808594 214.890625 199.324219 214.417969 199.796875 C 214.179688 200.03125 213.941406 200.269531 213.707031 200.507812 C 213.191406 200.941406 212.679688 201.375 212.167969 201.808594 C 211.335938 202.402344 210.507812 202.953125 209.601562 203.46875 C 208.414062 204.101562 207.152344 204.652344 205.847656 205.046875 C 205.53125 205.164062 205.175781 205.246094 204.863281 205.324219 C 203.519531 205.679688 202.136719 205.875 200.675781 205.957031 C 200.320312 205.957031 199.964844 205.996094 199.609375 205.996094 L 168.894531 205.996094 C 167.789062 205.996094 166.722656 205.917969 165.695312 205.757812 C 164.984375 205.640625 164.3125 205.519531 163.640625 205.324219 C 160.285156 204.457031 157.246094 202.796875 154.757812 200.507812 C 154.246094 200.074219 153.769531 199.558594 153.335938 199.085938 C 152.429688 198.097656 151.640625 196.992188 150.929688 195.847656 C 150.652344 195.414062 150.414062 194.980469 150.179688 194.503906 C 149.941406 194.03125 149.703125 193.597656 149.507812 193.125 C 148.441406 190.597656 147.847656 187.832031 147.847656 184.949219 L 147.847656 177.527344 Z M 148.28125 177.921875 " fill-opacity="1" fill-rule="nonzero"/><path fill="#ffffff" d="M 150.890625 182.660156 C 151.164062 182.820312 151.480469 183.015625 151.757812 183.175781 L 151.757812 184.871094 C 151.757812 194.230469 159.378906 201.890625 168.773438 201.890625 L 195.265625 201.890625 C 204.625 201.890625 212.285156 194.269531 212.285156 184.871094 L 212.285156 138.953125 C 212.285156 138.753906 212.441406 138.636719 212.601562 138.636719 L 213.941406 138.636719 C 213.980469 138.636719 213.980469 138.636719 214.023438 138.636719 C 214.140625 138.675781 214.296875 138.796875 214.296875 138.953125 L 214.296875 184.832031 C 214.296875 195.335938 205.769531 203.863281 195.265625 203.863281 L 168.773438 203.863281 C 158.273438 203.863281 149.742188 195.335938 149.742188 184.832031 L 149.742188 181.910156 C 150.136719 182.148438 150.492188 182.421875 150.890625 182.660156 Z M 150.890625 182.660156 " fill-opacity="1" fill-rule="nonzero"/><path fill="#ffffff" d="M 218.128906 142.46875 C 218.207031 142.46875 219.390625 142.46875 219.46875 142.507812 C 218.800781 143.453125 218.40625 144.757812 218.40625 146.097656 C 218.40625 147.441406 218.800781 148.746094 219.46875 149.691406 C 219.390625 149.691406 218.207031 149.730469 218.128906 149.730469 C 216.824219 149.730469 215.757812 148.074219 215.757812 146.097656 C 215.757812 144.125 216.863281 142.46875 218.128906 142.46875 Z M 218.128906 142.46875 " fill-opacity="1" fill-rule="nonzero"/><g fill="#ffffff" fill-opacity="1"><g transform="translate(102.137277, 202.021235)"><g><path d="M 0.0429688 0.21875 L 0.28125 1.433594 L 2.496094 1.855469 L 3.359375 6.261719 L 1.472656 7.515625 L 1.707031 8.714844 L 10.019531 3.226562 L 9.8125 2.167969 Z M 3.640625 2.089844 L 8.328125 3.007812 L 4.335938 5.625 Z M 3.640625 2.089844 "/></g></g></g><g fill="#ffffff" fill-opacity="1"><g transform="translate(105.26884, 215.90107)"><g><path d="M 0.480469 1.253906 L 1.621094 4.226562 C 2.632812 6.867188 5.066406 7.964844 7.609375 6.988281 C 10.152344 6.015625 11.234375 3.574219 10.21875 0.929688 L 9.082031 -2.042969 Z M 1.925781 1.9375 L 8.464844 -0.566406 L 9.167969 1.277344 C 9.9375 3.28125 9.140625 5.136719 7.1875 5.882812 C 5.234375 6.632812 3.40625 5.796875 2.652344 3.832031 Z M 1.925781 1.9375 "/></g></g></g><g fill="#ffffff" fill-opacity="1"><g transform="translate(111.143328, 229.821198)"><g><path d="M 0.679688 1.15625 L 3.585938 6.105469 L 4.515625 5.558594 L 2.195312 1.609375 L 4.851562 0.0507812 L 6.929688 3.589844 L 7.851562 3.050781 L 5.769531 -0.492188 L 8.277344 -1.964844 L 10.523438 1.859375 L 11.453125 1.3125 L 8.621094 -3.507812 Z M 0.679688 1.15625 "/></g></g></g><g fill="#ffffff" fill-opacity="1"><g transform="translate(118.058128, 240.810252)"><g><path d="M 0.84375 1.042969 L 4.386719 5.421875 L 5.246094 4.726562 L 2.433594 1.25 L 8.734375 -3.851562 L 8.003906 -4.75 Z M 0.84375 1.042969 "/></g></g></g><g fill="#ffffff" fill-opacity="1"><g transform="translate(126.149778, 250.139363)"><g><path d="M 0.96875 0.929688 L 1.800781 1.734375 L 8.1875 -4.902344 L 7.351562 -5.707031 Z M 0.96875 0.929688 "/></g></g></g><g fill="#ffffff" fill-opacity="1"><g transform="translate(132.639197, 256.195327)"><g><path d="M 1.085938 0.785156 L 2.015625 1.457031 L 6.238281 -4.386719 L 6.144531 4.441406 L 7.015625 5.070312 L 12.414062 -2.394531 L 11.496094 -3.054688 L 7.273438 2.789062 L 7.367188 -6.039062 L 6.484375 -6.679688 Z M 1.085938 0.785156 "/></g></g></g><g fill="#ffffff" fill-opacity="1"><g transform="translate(145.161831, 264.622944)"><g><path d="M 1.203125 0.597656 L 6.339844 3.148438 L 6.820312 2.179688 L 2.71875 0.144531 L 4.089844 -2.613281 L 7.765625 -0.789062 L 8.238281 -1.742188 L 4.5625 -3.566406 L 5.855469 -6.171875 L 9.828125 -4.199219 L 10.304688 -5.167969 L 5.296875 -7.652344 Z M 1.203125 0.597656 "/></g></g></g><g fill="#ffffff" fill-opacity="1"><g transform="translate(156.912665, 269.950244)"><g/></g></g><g fill="#ffffff" fill-opacity="1"><g transform="translate(164.751761, 272.529001)"><g><path d="M 1.3125 0.277344 L 2.445312 0.519531 L 3.074219 -2.441406 L 4.992188 -2.03125 C 7.027344 -1.601562 8.585938 -2.492188 8.980469 -4.34375 C 9.375 -6.1875 8.3125 -7.648438 6.277344 -8.082031 L 3.226562 -8.730469 Z M 3.300781 -3.496094 L 4.132812 -7.410156 L 6.023438 -7.007812 C 7.476562 -6.695312 8.09375 -5.867188 7.820312 -4.578125 C 7.546875 -3.292969 6.644531 -2.785156 5.191406 -3.09375 Z M 3.300781 -3.496094 "/></g></g></g><g fill="#ffffff" fill-opacity="1"><g transform="translate(178.064817, 275.020673)"><g><path d="M 5.515625 0.363281 C 8.316406 0.460938 10.359375 -1.441406 10.457031 -4.242188 C 10.554688 -7.042969 8.652344 -9.085938 5.851562 -9.183594 C 3.050781 -9.28125 1.023438 -7.375 0.925781 -4.574219 C 0.824219 -1.773438 2.714844 0.265625 5.515625 0.363281 Z M 2.109375 -4.535156 C 2.183594 -6.675781 3.695312 -8.097656 5.8125 -8.023438 C 7.929688 -7.949219 9.335938 -6.425781 9.261719 -4.285156 C 9.1875 -2.140625 7.675781 -0.71875 5.558594 -0.792969 C 3.441406 -0.867188 2.03125 -2.390625 2.109375 -4.535156 Z M 2.109375 -4.535156 "/></g></g></g><g fill="#ffffff" fill-opacity="1"><g transform="translate(194.274026, 275.065891)"><g><path d="M 1.328125 -0.199219 L 4.476562 -0.671875 C 7.273438 -1.09375 8.867188 -3.234375 8.464844 -5.929688 C 8.058594 -8.621094 5.90625 -10.203125 3.109375 -9.78125 L -0.0429688 -9.308594 Z M 2.308594 -1.464844 L 1.269531 -8.386719 L 3.21875 -8.679688 C 5.339844 -9 6.980469 -7.820312 7.292969 -5.753906 C 7.601562 -3.683594 6.394531 -2.078125 4.3125 -1.765625 Z M 2.308594 -1.464844 "/></g></g></g><g fill="#ffffff" fill-opacity="1"><g transform="translate(209.203688, 272.381413)"><g><path d="M 5.183594 -1.601562 C 7.296875 -2.328125 8.574219 -4.203125 8.425781 -6.324219 L 7.269531 -5.925781 C 7.273438 -4.464844 6.324219 -3.21875 4.84375 -2.710938 C 2.902344 -2.042969 1.035156 -2.972656 0.34375 -4.988281 C -0.351562 -7.003906 0.546875 -8.886719 2.488281 -9.554688 C 3.929688 -10.050781 5.378906 -9.683594 6.257812 -8.582031 L 7.429688 -8.984375 C 6.195312 -10.703125 4.125 -11.339844 2.074219 -10.636719 C -0.488281 -9.753906 -1.679688 -7.226562 -0.777344 -4.601562 C 0.125 -1.976562 2.617188 -0.71875 5.183594 -1.601562 Z M 5.183594 -1.601562 "/></g></g></g><g fill="#ffffff" fill-opacity="1"><g transform="translate(224.029211, 266.723961)"><g><path d="M 0.195312 -0.109375 L 1.277344 -0.710938 L 0.992188 -2.949219 L 4.914062 -5.132812 L 6.691406 -3.726562 L 7.757812 -4.320312 L -0.03125 -10.523438 L -0.976562 -10 Z M 0.859375 -4.109375 L 0.285156 -8.847656 L 4.007812 -5.863281 Z M 0.859375 -4.109375 "/></g></g></g><g fill="#ffffff" fill-opacity="1"><g transform="translate(236.211589, 259.433203)"><g><path d="M 3.558594 -2.609375 C 5.132812 -3.859375 5.539062 -5.445312 4.542969 -6.699219 C 3.699219 -7.761719 2.480469 -7.835938 0.277344 -6.824219 C -1.394531 -6.050781 -2.152344 -6.054688 -2.628906 -6.652344 C -3.175781 -7.339844 -2.902344 -8.265625 -1.871094 -9.082031 C -0.8125 -9.925781 0.273438 -9.914062 0.980469 -9.066406 L 1.878906 -9.777344 C 0.753906 -11.171875 -0.941406 -11.234375 -2.558594 -9.949219 C -4.136719 -8.695312 -4.523438 -7.128906 -3.554688 -5.914062 C -2.671875 -4.800781 -1.386719 -4.8125 0.71875 -5.796875 C 2.265625 -6.519531 3.097656 -6.59375 3.628906 -5.925781 C 4.191406 -5.214844 3.890625 -4.285156 2.871094 -3.472656 C 1.746094 -2.582031 0.523438 -2.515625 -0.234375 -3.425781 L -1.140625 -2.707031 C -0.0117188 -1.304688 1.835938 -1.242188 3.558594 -2.609375 Z M 3.558594 -2.609375 "/></g></g></g><g fill="#ffffff" fill-opacity="1"><g transform="translate(246.592916, 250.663402)"><g><path d="M 2.40625 -2.628906 L 3.1875 -3.484375 L -2.789062 -8.957031 L -0.695312 -11.246094 L -1.507812 -11.992188 L -6.492188 -6.546875 L -5.675781 -5.800781 L -3.570312 -8.101562 Z M 2.40625 -2.628906 "/></g></g></g><g fill="#ffffff" fill-opacity="1"><g transform="translate(255.19239, 240.565851)"><g/></g></g><g fill="#ffffff" fill-opacity="1"><g transform="translate(259.842766, 233.73313)"><g><path d="M 0.625 -1.1875 L 1.164062 -2.210938 L -1.757812 -3.75 L -0.816406 -5.542969 L 3.15625 -5.996094 L 3.804688 -7.230469 L -0.300781 -6.773438 C 0.03125 -8.117188 -0.476562 -9.320312 -1.792969 -10.011719 C -3.410156 -10.867188 -5 -10.273438 -5.890625 -8.585938 L -7.527344 -5.476562 Z M -2.738281 -4.265625 L -6.007812 -5.988281 L -4.972656 -7.953125 C -4.347656 -9.140625 -3.382812 -9.511719 -2.34375 -8.964844 C -1.308594 -8.421875 -1.074219 -7.421875 -1.699219 -6.234375 Z M -2.738281 -4.265625 "/></g></g></g><g fill="#ffffff" fill-opacity="1"><g transform="translate(266.088483, 221.086551)"><g><path d="M 1.832031 -5.21875 C 2.675781 -7.890625 1.390625 -10.367188 -1.28125 -11.210938 C -3.953125 -12.058594 -6.429688 -10.773438 -7.277344 -8.101562 C -8.121094 -5.429688 -6.832031 -2.964844 -4.160156 -2.117188 C -1.488281 -1.273438 0.984375 -2.546875 1.832031 -5.21875 Z M -3.804688 -3.246094 C -5.847656 -3.894531 -6.8125 -5.730469 -6.171875 -7.75 C -5.53125 -9.769531 -3.6875 -10.71875 -1.640625 -10.070312 C 0.402344 -9.421875 1.367188 -7.585938 0.726562 -5.566406 C 0.0859375 -3.546875 -1.757812 -2.597656 -3.804688 -3.246094 Z M -3.804688 -3.246094 "/></g></g></g><g fill="#ffffff" fill-opacity="1"><g transform="translate(270.515169, 205.468796)"><g><path d="M 0.808594 -5.46875 C 1.132812 -8.253906 -0.597656 -10.441406 -3.382812 -10.765625 C -6.164062 -11.089844 -8.355469 -9.359375 -8.679688 -6.574219 C -9.003906 -3.792969 -7.269531 -1.617188 -4.484375 -1.292969 C -1.703125 -0.96875 0.484375 -2.6875 0.808594 -5.46875 Z M -4.347656 -2.46875 C -6.480469 -2.714844 -7.773438 -4.335938 -7.527344 -6.441406 C -7.28125 -8.546875 -5.648438 -9.824219 -3.519531 -9.578125 C -1.390625 -9.328125 -0.09375 -7.707031 -0.339844 -5.601562 C -0.585938 -3.5 -2.21875 -2.21875 -4.347656 -2.46875 Z M -4.347656 -2.46875 "/></g></g></g><g fill="#ffffff" fill-opacity="1"><g transform="translate(271.939294, 189.275743)"><g><path d="M -0.109375 -1.335938 L -0.199219 -2.492188 L -7.230469 -1.925781 L -2.886719 -5.339844 L -2.960938 -6.28125 L -7.785156 -8.957031 L -0.769531 -9.523438 L -0.863281 -10.675781 L -10.042969 -9.933594 L -9.957031 -8.859375 L -4.222656 -5.71875 L -9.375 -1.671875 L -9.289062 -0.597656 Z M -0.109375 -1.335938 "/></g></g></g></svg>