<svg xmlns="http://www.w3.org/2000/svg" xmlns:xlink="http://www.w3.org/1999/xlink" width="500" zoomAndPan="magnify" viewBox="0 0 375 374.999991" height="500" preserveAspectRatio="xMidYMid meet" version="1.0"><defs><g/><clipPath id="fbc63715f1"><path d="M 165 124 L 216 124 L 216 244.542969 L 165 244.542969 Z M 165 124 " clip-rule="nonzero"/></clipPath><clipPath id="42cbd56589"><path d="M 125.652344 94.542969 L 255.402344 94.542969 L 255.402344 218 L 125.652344 218 Z M 125.652344 94.542969 " clip-rule="nonzero"/></clipPath></defs><path fill="#ffffff" d="M 190.53125 196.160156 C 187.566406 196.160156 185.152344 198.574219 185.152344 201.542969 C 185.152344 204.507812 187.566406 206.921875 190.53125 206.921875 C 193.5 206.921875 195.914062 204.507812 195.914062 201.542969 C 195.914062 198.574219 193.5 196.160156 190.53125 196.160156 Z M 190.53125 204.542969 C 188.878906 204.542969 187.53125 203.195312 187.53125 201.542969 C 187.53125 199.886719 188.878906 198.542969 190.53125 198.542969 C 192.1875 198.542969 193.53125 199.886719 193.53125 201.542969 C 193.53125 203.195312 192.1875 204.542969 190.53125 204.542969 Z M 190.53125 204.542969 " fill-opacity="1" fill-rule="nonzero"/><path fill="#ffffff" d="M 190.53125 189.804688 C 193.066406 189.804688 195.128906 187.738281 195.128906 185.195312 C 195.128906 182.664062 193.066406 180.601562 190.53125 180.601562 C 187.996094 180.601562 185.9375 182.660156 185.9375 185.195312 C 185.9375 187.738281 188 189.804688 190.53125 189.804688 Z M 190.53125 182.980469 C 191.753906 182.980469 192.746094 183.976562 192.746094 185.195312 C 192.746094 186.421875 191.753906 187.421875 190.53125 187.421875 C 189.308594 187.421875 188.316406 186.421875 188.316406 185.195312 C 188.316406 183.976562 189.3125 182.980469 190.53125 182.980469 Z M 190.53125 182.980469 " fill-opacity="1" fill-rule="nonzero"/><path fill="#ffffff" d="M 190.53125 192.078125 C 185.3125 192.078125 181.066406 196.324219 181.066406 201.542969 C 181.066406 206.761719 185.3125 211.007812 190.53125 211.007812 C 195.75 211.007812 199.996094 206.761719 199.996094 201.542969 C 199.996094 196.324219 195.75 192.078125 190.53125 192.078125 Z M 190.53125 208.625 C 186.625 208.625 183.449219 205.449219 183.449219 201.542969 C 183.449219 197.636719 186.625 194.457031 190.53125 194.457031 C 194.4375 194.457031 197.613281 197.636719 197.613281 201.542969 C 197.613281 205.449219 194.4375 208.625 190.53125 208.625 Z M 190.53125 208.625 " fill-opacity="1" fill-rule="nonzero"/><g clip-path="url(#fbc63715f1)"><path fill="#ffffff" d="M 213.925781 173.851562 L 212.664062 173.851562 L 212.664062 137.910156 C 212.664062 130.285156 206.460938 124.078125 198.839844 124.078125 L 182.222656 124.078125 C 174.601562 124.078125 168.402344 130.285156 168.402344 137.910156 L 168.402344 173.851562 L 167.140625 173.851562 C 166.480469 173.851562 165.949219 174.382812 165.949219 175.042969 L 165.949219 205.03125 C 165.949219 211.273438 171.027344 216.351562 177.269531 216.351562 L 177.613281 216.351562 C 180.207031 216.351562 182.316406 218.464844 182.316406 221.066406 L 182.316406 230.207031 C 182.316406 231.519531 181.25 232.589844 179.9375 232.589844 L 177.113281 232.589844 C 172.816406 232.589844 169.316406 236.085938 169.316406 240.386719 L 169.316406 243.351562 C 169.316406 244.007812 169.851562 244.542969 170.507812 244.542969 L 210.554688 244.542969 C 211.210938 244.542969 211.746094 244.007812 211.746094 243.351562 L 211.746094 240.386719 C 211.746094 236.085938 208.25 232.589844 203.949219 232.589844 L 201.128906 232.589844 C 199.8125 232.589844 198.746094 231.519531 198.746094 230.207031 L 198.746094 221.398438 C 198.746094 218.617188 201.003906 216.351562 203.792969 216.351562 C 210.035156 216.351562 215.113281 211.273438 215.113281 205.03125 L 215.113281 175.042969 C 215.113281 174.382812 214.582031 173.851562 213.925781 173.851562 Z M 170.78125 137.910156 C 170.78125 131.59375 175.914062 126.457031 182.222656 126.457031 L 198.839844 126.457031 C 205.148438 126.457031 210.28125 131.59375 210.28125 137.910156 L 210.28125 173.851562 L 208.03125 173.851562 L 208.03125 137.386719 C 208.03125 132.390625 203.96875 128.328125 198.972656 128.328125 L 182.089844 128.328125 C 177.097656 128.328125 173.03125 132.390625 173.03125 137.386719 L 173.03125 173.851562 L 170.78125 173.851562 Z M 196.363281 225.316406 L 184.699219 225.316406 L 184.699219 223.636719 L 196.363281 223.636719 Z M 201.128906 234.96875 L 203.949219 234.96875 C 206.933594 234.96875 209.363281 237.398438 209.363281 240.386719 L 209.363281 242.160156 L 171.699219 242.160156 L 171.699219 240.386719 C 171.699219 237.398438 174.128906 234.96875 177.113281 234.96875 L 179.9375 234.96875 C 182.5625 234.96875 184.699219 232.835938 184.699219 230.207031 L 184.699219 227.695312 L 196.363281 227.695312 L 196.363281 230.207031 C 196.363281 232.835938 198.5 234.96875 201.128906 234.96875 Z M 212.734375 205.03125 C 212.734375 209.960938 208.722656 213.96875 203.78125 213.96875 C 199.738281 213.96875 196.449219 217.226562 196.371094 221.257812 L 184.699219 221.257812 L 184.699219 221.066406 C 184.699219 217.152344 181.519531 213.96875 177.613281 213.96875 L 177.269531 213.96875 C 172.339844 213.96875 168.328125 209.960938 168.328125 205.03125 L 168.328125 176.230469 L 212.734375 176.230469 Z M 212.734375 205.03125 " fill-opacity="1" fill-rule="nonzero"/></g><g clip-path="url(#42cbd56589)"><path fill="#ffffff" d="M 190.53125 94.542969 C 154.769531 94.542969 125.675781 123.636719 125.675781 159.398438 C 125.675781 183.699219 139.085938 205.769531 160.671875 216.992188 C 161.042969 217.183594 161.484375 217.167969 161.839844 216.953125 C 162.195312 216.734375 162.410156 216.351562 162.410156 215.933594 L 162.410156 206.386719 C 162.410156 205.976562 162.199219 205.59375 161.851562 205.378906 C 145.886719 195.386719 136.351562 178.199219 136.351562 159.398438 C 136.351562 129.523438 160.65625 105.21875 190.53125 105.21875 C 220.40625 105.21875 244.710938 129.523438 244.710938 159.398438 C 244.710938 178.199219 235.179688 195.386719 219.210938 205.378906 C 218.863281 205.597656 218.652344 205.976562 218.652344 206.386719 L 218.652344 215.9375 C 218.652344 216.351562 218.867188 216.738281 219.222656 216.953125 C 219.414062 217.066406 219.628906 217.125 219.839844 217.125 C 220.03125 217.125 220.21875 217.082031 220.390625 216.992188 C 241.976562 205.769531 255.386719 183.699219 255.386719 159.398438 C 255.390625 123.636719 226.292969 94.542969 190.53125 94.542969 Z M 190.53125 94.542969 " fill-opacity="1" fill-rule="nonzero"/></g><path fill="#ffffff" d="M 218.957031 181.730469 C 218.761719 181.949219 218.652344 182.234375 218.652344 182.53125 L 218.652344 191.980469 C 218.652344 192.441406 218.917969 192.859375 219.332031 193.058594 C 219.492188 193.132812 219.667969 193.171875 219.839844 193.171875 C 220.109375 193.171875 220.378906 193.082031 220.59375 192.902344 C 231.691406 183.839844 238.054688 170.425781 238.054688 156.101562 C 238.054688 129.894531 216.738281 108.578125 190.53125 108.578125 C 164.328125 108.578125 143.007812 129.894531 143.007812 156.101562 C 143.007812 170.425781 149.371094 183.839844 160.46875 192.90625 C 160.824219 193.195312 161.316406 193.257812 161.730469 193.058594 C 162.148438 192.859375 162.410156 192.441406 162.410156 191.984375 L 162.410156 182.53125 C 162.410156 182.234375 162.300781 181.953125 162.105469 181.734375 C 155.753906 174.699219 152.257812 165.597656 152.257812 156.101562 C 152.257812 134.992188 169.425781 117.816406 190.53125 117.816406 C 211.636719 117.816406 228.804688 134.992188 228.804688 156.101562 C 228.804688 165.597656 225.308594 174.699219 218.957031 181.730469 Z M 218.957031 181.730469 " fill-opacity="1" fill-rule="nonzero"/><g fill="#ffffff" fill-opacity="1"><g transform="translate(129.427636, 286.444112)"><g><path d="M 1.839844 -33.792969 L 6.804688 -33.792969 C 8.964844 -33.792969 11.125 -33.238281 12.78125 -31.675781 C 14.4375 -30.113281 15.539062 -27.539062 15.539062 -23.675781 C 15.539062 -19.816406 14.4375 -17.285156 12.78125 -15.722656 C 11.125 -14.160156 8.964844 -13.515625 6.804688 -13.515625 L 6.804688 0 L 1.839844 0 Z M 6.804688 -18.574219 C 8.320312 -18.574219 9.285156 -18.851562 9.839844 -19.632812 C 10.390625 -20.367188 10.527344 -21.609375 10.527344 -23.492188 C 10.527344 -25.378906 10.390625 -26.710938 9.839844 -27.539062 C 9.285156 -28.367188 8.320312 -28.734375 6.804688 -28.734375 Z M 6.804688 -18.574219 "/></g></g></g><g fill="#ffffff" fill-opacity="1"><g transform="translate(145.610027, 286.444112)"><g><path d="M 13.332031 -6.113281 C 13.195312 -3.679688 12.460938 -1.976562 10.851562 -0.644531 C 10.023438 0.046875 8.875 0.367188 7.355469 0.367188 C 4.367188 0.367188 2.894531 -1.289062 2.160156 -2.941406 C 1.746094 -3.90625 1.472656 -5.011719 1.425781 -6.253906 L 1.425781 -18.894531 C 1.5625 -21.332031 2.296875 -23.125 3.90625 -24.503906 C 4.6875 -25.195312 5.839844 -25.515625 7.355469 -25.515625 C 10.34375 -25.515625 11.863281 -23.859375 12.597656 -22.25 C 13.011719 -21.285156 13.285156 -20.230469 13.332031 -19.035156 Z M 8.964844 -18.894531 C 9.011719 -19.859375 8.828125 -20.550781 8.367188 -21.101562 C 8.136719 -21.332031 7.769531 -21.46875 7.355469 -21.46875 C 6.484375 -21.46875 6.113281 -20.871094 5.929688 -20.183594 C 5.792969 -19.816406 5.746094 -19.402344 5.792969 -18.894531 L 5.792969 -6.253906 C 5.746094 -5.289062 5.976562 -4.597656 6.390625 -4.089844 C 6.621094 -3.863281 6.941406 -3.722656 7.355469 -3.722656 C 8.230469 -3.722656 8.644531 -4.277344 8.828125 -4.964844 C 8.964844 -5.332031 9.011719 -5.746094 8.964844 -6.253906 Z M 8.964844 -18.894531 "/></g></g></g><g fill="#ffffff" fill-opacity="1"><g transform="translate(160.367262, 286.444112)"><g><path d="M 13.5625 0 L 8.917969 0 L 8.917969 -1.65625 C 8.136719 -0.917969 7.449219 -0.367188 6.574219 0.046875 C 6.113281 0.277344 5.65625 0.367188 5.242188 0.367188 C 3.953125 0.367188 3.082031 -0.367188 2.527344 -1.332031 C 1.929688 -2.253906 1.65625 -3.492188 1.65625 -4.550781 L 1.65625 -20.597656 C 1.65625 -21.652344 1.929688 -22.894531 2.527344 -23.859375 C 3.082031 -24.78125 3.953125 -25.515625 5.242188 -25.515625 C 6.113281 -25.515625 7.035156 -25.011719 7.722656 -24.503906 C 8.136719 -24.183594 8.503906 -23.859375 8.917969 -23.492188 L 8.917969 -33.792969 L 13.5625 -33.792969 Z M 8.917969 -19.632812 C 8.917969 -20.367188 8.230469 -21.148438 7.539062 -21.148438 C 6.851562 -21.148438 6.296875 -20.503906 6.296875 -19.632812 L 6.296875 -5.515625 C 6.296875 -4.644531 6.851562 -4 7.539062 -4 C 8.230469 -4 8.917969 -4.644531 8.917969 -5.515625 Z M 8.917969 -19.632812 "/></g></g></g><g fill="#ffffff" fill-opacity="1"><g transform="translate(175.768114, 286.444112)"><g><path d="M 1.839844 -25.148438 L 6.484375 -25.148438 L 6.484375 -23.492188 C 7.265625 -24.230469 7.953125 -24.78125 8.875 -25.195312 C 9.285156 -25.425781 9.746094 -25.515625 10.160156 -25.515625 C 11.449219 -25.515625 12.320312 -24.78125 12.917969 -23.859375 C 13.46875 -22.894531 13.746094 -21.652344 13.746094 -20.597656 L 13.746094 -4.550781 C 13.746094 -3.492188 13.46875 -2.253906 12.917969 -1.332031 C 12.320312 -0.367188 11.449219 0.367188 10.160156 0.367188 C 9.285156 0.367188 8.367188 -0.136719 7.679688 -0.644531 C 7.265625 -0.964844 6.894531 -1.289062 6.484375 -1.65625 L 6.484375 8.644531 L 1.839844 8.644531 Z M 6.484375 -5.515625 C 6.484375 -4.78125 7.171875 -4 7.863281 -4 C 8.550781 -4 9.101562 -4.644531 9.101562 -5.515625 L 9.101562 -19.632812 C 9.101562 -20.503906 8.550781 -21.148438 7.863281 -21.148438 C 7.171875 -21.148438 6.484375 -20.503906 6.484375 -19.632812 Z M 6.484375 -5.515625 "/></g></g></g><g fill="#ffffff" fill-opacity="1"><g transform="translate(191.168965, 286.444112)"><g><path d="M 13.332031 -6.113281 C 13.195312 -3.679688 12.460938 -1.976562 10.851562 -0.644531 C 10.023438 0.046875 8.875 0.367188 7.355469 0.367188 C 4.367188 0.367188 2.894531 -1.289062 2.160156 -2.941406 C 1.746094 -3.90625 1.472656 -5.011719 1.425781 -6.253906 L 1.425781 -18.894531 C 1.5625 -21.332031 2.296875 -23.125 3.90625 -24.503906 C 4.6875 -25.195312 5.839844 -25.515625 7.355469 -25.515625 C 10.34375 -25.515625 11.863281 -23.859375 12.597656 -22.25 C 13.011719 -21.285156 13.285156 -20.230469 13.332031 -19.035156 Z M 8.964844 -18.894531 C 9.011719 -19.859375 8.828125 -20.550781 8.367188 -21.101562 C 8.136719 -21.332031 7.769531 -21.46875 7.355469 -21.46875 C 6.484375 -21.46875 6.113281 -20.871094 5.929688 -20.183594 C 5.792969 -19.816406 5.746094 -19.402344 5.792969 -18.894531 L 5.792969 -6.253906 C 5.746094 -5.289062 5.976562 -4.597656 6.390625 -4.089844 C 6.621094 -3.863281 6.941406 -3.722656 7.355469 -3.722656 C 8.230469 -3.722656 8.644531 -4.277344 8.828125 -4.964844 C 8.964844 -5.332031 9.011719 -5.746094 8.964844 -6.253906 Z M 8.964844 -18.894531 "/></g></g></g><g fill="#ffffff" fill-opacity="1"><g transform="translate(205.926201, 286.444112)"><g><path d="M 11.125 -20.367188 C 10.710938 -20.503906 10.253906 -20.550781 9.839844 -20.550781 C 9.101562 -20.550781 8.230469 -20.457031 7.492188 -19.769531 C 6.621094 -19.035156 6.484375 -18.253906 6.484375 -17.46875 L 6.484375 0 L 1.839844 0 L 1.839844 -25.148438 L 6.484375 -25.148438 L 6.484375 -22.34375 C 6.527344 -22.664062 6.851562 -23.445312 7.585938 -24.183594 C 8.320312 -24.871094 9.425781 -25.515625 11.125 -25.515625 Z M 11.125 -20.367188 "/></g></g></g><g fill="#ffffff" fill-opacity="1"><g transform="translate(217.23548, 286.444112)"><g><path d="M 7.449219 -31.355469 L 7.449219 -25.148438 L 10.621094 -25.148438 L 10.621094 -20.964844 L 7.449219 -20.964844 L 7.449219 -8.460938 C 7.449219 -7.679688 7.449219 -6.667969 7.632812 -5.839844 C 7.816406 -5.011719 8.183594 -4.320312 8.917969 -4.320312 C 9.285156 -4.320312 9.746094 -4.367188 10.070312 -4.414062 C 10.253906 -4.460938 10.4375 -4.460938 10.621094 -4.503906 L 10.621094 0.046875 C 10.390625 0.09375 10.160156 0.183594 9.929688 0.230469 C 9.472656 0.320312 8.875 0.367188 8.136719 0.367188 C 5.425781 0.367188 4.136719 -1.011719 3.492188 -2.757812 C 2.851562 -4.503906 2.804688 -6.621094 2.804688 -8.089844 L 2.804688 -20.964844 L 0.460938 -20.964844 L 0.460938 -25.148438 L 2.804688 -25.148438 L 2.804688 -31.355469 Z M 7.449219 -31.355469 "/></g></g></g><g fill="#ffffff" fill-opacity="1"><g transform="translate(228.498789, 286.444112)"><g><path d="M 8.875 -19.171875 C 8.875 -19.585938 8.875 -20.230469 8.734375 -20.6875 C 8.550781 -21.148438 8.183594 -21.46875 7.585938 -21.46875 C 6.804688 -21.46875 6.484375 -20.871094 6.34375 -20.136719 C 6.296875 -19.769531 6.253906 -19.355469 6.253906 -18.941406 C 6.253906 -18.527344 6.253906 -18.113281 6.253906 -17.746094 L 1.609375 -17.746094 L 1.609375 -18.804688 C 1.609375 -20.644531 2.296875 -22.296875 3.402344 -23.539062 C 4.503906 -24.78125 6.070312 -25.515625 7.863281 -25.515625 C 9.378906 -25.515625 10.757812 -24.917969 11.816406 -23.90625 C 12.871094 -22.894531 13.515625 -21.46875 13.515625 -19.816406 L 13.515625 -4.367188 C 13.515625 -2.113281 13.65625 -1.101562 13.839844 0 L 9.285156 0 C 8.875 -0.503906 8.875 -1.699219 8.875 -2.023438 L 8.550781 -2.023438 C 8.320312 -1.609375 7.90625 -1.011719 7.265625 -0.503906 C 6.621094 0 5.746094 0.367188 4.828125 0.367188 C 4.230469 0.367188 3.265625 0.136719 2.527344 -0.78125 C 1.746094 -1.65625 1.101562 -3.21875 1.101562 -5.839844 C 1.101562 -8.644531 1.929688 -10.667969 3.035156 -12.046875 C 4.136719 -13.425781 5.515625 -14.296875 6.667969 -14.894531 C 7.816406 -15.492188 8.6875 -15.90625 8.875 -16.414062 Z M 8.875 -12.136719 C 6.621094 -11.171875 5.65625 -8.917969 5.65625 -6.527344 C 5.65625 -6.207031 5.699219 -5.65625 5.886719 -5.148438 C 6.070312 -4.597656 6.390625 -4.183594 6.941406 -4.183594 C 8 -4.183594 8.875 -4.828125 8.875 -5.699219 Z M 8.875 -12.136719 "/></g></g></g><g fill="#ffffff" fill-opacity="1"><g transform="translate(243.347966, 286.444112)"><g><path d="M 1.839844 -33.792969 L 6.484375 -33.792969 L 6.484375 0 L 1.839844 0 Z M 1.839844 -33.792969 "/></g></g></g></svg>